<?xml version="1.0" encoding="UTF-8" standalone="no"?>
<!DOCTYPE svg PUBLIC "-//W3C//DTD SVG 1.1//EN"
 "http://www.w3.org/Graphics/SVG/1.1/DTD/svg11.dtd">
<!-- Generated by graphviz version 7.0.5 (20221223.1930)
 -->
<!-- Title: src/API_Process_Type.h Pages: 1 -->
<svg width="774pt" height="203pt"
 viewBox="0.00 0.00 774.00 203.00" xmlns="http://www.w3.org/2000/svg" xmlns:xlink="http://www.w3.org/1999/xlink">
<g id="graph0" class="graph" transform="scale(1 1) rotate(0) translate(4 199)">
<title>src/API_Process_Type.h</title>
<!-- Node1 -->
<g id="node1" class="node">
<title>Node1</title>
<g id="a_node1"><a xlink:title=" ">
<polygon fill="#999999" stroke="#666666" points="413,-195 288,-195 288,-176 413,-176 413,-195"/>
<text text-anchor="middle" x="350.5" y="-183" font-family="Helvetica,sans-Serif" font-size="10.00">src/API_Process_Type.h</text>
</a>
</g>
</g>
<!-- Node2 -->
<g id="node2" class="node">
<title>Node2</title>
<g id="a_node2"><a xlink:href="IAPI__Implementation_8h.html" target="_top" xlink:title=" ">
<polygon fill="white" stroke="#666666" points="416.5,-140 284.5,-140 284.5,-121 416.5,-121 416.5,-140"/>
<text text-anchor="middle" x="350.5" y="-128" font-family="Helvetica,sans-Serif" font-size="10.00">src/IAPI_Implementation.h</text>
</a>
</g>
</g>
<!-- Node1&#45;&gt;Node2 -->
<g id="edge1" class="edge">
<title>Node1&#45;&gt;Node2</title>
<path fill="none" stroke="#63b8ff" d="M350.5,-164.35C350.5,-156.1 350.5,-146.97 350.5,-140.44"/>
<polygon fill="#63b8ff" stroke="#63b8ff" points="347,-164.23 350.5,-174.23 354,-164.23 347,-164.23"/>
</g>
<!-- Node3 -->
<g id="node3" class="node">
<title>Node3</title>
<g id="a_node3"><a xlink:href="Attribute__Request_8h.html" target="_top" xlink:title=" ">
<polygon fill="white" stroke="#666666" points="119,-79.5 0,-79.5 0,-60.5 119,-60.5 119,-79.5"/>
<text text-anchor="middle" x="59.5" y="-67.5" font-family="Helvetica,sans-Serif" font-size="10.00">src/Attribute_Request.h</text>
</a>
</g>
</g>
<!-- Node2&#45;&gt;Node3 -->
<g id="edge2" class="edge">
<title>Node2&#45;&gt;Node3</title>
<path fill="none" stroke="#63b8ff" d="M294.95,-118.33C239.46,-107.18 155.25,-90.25 104.01,-79.95"/>
<polygon fill="#63b8ff" stroke="#63b8ff" points="294.01,-121.71 304.5,-120.25 295.39,-114.85 294.01,-121.71"/>
</g>
<!-- Node4 -->
<g id="node4" class="node">
<title>Node4</title>
<g id="a_node4"><a xlink:href="OTA__Firmware__Update_8h.html" target="_top" xlink:title=" ">
<polygon fill="white" stroke="#666666" points="219,-19 76,-19 76,0 219,0 219,-19"/>
<text text-anchor="middle" x="147.5" y="-7" font-family="Helvetica,sans-Serif" font-size="10.00">src/OTA_Firmware_Update.h</text>
</a>
</g>
</g>
<!-- Node2&#45;&gt;Node4 -->
<g id="edge5" class="edge">
<title>Node2&#45;&gt;Node4</title>
<path fill="none" stroke="#63b8ff" d="M273.23,-118.94C230.04,-111.52 181.88,-100.19 166.5,-85 148.46,-67.18 146.73,-34.77 147.04,-19.25"/>
<polygon fill="#63b8ff" stroke="#63b8ff" points="272.44,-122.36 282.88,-120.55 273.59,-115.46 272.44,-122.36"/>
</g>
<!-- Node5 -->
<g id="node5" class="node">
<title>Node5</title>
<g id="a_node5"><a xlink:href="Client__Side__RPC_8h.html" target="_top" xlink:title=" ">
<polygon fill="white" stroke="#666666" points="291.5,-79.5 175.5,-79.5 175.5,-60.5 291.5,-60.5 291.5,-79.5"/>
<text text-anchor="middle" x="233.5" y="-67.5" font-family="Helvetica,sans-Serif" font-size="10.00">src/Client_Side_RPC.h</text>
</a>
</g>
</g>
<!-- Node2&#45;&gt;Node5 -->
<g id="edge4" class="edge">
<title>Node2&#45;&gt;Node5</title>
<path fill="none" stroke="#63b8ff" d="M322.63,-115.57C300.57,-104.53 270.4,-89.45 251.44,-79.97"/>
<polygon fill="#63b8ff" stroke="#63b8ff" points="320.87,-118.6 331.38,-119.94 324,-112.34 320.87,-118.6"/>
</g>
<!-- Node6 -->
<g id="node6" class="node">
<title>Node6</title>
<g id="a_node6"><a xlink:href="Provision_8h.html" target="_top" xlink:title=" ">
<polygon fill="white" stroke="#666666" points="391,-79.5 310,-79.5 310,-60.5 391,-60.5 391,-79.5"/>
<text text-anchor="middle" x="350.5" y="-67.5" font-family="Helvetica,sans-Serif" font-size="10.00">src/Provision.h</text>
</a>
</g>
</g>
<!-- Node2&#45;&gt;Node6 -->
<g id="edge6" class="edge">
<title>Node2&#45;&gt;Node6</title>
<path fill="none" stroke="#63b8ff" d="M350.5,-109.66C350.5,-99.45 350.5,-87.54 350.5,-79.67"/>
<polygon fill="#63b8ff" stroke="#63b8ff" points="347,-109.35 350.5,-119.35 354,-109.35 347,-109.35"/>
</g>
<!-- Node7 -->
<g id="node7" class="node">
<title>Node7</title>
<g id="a_node7"><a xlink:href="Server__Side__RPC_8h.html" target="_top" xlink:title=" ">
<polygon fill="white" stroke="#666666" points="528,-79.5 409,-79.5 409,-60.5 528,-60.5 528,-79.5"/>
<text text-anchor="middle" x="468.5" y="-67.5" font-family="Helvetica,sans-Serif" font-size="10.00">src/Server_Side_RPC.h</text>
</a>
</g>
</g>
<!-- Node2&#45;&gt;Node7 -->
<g id="edge7" class="edge">
<title>Node2&#45;&gt;Node7</title>
<path fill="none" stroke="#63b8ff" d="M378.61,-115.57C400.86,-104.53 431.28,-89.45 450.41,-79.97"/>
<polygon fill="#63b8ff" stroke="#63b8ff" points="377.18,-112.37 369.78,-119.94 380.29,-118.64 377.18,-112.37"/>
</g>
<!-- Node8 -->
<g id="node8" class="node">
<title>Node8</title>
<g id="a_node8"><a xlink:href="Shared__Attribute__Update_8h.html" target="_top" xlink:title=" ">
<polygon fill="white" stroke="#666666" points="652.5,-85 546.5,-85 546.5,-55 652.5,-55 652.5,-85"/>
<text text-anchor="start" x="554.5" y="-73" font-family="Helvetica,sans-Serif" font-size="10.00">src/Shared_Attribute</text>
<text text-anchor="middle" x="599.5" y="-62" font-family="Helvetica,sans-Serif" font-size="10.00">_Update.h</text>
</a>
</g>
</g>
<!-- Node2&#45;&gt;Node8 -->
<g id="edge8" class="edge">
<title>Node2&#45;&gt;Node8</title>
<path fill="none" stroke="#63b8ff" d="M399.72,-117.94C441.98,-108.01 502.77,-93.73 546.18,-83.53"/>
<polygon fill="#63b8ff" stroke="#63b8ff" points="399,-114.51 390.06,-120.21 400.6,-121.33 399,-114.51"/>
</g>
<!-- Node9 -->
<g id="node9" class="node">
<title>Node9</title>
<g id="a_node9"><a xlink:href="ThingsBoard_8h.html" target="_top" xlink:title=" ">
<polygon fill="white" stroke="#666666" points="766,-79.5 671,-79.5 671,-60.5 766,-60.5 766,-79.5"/>
<text text-anchor="middle" x="718.5" y="-67.5" font-family="Helvetica,sans-Serif" font-size="10.00">src/ThingsBoard.h</text>
</a>
</g>
</g>
<!-- Node2&#45;&gt;Node9 -->
<g id="edge10" class="edge">
<title>Node2&#45;&gt;Node9</title>
<path fill="none" stroke="#63b8ff" d="M428,-120.57C491.14,-112.77 582.45,-100.33 661.5,-85 668.9,-83.56 676.79,-81.79 684.26,-79.99"/>
<polygon fill="#63b8ff" stroke="#63b8ff" points="427.95,-117.05 418.45,-121.74 428.8,-124 427.95,-117.05"/>
</g>
<!-- Node3&#45;&gt;Node4 -->
<g id="edge3" class="edge">
<title>Node3&#45;&gt;Node4</title>
<path fill="none" stroke="#63b8ff" d="M82.29,-53.85C98.7,-42.94 120.26,-28.61 134.01,-19.47"/>
<polygon fill="#63b8ff" stroke="#63b8ff" points="80.52,-50.83 74.13,-59.28 84.39,-56.66 80.52,-50.83"/>
</g>
<!-- Node8&#45;&gt;Node4 -->
<g id="edge9" class="edge">
<title>Node8&#45;&gt;Node4</title>
<path fill="none" stroke="#63b8ff" d="M534.95,-54.69C419.11,-35.49 295.4,-23.06 219.35,-16.35"/>
<polygon fill="#63b8ff" stroke="#63b8ff" points="534.2,-58.11 544.65,-56.31 535.36,-51.21 534.2,-58.11"/>
</g>
</g>
</svg>
