<?xml version="1.0" encoding="UTF-8" standalone="no"?>
<!DOCTYPE svg PUBLIC "-//W3C//DTD SVG 1.1//EN"
 "http://www.w3.org/Graphics/SVG/1.1/DTD/svg11.dtd">
<!-- Generated by graphviz version 7.0.5 (20221223.1930)
 -->
<!-- Title: src/Array.h Pages: 1 -->
<svg width="1180pt" height="335pt"
 viewBox="0.00 0.00 1180.00 335.00" xmlns="http://www.w3.org/2000/svg" xmlns:xlink="http://www.w3.org/1999/xlink">
<g id="graph0" class="graph" transform="scale(1 1) rotate(0) translate(4 331)">
<title>src/Array.h</title>
<!-- Node1 -->
<g id="node1" class="node">
<title>Node1</title>
<g id="a_node1"><a xlink:title=" ">
<polygon fill="#999999" stroke="#666666" points="860,-327 797,-327 797,-308 860,-308 860,-327"/>
<text text-anchor="middle" x="828.5" y="-315" font-family="Helvetica,sans-Serif" font-size="10.00">src/Array.h</text>
</a>
</g>
</g>
<!-- Node2 -->
<g id="node2" class="node">
<title>Node2</title>
<g id="a_node2"><a xlink:href="Callback_8h.html" target="_top" xlink:title=" ">
<polygon fill="white" stroke="#666666" points="867.5,-272 789.5,-272 789.5,-253 867.5,-253 867.5,-272"/>
<text text-anchor="middle" x="828.5" y="-260" font-family="Helvetica,sans-Serif" font-size="10.00">src/Callback.h</text>
</a>
</g>
</g>
<!-- Node1&#45;&gt;Node2 -->
<g id="edge1" class="edge">
<title>Node1&#45;&gt;Node2</title>
<path fill="none" stroke="#63b8ff" d="M828.5,-296.35C828.5,-288.1 828.5,-278.97 828.5,-272.44"/>
<polygon fill="#63b8ff" stroke="#63b8ff" points="825,-296.23 828.5,-306.23 832,-296.23 825,-296.23"/>
</g>
<!-- Node3 -->
<g id="node3" class="node">
<title>Node3</title>
<g id="a_node3"><a xlink:href="Callback__Watchdog_8h.html" target="_top" xlink:title=" ">
<polygon fill="white" stroke="#666666" points="566,-211.5 439,-211.5 439,-192.5 566,-192.5 566,-211.5"/>
<text text-anchor="middle" x="502.5" y="-199.5" font-family="Helvetica,sans-Serif" font-size="10.00">src/Callback_Watchdog.h</text>
</a>
</g>
</g>
<!-- Node2&#45;&gt;Node3 -->
<g id="edge2" class="edge">
<title>Node2&#45;&gt;Node3</title>
<path fill="none" stroke="#63b8ff" d="M777.85,-252.41C716.49,-241.4 613.77,-222.97 552.64,-212"/>
<polygon fill="#63b8ff" stroke="#63b8ff" points="777.23,-255.85 787.69,-254.18 778.46,-248.96 777.23,-255.85"/>
</g>
<!-- Node14 -->
<g id="node14" class="node">
<title>Node14</title>
<g id="a_node14"><a xlink:href="IAPI__Implementation_8h.html" target="_top" xlink:title=" ">
<polygon fill="white" stroke="#666666" points="854.5,-145.5 722.5,-145.5 722.5,-126.5 854.5,-126.5 854.5,-145.5"/>
<text text-anchor="middle" x="788.5" y="-133.5" font-family="Helvetica,sans-Serif" font-size="10.00">src/IAPI_Implementation.h</text>
</a>
</g>
</g>
<!-- Node2&#45;&gt;Node14 -->
<g id="edge14" class="edge">
<title>Node2&#45;&gt;Node14</title>
<path fill="none" stroke="#63b8ff" d="M820.71,-242.19C817.69,-234.42 814.28,-225.33 811.5,-217 802.98,-191.51 794.7,-160.83 790.81,-145.95"/>
<polygon fill="#63b8ff" stroke="#63b8ff" points="817.39,-243.3 824.33,-251.31 823.9,-240.72 817.39,-243.3"/>
</g>
<!-- Node18 -->
<g id="node18" class="node">
<title>Node18</title>
<g id="a_node18"><a xlink:href="IMQTT__Client_8h.html" target="_top" xlink:title=" ">
<polygon fill="white" stroke="#666666" points="1171,-211.5 1070,-211.5 1070,-192.5 1171,-192.5 1171,-211.5"/>
<text text-anchor="middle" x="1120.5" y="-199.5" font-family="Helvetica,sans-Serif" font-size="10.00">src/IMQTT_Client.h</text>
</a>
</g>
</g>
<!-- Node2&#45;&gt;Node18 -->
<g id="edge23" class="edge">
<title>Node2&#45;&gt;Node18</title>
<path fill="none" stroke="#63b8ff" d="M878.89,-252.32C925.75,-243.66 997.48,-230.09 1059.5,-217 1066.94,-215.43 1074.88,-213.67 1082.47,-211.95"/>
<polygon fill="#63b8ff" stroke="#63b8ff" points="878.51,-248.83 869.31,-254.09 879.78,-255.72 878.51,-248.83"/>
</g>
<!-- Node19 -->
<g id="node19" class="node">
<title>Node19</title>
<g id="a_node19"><a xlink:href="OTA__Update__Callback_8h.html" target="_top" xlink:title=" ">
<polygon fill="white" stroke="#666666" points="289.5,-211.5 149.5,-211.5 149.5,-192.5 289.5,-192.5 289.5,-211.5"/>
<text text-anchor="middle" x="219.5" y="-199.5" font-family="Helvetica,sans-Serif" font-size="10.00">src/OTA_Update_Callback.h</text>
</a>
</g>
</g>
<!-- Node2&#45;&gt;Node19 -->
<g id="edge25" class="edge">
<title>Node2&#45;&gt;Node19</title>
<path fill="none" stroke="#63b8ff" d="M777.73,-256.62C669.09,-246.19 413.88,-221.67 289.76,-209.75"/>
<polygon fill="#63b8ff" stroke="#63b8ff" points="777.22,-260.09 787.5,-257.56 777.88,-253.12 777.22,-260.09"/>
</g>
<!-- Node21 -->
<g id="node21" class="node">
<title>Node21</title>
<g id="a_node21"><a xlink:href="RPC__Callback_8h.html" target="_top" xlink:title=" ">
<polygon fill="white" stroke="#666666" points="1050.5,-211.5 946.5,-211.5 946.5,-192.5 1050.5,-192.5 1050.5,-211.5"/>
<text text-anchor="middle" x="998.5" y="-199.5" font-family="Helvetica,sans-Serif" font-size="10.00">src/RPC_Callback.h</text>
</a>
</g>
</g>
<!-- Node2&#45;&gt;Node21 -->
<g id="edge28" class="edge">
<title>Node2&#45;&gt;Node21</title>
<path fill="none" stroke="#63b8ff" d="M865.12,-248.9C897.44,-237.78 943.76,-221.84 972.44,-211.97"/>
<polygon fill="#63b8ff" stroke="#63b8ff" points="864.07,-245.56 855.75,-252.12 866.35,-252.18 864.07,-245.56"/>
</g>
<!-- Node22 -->
<g id="node22" class="node">
<title>Node22</title>
<g id="a_node22"><a xlink:href="Shared__Attribute__Callback_8h.html" target="_top" xlink:title=" ">
<polygon fill="white" stroke="#666666" points="926.5,-217 820.5,-217 820.5,-187 926.5,-187 926.5,-217"/>
<text text-anchor="start" x="828.5" y="-205" font-family="Helvetica,sans-Serif" font-size="10.00">src/Shared_Attribute</text>
<text text-anchor="middle" x="873.5" y="-194" font-family="Helvetica,sans-Serif" font-size="10.00">_Callback.h</text>
</a>
</g>
</g>
<!-- Node2&#45;&gt;Node22 -->
<g id="edge30" class="edge">
<title>Node2&#45;&gt;Node22</title>
<path fill="none" stroke="#63b8ff" d="M842.13,-243.78C848.71,-235.23 856.48,-225.13 862.64,-217.11"/>
<polygon fill="#63b8ff" stroke="#63b8ff" points="839.39,-241.61 836.06,-251.67 844.93,-245.88 839.39,-241.61"/>
</g>
<!-- Node4 -->
<g id="node4" class="node">
<title>Node4</title>
<g id="a_node4"><a xlink:href="Attribute__Request__Callback_8h.html" target="_top" xlink:title=" ">
<polygon fill="white" stroke="#666666" points="704,-151 593,-151 593,-121 704,-121 704,-151"/>
<text text-anchor="start" x="601" y="-139" font-family="Helvetica,sans-Serif" font-size="10.00">src/Attribute_Request</text>
<text text-anchor="middle" x="648.5" y="-128" font-family="Helvetica,sans-Serif" font-size="10.00">_Callback.h</text>
</a>
</g>
</g>
<!-- Node3&#45;&gt;Node4 -->
<g id="edge3" class="edge">
<title>Node3&#45;&gt;Node4</title>
<path fill="none" stroke="#63b8ff" d="M533.15,-187.57C557.25,-177 590.78,-162.3 615.47,-151.48"/>
<polygon fill="#63b8ff" stroke="#63b8ff" points="531.94,-184.27 524.19,-191.49 534.75,-190.68 531.94,-184.27"/>
</g>
<!-- Node7 -->
<g id="node7" class="node">
<title>Node7</title>
<g id="a_node7"><a xlink:href="OTA__Handler_8h.html" target="_top" xlink:title=" ">
<polygon fill="white" stroke="#666666" points="269.5,-145.5 169.5,-145.5 169.5,-126.5 269.5,-126.5 269.5,-145.5"/>
<text text-anchor="middle" x="219.5" y="-133.5" font-family="Helvetica,sans-Serif" font-size="10.00">src/OTA_Handler.h</text>
</a>
</g>
</g>
<!-- Node3&#45;&gt;Node7 -->
<g id="edge6" class="edge">
<title>Node3&#45;&gt;Node7</title>
<path fill="none" stroke="#63b8ff" d="M450.54,-189.61C405.11,-179.6 337.39,-164.56 278.5,-151 271.52,-149.39 264.09,-147.65 256.94,-145.96"/>
<polygon fill="#63b8ff" stroke="#63b8ff" points="449.59,-192.98 460.11,-191.71 451.1,-186.15 449.59,-192.98"/>
</g>
<!-- Node8 -->
<g id="node8" class="node">
<title>Node8</title>
<g id="a_node8"><a xlink:href="Provision__Callback_8h.html" target="_top" xlink:title=" ">
<polygon fill="white" stroke="#666666" points="411.5,-145.5 287.5,-145.5 287.5,-126.5 411.5,-126.5 411.5,-145.5"/>
<text text-anchor="middle" x="349.5" y="-133.5" font-family="Helvetica,sans-Serif" font-size="10.00">src/Provision_Callback.h</text>
</a>
</g>
</g>
<!-- Node3&#45;&gt;Node8 -->
<g id="edge8" class="edge">
<title>Node3&#45;&gt;Node8</title>
<path fill="none" stroke="#63b8ff" d="M470.87,-187.77C440.84,-175.21 396.54,-156.68 370.59,-145.82"/>
<polygon fill="#63b8ff" stroke="#63b8ff" points="469.25,-190.89 479.83,-191.52 471.95,-184.43 469.25,-190.89"/>
</g>
<!-- Node11 -->
<g id="node11" class="node">
<title>Node11</title>
<g id="a_node11"><a xlink:href="RPC__Request__Callback_8h.html" target="_top" xlink:title=" ">
<polygon fill="white" stroke="#666666" points="575,-145.5 430,-145.5 430,-126.5 575,-126.5 575,-145.5"/>
<text text-anchor="middle" x="502.5" y="-133.5" font-family="Helvetica,sans-Serif" font-size="10.00">src/RPC_Request_Callback.h</text>
</a>
</g>
</g>
<!-- Node3&#45;&gt;Node11 -->
<g id="edge11" class="edge">
<title>Node3&#45;&gt;Node11</title>
<path fill="none" stroke="#63b8ff" d="M502.5,-180.68C502.5,-168.94 502.5,-154.77 502.5,-145.82"/>
<polygon fill="#63b8ff" stroke="#63b8ff" points="499,-180.59 502.5,-190.59 506,-180.59 499,-180.59"/>
</g>
<!-- Node5 -->
<g id="node5" class="node">
<title>Node5</title>
<g id="a_node5"><a xlink:href="Attribute__Request_8h.html" target="_top" xlink:title=" ">
<polygon fill="white" stroke="#666666" points="759,-79.5 640,-79.5 640,-60.5 759,-60.5 759,-79.5"/>
<text text-anchor="middle" x="699.5" y="-67.5" font-family="Helvetica,sans-Serif" font-size="10.00">src/Attribute_Request.h</text>
</a>
</g>
</g>
<!-- Node4&#45;&gt;Node5 -->
<g id="edge4" class="edge">
<title>Node4&#45;&gt;Node5</title>
<path fill="none" stroke="#63b8ff" d="M666.87,-111.95C675.74,-100.81 685.87,-88.11 692.45,-79.84"/>
<polygon fill="#63b8ff" stroke="#63b8ff" points="664.26,-109.61 660.76,-119.61 669.73,-113.97 664.26,-109.61"/>
</g>
<!-- Node6 -->
<g id="node6" class="node">
<title>Node6</title>
<g id="a_node6"><a xlink:href="OTA__Firmware__Update_8h.html" target="_top" xlink:title=" ">
<polygon fill="white" stroke="#666666" points="815,-19 672,-19 672,0 815,0 815,-19"/>
<text text-anchor="middle" x="743.5" y="-7" font-family="Helvetica,sans-Serif" font-size="10.00">src/OTA_Firmware_Update.h</text>
</a>
</g>
</g>
<!-- Node5&#45;&gt;Node6 -->
<g id="edge5" class="edge">
<title>Node5&#45;&gt;Node6</title>
<path fill="none" stroke="#63b8ff" d="M712.68,-51.48C720.7,-40.81 730.6,-27.65 736.98,-19.17"/>
<polygon fill="#63b8ff" stroke="#63b8ff" points="710.12,-49.06 706.9,-59.16 715.71,-53.27 710.12,-49.06"/>
</g>
<!-- Node7&#45;&gt;Node6 -->
<g id="edge7" class="edge">
<title>Node7&#45;&gt;Node6</title>
<path fill="none" stroke="#63b8ff" d="M175.57,-122.96C134.27,-111.21 77.84,-93.83 71.5,-85 63.73,-74.17 62.39,-64.73 71.5,-55 111.85,-11.89 506.92,-9.11 671.8,-9.85"/>
<polygon fill="#63b8ff" stroke="#63b8ff" points="174.47,-126.29 185.05,-125.64 176.37,-119.55 174.47,-126.29"/>
</g>
<!-- Node9 -->
<g id="node9" class="node">
<title>Node9</title>
<g id="a_node9"><a xlink:href="Provision_8h.html" target="_top" xlink:title=" ">
<polygon fill="white" stroke="#666666" points="487,-79.5 406,-79.5 406,-60.5 487,-60.5 487,-79.5"/>
<text text-anchor="middle" x="446.5" y="-67.5" font-family="Helvetica,sans-Serif" font-size="10.00">src/Provision.h</text>
</a>
</g>
</g>
<!-- Node8&#45;&gt;Node9 -->
<g id="edge9" class="edge">
<title>Node8&#45;&gt;Node9</title>
<path fill="none" stroke="#63b8ff" d="M372.37,-119.91C391.28,-107.44 417.47,-90.15 433.13,-79.82"/>
<polygon fill="#63b8ff" stroke="#63b8ff" points="370.67,-116.84 364.25,-125.27 374.53,-122.68 370.67,-116.84"/>
</g>
<!-- Node10 -->
<g id="node10" class="node">
<title>Node10</title>
<g id="a_node10"><a xlink:href="Provision__Callback_8cpp.html" target="_top" xlink:title=" ">
<polygon fill="white" stroke="#666666" points="214.5,-79.5 80.5,-79.5 80.5,-60.5 214.5,-60.5 214.5,-79.5"/>
<text text-anchor="middle" x="147.5" y="-67.5" font-family="Helvetica,sans-Serif" font-size="10.00">src/Provision_Callback.cpp</text>
</a>
</g>
</g>
<!-- Node8&#45;&gt;Node10 -->
<g id="edge10" class="edge">
<title>Node8&#45;&gt;Node10</title>
<path fill="none" stroke="#63b8ff" d="M310.61,-122.68C271.08,-110.15 210.82,-91.06 175.67,-79.93"/>
<polygon fill="#63b8ff" stroke="#63b8ff" points="309.38,-125.96 319.97,-125.64 311.49,-119.29 309.38,-125.96"/>
</g>
<!-- Node12 -->
<g id="node12" class="node">
<title>Node12</title>
<g id="a_node12"><a xlink:href="Client__Side__RPC_8h.html" target="_top" xlink:title=" ">
<polygon fill="white" stroke="#666666" points="621.5,-79.5 505.5,-79.5 505.5,-60.5 621.5,-60.5 621.5,-79.5"/>
<text text-anchor="middle" x="563.5" y="-67.5" font-family="Helvetica,sans-Serif" font-size="10.00">src/Client_Side_RPC.h</text>
</a>
</g>
</g>
<!-- Node11&#45;&gt;Node12 -->
<g id="edge12" class="edge">
<title>Node11&#45;&gt;Node12</title>
<path fill="none" stroke="#63b8ff" d="M518.72,-117.98C530.42,-105.7 545.74,-89.63 555.09,-79.82"/>
<polygon fill="#63b8ff" stroke="#63b8ff" points="516.39,-115.35 512.03,-125.01 521.46,-120.18 516.39,-115.35"/>
</g>
<!-- Node13 -->
<g id="node13" class="node">
<title>Node13</title>
<g id="a_node13"><a xlink:href="RPC__Request__Callback_8cpp.html" target="_top" xlink:title=" ">
<polygon fill="white" stroke="#666666" points="388,-79.5 233,-79.5 233,-60.5 388,-60.5 388,-79.5"/>
<text text-anchor="middle" x="310.5" y="-67.5" font-family="Helvetica,sans-Serif" font-size="10.00">src/RPC_Request_Callback.cpp</text>
</a>
</g>
</g>
<!-- Node11&#45;&gt;Node13 -->
<g id="edge13" class="edge">
<title>Node11&#45;&gt;Node13</title>
<path fill="none" stroke="#63b8ff" d="M465.29,-122.6C427.72,-110.07 370.61,-91.04 337.28,-79.93"/>
<polygon fill="#63b8ff" stroke="#63b8ff" points="463.77,-125.78 474.37,-125.62 465.99,-119.14 463.77,-125.78"/>
</g>
<!-- Node14&#45;&gt;Node5 -->
<g id="edge15" class="edge">
<title>Node14&#45;&gt;Node5</title>
<path fill="none" stroke="#63b8ff" d="M766.79,-119.39C749.51,-106.96 725.94,-90.01 711.77,-79.82"/>
<polygon fill="#63b8ff" stroke="#63b8ff" points="764.73,-122.22 774.9,-125.22 768.82,-116.54 764.73,-122.22"/>
</g>
<!-- Node14&#45;&gt;Node6 -->
<g id="edge17" class="edge">
<title>Node14&#45;&gt;Node6</title>
<path fill="none" stroke="#63b8ff" d="M784.73,-115.46C781.24,-99 775.39,-75.01 767.5,-55 762.41,-42.1 754.46,-28.17 749.12,-19.4"/>
<polygon fill="#63b8ff" stroke="#63b8ff" points="781.23,-115.79 786.64,-124.9 788.09,-114.4 781.23,-115.79"/>
</g>
<!-- Node14&#45;&gt;Node9 -->
<g id="edge18" class="edge">
<title>Node14&#45;&gt;Node9</title>
<path fill="none" stroke="#63b8ff" d="M729.62,-124.05C723.84,-123.01 718.06,-121.97 712.5,-121 616.64,-104.18 591.5,-106.15 496.5,-85 489.99,-83.55 483.06,-81.77 476.51,-79.97"/>
<polygon fill="#63b8ff" stroke="#63b8ff" points="728.73,-127.45 739.19,-125.79 729.98,-120.56 728.73,-127.45"/>
</g>
<!-- Node14&#45;&gt;Node12 -->
<g id="edge16" class="edge">
<title>Node14&#45;&gt;Node12</title>
<path fill="none" stroke="#63b8ff" d="M746.3,-123C702.3,-110.48 634.36,-91.16 594.88,-79.93"/>
<polygon fill="#63b8ff" stroke="#63b8ff" points="745.18,-126.32 755.76,-125.69 747.1,-119.58 745.18,-126.32"/>
</g>
<!-- Node15 -->
<g id="node15" class="node">
<title>Node15</title>
<g id="a_node15"><a xlink:href="Server__Side__RPC_8h.html" target="_top" xlink:title=" ">
<polygon fill="white" stroke="#666666" points="1059,-79.5 940,-79.5 940,-60.5 1059,-60.5 1059,-79.5"/>
<text text-anchor="middle" x="999.5" y="-67.5" font-family="Helvetica,sans-Serif" font-size="10.00">src/Server_Side_RPC.h</text>
</a>
</g>
</g>
<!-- Node14&#45;&gt;Node15 -->
<g id="edge19" class="edge">
<title>Node14&#45;&gt;Node15</title>
<path fill="none" stroke="#63b8ff" d="M828.6,-122.84C869.87,-110.32 933.21,-91.11 970.07,-79.93"/>
<polygon fill="#63b8ff" stroke="#63b8ff" points="827.84,-119.41 819.29,-125.66 829.87,-126.11 827.84,-119.41"/>
</g>
<!-- Node16 -->
<g id="node16" class="node">
<title>Node16</title>
<g id="a_node16"><a xlink:href="Shared__Attribute__Update_8h.html" target="_top" xlink:title=" ">
<polygon fill="white" stroke="#666666" points="921.5,-85 815.5,-85 815.5,-55 921.5,-55 921.5,-85"/>
<text text-anchor="start" x="823.5" y="-73" font-family="Helvetica,sans-Serif" font-size="10.00">src/Shared_Attribute</text>
<text text-anchor="middle" x="868.5" y="-62" font-family="Helvetica,sans-Serif" font-size="10.00">_Update.h</text>
</a>
</g>
</g>
<!-- Node14&#45;&gt;Node16 -->
<g id="edge20" class="edge">
<title>Node14&#45;&gt;Node16</title>
<path fill="none" stroke="#63b8ff" d="M808.6,-118.92C821.45,-108.64 837.97,-95.43 850.4,-85.48"/>
<polygon fill="#63b8ff" stroke="#63b8ff" points="806.43,-116.18 800.81,-125.16 810.8,-121.64 806.43,-116.18"/>
</g>
<!-- Node17 -->
<g id="node17" class="node">
<title>Node17</title>
<g id="a_node17"><a xlink:href="ThingsBoard_8h.html" target="_top" xlink:title=" ">
<polygon fill="white" stroke="#666666" points="1172,-79.5 1077,-79.5 1077,-60.5 1172,-60.5 1172,-79.5"/>
<text text-anchor="middle" x="1124.5" y="-67.5" font-family="Helvetica,sans-Serif" font-size="10.00">src/ThingsBoard.h</text>
</a>
</g>
</g>
<!-- Node14&#45;&gt;Node17 -->
<g id="edge22" class="edge">
<title>Node14&#45;&gt;Node17</title>
<path fill="none" stroke="#63b8ff" d="M856.31,-124.22C913.17,-114.87 996.41,-100.43 1068.5,-85 1075.56,-83.49 1083.07,-81.72 1090.23,-79.96"/>
<polygon fill="#63b8ff" stroke="#63b8ff" points="856.1,-120.71 846.79,-125.78 857.23,-127.62 856.1,-120.71"/>
</g>
<!-- Node16&#45;&gt;Node6 -->
<g id="edge21" class="edge">
<title>Node16&#45;&gt;Node6</title>
<path fill="none" stroke="#63b8ff" d="M827.23,-49.69C805.35,-39.44 779.53,-27.36 762.4,-19.35"/>
<polygon fill="#63b8ff" stroke="#63b8ff" points="825.69,-52.83 836.23,-53.9 828.66,-46.49 825.69,-52.83"/>
</g>
<!-- Node18&#45;&gt;Node17 -->
<g id="edge24" class="edge">
<title>Node18&#45;&gt;Node17</title>
<path fill="none" stroke="#63b8ff" d="M1121.13,-180.64C1122.01,-151.9 1123.59,-100.65 1124.22,-80"/>
<polygon fill="#63b8ff" stroke="#63b8ff" points="1117.63,-180.45 1120.82,-190.55 1124.63,-180.66 1117.63,-180.45"/>
</g>
<!-- Node19&#45;&gt;Node7 -->
<g id="edge26" class="edge">
<title>Node19&#45;&gt;Node7</title>
<path fill="none" stroke="#63b8ff" d="M219.5,-180.68C219.5,-168.94 219.5,-154.77 219.5,-145.82"/>
<polygon fill="#63b8ff" stroke="#63b8ff" points="216,-180.59 219.5,-190.59 223,-180.59 216,-180.59"/>
</g>
<!-- Node20 -->
<g id="node20" class="node">
<title>Node20</title>
<g id="a_node20"><a xlink:href="OTA__Update__Callback_8cpp.html" target="_top" xlink:title=" ">
<polygon fill="white" stroke="#666666" points="151,-145.5 0,-145.5 0,-126.5 151,-126.5 151,-145.5"/>
<text text-anchor="middle" x="75.5" y="-133.5" font-family="Helvetica,sans-Serif" font-size="10.00">src/OTA_Update_Callback.cpp</text>
</a>
</g>
</g>
<!-- Node19&#45;&gt;Node20 -->
<g id="edge27" class="edge">
<title>Node19&#45;&gt;Node20</title>
<path fill="none" stroke="#63b8ff" d="M188.98,-187.44C160.74,-174.88 119.56,-156.58 95.35,-145.82"/>
<polygon fill="#63b8ff" stroke="#63b8ff" points="187.53,-190.62 198.09,-191.49 190.38,-184.23 187.53,-190.62"/>
</g>
<!-- Node21&#45;&gt;Node15 -->
<g id="edge29" class="edge">
<title>Node21&#45;&gt;Node15</title>
<path fill="none" stroke="#63b8ff" d="M998.66,-180.64C998.88,-151.9 999.27,-100.65 999.43,-80"/>
<polygon fill="#63b8ff" stroke="#63b8ff" points="995.16,-180.52 998.58,-190.55 1002.16,-180.58 995.16,-180.52"/>
</g>
<!-- Node22&#45;&gt;Node16 -->
<g id="edge31" class="edge">
<title>Node22&#45;&gt;Node16</title>
<path fill="none" stroke="#63b8ff" d="M872.51,-175.38C871.48,-148.49 869.89,-107.18 869.06,-85.47"/>
<polygon fill="#63b8ff" stroke="#63b8ff" points="869.01,-175.22 872.89,-185.08 876,-174.95 869.01,-175.22"/>
</g>
</g>
</svg>
