<?xml version="1.0" encoding="UTF-8" standalone="no"?>
<!DOCTYPE svg PUBLIC "-//W3C//DTD SVG 1.1//EN"
 "http://www.w3.org/Graphics/SVG/1.1/DTD/svg11.dtd">
<!-- Generated by graphviz version 7.0.5 (20221223.1930)
 -->
<!-- Title: src/Attribute_Request.h Pages: 1 -->
<svg width="493pt" height="357pt"
 viewBox="0.00 0.00 493.00 357.00" xmlns="http://www.w3.org/2000/svg" xmlns:xlink="http://www.w3.org/1999/xlink">
<g id="graph0" class="graph" transform="scale(1 1) rotate(0) translate(4 353)">
<title>src/Attribute_Request.h</title>
<!-- Node1 -->
<g id="node1" class="node">
<title>Node1</title>
<g id="a_node1"><a xlink:title=" ">
<polygon fill="#999999" stroke="#666666" points="247.5,-349 128.5,-349 128.5,-330 247.5,-330 247.5,-349"/>
<text text-anchor="middle" x="188" y="-337" font-family="Helvetica,sans-Serif" font-size="10.00">src/Attribute_Request.h</text>
</a>
</g>
</g>
<!-- Node2 -->
<g id="node2" class="node">
<title>Node2</title>
<g id="a_node2"><a xlink:href="Attribute__Request__Callback_8h.html" target="_top" xlink:title=" ">
<polygon fill="white" stroke="#666666" points="210.5,-294 65.5,-294 65.5,-275 210.5,-275 210.5,-294"/>
<text text-anchor="middle" x="138" y="-282" font-family="Helvetica,sans-Serif" font-size="10.00">Attribute_Request_Callback.h</text>
</a>
</g>
</g>
<!-- Node1&#45;&gt;Node2 -->
<g id="edge1" class="edge">
<title>Node1&#45;&gt;Node2</title>
<path fill="none" stroke="#63b8ff" d="M179.74,-329.75C172.84,-322.43 162.78,-311.76 154.26,-302.74"/>
<polygon fill="#63b8ff" stroke="#63b8ff" points="156.88,-300.42 147.47,-295.54 151.79,-305.22 156.88,-300.42"/>
</g>
<!-- Node17 -->
<g id="node17" class="node">
<title>Node17</title>
<g id="a_node17"><a xlink:href="IAPI__Implementation_8h.html" target="_top" xlink:title=" ">
<polygon fill="white" stroke="#666666" points="327,-239 211,-239 211,-220 327,-220 327,-239"/>
<text text-anchor="middle" x="269" y="-227" font-family="Helvetica,sans-Serif" font-size="10.00">IAPI_Implementation.h</text>
</a>
</g>
</g>
<!-- Node1&#45;&gt;Node17 -->
<g id="edge20" class="edge">
<title>Node1&#45;&gt;Node17</title>
<path fill="none" stroke="#63b8ff" d="M194.63,-329.66C207.86,-312.02 237.78,-272.12 255.37,-248.67"/>
<polygon fill="#63b8ff" stroke="#63b8ff" points="258.17,-250.77 261.37,-240.67 252.57,-246.57 258.17,-250.77"/>
</g>
<!-- Node3 -->
<g id="node3" class="node">
<title>Node3</title>
<g id="a_node3"><a xlink:href="Callback__Watchdog_8h.html" target="_top" xlink:title=" ">
<polygon fill="white" stroke="#666666" points="110,-239 0,-239 0,-220 110,-220 110,-239"/>
<text text-anchor="middle" x="55" y="-227" font-family="Helvetica,sans-Serif" font-size="10.00">Callback_Watchdog.h</text>
</a>
</g>
</g>
<!-- Node2&#45;&gt;Node3 -->
<g id="edge2" class="edge">
<title>Node2&#45;&gt;Node3</title>
<path fill="none" stroke="#63b8ff" d="M123.92,-274.51C111.44,-266.54 92.98,-254.75 78.31,-245.38"/>
<polygon fill="#63b8ff" stroke="#63b8ff" points="80.46,-242.6 70.15,-240.17 76.69,-248.5 80.46,-242.6"/>
</g>
<!-- Node16 -->
<g id="node16" class="node">
<title>Node16</title>
<g id="a_node16"><a xlink:href="Constants_8h.html" target="_top" xlink:title=" ">
<polygon fill="white" stroke="#666666" points="167,-184 99,-184 99,-165 167,-165 167,-184"/>
<text text-anchor="middle" x="133" y="-172" font-family="Helvetica,sans-Serif" font-size="10.00">Constants.h</text>
</a>
</g>
</g>
<!-- Node2&#45;&gt;Node16 -->
<g id="edge18" class="edge">
<title>Node2&#45;&gt;Node16</title>
<path fill="none" stroke="#63b8ff" d="M137.59,-274.66C136.8,-257.57 135.04,-219.61 133.95,-195.92"/>
<polygon fill="#63b8ff" stroke="#63b8ff" points="137.44,-195.8 133.48,-185.97 130.45,-196.12 137.44,-195.8"/>
</g>
<!-- Node4 -->
<g id="node4" class="node">
<title>Node4</title>
<g id="a_node4"><a xlink:href="Callback_8h.html" target="_top" xlink:title=" ">
<polygon fill="white" stroke="#666666" points="247,-184 185,-184 185,-165 247,-165 247,-184"/>
<text text-anchor="middle" x="216" y="-172" font-family="Helvetica,sans-Serif" font-size="10.00">Callback.h</text>
</a>
</g>
</g>
<!-- Node3&#45;&gt;Node4 -->
<g id="edge3" class="edge">
<title>Node3&#45;&gt;Node4</title>
<path fill="none" stroke="#63b8ff" d="M82.31,-219.51C108.64,-210.84 148.72,-197.65 178.13,-187.97"/>
<polygon fill="#63b8ff" stroke="#63b8ff" points="178.98,-191.37 187.39,-184.92 176.79,-184.72 178.98,-191.37"/>
</g>
<!-- Node15 -->
<g id="node15" class="node">
<title>Node15</title>
<g id="a_node15"><a xlink:title=" ">
<polygon fill="#e0e0e0" stroke="#999999" points="81,-184 1,-184 1,-165 81,-165 81,-184"/>
<text text-anchor="middle" x="41" y="-172" font-family="Helvetica,sans-Serif" font-size="10.00">arduino&#45;timer.h</text>
</a>
</g>
</g>
<!-- Node3&#45;&gt;Node15 -->
<g id="edge17" class="edge">
<title>Node3&#45;&gt;Node15</title>
<path fill="none" stroke="#63b8ff" d="M52.69,-219.75C50.94,-213.11 48.46,-203.73 46.23,-195.31"/>
<polygon fill="#63b8ff" stroke="#63b8ff" points="49.69,-194.68 43.75,-185.91 42.92,-196.47 49.69,-194.68"/>
</g>
<!-- Node5 -->
<g id="node5" class="node">
<title>Node5</title>
<g id="a_node5"><a xlink:href="Configuration_8h.html" target="_top" xlink:title=" ">
<polygon fill="white" stroke="#666666" points="86,-19 6,-19 6,0 86,0 86,-19"/>
<text text-anchor="middle" x="46" y="-7" font-family="Helvetica,sans-Serif" font-size="10.00">Configuration.h</text>
</a>
</g>
</g>
<!-- Node4&#45;&gt;Node5 -->
<g id="edge4" class="edge">
<title>Node4&#45;&gt;Node5</title>
<path fill="none" stroke="#63b8ff" d="M184.66,-165.44C145.23,-155.03 81.7,-137.27 74,-129 48.86,-102 44.99,-56.74 45.06,-30.67"/>
<polygon fill="#63b8ff" stroke="#63b8ff" points="48.56,-30.87 45.32,-20.79 41.56,-30.69 48.56,-30.87"/>
</g>
<!-- Node6 -->
<g id="node6" class="node">
<title>Node6</title>
<g id="a_node6"><a xlink:href="Array_8h.html" target="_top" xlink:title=" ">
<polygon fill="white" stroke="#666666" points="207.5,-129 160.5,-129 160.5,-110 207.5,-110 207.5,-129"/>
<text text-anchor="middle" x="184" y="-117" font-family="Helvetica,sans-Serif" font-size="10.00">Array.h</text>
</a>
</g>
</g>
<!-- Node4&#45;&gt;Node6 -->
<g id="edge5" class="edge">
<title>Node4&#45;&gt;Node6</title>
<path fill="none" stroke="#63b8ff" d="M210.72,-164.75C206.53,-157.81 200.52,-147.86 195.27,-139.16"/>
<polygon fill="#63b8ff" stroke="#63b8ff" points="198.35,-137.49 190.18,-130.74 192.35,-141.11 198.35,-137.49"/>
</g>
<!-- Node8 -->
<g id="node8" class="node">
<title>Node8</title>
<g id="a_node8"><a xlink:title=" ">
<polygon fill="#e0e0e0" stroke="#999999" points="449,-19 371,-19 371,0 449,0 449,-19"/>
<text text-anchor="middle" x="410" y="-7" font-family="Helvetica,sans-Serif" font-size="10.00">ArduinoJson.h</text>
</a>
</g>
</g>
<!-- Node4&#45;&gt;Node8 -->
<g id="edge14" class="edge">
<title>Node4&#45;&gt;Node8</title>
<path fill="none" stroke="#63b8ff" d="M247.33,-168.99C290.06,-162.2 363.45,-148.11 382,-129 407.69,-102.53 411.37,-57.08 411.1,-30.83"/>
<polygon fill="#63b8ff" stroke="#63b8ff" points="414.6,-30.74 410.77,-20.86 407.61,-30.98 414.6,-30.74"/>
</g>
<!-- Node13 -->
<g id="node13" class="node">
<title>Node13</title>
<g id="a_node13"><a xlink:title=" ">
<polygon fill="#e0e0e0" stroke="#999999" points="142.5,-129 83.5,-129 83.5,-110 142.5,-110 142.5,-129"/>
<text text-anchor="middle" x="113" y="-117" font-family="Helvetica,sans-Serif" font-size="10.00">functional</text>
</a>
</g>
</g>
<!-- Node4&#45;&gt;Node13 -->
<g id="edge15" class="edge">
<title>Node4&#45;&gt;Node13</title>
<path fill="none" stroke="#63b8ff" d="M198.53,-164.51C182.6,-156.31 158.81,-144.07 140.36,-134.58"/>
<polygon fill="#63b8ff" stroke="#63b8ff" points="142.05,-131.51 131.56,-130.05 138.85,-137.74 142.05,-131.51"/>
</g>
<!-- Node14 -->
<g id="node14" class="node">
<title>Node14</title>
<g id="a_node14"><a xlink:title=" ">
<polygon fill="#e0e0e0" stroke="#999999" points="270,-129 226,-129 226,-110 270,-110 270,-129"/>
<text text-anchor="middle" x="248" y="-117" font-family="Helvetica,sans-Serif" font-size="10.00">vector</text>
</a>
</g>
</g>
<!-- Node4&#45;&gt;Node14 -->
<g id="edge16" class="edge">
<title>Node4&#45;&gt;Node14</title>
<path fill="none" stroke="#63b8ff" d="M221.28,-164.75C225.47,-157.81 231.48,-147.86 236.73,-139.16"/>
<polygon fill="#63b8ff" stroke="#63b8ff" points="239.65,-141.11 241.82,-130.74 233.65,-137.49 239.65,-141.11"/>
</g>
<!-- Node7 -->
<g id="node7" class="node">
<title>Node7</title>
<g id="a_node7"><a xlink:href="Helper_8h.html" target="_top" xlink:title=" ">
<polygon fill="white" stroke="#666666" points="256.5,-74 203.5,-74 203.5,-55 256.5,-55 256.5,-74"/>
<text text-anchor="middle" x="230" y="-62" font-family="Helvetica,sans-Serif" font-size="10.00">Helper.h</text>
</a>
</g>
</g>
<!-- Node6&#45;&gt;Node7 -->
<g id="edge6" class="edge">
<title>Node6&#45;&gt;Node7</title>
<path fill="none" stroke="#63b8ff" d="M191.6,-109.75C197.88,-102.5 207.01,-91.98 214.8,-83.02"/>
<polygon fill="#63b8ff" stroke="#63b8ff" points="217.34,-85.43 221.25,-75.59 212.05,-80.84 217.34,-85.43"/>
</g>
<!-- Node10 -->
<g id="node10" class="node">
<title>Node10</title>
<g id="a_node10"><a xlink:title=" ">
<polygon fill="#e0e0e0" stroke="#999999" points="155.5,-19 104.5,-19 104.5,0 155.5,0 155.5,-19"/>
<text text-anchor="middle" x="130" y="-7" font-family="Helvetica,sans-Serif" font-size="10.00">assert.h</text>
</a>
</g>
</g>
<!-- Node6&#45;&gt;Node10 -->
<g id="edge13" class="edge">
<title>Node6&#45;&gt;Node10</title>
<path fill="none" stroke="#63b8ff" d="M179.58,-109.66C170.88,-92.26 151.35,-53.19 139.56,-29.62"/>
<polygon fill="#63b8ff" stroke="#63b8ff" points="142.76,-28.19 135.16,-20.81 136.5,-31.32 142.76,-28.19"/>
</g>
<!-- Node7&#45;&gt;Node5 -->
<g id="edge7" class="edge">
<title>Node7&#45;&gt;Node5</title>
<path fill="none" stroke="#63b8ff" d="M203.24,-55.79C173.03,-47.09 123.46,-32.81 88.05,-22.61"/>
<polygon fill="#63b8ff" stroke="#63b8ff" points="89.13,-19.28 78.55,-19.88 87.19,-26.01 89.13,-19.28"/>
</g>
<!-- Node7&#45;&gt;Node8 -->
<g id="edge8" class="edge">
<title>Node7&#45;&gt;Node8</title>
<path fill="none" stroke="#63b8ff" d="M256.95,-55.57C286.59,-46.84 334.58,-32.71 368.92,-22.59"/>
<polygon fill="#63b8ff" stroke="#63b8ff" points="369.5,-26.07 378.1,-19.89 367.52,-19.36 369.5,-26.07"/>
</g>
<!-- Node9 -->
<g id="node9" class="node">
<title>Node9</title>
<g id="a_node9"><a xlink:title=" ">
<polygon fill="#e0e0e0" stroke="#999999" points="220.5,-19 173.5,-19 173.5,0 220.5,0 220.5,-19"/>
<text text-anchor="middle" x="197" y="-7" font-family="Helvetica,sans-Serif" font-size="10.00">iterator</text>
</a>
</g>
</g>
<!-- Node7&#45;&gt;Node9 -->
<g id="edge9" class="edge">
<title>Node7&#45;&gt;Node9</title>
<path fill="none" stroke="#63b8ff" d="M224.55,-54.75C220.23,-47.81 214.04,-37.86 208.62,-29.16"/>
<polygon fill="#63b8ff" stroke="#63b8ff" points="211.62,-27.37 203.37,-20.73 205.68,-31.07 211.62,-27.37"/>
</g>
<!-- Node7&#45;&gt;Node10 -->
<g id="edge10" class="edge">
<title>Node7&#45;&gt;Node10</title>
<path fill="none" stroke="#63b8ff" d="M213.04,-54.51C197.64,-46.35 174.69,-34.19 156.81,-24.71"/>
<polygon fill="#63b8ff" stroke="#63b8ff" points="158.53,-21.66 148.05,-20.07 155.25,-27.84 158.53,-21.66"/>
</g>
<!-- Node11 -->
<g id="node11" class="node">
<title>Node11</title>
<g id="a_node11"><a xlink:title=" ">
<polygon fill="#e0e0e0" stroke="#999999" points="289.5,-19 238.5,-19 238.5,0 289.5,0 289.5,-19"/>
<text text-anchor="middle" x="264" y="-7" font-family="Helvetica,sans-Serif" font-size="10.00">stdarg.h</text>
</a>
</g>
</g>
<!-- Node7&#45;&gt;Node11 -->
<g id="edge11" class="edge">
<title>Node7&#45;&gt;Node11</title>
<path fill="none" stroke="#63b8ff" d="M235.61,-54.75C240.12,-47.73 246.59,-37.64 252.21,-28.87"/>
<polygon fill="#63b8ff" stroke="#63b8ff" points="254.99,-31.02 257.45,-20.72 249.1,-27.24 254.99,-31.02"/>
</g>
<!-- Node12 -->
<g id="node12" class="node">
<title>Node12</title>
<g id="a_node12"><a xlink:title=" ">
<polygon fill="#e0e0e0" stroke="#999999" points="352.5,-19 307.5,-19 307.5,0 352.5,0 352.5,-19"/>
<text text-anchor="middle" x="330" y="-7" font-family="Helvetica,sans-Serif" font-size="10.00">stdio.h</text>
</a>
</g>
</g>
<!-- Node7&#45;&gt;Node12 -->
<g id="edge12" class="edge">
<title>Node7&#45;&gt;Node12</title>
<path fill="none" stroke="#63b8ff" d="M246.96,-54.51C262.36,-46.35 285.31,-34.19 303.19,-24.71"/>
<polygon fill="#63b8ff" stroke="#63b8ff" points="304.75,-27.84 311.95,-20.07 301.47,-21.66 304.75,-27.84"/>
</g>
<!-- Node16&#45;&gt;Node5 -->
<g id="edge19" class="edge">
<title>Node16&#45;&gt;Node5</title>
<path fill="none" stroke="#63b8ff" d="M98.84,-166.54C78.25,-160.39 53.63,-149.14 41,-129 22.01,-98.72 31.07,-55.02 38.88,-30.02"/>
<polygon fill="#63b8ff" stroke="#63b8ff" points="42.1,-31.42 41.99,-20.82 35.47,-29.17 42.1,-31.42"/>
</g>
<!-- Node17&#45;&gt;Node4 -->
<g id="edge21" class="edge">
<title>Node17&#45;&gt;Node4</title>
<path fill="none" stroke="#63b8ff" d="M260.25,-219.75C252.85,-212.35 242.04,-201.54 232.95,-192.45"/>
<polygon fill="#63b8ff" stroke="#63b8ff" points="235.56,-190.11 226.01,-185.51 230.61,-195.06 235.56,-190.11"/>
</g>
<!-- Node17&#45;&gt;Node16 -->
<g id="edge22" class="edge">
<title>Node17&#45;&gt;Node16</title>
<path fill="none" stroke="#63b8ff" d="M245.93,-219.51C224.11,-211.01 191.12,-198.15 166.42,-188.53"/>
<polygon fill="#63b8ff" stroke="#63b8ff" points="167.73,-185.28 157.14,-184.91 165.19,-191.8 167.73,-185.28"/>
</g>
<!-- Node18 -->
<g id="node18" class="node">
<title>Node18</title>
<g id="a_node18"><a xlink:href="DefaultLogger_8h.html" target="_top" xlink:title=" ">
<polygon fill="white" stroke="#666666" points="373.5,-129 288.5,-129 288.5,-110 373.5,-110 373.5,-129"/>
<text text-anchor="middle" x="331" y="-117" font-family="Helvetica,sans-Serif" font-size="10.00">DefaultLogger.h</text>
</a>
</g>
</g>
<!-- Node17&#45;&gt;Node18 -->
<g id="edge23" class="edge">
<title>Node17&#45;&gt;Node18</title>
<path fill="none" stroke="#63b8ff" d="M271.43,-219.89C275.19,-207.29 283.14,-183.35 294,-165 299.74,-155.3 307.55,-145.57 314.51,-137.68"/>
<polygon fill="#63b8ff" stroke="#63b8ff" points="316.92,-140.24 321.1,-130.51 311.76,-135.5 316.92,-140.24"/>
</g>
<!-- Node19 -->
<g id="node19" class="node">
<title>Node19</title>
<g id="a_node19"><a xlink:href="API__Process__Type_8h.html" target="_top" xlink:title=" ">
<polygon fill="white" stroke="#666666" points="411,-184 303,-184 303,-165 411,-165 411,-184"/>
<text text-anchor="middle" x="357" y="-172" font-family="Helvetica,sans-Serif" font-size="10.00">API_Process_Type.h</text>
</a>
</g>
</g>
<!-- Node17&#45;&gt;Node19 -->
<g id="edge25" class="edge">
<title>Node17&#45;&gt;Node19</title>
<path fill="none" stroke="#63b8ff" d="M283.93,-219.51C297.28,-211.47 317.11,-199.53 332.74,-190.11"/>
<polygon fill="#63b8ff" stroke="#63b8ff" points="334.24,-193.3 341,-185.14 330.62,-187.3 334.24,-193.3"/>
</g>
<!-- Node21 -->
<g id="node21" class="node">
<title>Node21</title>
<g id="a_node21"><a xlink:title=" ">
<polygon fill="#e0e0e0" stroke="#999999" points="485,-184 429,-184 429,-165 485,-165 485,-184"/>
<text text-anchor="middle" x="457" y="-172" font-family="Helvetica,sans-Serif" font-size="10.00">algorithm</text>
</a>
</g>
</g>
<!-- Node17&#45;&gt;Node21 -->
<g id="edge27" class="edge">
<title>Node17&#45;&gt;Node21</title>
<path fill="none" stroke="#63b8ff" d="M300.89,-219.51C333.22,-210.4 383.29,-196.28 417.97,-186.5"/>
<polygon fill="#63b8ff" stroke="#63b8ff" points="418.52,-189.99 427.19,-183.9 416.62,-183.25 418.52,-189.99"/>
</g>
<!-- Node18&#45;&gt;Node7 -->
<g id="edge24" class="edge">
<title>Node18&#45;&gt;Node7</title>
<path fill="none" stroke="#63b8ff" d="M313.87,-109.51C298.25,-101.31 274.92,-89.07 256.83,-79.58"/>
<polygon fill="#63b8ff" stroke="#63b8ff" points="258.7,-76.61 248.22,-75.06 255.45,-82.81 258.7,-76.61"/>
</g>
<!-- Node20 -->
<g id="node20" class="node">
<title>Node20</title>
<g id="a_node20"><a xlink:title=" ">
<polygon fill="#e0e0e0" stroke="#999999" points="478,-129 430,-129 430,-110 478,-110 478,-129"/>
<text text-anchor="middle" x="454" y="-117" font-family="Helvetica,sans-Serif" font-size="10.00">stdint.h</text>
</a>
</g>
</g>
<!-- Node19&#45;&gt;Node20 -->
<g id="edge26" class="edge">
<title>Node19&#45;&gt;Node20</title>
<path fill="none" stroke="#63b8ff" d="M373.45,-164.51C388.32,-156.39 410.44,-144.3 427.75,-134.85"/>
<polygon fill="#63b8ff" stroke="#63b8ff" points="429.36,-137.95 436.46,-130.08 426.01,-131.81 429.36,-137.95"/>
</g>
</g>
</svg>
