<?xml version="1.0" encoding="UTF-8" standalone="no"?>
<!DOCTYPE svg PUBLIC "-//W3C//DTD SVG 1.1//EN"
 "http://www.w3.org/Graphics/SVG/1.1/DTD/svg11.dtd">
<!-- Generated by graphviz version 7.0.5 (20221223.1930)
 -->
<!-- Title: src/Attribute_Request_Callback.h Pages: 1 -->
<svg width="451pt" height="313pt"
 viewBox="0.00 0.00 451.00 313.00" xmlns="http://www.w3.org/2000/svg" xmlns:xlink="http://www.w3.org/1999/xlink">
<g id="graph0" class="graph" transform="scale(1 1) rotate(0) translate(4 309)">
<title>src/Attribute_Request_Callback.h</title>
<!-- Node1 -->
<g id="node1" class="node">
<title>Node1</title>
<g id="a_node1"><a xlink:title=" ">
<polygon fill="#999999" stroke="#666666" points="363.5,-305 252.5,-305 252.5,-275 363.5,-275 363.5,-305"/>
<text text-anchor="start" x="260.5" y="-293" font-family="Helvetica,sans-Serif" font-size="10.00">src/Attribute_Request</text>
<text text-anchor="middle" x="308" y="-282" font-family="Helvetica,sans-Serif" font-size="10.00">_Callback.h</text>
</a>
</g>
</g>
<!-- Node2 -->
<g id="node2" class="node">
<title>Node2</title>
<g id="a_node2"><a xlink:href="Callback__Watchdog_8h.html" target="_top" xlink:title=" ">
<polygon fill="white" stroke="#666666" points="269,-239 159,-239 159,-220 269,-220 269,-239"/>
<text text-anchor="middle" x="214" y="-227" font-family="Helvetica,sans-Serif" font-size="10.00">Callback_Watchdog.h</text>
</a>
</g>
</g>
<!-- Node1&#45;&gt;Node2 -->
<g id="edge1" class="edge">
<title>Node1&#45;&gt;Node2</title>
<path fill="none" stroke="#63b8ff" d="M284.76,-274.54C270.5,-265.66 252.28,-254.32 237.9,-245.37"/>
<polygon fill="#63b8ff" stroke="#63b8ff" points="239.84,-242.46 229.5,-240.15 236.14,-248.4 239.84,-242.46"/>
</g>
<!-- Node15 -->
<g id="node15" class="node">
<title>Node15</title>
<g id="a_node15"><a xlink:href="Constants_8h.html" target="_top" xlink:title=" ">
<polygon fill="white" stroke="#666666" points="427,-74 359,-74 359,-55 427,-55 427,-74"/>
<text text-anchor="middle" x="393" y="-62" font-family="Helvetica,sans-Serif" font-size="10.00">Constants.h</text>
</a>
</g>
</g>
<!-- Node1&#45;&gt;Node15 -->
<g id="edge17" class="edge">
<title>Node1&#45;&gt;Node15</title>
<path fill="none" stroke="#63b8ff" d="M313.45,-274.68C328.18,-235.93 368.86,-128.98 385.62,-84.89"/>
<polygon fill="#63b8ff" stroke="#63b8ff" points="388.86,-86.24 389.14,-75.65 382.32,-83.75 388.86,-86.24"/>
</g>
<!-- Node3 -->
<g id="node3" class="node">
<title>Node3</title>
<g id="a_node3"><a xlink:href="Callback_8h.html" target="_top" xlink:title=" ">
<polygon fill="white" stroke="#666666" points="245,-184 183,-184 183,-165 245,-165 245,-184"/>
<text text-anchor="middle" x="214" y="-172" font-family="Helvetica,sans-Serif" font-size="10.00">Callback.h</text>
</a>
</g>
</g>
<!-- Node2&#45;&gt;Node3 -->
<g id="edge2" class="edge">
<title>Node2&#45;&gt;Node3</title>
<path fill="none" stroke="#63b8ff" d="M214,-219.75C214,-213.27 214,-204.16 214,-195.9"/>
<polygon fill="#63b8ff" stroke="#63b8ff" points="217.5,-195.96 214,-185.96 210.5,-195.96 217.5,-195.96"/>
</g>
<!-- Node14 -->
<g id="node14" class="node">
<title>Node14</title>
<g id="a_node14"><a xlink:title=" ">
<polygon fill="#e0e0e0" stroke="#999999" points="165,-184 85,-184 85,-165 165,-165 165,-184"/>
<text text-anchor="middle" x="125" y="-172" font-family="Helvetica,sans-Serif" font-size="10.00">arduino&#45;timer.h</text>
</a>
</g>
</g>
<!-- Node2&#45;&gt;Node14 -->
<g id="edge16" class="edge">
<title>Node2&#45;&gt;Node14</title>
<path fill="none" stroke="#63b8ff" d="M198.9,-219.51C185.4,-211.47 165.35,-199.53 149.54,-190.11"/>
<polygon fill="#63b8ff" stroke="#63b8ff" points="151.56,-187.24 141.18,-185.13 147.98,-193.26 151.56,-187.24"/>
</g>
<!-- Node4 -->
<g id="node4" class="node">
<title>Node4</title>
<g id="a_node4"><a xlink:href="Configuration_8h.html" target="_top" xlink:title=" ">
<polygon fill="white" stroke="#666666" points="443,-19 363,-19 363,0 443,0 443,-19"/>
<text text-anchor="middle" x="403" y="-7" font-family="Helvetica,sans-Serif" font-size="10.00">Configuration.h</text>
</a>
</g>
</g>
<!-- Node3&#45;&gt;Node4 -->
<g id="edge3" class="edge">
<title>Node3&#45;&gt;Node4</title>
<path fill="none" stroke="#63b8ff" d="M228.55,-164.52C241.91,-156.02 262,-142.57 278,-129 313,-99.32 316.39,-86.24 350,-55 360.54,-45.21 372.81,-34.84 382.89,-26.58"/>
<polygon fill="#63b8ff" stroke="#63b8ff" points="385.02,-29.36 390.58,-20.34 380.61,-23.92 385.02,-29.36"/>
</g>
<!-- Node5 -->
<g id="node5" class="node">
<title>Node5</title>
<g id="a_node5"><a xlink:href="Array_8h.html" target="_top" xlink:title=" ">
<polygon fill="white" stroke="#666666" points="269.5,-129 222.5,-129 222.5,-110 269.5,-110 269.5,-129"/>
<text text-anchor="middle" x="246" y="-117" font-family="Helvetica,sans-Serif" font-size="10.00">Array.h</text>
</a>
</g>
</g>
<!-- Node3&#45;&gt;Node5 -->
<g id="edge4" class="edge">
<title>Node3&#45;&gt;Node5</title>
<path fill="none" stroke="#63b8ff" d="M219.28,-164.75C223.47,-157.81 229.48,-147.86 234.73,-139.16"/>
<polygon fill="#63b8ff" stroke="#63b8ff" points="237.65,-141.11 239.82,-130.74 231.65,-137.49 237.65,-141.11"/>
</g>
<!-- Node7 -->
<g id="node7" class="node">
<title>Node7</title>
<g id="a_node7"><a xlink:title=" ">
<polygon fill="#e0e0e0" stroke="#999999" points="78,-19 0,-19 0,0 78,0 78,-19"/>
<text text-anchor="middle" x="39" y="-7" font-family="Helvetica,sans-Serif" font-size="10.00">ArduinoJson.h</text>
</a>
</g>
</g>
<!-- Node3&#45;&gt;Node7 -->
<g id="edge13" class="edge">
<title>Node3&#45;&gt;Node7</title>
<path fill="none" stroke="#63b8ff" d="M182.6,-165.28C143.49,-154.78 80.81,-137.02 73,-129 46.94,-102.24 40.61,-56.9 39.22,-30.74"/>
<polygon fill="#63b8ff" stroke="#63b8ff" points="42.72,-30.71 38.91,-20.82 35.72,-30.93 42.72,-30.71"/>
</g>
<!-- Node12 -->
<g id="node12" class="node">
<title>Node12</title>
<g id="a_node12"><a xlink:title=" ">
<polygon fill="#e0e0e0" stroke="#999999" points="141.5,-129 82.5,-129 82.5,-110 141.5,-110 141.5,-129"/>
<text text-anchor="middle" x="112" y="-117" font-family="Helvetica,sans-Serif" font-size="10.00">functional</text>
</a>
</g>
</g>
<!-- Node3&#45;&gt;Node12 -->
<g id="edge14" class="edge">
<title>Node3&#45;&gt;Node12</title>
<path fill="none" stroke="#63b8ff" d="M196.7,-164.51C180.92,-156.31 157.36,-144.07 139.09,-134.58"/>
<polygon fill="#63b8ff" stroke="#63b8ff" points="140.88,-131.56 130.39,-130.06 137.65,-137.77 140.88,-131.56"/>
</g>
<!-- Node13 -->
<g id="node13" class="node">
<title>Node13</title>
<g id="a_node13"><a xlink:title=" ">
<polygon fill="#e0e0e0" stroke="#999999" points="204,-129 160,-129 160,-110 204,-110 204,-129"/>
<text text-anchor="middle" x="182" y="-117" font-family="Helvetica,sans-Serif" font-size="10.00">vector</text>
</a>
</g>
</g>
<!-- Node3&#45;&gt;Node13 -->
<g id="edge15" class="edge">
<title>Node3&#45;&gt;Node13</title>
<path fill="none" stroke="#63b8ff" d="M208.72,-164.75C204.53,-157.81 198.52,-147.86 193.27,-139.16"/>
<polygon fill="#63b8ff" stroke="#63b8ff" points="196.35,-137.49 188.18,-130.74 190.35,-141.11 196.35,-137.49"/>
</g>
<!-- Node6 -->
<g id="node6" class="node">
<title>Node6</title>
<g id="a_node6"><a xlink:href="Helper_8h.html" target="_top" xlink:title=" ">
<polygon fill="white" stroke="#666666" points="272.5,-74 219.5,-74 219.5,-55 272.5,-55 272.5,-74"/>
<text text-anchor="middle" x="246" y="-62" font-family="Helvetica,sans-Serif" font-size="10.00">Helper.h</text>
</a>
</g>
</g>
<!-- Node5&#45;&gt;Node6 -->
<g id="edge5" class="edge">
<title>Node5&#45;&gt;Node6</title>
<path fill="none" stroke="#63b8ff" d="M246,-109.75C246,-103.27 246,-94.16 246,-85.9"/>
<polygon fill="#63b8ff" stroke="#63b8ff" points="249.5,-85.96 246,-75.96 242.5,-85.96 249.5,-85.96"/>
</g>
<!-- Node9 -->
<g id="node9" class="node">
<title>Node9</title>
<g id="a_node9"><a xlink:title=" ">
<polygon fill="#e0e0e0" stroke="#999999" points="147.5,-19 96.5,-19 96.5,0 147.5,0 147.5,-19"/>
<text text-anchor="middle" x="122" y="-7" font-family="Helvetica,sans-Serif" font-size="10.00">assert.h</text>
</a>
</g>
</g>
<!-- Node5&#45;&gt;Node9 -->
<g id="edge12" class="edge">
<title>Node5&#45;&gt;Node9</title>
<path fill="none" stroke="#63b8ff" d="M235.85,-109.66C215.05,-91.55 167.31,-49.96 140.73,-26.81"/>
<polygon fill="#63b8ff" stroke="#63b8ff" points="143.27,-24.38 133.43,-20.45 138.67,-29.66 143.27,-24.38"/>
</g>
<!-- Node6&#45;&gt;Node4 -->
<g id="edge6" class="edge">
<title>Node6&#45;&gt;Node4</title>
<path fill="none" stroke="#63b8ff" d="M272.63,-54.51C298.2,-45.88 337.05,-32.76 365.69,-23.1"/>
<polygon fill="#63b8ff" stroke="#63b8ff" points="366.71,-26.45 375.06,-19.93 364.47,-19.81 366.71,-26.45"/>
</g>
<!-- Node6&#45;&gt;Node7 -->
<g id="edge7" class="edge">
<title>Node6&#45;&gt;Node7</title>
<path fill="none" stroke="#63b8ff" d="M219.36,-56.68C185.43,-47.99 126.24,-32.84 84.95,-22.27"/>
<polygon fill="#63b8ff" stroke="#63b8ff" points="85.84,-18.88 75.28,-19.79 84.1,-25.66 85.84,-18.88"/>
</g>
<!-- Node8 -->
<g id="node8" class="node">
<title>Node8</title>
<g id="a_node8"><a xlink:title=" ">
<polygon fill="#e0e0e0" stroke="#999999" points="275.5,-19 228.5,-19 228.5,0 275.5,0 275.5,-19"/>
<text text-anchor="middle" x="252" y="-7" font-family="Helvetica,sans-Serif" font-size="10.00">iterator</text>
</a>
</g>
</g>
<!-- Node6&#45;&gt;Node8 -->
<g id="edge8" class="edge">
<title>Node6&#45;&gt;Node8</title>
<path fill="none" stroke="#63b8ff" d="M246.99,-54.75C247.73,-48.19 248.78,-38.95 249.72,-30.6"/>
<polygon fill="#63b8ff" stroke="#63b8ff" points="253.17,-31.28 250.82,-20.95 246.21,-30.49 253.17,-31.28"/>
</g>
<!-- Node6&#45;&gt;Node9 -->
<g id="edge9" class="edge">
<title>Node6&#45;&gt;Node9</title>
<path fill="none" stroke="#63b8ff" d="M224.97,-54.51C205.25,-46.08 175.53,-33.38 153.09,-23.79"/>
<polygon fill="#63b8ff" stroke="#63b8ff" points="154.69,-20.66 144.12,-19.95 151.94,-27.1 154.69,-20.66"/>
</g>
<!-- Node10 -->
<g id="node10" class="node">
<title>Node10</title>
<g id="a_node10"><a xlink:title=" ">
<polygon fill="#e0e0e0" stroke="#999999" points="344.5,-19 293.5,-19 293.5,0 344.5,0 344.5,-19"/>
<text text-anchor="middle" x="319" y="-7" font-family="Helvetica,sans-Serif" font-size="10.00">stdarg.h</text>
</a>
</g>
</g>
<!-- Node6&#45;&gt;Node10 -->
<g id="edge10" class="edge">
<title>Node6&#45;&gt;Node10</title>
<path fill="none" stroke="#63b8ff" d="M258.38,-54.51C269.15,-46.7 284.97,-35.21 297.75,-25.93"/>
<polygon fill="#63b8ff" stroke="#63b8ff" points="299.54,-28.95 305.57,-20.25 295.43,-23.29 299.54,-28.95"/>
</g>
<!-- Node11 -->
<g id="node11" class="node">
<title>Node11</title>
<g id="a_node11"><a xlink:title=" ">
<polygon fill="#e0e0e0" stroke="#999999" points="210.5,-19 165.5,-19 165.5,0 210.5,0 210.5,-19"/>
<text text-anchor="middle" x="188" y="-7" font-family="Helvetica,sans-Serif" font-size="10.00">stdio.h</text>
</a>
</g>
</g>
<!-- Node6&#45;&gt;Node11 -->
<g id="edge11" class="edge">
<title>Node6&#45;&gt;Node11</title>
<path fill="none" stroke="#63b8ff" d="M236.16,-54.51C227.95,-47 216.02,-36.1 206.09,-27.03"/>
<polygon fill="#63b8ff" stroke="#63b8ff" points="208.55,-24.54 198.81,-20.38 203.83,-29.71 208.55,-24.54"/>
</g>
<!-- Node15&#45;&gt;Node4 -->
<g id="edge18" class="edge">
<title>Node15&#45;&gt;Node4</title>
<path fill="none" stroke="#63b8ff" d="M394.65,-54.75C395.89,-48.19 397.63,-38.95 399.21,-30.6"/>
<polygon fill="#63b8ff" stroke="#63b8ff" points="402.62,-31.4 401.03,-20.93 395.74,-30.11 402.62,-31.4"/>
</g>
</g>
</svg>
