<?xml version="1.0" encoding="UTF-8" standalone="no"?>
<!DOCTYPE svg PUBLIC "-//W3C//DTD SVG 1.1//EN"
 "http://www.w3.org/Graphics/SVG/1.1/DTD/svg11.dtd">
<!-- Generated by graphviz version 7.0.5 (20221223.1930)
 -->
<!-- Title: src/Callback_Watchdog.h Pages: 1 -->
<svg width="725pt" height="203pt"
 viewBox="0.00 0.00 725.00 203.00" xmlns="http://www.w3.org/2000/svg" xmlns:xlink="http://www.w3.org/1999/xlink">
<g id="graph0" class="graph" transform="scale(1 1) rotate(0) translate(4 199)">
<title>src/Callback_Watchdog.h</title>
<!-- Node1 -->
<g id="node1" class="node">
<title>Node1</title>
<g id="a_node1"><a xlink:title=" ">
<polygon fill="#999999" stroke="#666666" points="312,-195 185,-195 185,-176 312,-176 312,-195"/>
<text text-anchor="middle" x="248.5" y="-183" font-family="Helvetica,sans-Serif" font-size="10.00">src/Callback_Watchdog.h</text>
</a>
</g>
</g>
<!-- Node2 -->
<g id="node2" class="node">
<title>Node2</title>
<g id="a_node2"><a xlink:href="Attribute__Request__Callback_8h.html" target="_top" xlink:title=" ">
<polygon fill="white" stroke="#666666" points="115,-140 4,-140 4,-110 115,-110 115,-140"/>
<text text-anchor="start" x="12" y="-128" font-family="Helvetica,sans-Serif" font-size="10.00">src/Attribute_Request</text>
<text text-anchor="middle" x="59.5" y="-117" font-family="Helvetica,sans-Serif" font-size="10.00">_Callback.h</text>
</a>
</g>
</g>
<!-- Node1&#45;&gt;Node2 -->
<g id="edge1" class="edge">
<title>Node1&#45;&gt;Node2</title>
<path fill="none" stroke="#63b8ff" d="M208.91,-172.25C178.95,-162.97 137.71,-150.21 106.15,-140.44"/>
<polygon fill="#63b8ff" stroke="#63b8ff" points="207.76,-175.55 218.35,-175.17 209.83,-168.87 207.76,-175.55"/>
</g>
<!-- Node5 -->
<g id="node5" class="node">
<title>Node5</title>
<g id="a_node5"><a xlink:href="OTA__Handler_8h.html" target="_top" xlink:title=" ">
<polygon fill="white" stroke="#666666" points="233.5,-134.5 133.5,-134.5 133.5,-115.5 233.5,-115.5 233.5,-134.5"/>
<text text-anchor="middle" x="183.5" y="-122.5" font-family="Helvetica,sans-Serif" font-size="10.00">src/OTA_Handler.h</text>
</a>
</g>
</g>
<!-- Node1&#45;&gt;Node5 -->
<g id="edge4" class="edge">
<title>Node1&#45;&gt;Node5</title>
<path fill="none" stroke="#63b8ff" d="M230.28,-168.1C218.35,-157.37 203.23,-143.76 193.47,-134.97"/>
<polygon fill="#63b8ff" stroke="#63b8ff" points="227.73,-170.51 237.5,-174.6 232.41,-165.31 227.73,-170.51"/>
</g>
<!-- Node6 -->
<g id="node6" class="node">
<title>Node6</title>
<g id="a_node6"><a xlink:href="Provision__Callback_8h.html" target="_top" xlink:title=" ">
<polygon fill="white" stroke="#666666" points="375.5,-134.5 251.5,-134.5 251.5,-115.5 375.5,-115.5 375.5,-134.5"/>
<text text-anchor="middle" x="313.5" y="-122.5" font-family="Helvetica,sans-Serif" font-size="10.00">src/Provision_Callback.h</text>
</a>
</g>
</g>
<!-- Node1&#45;&gt;Node6 -->
<g id="edge6" class="edge">
<title>Node1&#45;&gt;Node6</title>
<path fill="none" stroke="#63b8ff" d="M266.72,-168.1C278.65,-157.37 293.77,-143.76 303.53,-134.97"/>
<polygon fill="#63b8ff" stroke="#63b8ff" points="264.59,-165.31 259.5,-174.6 269.27,-170.51 264.59,-165.31"/>
</g>
<!-- Node9 -->
<g id="node9" class="node">
<title>Node9</title>
<g id="a_node9"><a xlink:href="RPC__Request__Callback_8h.html" target="_top" xlink:title=" ">
<polygon fill="white" stroke="#666666" points="558,-134.5 413,-134.5 413,-115.5 558,-115.5 558,-134.5"/>
<text text-anchor="middle" x="485.5" y="-122.5" font-family="Helvetica,sans-Serif" font-size="10.00">src/RPC_Request_Callback.h</text>
</a>
</g>
</g>
<!-- Node1&#45;&gt;Node9 -->
<g id="edge9" class="edge">
<title>Node1&#45;&gt;Node9</title>
<path fill="none" stroke="#63b8ff" d="M295.74,-172.84C340.94,-161.68 408.13,-145.1 449.25,-134.95"/>
<polygon fill="#63b8ff" stroke="#63b8ff" points="295.09,-169.39 286.22,-175.19 296.77,-176.19 295.09,-169.39"/>
</g>
<!-- Node3 -->
<g id="node3" class="node">
<title>Node3</title>
<g id="a_node3"><a xlink:href="Attribute__Request_8h.html" target="_top" xlink:title=" ">
<polygon fill="white" stroke="#666666" points="119,-74 0,-74 0,-55 119,-55 119,-74"/>
<text text-anchor="middle" x="59.5" y="-62" font-family="Helvetica,sans-Serif" font-size="10.00">src/Attribute_Request.h</text>
</a>
</g>
</g>
<!-- Node2&#45;&gt;Node3 -->
<g id="edge2" class="edge">
<title>Node2&#45;&gt;Node3</title>
<path fill="none" stroke="#63b8ff" d="M59.5,-98.3C59.5,-89.65 59.5,-80.58 59.5,-74.18"/>
<polygon fill="#63b8ff" stroke="#63b8ff" points="56,-98.03 59.5,-108.03 63,-98.03 56,-98.03"/>
</g>
<!-- Node4 -->
<g id="node4" class="node">
<title>Node4</title>
<g id="a_node4"><a xlink:href="OTA__Firmware__Update_8h.html" target="_top" xlink:title=" ">
<polygon fill="white" stroke="#666666" points="175,-19 32,-19 32,0 175,0 175,-19"/>
<text text-anchor="middle" x="103.5" y="-7" font-family="Helvetica,sans-Serif" font-size="10.00">src/OTA_Firmware_Update.h</text>
</a>
</g>
</g>
<!-- Node3&#45;&gt;Node4 -->
<g id="edge3" class="edge">
<title>Node3&#45;&gt;Node4</title>
<path fill="none" stroke="#63b8ff" d="M74.08,-45.93C81.45,-37.06 90.08,-26.67 96.08,-19.44"/>
<polygon fill="#63b8ff" stroke="#63b8ff" points="71.43,-43.65 67.73,-53.58 76.81,-48.13 71.43,-43.65"/>
</g>
<!-- Node5&#45;&gt;Node4 -->
<g id="edge5" class="edge">
<title>Node5&#45;&gt;Node4</title>
<path fill="none" stroke="#63b8ff" d="M170.64,-105.76C153.22,-81.05 122.81,-37.89 109.75,-19.36"/>
<polygon fill="#63b8ff" stroke="#63b8ff" points="167.73,-107.7 176.35,-113.86 173.45,-103.67 167.73,-107.7"/>
</g>
<!-- Node7 -->
<g id="node7" class="node">
<title>Node7</title>
<g id="a_node7"><a xlink:href="Provision_8h.html" target="_top" xlink:title=" ">
<polygon fill="white" stroke="#666666" points="257,-74 176,-74 176,-55 257,-55 257,-74"/>
<text text-anchor="middle" x="216.5" y="-62" font-family="Helvetica,sans-Serif" font-size="10.00">src/Provision.h</text>
</a>
</g>
</g>
<!-- Node6&#45;&gt;Node7 -->
<g id="edge7" class="edge">
<title>Node6&#45;&gt;Node7</title>
<path fill="none" stroke="#63b8ff" d="M289.14,-109.31C270.97,-98.35 246.74,-83.74 231.37,-74.47"/>
<polygon fill="#63b8ff" stroke="#63b8ff" points="287.1,-112.17 297.47,-114.33 290.72,-106.17 287.1,-112.17"/>
</g>
<!-- Node8 -->
<g id="node8" class="node">
<title>Node8</title>
<g id="a_node8"><a xlink:href="Provision__Callback_8cpp.html" target="_top" xlink:title=" ">
<polygon fill="white" stroke="#666666" points="409.5,-74 275.5,-74 275.5,-55 409.5,-55 409.5,-74"/>
<text text-anchor="middle" x="342.5" y="-62" font-family="Helvetica,sans-Serif" font-size="10.00">src/Provision_Callback.cpp</text>
</a>
</g>
</g>
<!-- Node6&#45;&gt;Node8 -->
<g id="edge8" class="edge">
<title>Node6&#45;&gt;Node8</title>
<path fill="none" stroke="#63b8ff" d="M322.84,-105.16C328,-94.74 334.17,-82.3 338.2,-74.17"/>
<polygon fill="#63b8ff" stroke="#63b8ff" points="319.76,-103.5 318.45,-114.01 326.03,-106.61 319.76,-103.5"/>
</g>
<!-- Node10 -->
<g id="node10" class="node">
<title>Node10</title>
<g id="a_node10"><a xlink:href="Client__Side__RPC_8h.html" target="_top" xlink:title=" ">
<polygon fill="white" stroke="#666666" points="543.5,-74 427.5,-74 427.5,-55 543.5,-55 543.5,-74"/>
<text text-anchor="middle" x="485.5" y="-62" font-family="Helvetica,sans-Serif" font-size="10.00">src/Client_Side_RPC.h</text>
</a>
</g>
</g>
<!-- Node9&#45;&gt;Node10 -->
<g id="edge10" class="edge">
<title>Node9&#45;&gt;Node10</title>
<path fill="none" stroke="#63b8ff" d="M485.5,-104.16C485.5,-93.95 485.5,-82.04 485.5,-74.17"/>
<polygon fill="#63b8ff" stroke="#63b8ff" points="482,-103.85 485.5,-113.85 489,-103.85 482,-103.85"/>
</g>
<!-- Node11 -->
<g id="node11" class="node">
<title>Node11</title>
<g id="a_node11"><a xlink:href="RPC__Request__Callback_8cpp.html" target="_top" xlink:title=" ">
<polygon fill="white" stroke="#666666" points="717,-74 562,-74 562,-55 717,-55 717,-74"/>
<text text-anchor="middle" x="639.5" y="-62" font-family="Helvetica,sans-Serif" font-size="10.00">src/RPC_Request_Callback.cpp</text>
</a>
</g>
</g>
<!-- Node9&#45;&gt;Node11 -->
<g id="edge11" class="edge">
<title>Node9&#45;&gt;Node11</title>
<path fill="none" stroke="#63b8ff" d="M519.44,-111.11C548.68,-100 590.13,-84.25 615.89,-74.47"/>
<polygon fill="#63b8ff" stroke="#63b8ff" points="518.41,-107.75 510.3,-114.58 520.9,-114.3 518.41,-107.75"/>
</g>
</g>
</svg>
