<?xml version="1.0" encoding="UTF-8" standalone="no"?>
<!DOCTYPE svg PUBLIC "-//W3C//DTD SVG 1.1//EN"
 "http://www.w3.org/Graphics/SVG/1.1/DTD/svg11.dtd">
<!-- Generated by graphviz version 7.0.5 (20221223.1930)
 -->
<!-- Title: Callback&lt; return_typ, argument_types &gt; Pages: 1 -->
<svg width="908pt" height="905pt"
 viewBox="0.00 0.00 908.00 905.28" xmlns="http://www.w3.org/2000/svg" xmlns:xlink="http://www.w3.org/1999/xlink">
<g id="graph0" class="graph" transform="scale(1 1) rotate(0) translate(4 901.28)">
<title>Callback&lt; return_typ, argument_types &gt;</title>
<!-- Node1 -->
<g id="node1" class="node">
<title>Node1</title>
<g id="a_node1"><a xlink:title="General purpose safe callback wrapper. Expects either c&#45;style or c++ style function pointer,...">
<polygon fill="#999999" stroke="#666666" points="108,-358.47 0,-358.47 0,-328.47 108,-328.47 108,-358.47"/>
<text text-anchor="start" x="8" y="-346.47" font-family="Helvetica,sans-Serif" font-size="10.00">Callback&lt; return_typ,</text>
<text text-anchor="middle" x="54" y="-335.47" font-family="Helvetica,sans-Serif" font-size="10.00"> argument_types &gt;</text>
</a>
</g>
</g>
<!-- Node2 -->
<g id="node2" class="node">
<title>Node2</title>
<g id="a_node2"><a xlink:href="classCallback.html" target="_top" xlink:title=" ">
<polygon fill="white" stroke="#666666" points="437,-777.47 302,-777.47 302,-747.47 437,-747.47 437,-777.47"/>
<text text-anchor="start" x="310" y="-765.47" font-family="Helvetica,sans-Serif" font-size="10.00">Callback&lt; void, JsonObject</text>
<text text-anchor="middle" x="369.5" y="-754.47" font-family="Helvetica,sans-Serif" font-size="10.00">Const const &amp; &gt;</text>
</a>
</g>
</g>
<!-- Node1&#45;&gt;Node2 -->
<g id="edge1" class="edge">
<title>Node1&#45;&gt;Node2</title>
<path fill="none" stroke="orange" stroke-dasharray="5,2" d="M57.84,-370.22C65.54,-438.32 88.79,-615.97 126,-660.47 170.17,-713.28 246.41,-739.27 301.63,-751.7"/>
<polygon fill="orange" stroke="orange" points="61.32,-369.9 56.75,-360.34 54.36,-370.67 61.32,-369.9"/>
<text text-anchor="start" x="143" y="-754.47" font-family="Helvetica,sans-Serif" font-size="10.00"> &lt; void, JsonObjectConst</text>
<text text-anchor="middle" x="197.5" y="-743.47" font-family="Helvetica,sans-Serif" font-size="10.00"> const &amp; &gt;</text>
</g>
<!-- Node9 -->
<g id="node9" class="node">
<title>Node9</title>
<g id="a_node9"><a xlink:href="classCallback.html" target="_top" xlink:title=" ">
<polygon fill="white" stroke="#666666" points="414,-642.97 325,-642.97 325,-623.97 414,-623.97 414,-642.97"/>
<text text-anchor="middle" x="369.5" y="-630.97" font-family="Helvetica,sans-Serif" font-size="10.00">Callback&lt; void &gt;</text>
</a>
</g>
</g>
<!-- Node1&#45;&gt;Node9 -->
<g id="edge12" class="edge">
<title>Node1&#45;&gt;Node9</title>
<path fill="none" stroke="orange" stroke-dasharray="5,2" d="M58.43,-370.14C66.77,-430.47 90.07,-574.55 126,-605.47 181.09,-652.87 271.2,-649.33 324.69,-641.82"/>
<polygon fill="orange" stroke="orange" points="61.93,-369.88 57.13,-360.43 54.99,-370.81 61.93,-369.88"/>
<text text-anchor="middle" x="197.5" y="-648.47" font-family="Helvetica,sans-Serif" font-size="10.00"> &lt; void &gt;</text>
</g>
<!-- Node11 -->
<g id="node11" class="node">
<title>Node11</title>
<g id="a_node11"><a xlink:href="classCallback.html" target="_top" xlink:title=" ">
<polygon fill="white" stroke="#666666" points="421.5,-605.47 317.5,-605.47 317.5,-575.47 421.5,-575.47 421.5,-605.47"/>
<text text-anchor="start" x="325.5" y="-593.47" font-family="Helvetica,sans-Serif" font-size="10.00">Callback&lt; void, bool</text>
<text text-anchor="middle" x="369.5" y="-582.47" font-family="Helvetica,sans-Serif" font-size="10.00"> const &amp; &gt;</text>
</a>
</g>
</g>
<!-- Node1&#45;&gt;Node11 -->
<g id="edge14" class="edge">
<title>Node1&#45;&gt;Node11</title>
<path fill="none" stroke="orange" stroke-dasharray="5,2" d="M54.82,-370.45C56.11,-418.17 66.31,-517 126,-565.47 154.38,-588.51 254.88,-591.84 317.25,-591.56"/>
<polygon fill="orange" stroke="orange" points="58.32,-370.41 54.68,-360.46 51.32,-370.51 58.32,-370.41"/>
<text text-anchor="middle" x="197.5" y="-593.47" font-family="Helvetica,sans-Serif" font-size="10.00"> &lt; void, bool const &amp; &gt;</text>
</g>
<!-- Node13 -->
<g id="node13" class="node">
<title>Node13</title>
<g id="a_node13"><a xlink:href="classCallback.html" target="_top" xlink:title=" ">
<polygon fill="white" stroke="#666666" points="445,-557.47 294,-557.47 294,-527.47 445,-527.47 445,-557.47"/>
<text text-anchor="start" x="302" y="-545.47" font-family="Helvetica,sans-Serif" font-size="10.00">Callback&lt; void, JsonDocument</text>
<text text-anchor="middle" x="369.5" y="-534.47" font-family="Helvetica,sans-Serif" font-size="10.00"> const &amp; &gt;</text>
</a>
</g>
</g>
<!-- Node1&#45;&gt;Node13 -->
<g id="edge16" class="edge">
<title>Node1&#45;&gt;Node13</title>
<path fill="none" stroke="orange" stroke-dasharray="5,2" d="M57.41,-370.08C62.53,-409.55 78.27,-482.78 126,-518.47 151.75,-537.72 232.41,-542.57 293.7,-543.33"/>
<polygon fill="orange" stroke="orange" points="60.9,-369.81 56.29,-360.27 53.94,-370.6 60.9,-369.81"/>
<text text-anchor="start" x="147.5" y="-556.47" font-family="Helvetica,sans-Serif" font-size="10.00"> &lt; void, JsonDocument</text>
<text text-anchor="middle" x="197.5" y="-545.47" font-family="Helvetica,sans-Serif" font-size="10.00"> const &amp; &gt;</text>
</g>
<!-- Node16 -->
<g id="node16" class="node">
<title>Node16</title>
<g id="a_node16"><a xlink:href="classCallback.html" target="_top" xlink:title=" ">
<polygon fill="white" stroke="#666666" points="452,-509.47 287,-509.47 287,-479.47 452,-479.47 452,-509.47"/>
<text text-anchor="start" x="295" y="-497.47" font-family="Helvetica,sans-Serif" font-size="10.00">Callback&lt; void, JsonVariant</text>
<text text-anchor="middle" x="369.5" y="-486.47" font-family="Helvetica,sans-Serif" font-size="10.00">Const const &amp;, JsonDocument &amp; &gt;</text>
</a>
</g>
</g>
<!-- Node1&#45;&gt;Node16 -->
<g id="edge19" class="edge">
<title>Node1&#45;&gt;Node16</title>
<path fill="none" stroke="orange" stroke-dasharray="5,2" d="M61.42,-369.58C70.37,-399.89 89.73,-448.75 126,-472.47 151.78,-489.32 226.81,-494.12 286.66,-495.12"/>
<polygon fill="orange" stroke="orange" points="64.82,-368.76 58.79,-360.05 58.07,-370.62 64.82,-368.76"/>
<text text-anchor="start" x="135.5" y="-508.47" font-family="Helvetica,sans-Serif" font-size="10.00"> &lt; void, JsonVariantConst</text>
<text text-anchor="middle" x="197.5" y="-497.47" font-family="Helvetica,sans-Serif" font-size="10.00"> const &amp;, JsonDocument &amp; &gt;</text>
</g>
<!-- Node18 -->
<g id="node18" class="node">
<title>Node18</title>
<g id="a_node18"><a xlink:href="classCallback.html" target="_top" xlink:title=" ">
<polygon fill="white" stroke="#666666" points="441,-460.97 298,-460.97 298,-419.97 441,-419.97 441,-460.97"/>
<text text-anchor="start" x="306" y="-448.97" font-family="Helvetica,sans-Serif" font-size="10.00">Callback&lt; bool, char</text>
<text text-anchor="start" x="306" y="-437.97" font-family="Helvetica,sans-Serif" font-size="10.00"> const *const, JsonDocument</text>
<text text-anchor="middle" x="369.5" y="-426.97" font-family="Helvetica,sans-Serif" font-size="10.00"> const &amp;, size_t const &amp; &gt;</text>
</a>
</g>
</g>
<!-- Node1&#45;&gt;Node18 -->
<g id="edge21" class="edge">
<title>Node1&#45;&gt;Node18</title>
<path fill="none" stroke="orange" stroke-dasharray="5,2" d="M76.49,-366.64C89.56,-379.28 107.31,-394.02 126,-402.47 180.37,-427.03 247.8,-436.09 297.74,-439.26"/>
<polygon fill="orange" stroke="orange" points="79.21,-364.42 69.68,-359.8 74.25,-369.36 79.21,-364.42"/>
<text text-anchor="start" x="142.5" y="-461.47" font-family="Helvetica,sans-Serif" font-size="10.00"> &lt; bool, char const</text>
<text text-anchor="start" x="142.5" y="-450.47" font-family="Helvetica,sans-Serif" font-size="10.00"> *const, JsonDocument</text>
<text text-anchor="middle" x="197.5" y="-439.47" font-family="Helvetica,sans-Serif" font-size="10.00"> const &amp;, size_t const &amp; &gt;</text>
</g>
<!-- Node19 -->
<g id="node19" class="node">
<title>Node19</title>
<g id="a_node19"><a xlink:href="classCallback.html" target="_top" xlink:title=" ">
<polygon fill="white" stroke="#666666" points="421.5,-401.47 317.5,-401.47 317.5,-371.47 421.5,-371.47 421.5,-401.47"/>
<text text-anchor="start" x="325.5" y="-389.47" font-family="Helvetica,sans-Serif" font-size="10.00">Callback&lt; bool, char</text>
<text text-anchor="middle" x="369.5" y="-378.47" font-family="Helvetica,sans-Serif" font-size="10.00"> const *const &gt;</text>
</a>
</g>
</g>
<!-- Node1&#45;&gt;Node19 -->
<g id="edge22" class="edge">
<title>Node1&#45;&gt;Node19</title>
<path fill="none" stroke="orange" stroke-dasharray="5,2" d="M119.48,-357.36C121.68,-357.75 123.86,-358.12 126,-358.47 191.67,-369.17 268,-377.28 317.21,-381.95"/>
<polygon fill="orange" stroke="orange" points="120.36,-353.96 109.89,-355.58 119.08,-360.84 120.36,-353.96"/>
<text text-anchor="start" x="158" y="-390.47" font-family="Helvetica,sans-Serif" font-size="10.00"> &lt; bool, char const</text>
<text text-anchor="middle" x="197.5" y="-379.47" font-family="Helvetica,sans-Serif" font-size="10.00"> *const &gt;</text>
</g>
<!-- Node20 -->
<g id="node20" class="node">
<title>Node20</title>
<g id="a_node20"><a xlink:href="classCallback.html" target="_top" xlink:title=" ">
<polygon fill="white" stroke="#666666" points="420.5,-352.97 318.5,-352.97 318.5,-333.97 420.5,-333.97 420.5,-352.97"/>
<text text-anchor="middle" x="369.5" y="-340.97" font-family="Helvetica,sans-Serif" font-size="10.00">Callback&lt; size_t * &gt;</text>
</a>
</g>
</g>
<!-- Node1&#45;&gt;Node20 -->
<g id="edge23" class="edge">
<title>Node1&#45;&gt;Node20</title>
<path fill="none" stroke="orange" stroke-dasharray="5,2" d="M119.58,-343.47C178.46,-343.47 264.24,-343.47 318.17,-343.47"/>
<polygon fill="orange" stroke="orange" points="119.69,-339.97 109.69,-343.47 119.69,-346.97 119.69,-339.97"/>
<text text-anchor="middle" x="197.5" y="-346.47" font-family="Helvetica,sans-Serif" font-size="10.00"> &lt; size_t * &gt;</text>
</g>
<!-- Node21 -->
<g id="node21" class="node">
<title>Node21</title>
<g id="a_node21"><a xlink:href="classCallback.html" target="_top" xlink:title=" ">
<polygon fill="white" stroke="#666666" points="422.5,-315.47 316.5,-315.47 316.5,-285.47 422.5,-285.47 422.5,-315.47"/>
<text text-anchor="start" x="324.5" y="-303.47" font-family="Helvetica,sans-Serif" font-size="10.00">Callback&lt; void, IAPI</text>
<text text-anchor="middle" x="369.5" y="-292.47" font-family="Helvetica,sans-Serif" font-size="10.00">_Implementation &amp; &gt;</text>
</a>
</g>
</g>
<!-- Node1&#45;&gt;Node21 -->
<g id="edge24" class="edge">
<title>Node1&#45;&gt;Node21</title>
<path fill="none" stroke="orange" stroke-dasharray="5,2" d="M119.48,-329.57C121.68,-329.19 123.86,-328.82 126,-328.47 191.25,-317.83 267.03,-309.76 316.27,-305.08"/>
<polygon fill="orange" stroke="orange" points="119.08,-326.09 109.89,-331.35 120.36,-332.97 119.08,-326.09"/>
<text text-anchor="middle" x="197.5" y="-331.47" font-family="Helvetica,sans-Serif" font-size="10.00"> &lt; void, IAPI_Implementation &amp; &gt;</text>
</g>
<!-- Node22 -->
<g id="node22" class="node">
<title>Node22</title>
<g id="a_node22"><a xlink:href="classCallback.html" target="_top" xlink:title=" ">
<polygon fill="white" stroke="#666666" points="431,-266.97 308,-266.97 308,-225.97 431,-225.97 431,-266.97"/>
<text text-anchor="start" x="316" y="-254.97" font-family="Helvetica,sans-Serif" font-size="10.00">Callback&lt; bool, char</text>
<text text-anchor="start" x="316" y="-243.97" font-family="Helvetica,sans-Serif" font-size="10.00"> const *const, char const</text>
<text text-anchor="middle" x="369.5" y="-232.97" font-family="Helvetica,sans-Serif" font-size="10.00"> *const &gt;</text>
</a>
</g>
</g>
<!-- Node1&#45;&gt;Node22 -->
<g id="edge25" class="edge">
<title>Node1&#45;&gt;Node22</title>
<path fill="none" stroke="orange" stroke-dasharray="5,2" d="M72.07,-319.29C84.92,-303.13 104.05,-282.97 126,-272.47 183.3,-245.06 256.71,-240.85 307.67,-242.05"/>
<polygon fill="orange" stroke="orange" points="69.45,-316.96 66.17,-327.04 75.01,-321.2 69.45,-316.96"/>
<text text-anchor="start" x="157" y="-297.47" font-family="Helvetica,sans-Serif" font-size="10.00"> &lt; bool, char const</text>
<text text-anchor="start" x="157" y="-286.47" font-family="Helvetica,sans-Serif" font-size="10.00"> *const, char const</text>
<text text-anchor="middle" x="197.5" y="-275.47" font-family="Helvetica,sans-Serif" font-size="10.00"> *const &gt;</text>
</g>
<!-- Node23 -->
<g id="node23" class="node">
<title>Node23</title>
<g id="a_node23"><a xlink:href="classCallback.html" target="_top" xlink:title=" ">
<polygon fill="white" stroke="#666666" points="422,-207.97 317,-207.97 317,-188.97 422,-188.97 422,-207.97"/>
<text text-anchor="middle" x="369.5" y="-195.97" font-family="Helvetica,sans-Serif" font-size="10.00">Callback&lt; uint16_t &gt;</text>
</a>
</g>
</g>
<!-- Node1&#45;&gt;Node23 -->
<g id="edge26" class="edge">
<title>Node1&#45;&gt;Node23</title>
<path fill="none" stroke="orange" stroke-dasharray="5,2" d="M63.12,-317.4C73.16,-289.86 93.1,-247.56 126,-226.47 183.44,-189.64 264.54,-188.06 316.83,-191.96"/>
<polygon fill="orange" stroke="orange" points="59.84,-316.16 59.9,-326.76 66.46,-318.44 59.84,-316.16"/>
<text text-anchor="middle" x="197.5" y="-229.47" font-family="Helvetica,sans-Serif" font-size="10.00"> &lt; uint16_t &gt;</text>
</g>
<!-- Node24 -->
<g id="node24" class="node">
<title>Node24</title>
<g id="a_node24"><a xlink:href="classCallback.html" target="_top" xlink:title=" ">
<polygon fill="white" stroke="#666666" points="433.5,-170.97 305.5,-170.97 305.5,-151.97 433.5,-151.97 433.5,-170.97"/>
<text text-anchor="middle" x="369.5" y="-158.97" font-family="Helvetica,sans-Serif" font-size="10.00">Callback&lt; bool, uint16_t &gt;</text>
</a>
</g>
</g>
<!-- Node1&#45;&gt;Node24 -->
<g id="edge27" class="edge">
<title>Node1&#45;&gt;Node24</title>
<path fill="none" stroke="orange" stroke-dasharray="5,2" d="M57.7,-316.82C63.16,-278.39 79.3,-208.4 126,-175.47 185.27,-133.66 274.37,-141.71 326.45,-151.5"/>
<polygon fill="orange" stroke="orange" points="54.25,-316.25 56.47,-326.6 61.19,-317.12 54.25,-316.25"/>
<text text-anchor="middle" x="197.5" y="-178.47" font-family="Helvetica,sans-Serif" font-size="10.00"> &lt; bool, uint16_t &gt;</text>
</g>
<!-- Node25 -->
<g id="node25" class="node">
<title>Node25</title>
<g id="a_node25"><a xlink:href="classCallback.html" target="_top" xlink:title=" ">
<polygon fill="white" stroke="#666666" points="436.5,-133.47 302.5,-133.47 302.5,-103.47 436.5,-103.47 436.5,-133.47"/>
<text text-anchor="start" x="310.5" y="-121.47" font-family="Helvetica,sans-Serif" font-size="10.00">Callback&lt; bool, size</text>
<text text-anchor="middle" x="369.5" y="-110.47" font-family="Helvetica,sans-Serif" font-size="10.00">_t const &amp;, size_t const &amp; &gt;</text>
</a>
</g>
</g>
<!-- Node1&#45;&gt;Node25 -->
<g id="edge28" class="edge">
<title>Node1&#45;&gt;Node25</title>
<path fill="none" stroke="orange" stroke-dasharray="5,2" d="M54.16,-316.76C54.25,-267.74 62.41,-164.14 126,-117.47 152.98,-97.66 239.99,-102.84 302.06,-109.61"/>
<polygon fill="orange" stroke="orange" points="50.66,-316.78 54.27,-326.74 57.66,-316.7 50.66,-316.78"/>
<text text-anchor="start" x="154.5" y="-131.47" font-family="Helvetica,sans-Serif" font-size="10.00"> &lt; bool, size_t const</text>
<text text-anchor="middle" x="197.5" y="-120.47" font-family="Helvetica,sans-Serif" font-size="10.00"> &amp;, size_t const &amp; &gt;</text>
</g>
<!-- Node26 -->
<g id="node26" class="node">
<title>Node26</title>
<g id="a_node26"><a xlink:href="classCallback.html" target="_top" xlink:title=" ">
<polygon fill="white" stroke="#666666" points="414,-84.97 325,-84.97 325,-65.97 414,-65.97 414,-84.97"/>
<text text-anchor="middle" x="369.5" y="-72.97" font-family="Helvetica,sans-Serif" font-size="10.00">Callback&lt; bool &gt;</text>
</a>
</g>
</g>
<!-- Node1&#45;&gt;Node26 -->
<g id="edge29" class="edge">
<title>Node1&#45;&gt;Node26</title>
<path fill="none" stroke="orange" stroke-dasharray="5,2" d="M58.48,-316.93C66.83,-257.63 90.04,-117.33 126,-88.47 185.02,-41.09 280.5,-53.76 332.29,-65.56"/>
<polygon fill="orange" stroke="orange" points="55.06,-316.08 57.17,-326.47 61.99,-317.04 55.06,-316.08"/>
<text text-anchor="middle" x="197.5" y="-91.47" font-family="Helvetica,sans-Serif" font-size="10.00"> &lt; bool &gt;</text>
</g>
<!-- Node27 -->
<g id="node27" class="node">
<title>Node27</title>
<g id="a_node27"><a xlink:href="classCallback.html" target="_top" xlink:title=" ">
<polygon fill="white" stroke="#666666" points="436.5,-46.47 302.5,-46.47 302.5,-16.47 436.5,-16.47 436.5,-46.47"/>
<text text-anchor="start" x="310.5" y="-34.47" font-family="Helvetica,sans-Serif" font-size="10.00">Callback&lt; void, size</text>
<text text-anchor="middle" x="369.5" y="-23.47" font-family="Helvetica,sans-Serif" font-size="10.00">_t const &amp;, size_t const &amp; &gt;</text>
</a>
</g>
</g>
<!-- Node1&#45;&gt;Node27 -->
<g id="edge30" class="edge">
<title>Node1&#45;&gt;Node27</title>
<path fill="none" stroke="orange" stroke-dasharray="5,2" d="M56.87,-316.92C62.35,-247.88 80.9,-65.51 126,-29.47 182.24,15.48 271.55,-0.51 324.65,-16.09"/>
<polygon fill="orange" stroke="orange" points="53.41,-316.33 56.14,-326.57 60.39,-316.86 53.41,-316.33"/>
<text text-anchor="start" x="154.5" y="-43.47" font-family="Helvetica,sans-Serif" font-size="10.00"> &lt; void, size_t const</text>
<text text-anchor="middle" x="197.5" y="-32.47" font-family="Helvetica,sans-Serif" font-size="10.00"> &amp;, size_t const &amp; &gt;</text>
</g>
<!-- Node3 -->
<g id="node3" class="node">
<title>Node3</title>
<g id="a_node3"><a xlink:href="classAttribute__Request__Callback.html" target="_top" xlink:title=" ">
<polygon fill="white" stroke="#666666" points="900,-889.97 741,-889.97 741,-870.97 900,-870.97 900,-889.97"/>
<text text-anchor="middle" x="820.5" y="-877.97" font-family="Helvetica,sans-Serif" font-size="10.00">Attribute_Request_Callback&lt; 1 &gt;</text>
</a>
</g>
</g>
<!-- Node2&#45;&gt;Node3 -->
<g id="edge2" class="edge">
<title>Node2&#45;&gt;Node3</title>
<path fill="none" stroke="#63b8ff" d="M389.04,-786.23C410.19,-811.37 447.31,-849.78 489,-867.47 577.15,-904.86 690.69,-899.05 759.14,-890.46"/>
<polygon fill="#63b8ff" stroke="#63b8ff" points="391.99,-784.32 382.95,-778.8 386.58,-788.76 391.99,-784.32"/>
</g>
<!-- Node4 -->
<g id="node4" class="node">
<title>Node4</title>
<g id="a_node4"><a xlink:href="classAttribute__Request__Callback.html" target="_top" xlink:title=" ">
<polygon fill="white" stroke="#666666" points="889,-831.47 752,-831.47 752,-801.47 889,-801.47 889,-831.47"/>
<text text-anchor="start" x="760" y="-819.47" font-family="Helvetica,sans-Serif" font-size="10.00">Attribute_Request_Callback</text>
<text text-anchor="middle" x="820.5" y="-808.47" font-family="Helvetica,sans-Serif" font-size="10.00">&lt; MaxAttributes &gt;</text>
</a>
</g>
</g>
<!-- Node2&#45;&gt;Node4 -->
<g id="edge3" class="edge">
<title>Node2&#45;&gt;Node4</title>
<path fill="none" stroke="#63b8ff" d="M448.46,-771.84C534.1,-782.14 670.27,-798.52 751.66,-808.31"/>
<polygon fill="#63b8ff" stroke="#63b8ff" points="449.08,-768.39 438.74,-770.67 448.25,-775.34 449.08,-768.39"/>
</g>
<!-- Node5 -->
<g id="node5" class="node">
<title>Node5</title>
<g id="a_node5"><a xlink:href="classShared__Attribute__Callback.html" target="_top" xlink:title=" ">
<polygon fill="white" stroke="#666666" points="886.5,-764.47 754.5,-764.47 754.5,-734.47 886.5,-734.47 886.5,-764.47"/>
<text text-anchor="start" x="762.5" y="-752.47" font-family="Helvetica,sans-Serif" font-size="10.00">Shared_Attribute_Callback</text>
<text text-anchor="middle" x="820.5" y="-741.47" font-family="Helvetica,sans-Serif" font-size="10.00">&lt; MaxAttributes &gt;</text>
</a>
</g>
</g>
<!-- Node2&#45;&gt;Node5 -->
<g id="edge4" class="edge">
<title>Node2&#45;&gt;Node5</title>
<path fill="none" stroke="#63b8ff" d="M448.57,-760.21C535.13,-757.7 673.19,-753.7 754.23,-751.36"/>
<polygon fill="#63b8ff" stroke="#63b8ff" points="448.64,-756.7 438.75,-760.49 448.85,-763.7 448.64,-756.7"/>
</g>
<!-- Node6 -->
<g id="node6" class="node">
<title>Node6</title>
<g id="a_node6"><a xlink:href="classShared__Attribute__Callback.html" target="_top" xlink:title=" ">
<polygon fill="white" stroke="#666666" points="897.5,-690.97 743.5,-690.97 743.5,-671.97 897.5,-671.97 897.5,-690.97"/>
<text text-anchor="middle" x="820.5" y="-678.97" font-family="Helvetica,sans-Serif" font-size="10.00">Shared_Attribute_Callback&lt; 1 &gt;</text>
</a>
</g>
</g>
<!-- Node2&#45;&gt;Node6 -->
<g id="edge5" class="edge">
<title>Node2&#45;&gt;Node6</title>
<path fill="none" stroke="#63b8ff" d="M399.73,-740.71C422.7,-724.96 456.19,-704.85 489,-695.47 573.48,-671.31 675.03,-671.03 743.08,-674.71"/>
<polygon fill="#63b8ff" stroke="#63b8ff" points="397.97,-737.67 391.8,-746.28 402,-743.4 397.97,-737.67"/>
</g>
<!-- Node7 -->
<g id="node7" class="node">
<title>Node7</title>
<g id="a_node7"><a xlink:href="classAttribute__Request__Callback.html" target="_top" xlink:title="Client&#45;side or shared attributes request callback wrapper, contains the needed configuration settings...">
<polygon fill="white" stroke="#666666" points="626,-858.47 489,-858.47 489,-828.47 626,-828.47 626,-858.47"/>
<text text-anchor="start" x="497" y="-846.47" font-family="Helvetica,sans-Serif" font-size="10.00">Attribute_Request_Callback</text>
<text text-anchor="middle" x="557.5" y="-835.47" font-family="Helvetica,sans-Serif" font-size="10.00">&lt; MaxAttributes &gt;</text>
</a>
</g>
</g>
<!-- Node2&#45;&gt;Node7 -->
<g id="edge6" class="edge">
<title>Node2&#45;&gt;Node7</title>
<path fill="none" stroke="#63b8ff" d="M407.03,-783.33C425.56,-793.45 448.61,-805.36 470,-814.47 481.51,-819.37 494.16,-824.01 506.14,-828.08"/>
<polygon fill="#63b8ff" stroke="#63b8ff" points="408.74,-780.28 398.3,-778.5 405.35,-786.4 408.74,-780.28"/>
</g>
<!-- Node8 -->
<g id="node8" class="node">
<title>Node8</title>
<g id="a_node8"><a xlink:href="classShared__Attribute__Callback.html" target="_top" xlink:title="Shared attribute update callback wrapper, contains the needed configuration settings to create the re...">
<polygon fill="white" stroke="#666666" points="623.5,-734.47 491.5,-734.47 491.5,-704.47 623.5,-704.47 623.5,-734.47"/>
<text text-anchor="start" x="499.5" y="-722.47" font-family="Helvetica,sans-Serif" font-size="10.00">Shared_Attribute_Callback</text>
<text text-anchor="middle" x="557.5" y="-711.47" font-family="Helvetica,sans-Serif" font-size="10.00">&lt; MaxAttributes &gt;</text>
</a>
</g>
</g>
<!-- Node2&#45;&gt;Node8 -->
<g id="edge9" class="edge">
<title>Node2&#45;&gt;Node8</title>
<path fill="none" stroke="#63b8ff" d="M448.19,-744.5C462.48,-741.2 477.26,-737.78 491.14,-734.58"/>
<polygon fill="#63b8ff" stroke="#63b8ff" points="447.82,-741 438.86,-746.66 449.39,-747.82 447.82,-741"/>
</g>
<!-- Node7&#45;&gt;Node3 -->
<g id="edge7" class="edge">
<title>Node7&#45;&gt;Node3</title>
<path fill="none" stroke="orange" stroke-dasharray="5,2" d="M637.7,-854.69C673.23,-859.73 714.8,-865.62 749.22,-870.5"/>
<polygon fill="orange" stroke="orange" points="638.28,-851.24 627.89,-853.3 637.3,-858.17 638.28,-851.24"/>
<text text-anchor="middle" x="683.5" y="-868.47" font-family="Helvetica,sans-Serif" font-size="10.00"> &lt; 1 &gt;</text>
</g>
<!-- Node7&#45;&gt;Node4 -->
<g id="edge8" class="edge">
<title>Node7&#45;&gt;Node4</title>
<path fill="none" stroke="orange" stroke-dasharray="5,2" d="M637.4,-835.15C639.63,-834.92 641.83,-834.69 644,-834.47 679.49,-830.78 719.03,-826.72 751.57,-823.39"/>
<polygon fill="orange" stroke="orange" points="637.26,-831.65 627.68,-836.17 637.99,-838.61 637.26,-831.65"/>
<text text-anchor="middle" x="683.5" y="-837.47" font-family="Helvetica,sans-Serif" font-size="10.00"> &lt; MaxAttributes &gt;</text>
</g>
<!-- Node8&#45;&gt;Node5 -->
<g id="edge10" class="edge">
<title>Node8&#45;&gt;Node5</title>
<path fill="none" stroke="orange" stroke-dasharray="5,2" d="M634.99,-727.6C662.72,-730.61 694.28,-734.11 723,-737.47 733.06,-738.64 743.71,-739.93 754.11,-741.2"/>
<polygon fill="orange" stroke="orange" points="635.59,-724.14 625.27,-726.55 634.84,-731.1 635.59,-724.14"/>
<text text-anchor="middle" x="683.5" y="-740.47" font-family="Helvetica,sans-Serif" font-size="10.00"> &lt; MaxAttributes &gt;</text>
</g>
<!-- Node8&#45;&gt;Node6 -->
<g id="edge11" class="edge">
<title>Node8&#45;&gt;Node6</title>
<path fill="none" stroke="orange" stroke-dasharray="5,2" d="M634.86,-708.35C671.63,-703 715.37,-696.63 751.04,-691.43"/>
<polygon fill="orange" stroke="orange" points="634.58,-704.85 625.19,-709.76 635.59,-711.78 634.58,-704.85"/>
<text text-anchor="middle" x="683.5" y="-708.47" font-family="Helvetica,sans-Serif" font-size="10.00"> &lt; 1 &gt;</text>
</g>
<!-- Node10 -->
<g id="node10" class="node">
<title>Node10</title>
<g id="a_node10"><a xlink:href="classCallback__Watchdog.html" target="_top" xlink:title="Wrapper class which allows to start a timer and if it is not stopped in the given time then the callb...">
<polygon fill="white" stroke="#666666" points="609,-640.97 506,-640.97 506,-621.97 609,-621.97 609,-640.97"/>
<text text-anchor="middle" x="557.5" y="-628.97" font-family="Helvetica,sans-Serif" font-size="10.00">Callback_Watchdog</text>
</a>
</g>
</g>
<!-- Node9&#45;&gt;Node10 -->
<g id="edge13" class="edge">
<title>Node9&#45;&gt;Node10</title>
<path fill="none" stroke="#63b8ff" d="M425.41,-632.88C450.78,-632.6 480.72,-632.28 505.58,-632.01"/>
<polygon fill="#63b8ff" stroke="#63b8ff" points="425.58,-629.37 415.62,-632.98 425.66,-636.37 425.58,-629.37"/>
</g>
<!-- Node12 -->
<g id="node12" class="node">
<title>Node12</title>
<g id="a_node12"><a xlink:href="classOTA__Update__Callback.html" target="_top" xlink:title="Over the air firmware update callback wrapper, contains the needed configuration settings to create t...">
<polygon fill="white" stroke="#666666" points="615.5,-600.97 499.5,-600.97 499.5,-581.97 615.5,-581.97 615.5,-600.97"/>
<text text-anchor="middle" x="557.5" y="-588.97" font-family="Helvetica,sans-Serif" font-size="10.00">OTA_Update_Callback</text>
</a>
</g>
</g>
<!-- Node11&#45;&gt;Node12 -->
<g id="edge15" class="edge">
<title>Node11&#45;&gt;Node12</title>
<path fill="none" stroke="#63b8ff" d="M433.07,-590.8C454.43,-590.92 478.2,-591.05 499.13,-591.16"/>
<polygon fill="#63b8ff" stroke="#63b8ff" points="433.35,-587.3 423.33,-590.75 433.31,-594.3 433.35,-587.3"/>
</g>
<!-- Node14 -->
<g id="node14" class="node">
<title>Node14</title>
<g id="a_node14"><a xlink:href="classProvision__Callback.html" target="_top" xlink:title="Provisioning callback wrapper, contains the needed configuration settings to create the request that ...">
<polygon fill="white" stroke="#666666" points="607.5,-563.97 507.5,-563.97 507.5,-544.97 607.5,-544.97 607.5,-563.97"/>
<text text-anchor="middle" x="557.5" y="-551.97" font-family="Helvetica,sans-Serif" font-size="10.00">Provision_Callback</text>
</a>
</g>
</g>
<!-- Node13&#45;&gt;Node14 -->
<g id="edge17" class="edge">
<title>Node13&#45;&gt;Node14</title>
<path fill="none" stroke="#63b8ff" d="M456.66,-548.02C473.97,-549.14 491.6,-550.28 507.13,-551.28"/>
<polygon fill="#63b8ff" stroke="#63b8ff" points="457.06,-544.54 446.86,-547.39 456.61,-551.53 457.06,-544.54"/>
</g>
<!-- Node15 -->
<g id="node15" class="node">
<title>Node15</title>
<g id="a_node15"><a xlink:href="classRPC__Request__Callback.html" target="_top" xlink:title="Client&#45;side RPC callback wrapper, contains the needed configuration settings to create the request th...">
<polygon fill="white" stroke="#666666" points="618,-526.97 497,-526.97 497,-507.97 618,-507.97 618,-526.97"/>
<text text-anchor="middle" x="557.5" y="-514.97" font-family="Helvetica,sans-Serif" font-size="10.00">RPC_Request_Callback</text>
</a>
</g>
</g>
<!-- Node13&#45;&gt;Node15 -->
<g id="edge18" class="edge">
<title>Node13&#45;&gt;Node15</title>
<path fill="none" stroke="#63b8ff" d="M456.64,-530.89C470.17,-529.07 483.89,-527.23 496.65,-525.51"/>
<polygon fill="#63b8ff" stroke="#63b8ff" points="456.29,-527.4 446.85,-532.2 457.23,-534.34 456.29,-527.4"/>
</g>
<!-- Node17 -->
<g id="node17" class="node">
<title>Node17</title>
<g id="a_node17"><a xlink:href="classRPC__Callback.html" target="_top" xlink:title="Server&#45;side RPC callback wrapper, contains the needed configuration settings to create the request th...">
<polygon fill="white" stroke="#666666" points="597.5,-489.97 517.5,-489.97 517.5,-470.97 597.5,-470.97 597.5,-489.97"/>
<text text-anchor="middle" x="557.5" y="-477.97" font-family="Helvetica,sans-Serif" font-size="10.00">RPC_Callback</text>
</a>
</g>
</g>
<!-- Node16&#45;&gt;Node17 -->
<g id="edge20" class="edge">
<title>Node16&#45;&gt;Node17</title>
<path fill="none" stroke="#63b8ff" d="M463.8,-487.44C482.73,-486.02 501.65,-484.59 517.41,-483.41"/>
<polygon fill="#63b8ff" stroke="#63b8ff" points="463.57,-483.95 453.86,-488.19 464.1,-490.93 463.57,-483.95"/>
</g>
</g>
</svg>
