<?xml version="1.0" encoding="UTF-8" standalone="no"?>
<!DOCTYPE svg PUBLIC "-//W3C//DTD SVG 1.1//EN"
 "http://www.w3.org/Graphics/SVG/1.1/DTD/svg11.dtd">
<!-- Generated by graphviz version 7.0.5 (20221223.1930)
 -->
<!-- Title: Shared_Attribute_Callback&lt; MaxAttributes &gt; Pages: 1 -->
<svg width="185pt" height="193pt"
 viewBox="0.00 0.00 184.50 193.00" xmlns="http://www.w3.org/2000/svg" xmlns:xlink="http://www.w3.org/1999/xlink">
<g id="graph0" class="graph" transform="scale(1 1) rotate(0) translate(4 189)">
<title>Shared_Attribute_Callback&lt; MaxAttributes &gt;</title>
<!-- Node1 -->
<g id="node1" class="node">
<title>Node1</title>
<g id="a_node1"><a xlink:title="Shared attribute update callback wrapper, contains the needed configuration settings to create the re...">
<polygon fill="#999999" stroke="#666666" points="133.5,-30 1.5,-30 1.5,0 133.5,0 133.5,-30"/>
<text text-anchor="start" x="9.5" y="-18" font-family="Helvetica,sans-Serif" font-size="10.00">Shared_Attribute_Callback</text>
<text text-anchor="middle" x="67.5" y="-7" font-family="Helvetica,sans-Serif" font-size="10.00">&lt; MaxAttributes &gt;</text>
</a>
</g>
</g>
<!-- Node2 -->
<g id="node2" class="node">
<title>Node2</title>
<g id="a_node2"><a xlink:href="classCallback.html" target="_top" xlink:title=" ">
<polygon fill="white" stroke="#666666" points="135,-97 0,-97 0,-67 135,-67 135,-97"/>
<text text-anchor="start" x="8" y="-85" font-family="Helvetica,sans-Serif" font-size="10.00">Callback&lt; void, JsonObject</text>
<text text-anchor="middle" x="67.5" y="-74" font-family="Helvetica,sans-Serif" font-size="10.00">Const const &amp; &gt;</text>
</a>
</g>
</g>
<!-- Node2&#45;&gt;Node1 -->
<g id="edge1" class="edge">
<title>Node2&#45;&gt;Node1</title>
<path fill="none" stroke="#63b8ff" d="M67.5,-55.28C67.5,-46.81 67.5,-37.7 67.5,-30.39"/>
<polygon fill="#63b8ff" stroke="#63b8ff" points="64,-55.06 67.5,-65.06 71,-55.06 64,-55.06"/>
</g>
<!-- Node3 -->
<g id="node3" class="node">
<title>Node3</title>
<g id="a_node3"><a xlink:href="classCallback.html" target="_top" xlink:title="General purpose safe callback wrapper. Expects either c&#45;style or c++ style function pointer,...">
<polygon fill="white" stroke="#666666" points="121.5,-185 13.5,-185 13.5,-155 121.5,-155 121.5,-185"/>
<text text-anchor="start" x="21.5" y="-173" font-family="Helvetica,sans-Serif" font-size="10.00">Callback&lt; return_typ,</text>
<text text-anchor="middle" x="67.5" y="-162" font-family="Helvetica,sans-Serif" font-size="10.00"> argument_types &gt;</text>
</a>
</g>
</g>
<!-- Node3&#45;&gt;Node2 -->
<g id="edge2" class="edge">
<title>Node3&#45;&gt;Node2</title>
<path fill="none" stroke="orange" stroke-dasharray="5,2" d="M67.5,-143.6C67.5,-128.46 67.5,-109.8 67.5,-97.22"/>
<polygon fill="orange" stroke="orange" points="64,-143.29 67.5,-153.29 71,-143.29 64,-143.29"/>
<text text-anchor="start" x="67.5" y="-129" font-family="Helvetica,sans-Serif" font-size="10.00"> &lt; void, JsonObjectConst</text>
<text text-anchor="middle" x="122" y="-118" font-family="Helvetica,sans-Serif" font-size="10.00"> const &amp; &gt;</text>
</g>
</g>
</svg>
