<?xml version="1.0" encoding="UTF-8" standalone="no"?>
<!DOCTYPE svg PUBLIC "-//W3C//DTD SVG 1.1//EN"
 "http://www.w3.org/Graphics/SVG/1.1/DTD/svg11.dtd">
<!-- Generated by graphviz version 7.0.5 (20221223.1930)
 -->
<!-- Title: IAPI_Implementation Pages: 1 -->
<svg width="683pt" height="378pt"
 viewBox="0.00 0.00 683.00 377.83" xmlns="http://www.w3.org/2000/svg" xmlns:xlink="http://www.w3.org/1999/xlink">
<g id="graph0" class="graph" transform="scale(1 1) rotate(0) translate(4 373.83)">
<title>IAPI_Implementation</title>
<!-- Node1 -->
<g id="node1" class="node">
<title>Node1</title>
<g id="a_node1"><a xlink:title="Base functionality required by all API implementation.">
<polygon fill="#999999" stroke="#666666" points="108,-165.5 0,-165.5 0,-146.5 108,-146.5 108,-165.5"/>
<text text-anchor="middle" x="54" y="-153.5" font-family="Helvetica,sans-Serif" font-size="10.00">IAPI_Implementation</text>
</a>
</g>
</g>
<!-- Node2 -->
<g id="node2" class="node">
<title>Node2</title>
<g id="a_node2"><a xlink:href="classAttribute__Request.html" target="_top" xlink:title=" ">
<polygon fill="white" stroke="#666666" points="672,-343.5 523,-343.5 523,-302.5 672,-302.5 672,-343.5"/>
<text text-anchor="start" x="531" y="-331.5" font-family="Helvetica,sans-Serif" font-size="10.00">Attribute_Request&lt;</text>
<text text-anchor="start" x="531" y="-320.5" font-family="Helvetica,sans-Serif" font-size="10.00"> 1U, OTA_ATTRIBUTE_KEYS</text>
<text text-anchor="middle" x="597.5" y="-309.5" font-family="Helvetica,sans-Serif" font-size="10.00">_AMOUNT, DefaultLogger &gt;</text>
</a>
</g>
</g>
<!-- Node1&#45;&gt;Node2 -->
<g id="edge1" class="edge">
<title>Node1&#45;&gt;Node2</title>
<path fill="none" stroke="#63b8ff" d="M59.16,-176.78C67.81,-213.76 91.54,-290.18 145,-323 262.9,-395.39 432.85,-367.96 527.03,-343.95"/>
<polygon fill="#63b8ff" stroke="#63b8ff" points="62.66,-176.38 57.11,-167.35 55.82,-177.87 62.66,-176.38"/>
</g>
<!-- Node3 -->
<g id="node3" class="node">
<title>Node3</title>
<g id="a_node3"><a xlink:href="classShared__Attribute__Update.html" target="_top" xlink:title=" ">
<polygon fill="white" stroke="#666666" points="675,-169.5 520,-169.5 520,-128.5 675,-128.5 675,-169.5"/>
<text text-anchor="start" x="528" y="-157.5" font-family="Helvetica,sans-Serif" font-size="10.00">Shared_Attribute_Update</text>
<text text-anchor="start" x="528" y="-146.5" font-family="Helvetica,sans-Serif" font-size="10.00">&lt; 1U, OTA_ATTRIBUTE_KEYS</text>
<text text-anchor="middle" x="597.5" y="-135.5" font-family="Helvetica,sans-Serif" font-size="10.00">_AMOUNT, DefaultLogger &gt;</text>
</a>
</g>
</g>
<!-- Node1&#45;&gt;Node3 -->
<g id="edge2" class="edge">
<title>Node1&#45;&gt;Node3</title>
<path fill="none" stroke="#63b8ff" d="M61.79,-135.28C73.27,-104.07 99.81,-46.09 145,-22 217.17,16.46 249.22,-4.03 329,-22 420.03,-42.52 516.44,-97.78 564.85,-128.21"/>
<polygon fill="#63b8ff" stroke="#63b8ff" points="58.48,-134.13 58.5,-144.73 65.1,-136.43 58.48,-134.13"/>
</g>
<!-- Node4 -->
<g id="node4" class="node">
<title>Node4</title>
<g id="a_node4"><a xlink:href="classAttribute__Request.html" target="_top" xlink:title="Handles the internal implementation of the ThingsBoard shared and server&#45;side Attribute API....">
<polygon fill="white" stroke="#666666" points="319,-313.5 155,-313.5 155,-272.5 319,-272.5 319,-313.5"/>
<text text-anchor="start" x="163" y="-301.5" font-family="Helvetica,sans-Serif" font-size="10.00">Attribute_Request&lt;</text>
<text text-anchor="start" x="163" y="-290.5" font-family="Helvetica,sans-Serif" font-size="10.00"> MaxSubscriptions, MaxAttributes,</text>
<text text-anchor="middle" x="237" y="-279.5" font-family="Helvetica,sans-Serif" font-size="10.00"> Logger &gt;</text>
</a>
</g>
</g>
<!-- Node1&#45;&gt;Node4 -->
<g id="edge3" class="edge">
<title>Node1&#45;&gt;Node4</title>
<path fill="none" stroke="#63b8ff" d="M66.54,-175.81C81.61,-200.01 110.23,-240.61 145,-264 149.4,-266.97 154.13,-269.64 159.02,-272.05"/>
<polygon fill="#63b8ff" stroke="#63b8ff" points="69.54,-174.01 61.37,-167.26 63.55,-177.63 69.54,-174.01"/>
</g>
<!-- Node5 -->
<g id="node5" class="node">
<title>Node5</title>
<g id="a_node5"><a xlink:href="classClient__Side__RPC.html" target="_top" xlink:title="Handles the internal implementation of the ThingsBoard client side RPC API. See https://thingsboard....">
<polygon fill="white" stroke="#666666" points="327,-195 147,-195 147,-165 327,-165 327,-195"/>
<text text-anchor="start" x="155" y="-183" font-family="Helvetica,sans-Serif" font-size="10.00">Client_Side_RPC&lt; MaxSubscriptions,</text>
<text text-anchor="middle" x="237" y="-172" font-family="Helvetica,sans-Serif" font-size="10.00"> MaxRequestRPC, Logger &gt;</text>
</a>
</g>
</g>
<!-- Node1&#45;&gt;Node5 -->
<g id="edge5" class="edge">
<title>Node1&#45;&gt;Node5</title>
<path fill="none" stroke="#63b8ff" d="M119.65,-164.58C128.44,-165.74 137.59,-166.96 146.73,-168.17"/>
<polygon fill="#63b8ff" stroke="#63b8ff" points="120.2,-161.12 109.83,-163.27 119.28,-168.06 120.2,-161.12"/>
</g>
<!-- Node6 -->
<g id="node6" class="node">
<title>Node6</title>
<g id="a_node6"><a xlink:href="classOTA__Firmware__Update.html" target="_top" xlink:title="Handles the internal implementation of the ThingsBoard over the air firmware update API....">
<polygon fill="white" stroke="#666666" points="296.5,-147 177.5,-147 177.5,-117 296.5,-117 296.5,-147"/>
<text text-anchor="start" x="185.5" y="-135" font-family="Helvetica,sans-Serif" font-size="10.00">OTA_Firmware_Update</text>
<text text-anchor="middle" x="237" y="-124" font-family="Helvetica,sans-Serif" font-size="10.00">&lt; Logger &gt;</text>
</a>
</g>
</g>
<!-- Node1&#45;&gt;Node6 -->
<g id="edge6" class="edge">
<title>Node1&#45;&gt;Node6</title>
<path fill="none" stroke="#63b8ff" d="M119.73,-147.42C138.42,-144.94 158.72,-142.25 177.04,-139.82"/>
<polygon fill="#63b8ff" stroke="#63b8ff" points="119.28,-143.95 109.83,-148.73 120.2,-150.89 119.28,-143.95"/>
</g>
<!-- Node7 -->
<g id="node7" class="node">
<title>Node7</title>
<g id="a_node7"><a xlink:href="classProvision.html" target="_top" xlink:title="Handles the internal implementation of the ThingsBoard provision API. See https://thingsboard....">
<polygon fill="white" stroke="#666666" points="289,-98.5 185,-98.5 185,-79.5 289,-79.5 289,-98.5"/>
<text text-anchor="middle" x="237" y="-86.5" font-family="Helvetica,sans-Serif" font-size="10.00">Provision&lt; Logger &gt;</text>
</a>
</g>
</g>
<!-- Node1&#45;&gt;Node7 -->
<g id="edge7" class="edge">
<title>Node1&#45;&gt;Node7</title>
<path fill="none" stroke="#63b8ff" d="M79.8,-140.3C97.4,-129.78 121.9,-116.38 145,-108 157.59,-103.44 171.59,-99.83 184.75,-97.05"/>
<polygon fill="#63b8ff" stroke="#63b8ff" points="78.31,-137.11 71.59,-145.31 81.95,-143.08 78.31,-137.11"/>
</g>
<!-- Node8 -->
<g id="node8" class="node">
<title>Node8</title>
<g id="a_node8"><a xlink:href="classServer__Side__RPC.html" target="_top" xlink:title="Handles the internal implementation of the ThingsBoard server side RPC API. See https://thingsboard....">
<polygon fill="white" stroke="#666666" points="329,-61 145,-61 145,-31 329,-31 329,-61"/>
<text text-anchor="start" x="153" y="-49" font-family="Helvetica,sans-Serif" font-size="10.00">Server_Side_RPC&lt; MaxSubscriptions,</text>
<text text-anchor="middle" x="237" y="-38" font-family="Helvetica,sans-Serif" font-size="10.00"> MaxRPC, Logger &gt;</text>
</a>
</g>
</g>
<!-- Node1&#45;&gt;Node8 -->
<g id="edge8" class="edge">
<title>Node1&#45;&gt;Node8</title>
<path fill="none" stroke="#63b8ff" d="M69.8,-137.44C86.19,-118.09 114.39,-88.22 145,-71 151.57,-67.31 158.71,-64.13 166.02,-61.41"/>
<polygon fill="#63b8ff" stroke="#63b8ff" points="67.17,-135.13 63.5,-145.07 72.57,-139.58 67.17,-135.13"/>
</g>
<!-- Node9 -->
<g id="node9" class="node">
<title>Node9</title>
<g id="a_node9"><a xlink:href="classShared__Attribute__Update.html" target="_top" xlink:title="Handles the internal implementation of the ThingsBoard shared attribute update API....">
<polygon fill="white" stroke="#666666" points="322,-254.5 152,-254.5 152,-213.5 322,-213.5 322,-254.5"/>
<text text-anchor="start" x="160" y="-242.5" font-family="Helvetica,sans-Serif" font-size="10.00">Shared_Attribute_Update</text>
<text text-anchor="start" x="160" y="-231.5" font-family="Helvetica,sans-Serif" font-size="10.00">&lt; MaxSubscriptions, MaxAttributes,</text>
<text text-anchor="middle" x="237" y="-220.5" font-family="Helvetica,sans-Serif" font-size="10.00"> Logger &gt;</text>
</a>
</g>
</g>
<!-- Node1&#45;&gt;Node9 -->
<g id="edge9" class="edge">
<title>Node1&#45;&gt;Node9</title>
<path fill="none" stroke="#63b8ff" d="M81.09,-171.46C98.75,-181.53 122.82,-194.51 145,-204 152.49,-207.21 160.45,-210.29 168.43,-213.17"/>
<polygon fill="#63b8ff" stroke="#63b8ff" points="83.22,-168.64 72.81,-166.67 79.71,-174.7 83.22,-168.64"/>
</g>
<!-- Node4&#45;&gt;Node2 -->
<g id="edge4" class="edge">
<title>Node4&#45;&gt;Node2</title>
<path fill="none" stroke="orange" stroke-dasharray="5,2" d="M330.67,-294.65C381.4,-296.28 445.31,-299.54 502,-306 508.71,-306.77 515.66,-307.72 522.61,-308.77"/>
<polygon fill="orange" stroke="orange" points="331.01,-291.16 320.91,-294.35 330.79,-298.16 331.01,-291.16"/>
<text text-anchor="start" x="347" y="-320" font-family="Helvetica,sans-Serif" font-size="10.00"> &lt; 1U, OTA_ATTRIBUTE</text>
<text text-anchor="middle" x="424.5" y="-309" font-family="Helvetica,sans-Serif" font-size="10.00">_KEYS_AMOUNT, DefaultLogger &gt;</text>
</g>
<!-- Node9&#45;&gt;Node3 -->
<g id="edge10" class="edge">
<title>Node9&#45;&gt;Node3</title>
<path fill="none" stroke="orange" stroke-dasharray="5,2" d="M333.13,-211.45C391.44,-197.62 465.11,-180.16 519.7,-167.21"/>
<polygon fill="orange" stroke="orange" points="332.45,-208.01 323.53,-213.73 334.06,-214.83 332.45,-208.01"/>
<text text-anchor="start" x="347" y="-220" font-family="Helvetica,sans-Serif" font-size="10.00"> &lt; 1U, OTA_ATTRIBUTE</text>
<text text-anchor="middle" x="424.5" y="-209" font-family="Helvetica,sans-Serif" font-size="10.00">_KEYS_AMOUNT, DefaultLogger &gt;</text>
</g>
</g>
</svg>
