<?xml version="1.0" encoding="UTF-8" standalone="no"?>
<!DOCTYPE svg PUBLIC "-//W3C//DTD SVG 1.1//EN"
 "http://www.w3.org/Graphics/SVG/1.1/DTD/svg11.dtd">
<!-- Generated by graphviz version 7.0.5 (20221223.1930)
 -->
<!-- Title: Attribute_Request_Callback&lt; MaxAttributes &gt; Pages: 1 -->
<svg width="350pt" height="259pt"
 viewBox="0.00 0.00 350.00 259.00" xmlns="http://www.w3.org/2000/svg" xmlns:xlink="http://www.w3.org/1999/xlink">
<g id="graph0" class="graph" transform="scale(1 1) rotate(0) translate(4 255)">
<title>Attribute_Request_Callback&lt; MaxAttributes &gt;</title>
<!-- Node1 -->
<g id="node1" class="node">
<title>Node1</title>
<g id="a_node1"><a xlink:title="Client&#45;side or shared attributes request callback wrapper, contains the needed configuration settings...">
<polygon fill="#999999" stroke="#666666" points="148,-96 11,-96 11,-66 148,-66 148,-96"/>
<text text-anchor="start" x="19" y="-84" font-family="Helvetica,sans-Serif" font-size="10.00">Attribute_Request_Callback</text>
<text text-anchor="middle" x="79.5" y="-73" font-family="Helvetica,sans-Serif" font-size="10.00">&lt; MaxAttributes &gt;</text>
</a>
</g>
</g>
<!-- Node1&#45;&gt;Node1 -->
<g id="edge3" class="edge">
<title>Node1&#45;&gt;Node1</title>
<path fill="none" stroke="orange" stroke-dasharray="5,2" d="M159.58,-83.03C163.62,-82.53 166,-81.85 166,-81 166,-79.53 158.87,-78.57 148.38,-78.14"/>
<polygon fill="orange" stroke="orange" points="159.6,-79.52 149.89,-83.75 160.12,-86.5 159.6,-79.52"/>
<text text-anchor="middle" x="205.5" y="-78.5" font-family="Helvetica,sans-Serif" font-size="10.00"> &lt; MaxAttributes &gt;</text>
</g>
<!-- Node1&#45;&gt;Node1 -->
<g id="edge5" class="edge">
<title>Node1&#45;&gt;Node1</title>
<path fill="none" stroke="orange" stroke-dasharray="5,2" d="M159.96,-87.16C202.79,-87.81 245,-85.76 245,-81 245,-75.81 194.91,-73.84 148.49,-75.08"/>
<polygon fill="orange" stroke="orange" points="160.07,-83.67 150,-86.96 159.93,-90.66 160.07,-83.67"/>
<text text-anchor="middle" x="284.5" y="-78.5" font-family="Helvetica,sans-Serif" font-size="10.00"> &lt; MaxAttributes &gt;</text>
</g>
<!-- Node4 -->
<g id="node4" class="node">
<title>Node4</title>
<g id="a_node4"><a xlink:href="classAttribute__Request__Callback.html" target="_top" xlink:title=" ">
<polygon fill="white" stroke="#666666" points="159,-19 0,-19 0,0 159,0 159,-19"/>
<text text-anchor="middle" x="79.5" y="-7" font-family="Helvetica,sans-Serif" font-size="10.00">Attribute_Request_Callback&lt; 1 &gt;</text>
</a>
</g>
</g>
<!-- Node1&#45;&gt;Node4 -->
<g id="edge4" class="edge">
<title>Node1&#45;&gt;Node4</title>
<path fill="none" stroke="orange" stroke-dasharray="5,2" d="M79.5,-54.46C79.5,-42.07 79.5,-27.99 79.5,-19.18"/>
<polygon fill="orange" stroke="orange" points="76,-54.09 79.5,-64.09 83,-54.09 76,-54.09"/>
<text text-anchor="middle" x="92" y="-40" font-family="Helvetica,sans-Serif" font-size="10.00"> &lt; 1 &gt;</text>
</g>
<!-- Node2 -->
<g id="node2" class="node">
<title>Node2</title>
<g id="a_node2"><a xlink:href="classCallback.html" target="_top" xlink:title=" ">
<polygon fill="white" stroke="#666666" points="147,-163 12,-163 12,-133 147,-133 147,-163"/>
<text text-anchor="start" x="20" y="-151" font-family="Helvetica,sans-Serif" font-size="10.00">Callback&lt; void, JsonObject</text>
<text text-anchor="middle" x="79.5" y="-140" font-family="Helvetica,sans-Serif" font-size="10.00">Const const &amp; &gt;</text>
</a>
</g>
</g>
<!-- Node2&#45;&gt;Node1 -->
<g id="edge1" class="edge">
<title>Node2&#45;&gt;Node1</title>
<path fill="none" stroke="#63b8ff" d="M79.5,-121.28C79.5,-112.81 79.5,-103.7 79.5,-96.39"/>
<polygon fill="#63b8ff" stroke="#63b8ff" points="76,-121.06 79.5,-131.06 83,-121.06 76,-121.06"/>
</g>
<!-- Node3 -->
<g id="node3" class="node">
<title>Node3</title>
<g id="a_node3"><a xlink:href="classCallback.html" target="_top" xlink:title="General purpose safe callback wrapper. Expects either c&#45;style or c++ style function pointer,...">
<polygon fill="white" stroke="#666666" points="133.5,-251 25.5,-251 25.5,-221 133.5,-221 133.5,-251"/>
<text text-anchor="start" x="33.5" y="-239" font-family="Helvetica,sans-Serif" font-size="10.00">Callback&lt; return_typ,</text>
<text text-anchor="middle" x="79.5" y="-228" font-family="Helvetica,sans-Serif" font-size="10.00"> argument_types &gt;</text>
</a>
</g>
</g>
<!-- Node3&#45;&gt;Node2 -->
<g id="edge2" class="edge">
<title>Node3&#45;&gt;Node2</title>
<path fill="none" stroke="orange" stroke-dasharray="5,2" d="M79.5,-209.6C79.5,-194.46 79.5,-175.8 79.5,-163.22"/>
<polygon fill="orange" stroke="orange" points="76,-209.29 79.5,-219.29 83,-209.29 76,-209.29"/>
<text text-anchor="start" x="79.5" y="-195" font-family="Helvetica,sans-Serif" font-size="10.00"> &lt; void, JsonObjectConst</text>
<text text-anchor="middle" x="134" y="-184" font-family="Helvetica,sans-Serif" font-size="10.00"> const &amp; &gt;</text>
</g>
</g>
</svg>
