<?xml version="1.0" encoding="UTF-8" standalone="no"?>
<!DOCTYPE svg PUBLIC "-//W3C//DTD SVG 1.1//EN"
 "http://www.w3.org/Graphics/SVG/1.1/DTD/svg11.dtd">
<!-- Generated by graphviz version 7.0.5 (20221223.1930)
 -->
<!-- Title: Shared_Attribute_Callback&lt; MaxAttributes &gt; Pages: 1 -->
<svg width="345pt" height="259pt"
 viewBox="0.00 0.00 345.00 259.00" xmlns="http://www.w3.org/2000/svg" xmlns:xlink="http://www.w3.org/1999/xlink">
<g id="graph0" class="graph" transform="scale(1 1) rotate(0) translate(4 255)">
<title>Shared_Attribute_Callback&lt; MaxAttributes &gt;</title>
<!-- Node1 -->
<g id="node1" class="node">
<title>Node1</title>
<g id="a_node1"><a xlink:title="Shared attribute update callback wrapper, contains the needed configuration settings to create the re...">
<polygon fill="#999999" stroke="#666666" points="143,-96 11,-96 11,-66 143,-66 143,-96"/>
<text text-anchor="start" x="19" y="-84" font-family="Helvetica,sans-Serif" font-size="10.00">Shared_Attribute_Callback</text>
<text text-anchor="middle" x="77" y="-73" font-family="Helvetica,sans-Serif" font-size="10.00">&lt; MaxAttributes &gt;</text>
</a>
</g>
</g>
<!-- Node1&#45;&gt;Node1 -->
<g id="edge3" class="edge">
<title>Node1&#45;&gt;Node1</title>
<path fill="none" stroke="orange" stroke-dasharray="5,2" d="M154.5,-83.07C158.58,-82.56 161,-81.87 161,-81 161,-79.5 153.77,-78.53 143.2,-78.11"/>
<polygon fill="orange" stroke="orange" points="154.43,-79.56 144.71,-83.78 154.94,-86.55 154.43,-79.56"/>
<text text-anchor="middle" x="200.5" y="-78.5" font-family="Helvetica,sans-Serif" font-size="10.00"> &lt; MaxAttributes &gt;</text>
</g>
<!-- Node1&#45;&gt;Node1 -->
<g id="edge4" class="edge">
<title>Node1&#45;&gt;Node1</title>
<path fill="none" stroke="orange" stroke-dasharray="5,2" d="M154.52,-87.14C197.27,-87.87 240,-85.82 240,-81 240,-75.75 189.29,-73.79 143.08,-75.12"/>
<polygon fill="orange" stroke="orange" points="154.67,-83.64 144.6,-86.91 154.51,-90.64 154.67,-83.64"/>
<text text-anchor="middle" x="279.5" y="-78.5" font-family="Helvetica,sans-Serif" font-size="10.00"> &lt; MaxAttributes &gt;</text>
</g>
<!-- Node4 -->
<g id="node4" class="node">
<title>Node4</title>
<g id="a_node4"><a xlink:href="classShared__Attribute__Callback.html" target="_top" xlink:title=" ">
<polygon fill="white" stroke="#666666" points="154,-19 0,-19 0,0 154,0 154,-19"/>
<text text-anchor="middle" x="77" y="-7" font-family="Helvetica,sans-Serif" font-size="10.00">Shared_Attribute_Callback&lt; 1 &gt;</text>
</a>
</g>
</g>
<!-- Node1&#45;&gt;Node4 -->
<g id="edge5" class="edge">
<title>Node1&#45;&gt;Node4</title>
<path fill="none" stroke="orange" stroke-dasharray="5,2" d="M77,-54.46C77,-42.07 77,-27.99 77,-19.18"/>
<polygon fill="orange" stroke="orange" points="73.5,-54.09 77,-64.09 80.5,-54.09 73.5,-54.09"/>
<text text-anchor="middle" x="89.5" y="-40" font-family="Helvetica,sans-Serif" font-size="10.00"> &lt; 1 &gt;</text>
</g>
<!-- Node2 -->
<g id="node2" class="node">
<title>Node2</title>
<g id="a_node2"><a xlink:href="classCallback.html" target="_top" xlink:title=" ">
<polygon fill="white" stroke="#666666" points="144.5,-163 9.5,-163 9.5,-133 144.5,-133 144.5,-163"/>
<text text-anchor="start" x="17.5" y="-151" font-family="Helvetica,sans-Serif" font-size="10.00">Callback&lt; void, JsonObject</text>
<text text-anchor="middle" x="77" y="-140" font-family="Helvetica,sans-Serif" font-size="10.00">Const const &amp; &gt;</text>
</a>
</g>
</g>
<!-- Node2&#45;&gt;Node1 -->
<g id="edge1" class="edge">
<title>Node2&#45;&gt;Node1</title>
<path fill="none" stroke="#63b8ff" d="M77,-121.28C77,-112.81 77,-103.7 77,-96.39"/>
<polygon fill="#63b8ff" stroke="#63b8ff" points="73.5,-121.06 77,-131.06 80.5,-121.06 73.5,-121.06"/>
</g>
<!-- Node3 -->
<g id="node3" class="node">
<title>Node3</title>
<g id="a_node3"><a xlink:href="classCallback.html" target="_top" xlink:title="General purpose safe callback wrapper. Expects either c&#45;style or c++ style function pointer,...">
<polygon fill="white" stroke="#666666" points="131,-251 23,-251 23,-221 131,-221 131,-251"/>
<text text-anchor="start" x="31" y="-239" font-family="Helvetica,sans-Serif" font-size="10.00">Callback&lt; return_typ,</text>
<text text-anchor="middle" x="77" y="-228" font-family="Helvetica,sans-Serif" font-size="10.00"> argument_types &gt;</text>
</a>
</g>
</g>
<!-- Node3&#45;&gt;Node2 -->
<g id="edge2" class="edge">
<title>Node3&#45;&gt;Node2</title>
<path fill="none" stroke="orange" stroke-dasharray="5,2" d="M77,-209.6C77,-194.46 77,-175.8 77,-163.22"/>
<polygon fill="orange" stroke="orange" points="73.5,-209.29 77,-219.29 80.5,-209.29 73.5,-209.29"/>
<text text-anchor="start" x="77" y="-195" font-family="Helvetica,sans-Serif" font-size="10.00"> &lt; void, JsonObjectConst</text>
<text text-anchor="middle" x="131.5" y="-184" font-family="Helvetica,sans-Serif" font-size="10.00"> const &amp; &gt;</text>
</g>
</g>
</svg>
