<?xml version="1.0" encoding="UTF-8" standalone="no"?>
<!DOCTYPE svg PUBLIC "-//W3C//DTD SVG 1.1//EN"
 "http://www.w3.org/Graphics/SVG/1.1/DTD/svg11.dtd">
<!-- Generated by graphviz version 7.0.5 (20221223.1930)
 -->
<!-- Title: Provision_Callback Pages: 1 -->
<svg width="184pt" height="182pt"
 viewBox="0.00 0.00 183.50 182.00" xmlns="http://www.w3.org/2000/svg" xmlns:xlink="http://www.w3.org/1999/xlink">
<g id="graph0" class="graph" transform="scale(1 1) rotate(0) translate(4 178)">
<title>Provision_Callback</title>
<!-- Node1 -->
<g id="node1" class="node">
<title>Node1</title>
<g id="a_node1"><a xlink:title="Provisioning callback wrapper, contains the needed configuration settings to create the request that ...">
<polygon fill="#999999" stroke="#666666" points="125.5,-19 25.5,-19 25.5,0 125.5,0 125.5,-19"/>
<text text-anchor="middle" x="75.5" y="-7" font-family="Helvetica,sans-Serif" font-size="10.00">Provision_Callback</text>
</a>
</g>
</g>
<!-- Node2 -->
<g id="node2" class="node">
<title>Node2</title>
<g id="a_node2"><a xlink:href="classCallback.html" target="_top" xlink:title=" ">
<polygon fill="white" stroke="#666666" points="151,-86 0,-86 0,-56 151,-56 151,-86"/>
<text text-anchor="start" x="8" y="-74" font-family="Helvetica,sans-Serif" font-size="10.00">Callback&lt; void, JsonDocument</text>
<text text-anchor="middle" x="75.5" y="-63" font-family="Helvetica,sans-Serif" font-size="10.00"> const &amp; &gt;</text>
</a>
</g>
</g>
<!-- Node2&#45;&gt;Node1 -->
<g id="edge1" class="edge">
<title>Node2&#45;&gt;Node1</title>
<path fill="none" stroke="#63b8ff" d="M75.5,-44.13C75.5,-35.29 75.5,-25.99 75.5,-19.42"/>
<polygon fill="#63b8ff" stroke="#63b8ff" points="72,-44.08 75.5,-54.08 79,-44.08 72,-44.08"/>
</g>
<!-- Node3 -->
<g id="node3" class="node">
<title>Node3</title>
<g id="a_node3"><a xlink:href="classCallback.html" target="_top" xlink:title="General purpose safe callback wrapper. Expects either c&#45;style or c++ style function pointer,...">
<polygon fill="white" stroke="#666666" points="129.5,-174 21.5,-174 21.5,-144 129.5,-144 129.5,-174"/>
<text text-anchor="start" x="29.5" y="-162" font-family="Helvetica,sans-Serif" font-size="10.00">Callback&lt; return_typ,</text>
<text text-anchor="middle" x="75.5" y="-151" font-family="Helvetica,sans-Serif" font-size="10.00"> argument_types &gt;</text>
</a>
</g>
</g>
<!-- Node3&#45;&gt;Node2 -->
<g id="edge2" class="edge">
<title>Node3&#45;&gt;Node2</title>
<path fill="none" stroke="orange" stroke-dasharray="5,2" d="M75.5,-132.6C75.5,-117.46 75.5,-98.8 75.5,-86.22"/>
<polygon fill="orange" stroke="orange" points="72,-132.29 75.5,-142.29 79,-132.29 72,-132.29"/>
<text text-anchor="start" x="75.5" y="-118" font-family="Helvetica,sans-Serif" font-size="10.00"> &lt; void, JsonDocument</text>
<text text-anchor="middle" x="125.5" y="-107" font-family="Helvetica,sans-Serif" font-size="10.00"> const &amp; &gt;</text>
</g>
</g>
</svg>
