<?xml version="1.0" encoding="UTF-8" standalone="no"?>
<!DOCTYPE svg PUBLIC "-//W3C//DTD SVG 1.1//EN"
 "http://www.w3.org/Graphics/SVG/1.1/DTD/svg11.dtd">
<!-- Generated by graphviz version 7.0.5 (20221223.1930)
 -->
<!-- Title: Array&lt; T, Capacity &gt; Pages: 1 -->
<svg width="423pt" height="444pt"
 viewBox="0.00 0.00 423.00 444.06" xmlns="http://www.w3.org/2000/svg" xmlns:xlink="http://www.w3.org/1999/xlink">
<g id="graph0" class="graph" transform="scale(1 1) rotate(0) translate(4 440.06)">
<title>Array&lt; T, Capacity &gt;</title>
<!-- Node1 -->
<g id="node1" class="node">
<title>Node1</title>
<g id="a_node1"><a xlink:title="Replacement data container for boards that do not support the C++ STL and therefore do not have the s...">
<polygon fill="#999999" stroke="#666666" points="104,-224.56 0,-224.56 0,-205.56 104,-205.56 104,-224.56"/>
<text text-anchor="middle" x="52" y="-212.56" font-family="Helvetica,sans-Serif" font-size="10.00">Array&lt; T, Capacity &gt;</text>
</a>
</g>
</g>
<!-- Node2 -->
<g id="node2" class="node">
<title>Node2</title>
<g id="a_node2"><a xlink:href="classArray.html" target="_top" xlink:title=" ">
<polygon fill="white" stroke="#666666" points="408,-420.06 283,-420.06 283,-390.06 408,-390.06 408,-420.06"/>
<text text-anchor="start" x="291" y="-408.06" font-family="Helvetica,sans-Serif" font-size="10.00">Array&lt; Attribute_Request</text>
<text text-anchor="middle" x="345.5" y="-397.06" font-family="Helvetica,sans-Serif" font-size="10.00">_Callback&lt; 1 &gt;, 1 &gt;</text>
</a>
</g>
</g>
<!-- Node1&#45;&gt;Node2 -->
<g id="edge1" class="edge">
<title>Node1&#45;&gt;Node2</title>
<path fill="none" stroke="orange" stroke-dasharray="5,2" d="M55.26,-236.14C60.29,-271.75 75.87,-343.32 122,-378.06 167.69,-412.48 234.27,-416.27 282.69,-413.26"/>
<polygon fill="orange" stroke="orange" points="58.74,-235.78 54.03,-226.29 51.79,-236.64 58.74,-235.78"/>
<text text-anchor="start" x="145.5" y="-428.06" font-family="Helvetica,sans-Serif" font-size="10.00"> &lt; Attribute_Request</text>
<text text-anchor="middle" x="190" y="-417.06" font-family="Helvetica,sans-Serif" font-size="10.00">_Callback&lt; 1 &gt;, 1 &gt;</text>
</g>
<!-- Node3 -->
<g id="node3" class="node">
<title>Node3</title>
<g id="a_node3"><a xlink:href="classArray.html" target="_top" xlink:title=" ">
<polygon fill="white" stroke="#666666" points="396,-372.06 295,-372.06 295,-342.06 396,-342.06 396,-372.06"/>
<text text-anchor="start" x="303" y="-360.06" font-family="Helvetica,sans-Serif" font-size="10.00">Array&lt; char const *,</text>
<text text-anchor="middle" x="345.5" y="-349.06" font-family="Helvetica,sans-Serif" font-size="10.00"> MaxAttributes &gt;</text>
</a>
</g>
</g>
<!-- Node1&#45;&gt;Node3 -->
<g id="edge2" class="edge">
<title>Node1&#45;&gt;Node3</title>
<path fill="none" stroke="orange" stroke-dasharray="5,2" d="M59.06,-235.58C68.09,-262.2 87.79,-307.86 122,-330.06 173.74,-363.63 246.7,-365.98 294.78,-362.9"/>
<polygon fill="orange" stroke="orange" points="62.47,-234.75 56.11,-226.28 55.8,-236.87 62.47,-234.75"/>
<text text-anchor="middle" x="190" y="-366.06" font-family="Helvetica,sans-Serif" font-size="10.00"> &lt; char const *, MaxAttributes &gt;</text>
</g>
<!-- Node4 -->
<g id="node4" class="node">
<title>Node4</title>
<g id="a_node4"><a xlink:href="classArray.html" target="_top" xlink:title=" ">
<polygon fill="white" stroke="#666666" points="404,-323.56 287,-323.56 287,-304.56 404,-304.56 404,-323.56"/>
<text text-anchor="middle" x="345.5" y="-311.56" font-family="Helvetica,sans-Serif" font-size="10.00">Array&lt; char const *, 1 &gt;</text>
</a>
</g>
</g>
<!-- Node1&#45;&gt;Node4 -->
<g id="edge3" class="edge">
<title>Node1&#45;&gt;Node4</title>
<path fill="none" stroke="orange" stroke-dasharray="5,2" d="M65.99,-233.67C78.39,-249.86 98.61,-272.48 122,-284.06 173.7,-309.66 239.99,-315.68 286.72,-316.21"/>
<polygon fill="orange" stroke="orange" points="68.95,-231.79 60.22,-225.8 63.31,-235.93 68.95,-231.79"/>
<text text-anchor="middle" x="190" y="-318.06" font-family="Helvetica,sans-Serif" font-size="10.00"> &lt; char const *, 1 &gt;</text>
</g>
<!-- Node5 -->
<g id="node5" class="node">
<title>Node5</title>
<g id="a_node5"><a xlink:href="classArray.html" target="_top" xlink:title=" ">
<polygon fill="white" stroke="#666666" points="400,-286.06 291,-286.06 291,-256.06 400,-256.06 400,-286.06"/>
<text text-anchor="start" x="299" y="-274.06" font-family="Helvetica,sans-Serif" font-size="10.00">Array&lt; RPC_Request</text>
<text text-anchor="middle" x="345.5" y="-263.06" font-family="Helvetica,sans-Serif" font-size="10.00">_Callback, 1 &gt;</text>
</a>
</g>
</g>
<!-- Node1&#45;&gt;Node5 -->
<g id="edge4" class="edge">
<title>Node1&#45;&gt;Node5</title>
<path fill="none" stroke="orange" stroke-dasharray="5,2" d="M78.84,-230.56C91.43,-237.38 107.05,-244.79 122,-249.06 178.17,-265.1 245.2,-269.89 290.9,-271.11"/>
<polygon fill="orange" stroke="orange" points="80.81,-227.65 70.38,-225.79 77.38,-233.75 80.81,-227.65"/>
<text text-anchor="middle" x="190" y="-272.06" font-family="Helvetica,sans-Serif" font-size="10.00"> &lt; RPC_Request_Callback, 1 &gt;</text>
</g>
<!-- Node6 -->
<g id="node6" class="node">
<title>Node6</title>
<g id="a_node6"><a xlink:href="classArray.html" target="_top" xlink:title=" ">
<polygon fill="white" stroke="#666666" points="409.5,-237.56 281.5,-237.56 281.5,-196.56 409.5,-196.56 409.5,-237.56"/>
<text text-anchor="start" x="289.5" y="-225.56" font-family="Helvetica,sans-Serif" font-size="10.00">Array&lt; Shared_Attribute</text>
<text text-anchor="start" x="289.5" y="-214.56" font-family="Helvetica,sans-Serif" font-size="10.00">_Callback&lt; MaxAttributes</text>
<text text-anchor="middle" x="345.5" y="-203.56" font-family="Helvetica,sans-Serif" font-size="10.00"> &gt;, MaxSubscriptions &gt;</text>
</a>
</g>
</g>
<!-- Node1&#45;&gt;Node6 -->
<g id="edge5" class="edge">
<title>Node1&#45;&gt;Node6</title>
<path fill="none" stroke="orange" stroke-dasharray="5,2" d="M115.73,-215.26C156.31,-215.41 210.28,-215.67 258,-216.06 265.51,-216.12 273.38,-216.2 281.2,-216.28"/>
<polygon fill="orange" stroke="orange" points="115.92,-211.76 105.91,-215.22 115.89,-218.76 115.92,-211.76"/>
<text text-anchor="start" x="134" y="-241.06" font-family="Helvetica,sans-Serif" font-size="10.00"> &lt; Shared_Attribute</text>
<text text-anchor="start" x="134" y="-230.06" font-family="Helvetica,sans-Serif" font-size="10.00">_Callback&lt; MaxAttributes</text>
<text text-anchor="middle" x="190" y="-219.06" font-family="Helvetica,sans-Serif" font-size="10.00"> &gt;, MaxSubscriptions &gt;</text>
</g>
<!-- Node7 -->
<g id="node7" class="node">
<title>Node7</title>
<g id="a_node7"><a xlink:href="classArray.html" target="_top" xlink:title=" ">
<polygon fill="white" stroke="#666666" points="409.5,-178.56 281.5,-178.56 281.5,-137.56 409.5,-137.56 409.5,-178.56"/>
<text text-anchor="start" x="289.5" y="-166.56" font-family="Helvetica,sans-Serif" font-size="10.00">Array&lt; Attribute_Request</text>
<text text-anchor="start" x="289.5" y="-155.56" font-family="Helvetica,sans-Serif" font-size="10.00">_Callback&lt; MaxAttributes</text>
<text text-anchor="middle" x="345.5" y="-144.56" font-family="Helvetica,sans-Serif" font-size="10.00"> &gt;, MaxSubscriptions &gt;</text>
</a>
</g>
</g>
<!-- Node1&#45;&gt;Node7 -->
<g id="edge6" class="edge">
<title>Node1&#45;&gt;Node7</title>
<path fill="none" stroke="orange" stroke-dasharray="5,2" d="M76.77,-199.23C89.62,-191.49 106.07,-182.83 122,-178.06 174.2,-162.43 236.12,-157.93 281.37,-157.06"/>
<polygon fill="orange" stroke="orange" points="75.22,-196.07 68.6,-204.35 78.94,-202 75.22,-196.07"/>
<text text-anchor="start" x="134" y="-203.06" font-family="Helvetica,sans-Serif" font-size="10.00"> &lt; Attribute_Request</text>
<text text-anchor="start" x="134" y="-192.06" font-family="Helvetica,sans-Serif" font-size="10.00">_Callback&lt; MaxAttributes</text>
<text text-anchor="middle" x="190" y="-181.06" font-family="Helvetica,sans-Serif" font-size="10.00"> &gt;, MaxSubscriptions &gt;</text>
</g>
<!-- Node8 -->
<g id="node8" class="node">
<title>Node8</title>
<g id="a_node8"><a xlink:href="classArray.html" target="_top" xlink:title=" ">
<polygon fill="white" stroke="#666666" points="410,-119.56 281,-119.56 281,-100.56 410,-100.56 410,-119.56"/>
<text text-anchor="middle" x="345.5" y="-107.56" font-family="Helvetica,sans-Serif" font-size="10.00">Array&lt; RPC_Callback, 1 &gt;</text>
</a>
</g>
</g>
<!-- Node1&#45;&gt;Node8 -->
<g id="edge7" class="edge">
<title>Node1&#45;&gt;Node8</title>
<path fill="none" stroke="orange" stroke-dasharray="5,2" d="M65.5,-196.19C77.77,-179.33 98.08,-155.42 122,-143.06 171.26,-117.6 234.33,-110.24 280.74,-108.72"/>
<polygon fill="orange" stroke="orange" points="62.95,-193.73 60.1,-203.93 68.69,-197.73 62.95,-193.73"/>
<text text-anchor="middle" x="190" y="-146.06" font-family="Helvetica,sans-Serif" font-size="10.00"> &lt; RPC_Callback, 1 &gt;</text>
</g>
<!-- Node9 -->
<g id="node9" class="node">
<title>Node9</title>
<g id="a_node9"><a xlink:href="classArray.html" target="_top" xlink:title=" ">
<polygon fill="white" stroke="#666666" points="405.5,-82.06 285.5,-82.06 285.5,-52.06 405.5,-52.06 405.5,-82.06"/>
<text text-anchor="start" x="293.5" y="-70.06" font-family="Helvetica,sans-Serif" font-size="10.00">Array&lt; Shared_Attribute</text>
<text text-anchor="middle" x="345.5" y="-59.06" font-family="Helvetica,sans-Serif" font-size="10.00">_Callback&lt; 1 &gt;, 1 &gt;</text>
</a>
</g>
</g>
<!-- Node1&#45;&gt;Node9 -->
<g id="edge8" class="edge">
<title>Node1&#45;&gt;Node9</title>
<path fill="none" stroke="orange" stroke-dasharray="5,2" d="M57.28,-194.52C64.71,-164.55 83.1,-109.61 122,-84.06 170.09,-52.48 237.25,-51.82 285.19,-56.83"/>
<polygon fill="orange" stroke="orange" points="53.96,-193.34 55.14,-203.87 60.78,-194.9 53.96,-193.34"/>
<text text-anchor="start" x="148" y="-98.06" font-family="Helvetica,sans-Serif" font-size="10.00"> &lt; Shared_Attribute</text>
<text text-anchor="middle" x="190" y="-87.06" font-family="Helvetica,sans-Serif" font-size="10.00">_Callback&lt; 1 &gt;, 1 &gt;</text>
</g>
<!-- Node10 -->
<g id="node10" class="node">
<title>Node10</title>
<g id="a_node10"><a xlink:href="classArray.html" target="_top" xlink:title=" ">
<polygon fill="white" stroke="#666666" points="415,-34.06 276,-34.06 276,-4.06 415,-4.06 415,-34.06"/>
<text text-anchor="start" x="284" y="-22.06" font-family="Helvetica,sans-Serif" font-size="10.00">Array&lt; IAPI_Implementation</text>
<text text-anchor="middle" x="345.5" y="-11.06" font-family="Helvetica,sans-Serif" font-size="10.00"> *, 7 &gt;</text>
</a>
</g>
</g>
<!-- Node1&#45;&gt;Node10 -->
<g id="edge9" class="edge">
<title>Node1&#45;&gt;Node10</title>
<path fill="none" stroke="orange" stroke-dasharray="5,2" d="M53.74,-193.73C56.39,-153.78 68.39,-68.17 122,-29.06 165.66,2.79 227.96,2.84 275.53,-3.67"/>
<polygon fill="orange" stroke="orange" points="50.24,-193.52 53.23,-203.68 57.23,-193.87 50.24,-193.52"/>
<text text-anchor="start" x="138.5" y="-43.06" font-family="Helvetica,sans-Serif" font-size="10.00"> &lt; IAPI_Implementation</text>
<text text-anchor="middle" x="190" y="-32.06" font-family="Helvetica,sans-Serif" font-size="10.00"> *, 7 &gt;</text>
</g>
</g>
</svg>
