<?xml version="1.0" encoding="UTF-8" standalone="no"?>
<!DOCTYPE svg PUBLIC "-//W3C//DTD SVG 1.1//EN"
 "http://www.w3.org/Graphics/SVG/1.1/DTD/svg11.dtd">
<!-- Generated by graphviz version 7.0.5 (20221223.1930)
 -->
<!-- Title: Shared_Attribute_Update&lt; MaxSubscriptions, MaxAttributes, Logger &gt; Pages: 1 -->
<svg width="248pt" height="204pt"
 viewBox="0.00 0.00 248.00 204.00" xmlns="http://www.w3.org/2000/svg" xmlns:xlink="http://www.w3.org/1999/xlink">
<g id="graph0" class="graph" transform="scale(1 1) rotate(0) translate(4 200)">
<title>Shared_Attribute_Update&lt; MaxSubscriptions, MaxAttributes, Logger &gt;</title>
<!-- Node1 -->
<g id="node1" class="node">
<title>Node1</title>
<g id="a_node1"><a xlink:title="Handles the internal implementation of the ThingsBoard shared attribute update API....">
<polygon fill="#999999" stroke="#666666" points="170,-140 0,-140 0,-99 170,-99 170,-140"/>
<text text-anchor="start" x="8" y="-128" font-family="Helvetica,sans-Serif" font-size="10.00">Shared_Attribute_Update</text>
<text text-anchor="start" x="8" y="-117" font-family="Helvetica,sans-Serif" font-size="10.00">&lt; MaxSubscriptions, MaxAttributes,</text>
<text text-anchor="middle" x="85" y="-106" font-family="Helvetica,sans-Serif" font-size="10.00"> Logger &gt;</text>
</a>
</g>
</g>
<!-- Node3 -->
<g id="node3" class="node">
<title>Node3</title>
<g id="a_node3"><a xlink:href="classShared__Attribute__Update.html" target="_top" xlink:title=" ">
<polygon fill="white" stroke="#666666" points="162.5,-41 7.5,-41 7.5,0 162.5,0 162.5,-41"/>
<text text-anchor="start" x="15.5" y="-29" font-family="Helvetica,sans-Serif" font-size="10.00">Shared_Attribute_Update</text>
<text text-anchor="start" x="15.5" y="-18" font-family="Helvetica,sans-Serif" font-size="10.00">&lt; 1U, OTA_ATTRIBUTE_KEYS</text>
<text text-anchor="middle" x="85" y="-7" font-family="Helvetica,sans-Serif" font-size="10.00">_AMOUNT, DefaultLogger &gt;</text>
</a>
</g>
</g>
<!-- Node1&#45;&gt;Node3 -->
<g id="edge2" class="edge">
<title>Node1&#45;&gt;Node3</title>
<path fill="none" stroke="orange" stroke-dasharray="5,2" d="M85,-87.46C85,-72.38 85,-54.69 85,-41.43"/>
<polygon fill="orange" stroke="orange" points="81.5,-87.36 85,-97.36 88.5,-87.36 81.5,-87.36"/>
<text text-anchor="start" x="85" y="-73" font-family="Helvetica,sans-Serif" font-size="10.00"> &lt; 1U, OTA_ATTRIBUTE</text>
<text text-anchor="middle" x="162.5" y="-62" font-family="Helvetica,sans-Serif" font-size="10.00">_KEYS_AMOUNT, DefaultLogger &gt;</text>
</g>
<!-- Node2 -->
<g id="node2" class="node">
<title>Node2</title>
<g id="a_node2"><a xlink:href="classIAPI__Implementation.html" target="_top" xlink:title="Base functionality required by all API implementation.">
<polygon fill="white" stroke="#666666" points="139,-196 31,-196 31,-177 139,-177 139,-196"/>
<text text-anchor="middle" x="85" y="-184" font-family="Helvetica,sans-Serif" font-size="10.00">IAPI_Implementation</text>
</a>
</g>
</g>
<!-- Node2&#45;&gt;Node1 -->
<g id="edge1" class="edge">
<title>Node2&#45;&gt;Node1</title>
<path fill="none" stroke="#63b8ff" d="M85,-165.49C85,-157.49 85,-148.29 85,-140.31"/>
<polygon fill="#63b8ff" stroke="#63b8ff" points="81.5,-165.22 85,-175.22 88.5,-165.22 81.5,-165.22"/>
</g>
</g>
</svg>
