<?xml version="1.0" encoding="UTF-8" standalone="no"?>
<!DOCTYPE svg PUBLIC "-//W3C//DTD SVG 1.1//EN"
 "http://www.w3.org/Graphics/SVG/1.1/DTD/svg11.dtd">
<!-- Generated by graphviz version 7.0.5 (20221223.1930)
 -->
<!-- Title: Attribute_Request&lt; MaxSubscriptions, MaxAttributes, Logger &gt; Pages: 1 -->
<svg width="245pt" height="204pt"
 viewBox="0.00 0.00 245.00 204.00" xmlns="http://www.w3.org/2000/svg" xmlns:xlink="http://www.w3.org/1999/xlink">
<g id="graph0" class="graph" transform="scale(1 1) rotate(0) translate(4 200)">
<title>Attribute_Request&lt; MaxSubscriptions, MaxAttributes, Logger &gt;</title>
<!-- Node1 -->
<g id="node1" class="node">
<title>Node1</title>
<g id="a_node1"><a xlink:title="Handles the internal implementation of the ThingsBoard shared and server&#45;side Attribute API....">
<polygon fill="#999999" stroke="#666666" points="164,-140 0,-140 0,-99 164,-99 164,-140"/>
<text text-anchor="start" x="8" y="-128" font-family="Helvetica,sans-Serif" font-size="10.00">Attribute_Request&lt;</text>
<text text-anchor="start" x="8" y="-117" font-family="Helvetica,sans-Serif" font-size="10.00"> MaxSubscriptions, MaxAttributes,</text>
<text text-anchor="middle" x="82" y="-106" font-family="Helvetica,sans-Serif" font-size="10.00"> Logger &gt;</text>
</a>
</g>
</g>
<!-- Node3 -->
<g id="node3" class="node">
<title>Node3</title>
<g id="a_node3"><a xlink:href="classAttribute__Request.html" target="_top" xlink:title=" ">
<polygon fill="white" stroke="#666666" points="156.5,-41 7.5,-41 7.5,0 156.5,0 156.5,-41"/>
<text text-anchor="start" x="15.5" y="-29" font-family="Helvetica,sans-Serif" font-size="10.00">Attribute_Request&lt;</text>
<text text-anchor="start" x="15.5" y="-18" font-family="Helvetica,sans-Serif" font-size="10.00"> 1U, OTA_ATTRIBUTE_KEYS</text>
<text text-anchor="middle" x="82" y="-7" font-family="Helvetica,sans-Serif" font-size="10.00">_AMOUNT, DefaultLogger &gt;</text>
</a>
</g>
</g>
<!-- Node1&#45;&gt;Node3 -->
<g id="edge2" class="edge">
<title>Node1&#45;&gt;Node3</title>
<path fill="none" stroke="orange" stroke-dasharray="5,2" d="M82,-87.46C82,-72.38 82,-54.69 82,-41.43"/>
<polygon fill="orange" stroke="orange" points="78.5,-87.36 82,-97.36 85.5,-87.36 78.5,-87.36"/>
<text text-anchor="start" x="82" y="-73" font-family="Helvetica,sans-Serif" font-size="10.00"> &lt; 1U, OTA_ATTRIBUTE</text>
<text text-anchor="middle" x="159.5" y="-62" font-family="Helvetica,sans-Serif" font-size="10.00">_KEYS_AMOUNT, DefaultLogger &gt;</text>
</g>
<!-- Node2 -->
<g id="node2" class="node">
<title>Node2</title>
<g id="a_node2"><a xlink:href="classIAPI__Implementation.html" target="_top" xlink:title="Base functionality required by all API implementation.">
<polygon fill="white" stroke="#666666" points="136,-196 28,-196 28,-177 136,-177 136,-196"/>
<text text-anchor="middle" x="82" y="-184" font-family="Helvetica,sans-Serif" font-size="10.00">IAPI_Implementation</text>
</a>
</g>
</g>
<!-- Node2&#45;&gt;Node1 -->
<g id="edge1" class="edge">
<title>Node2&#45;&gt;Node1</title>
<path fill="none" stroke="#63b8ff" d="M82,-165.49C82,-157.49 82,-148.29 82,-140.31"/>
<polygon fill="#63b8ff" stroke="#63b8ff" points="78.5,-165.22 82,-175.22 85.5,-165.22 78.5,-165.22"/>
</g>
</g>
</svg>
