<?xml version="1.0" encoding="UTF-8" standalone="no"?>
<!DOCTYPE svg PUBLIC "-//W3C//DTD SVG 1.1//EN"
 "http://www.w3.org/Graphics/SVG/1.1/DTD/svg11.dtd">
<!-- Generated by graphviz version 7.0.5 (20221223.1930)
 -->
<!-- Title: OTA_Update_Callback Pages: 1 -->
<svg width="162pt" height="171pt"
 viewBox="0.00 0.00 162.00 171.00" xmlns="http://www.w3.org/2000/svg" xmlns:xlink="http://www.w3.org/1999/xlink">
<g id="graph0" class="graph" transform="scale(1 1) rotate(0) translate(4 167)">
<title>OTA_Update_Callback</title>
<!-- Node1 -->
<g id="node1" class="node">
<title>Node1</title>
<g id="a_node1"><a xlink:title="Over the air firmware update callback wrapper, contains the needed configuration settings to create t...">
<polygon fill="#999999" stroke="#666666" points="116,-19 0,-19 0,0 116,0 116,-19"/>
<text text-anchor="middle" x="58" y="-7" font-family="Helvetica,sans-Serif" font-size="10.00">OTA_Update_Callback</text>
</a>
</g>
</g>
<!-- Node2 -->
<g id="node2" class="node">
<title>Node2</title>
<g id="a_node2"><a xlink:href="classCallback.html" target="_top" xlink:title=" ">
<polygon fill="white" stroke="#666666" points="110,-86 6,-86 6,-56 110,-56 110,-86"/>
<text text-anchor="start" x="14" y="-74" font-family="Helvetica,sans-Serif" font-size="10.00">Callback&lt; void, bool</text>
<text text-anchor="middle" x="58" y="-63" font-family="Helvetica,sans-Serif" font-size="10.00"> const &amp; &gt;</text>
</a>
</g>
</g>
<!-- Node2&#45;&gt;Node1 -->
<g id="edge1" class="edge">
<title>Node2&#45;&gt;Node1</title>
<path fill="none" stroke="#63b8ff" d="M58,-44.13C58,-35.29 58,-25.99 58,-19.42"/>
<polygon fill="#63b8ff" stroke="#63b8ff" points="54.5,-44.08 58,-54.08 61.5,-44.08 54.5,-44.08"/>
</g>
<!-- Node3 -->
<g id="node3" class="node">
<title>Node3</title>
<g id="a_node3"><a xlink:href="classCallback.html" target="_top" xlink:title="General purpose safe callback wrapper. Expects either c&#45;style or c++ style function pointer,...">
<polygon fill="white" stroke="#666666" points="112,-163 4,-163 4,-133 112,-133 112,-163"/>
<text text-anchor="start" x="12" y="-151" font-family="Helvetica,sans-Serif" font-size="10.00">Callback&lt; return_typ,</text>
<text text-anchor="middle" x="58" y="-140" font-family="Helvetica,sans-Serif" font-size="10.00"> argument_types &gt;</text>
</a>
</g>
</g>
<!-- Node3&#45;&gt;Node2 -->
<g id="edge2" class="edge">
<title>Node3&#45;&gt;Node2</title>
<path fill="none" stroke="orange" stroke-dasharray="5,2" d="M58,-121.23C58,-109.58 58,-96.26 58,-86.42"/>
<polygon fill="orange" stroke="orange" points="54.5,-121.03 58,-131.03 61.5,-121.03 54.5,-121.03"/>
<text text-anchor="middle" x="106" y="-107" font-family="Helvetica,sans-Serif" font-size="10.00"> &lt; void, bool const &amp; &gt;</text>
</g>
</g>
</svg>
