<?xml version="1.0" encoding="UTF-8" standalone="no"?>
<!DOCTYPE svg PUBLIC "-//W3C//DTD SVG 1.1//EN"
 "http://www.w3.org/Graphics/SVG/1.1/DTD/svg11.dtd">
<!-- Generated by graphviz version 7.0.5 (20221223.1930)
 -->
<!-- Title: Callback&lt; return_typ, argument_types &gt; Pages: 1 -->
<svg width="908pt" height="911pt"
 viewBox="0.00 0.00 908.00 910.75" xmlns="http://www.w3.org/2000/svg" xmlns:xlink="http://www.w3.org/1999/xlink">
<g id="graph0" class="graph" transform="scale(1 1) rotate(0) translate(4 906.75)">
<title>Callback&lt; return_typ, argument_types &gt;</title>
<!-- Node1 -->
<g id="node1" class="node">
<title>Node1</title>
<g id="a_node1"><a xlink:title="General purpose safe callback wrapper. Expects either c&#45;style or c++ style function pointer,...">
<polygon fill="#999999" stroke="#666666" points="108,-363.93 0,-363.93 0,-333.93 108,-333.93 108,-363.93"/>
<text text-anchor="start" x="8" y="-351.93" font-family="Helvetica,sans-Serif" font-size="10.00">Callback&lt; return_typ,</text>
<text text-anchor="middle" x="54" y="-340.93" font-family="Helvetica,sans-Serif" font-size="10.00"> argument_types &gt;</text>
</a>
</g>
</g>
<!-- Node2 -->
<g id="node2" class="node">
<title>Node2</title>
<g id="a_node2"><a xlink:href="classCallback.html" target="_top" xlink:title=" ">
<polygon fill="white" stroke="#666666" points="437,-782.93 302,-782.93 302,-752.93 437,-752.93 437,-782.93"/>
<text text-anchor="start" x="310" y="-770.93" font-family="Helvetica,sans-Serif" font-size="10.00">Callback&lt; void, JsonObject</text>
<text text-anchor="middle" x="369.5" y="-759.93" font-family="Helvetica,sans-Serif" font-size="10.00">Const const &amp; &gt;</text>
</a>
</g>
</g>
<!-- Node1&#45;&gt;Node2 -->
<g id="edge1" class="edge">
<title>Node1&#45;&gt;Node2</title>
<path fill="none" stroke="orange" stroke-dasharray="5,2" d="M57.84,-375.69C65.54,-443.79 88.79,-621.44 126,-665.93 170.17,-718.75 246.41,-744.73 301.63,-757.17"/>
<polygon fill="orange" stroke="orange" points="61.32,-375.37 56.75,-365.81 54.36,-376.13 61.32,-375.37"/>
<text text-anchor="start" x="143" y="-759.93" font-family="Helvetica,sans-Serif" font-size="10.00"> &lt; void, JsonObjectConst</text>
<text text-anchor="middle" x="197.5" y="-748.93" font-family="Helvetica,sans-Serif" font-size="10.00"> const &amp; &gt;</text>
</g>
<!-- Node9 -->
<g id="node9" class="node">
<title>Node9</title>
<g id="a_node9"><a xlink:href="classCallback.html" target="_top" xlink:title=" ">
<polygon fill="white" stroke="#666666" points="414,-648.43 325,-648.43 325,-629.43 414,-629.43 414,-648.43"/>
<text text-anchor="middle" x="369.5" y="-636.43" font-family="Helvetica,sans-Serif" font-size="10.00">Callback&lt; void &gt;</text>
</a>
</g>
</g>
<!-- Node1&#45;&gt;Node9 -->
<g id="edge12" class="edge">
<title>Node1&#45;&gt;Node9</title>
<path fill="none" stroke="orange" stroke-dasharray="5,2" d="M58.43,-375.61C66.77,-435.94 90.07,-580.02 126,-610.93 181.09,-658.34 271.2,-654.8 324.69,-647.29"/>
<polygon fill="orange" stroke="orange" points="61.93,-375.34 57.13,-365.9 54.99,-376.28 61.93,-375.34"/>
<text text-anchor="middle" x="197.5" y="-653.93" font-family="Helvetica,sans-Serif" font-size="10.00"> &lt; void &gt;</text>
</g>
<!-- Node11 -->
<g id="node11" class="node">
<title>Node11</title>
<g id="a_node11"><a xlink:href="classCallback.html" target="_top" xlink:title=" ">
<polygon fill="white" stroke="#666666" points="421.5,-610.93 317.5,-610.93 317.5,-580.93 421.5,-580.93 421.5,-610.93"/>
<text text-anchor="start" x="325.5" y="-598.93" font-family="Helvetica,sans-Serif" font-size="10.00">Callback&lt; void, bool</text>
<text text-anchor="middle" x="369.5" y="-587.93" font-family="Helvetica,sans-Serif" font-size="10.00"> const &amp; &gt;</text>
</a>
</g>
</g>
<!-- Node1&#45;&gt;Node11 -->
<g id="edge14" class="edge">
<title>Node1&#45;&gt;Node11</title>
<path fill="none" stroke="orange" stroke-dasharray="5,2" d="M54.82,-375.92C56.11,-423.64 66.31,-522.47 126,-570.93 154.38,-593.98 254.88,-597.31 317.25,-597.03"/>
<polygon fill="orange" stroke="orange" points="58.32,-375.88 54.68,-365.93 51.32,-375.98 58.32,-375.88"/>
<text text-anchor="middle" x="197.5" y="-598.93" font-family="Helvetica,sans-Serif" font-size="10.00"> &lt; void, bool const &amp; &gt;</text>
</g>
<!-- Node13 -->
<g id="node13" class="node">
<title>Node13</title>
<g id="a_node13"><a xlink:href="classCallback.html" target="_top" xlink:title=" ">
<polygon fill="white" stroke="#666666" points="445,-562.93 294,-562.93 294,-532.93 445,-532.93 445,-562.93"/>
<text text-anchor="start" x="302" y="-550.93" font-family="Helvetica,sans-Serif" font-size="10.00">Callback&lt; void, JsonDocument</text>
<text text-anchor="middle" x="369.5" y="-539.93" font-family="Helvetica,sans-Serif" font-size="10.00"> const &amp; &gt;</text>
</a>
</g>
</g>
<!-- Node1&#45;&gt;Node13 -->
<g id="edge16" class="edge">
<title>Node1&#45;&gt;Node13</title>
<path fill="none" stroke="orange" stroke-dasharray="5,2" d="M57.41,-375.55C62.53,-415.02 78.27,-488.25 126,-523.93 151.75,-543.19 232.41,-548.04 293.7,-548.8"/>
<polygon fill="orange" stroke="orange" points="60.9,-375.27 56.29,-365.74 53.94,-376.07 60.9,-375.27"/>
<text text-anchor="start" x="147.5" y="-561.93" font-family="Helvetica,sans-Serif" font-size="10.00"> &lt; void, JsonDocument</text>
<text text-anchor="middle" x="197.5" y="-550.93" font-family="Helvetica,sans-Serif" font-size="10.00"> const &amp; &gt;</text>
</g>
<!-- Node16 -->
<g id="node16" class="node">
<title>Node16</title>
<g id="a_node16"><a xlink:href="classCallback.html" target="_top" xlink:title=" ">
<polygon fill="white" stroke="#666666" points="452,-514.93 287,-514.93 287,-484.93 452,-484.93 452,-514.93"/>
<text text-anchor="start" x="295" y="-502.93" font-family="Helvetica,sans-Serif" font-size="10.00">Callback&lt; void, JsonVariant</text>
<text text-anchor="middle" x="369.5" y="-491.93" font-family="Helvetica,sans-Serif" font-size="10.00">Const const &amp;, JsonDocument &amp; &gt;</text>
</a>
</g>
</g>
<!-- Node1&#45;&gt;Node16 -->
<g id="edge19" class="edge">
<title>Node1&#45;&gt;Node16</title>
<path fill="none" stroke="orange" stroke-dasharray="5,2" d="M61.42,-375.04C70.37,-405.36 89.73,-454.22 126,-477.93 151.78,-494.79 226.81,-499.59 286.66,-500.59"/>
<polygon fill="orange" stroke="orange" points="64.82,-374.22 58.79,-365.51 58.07,-376.08 64.82,-374.22"/>
<text text-anchor="start" x="135.5" y="-513.93" font-family="Helvetica,sans-Serif" font-size="10.00"> &lt; void, JsonVariantConst</text>
<text text-anchor="middle" x="197.5" y="-502.93" font-family="Helvetica,sans-Serif" font-size="10.00"> const &amp;, JsonDocument &amp; &gt;</text>
</g>
<!-- Node18 -->
<g id="node18" class="node">
<title>Node18</title>
<g id="a_node18"><a xlink:href="classCallback.html" target="_top" xlink:title=" ">
<polygon fill="white" stroke="#666666" points="441,-466.43 298,-466.43 298,-425.43 441,-425.43 441,-466.43"/>
<text text-anchor="start" x="306" y="-454.43" font-family="Helvetica,sans-Serif" font-size="10.00">Callback&lt; bool, char</text>
<text text-anchor="start" x="306" y="-443.43" font-family="Helvetica,sans-Serif" font-size="10.00"> const *const, JsonDocument</text>
<text text-anchor="middle" x="369.5" y="-432.43" font-family="Helvetica,sans-Serif" font-size="10.00"> const &amp;, size_t const &amp; &gt;</text>
</a>
</g>
</g>
<!-- Node1&#45;&gt;Node18 -->
<g id="edge21" class="edge">
<title>Node1&#45;&gt;Node18</title>
<path fill="none" stroke="orange" stroke-dasharray="5,2" d="M76.49,-372.11C89.56,-384.74 107.31,-399.49 126,-407.93 180.37,-432.5 247.8,-441.56 297.74,-444.73"/>
<polygon fill="orange" stroke="orange" points="79.21,-369.88 69.68,-365.27 74.25,-374.82 79.21,-369.88"/>
<text text-anchor="start" x="142.5" y="-466.93" font-family="Helvetica,sans-Serif" font-size="10.00"> &lt; bool, char const</text>
<text text-anchor="start" x="142.5" y="-455.93" font-family="Helvetica,sans-Serif" font-size="10.00"> *const, JsonDocument</text>
<text text-anchor="middle" x="197.5" y="-444.93" font-family="Helvetica,sans-Serif" font-size="10.00"> const &amp;, size_t const &amp; &gt;</text>
</g>
<!-- Node19 -->
<g id="node19" class="node">
<title>Node19</title>
<g id="a_node19"><a xlink:href="classCallback.html" target="_top" xlink:title=" ">
<polygon fill="white" stroke="#666666" points="421.5,-406.93 317.5,-406.93 317.5,-376.93 421.5,-376.93 421.5,-406.93"/>
<text text-anchor="start" x="325.5" y="-394.93" font-family="Helvetica,sans-Serif" font-size="10.00">Callback&lt; bool, char</text>
<text text-anchor="middle" x="369.5" y="-383.93" font-family="Helvetica,sans-Serif" font-size="10.00"> const *const &gt;</text>
</a>
</g>
</g>
<!-- Node1&#45;&gt;Node19 -->
<g id="edge22" class="edge">
<title>Node1&#45;&gt;Node19</title>
<path fill="none" stroke="orange" stroke-dasharray="5,2" d="M119.48,-362.83C121.68,-363.21 123.86,-363.58 126,-363.93 191.67,-374.64 268,-382.74 317.21,-387.41"/>
<polygon fill="orange" stroke="orange" points="120.36,-359.43 109.89,-361.05 119.08,-366.31 120.36,-359.43"/>
<text text-anchor="start" x="158" y="-395.93" font-family="Helvetica,sans-Serif" font-size="10.00"> &lt; bool, char const</text>
<text text-anchor="middle" x="197.5" y="-384.93" font-family="Helvetica,sans-Serif" font-size="10.00"> *const &gt;</text>
</g>
<!-- Node20 -->
<g id="node20" class="node">
<title>Node20</title>
<g id="a_node20"><a xlink:href="classCallback.html" target="_top" xlink:title=" ">
<polygon fill="white" stroke="#666666" points="420.5,-358.43 318.5,-358.43 318.5,-339.43 420.5,-339.43 420.5,-358.43"/>
<text text-anchor="middle" x="369.5" y="-346.43" font-family="Helvetica,sans-Serif" font-size="10.00">Callback&lt; size_t * &gt;</text>
</a>
</g>
</g>
<!-- Node1&#45;&gt;Node20 -->
<g id="edge23" class="edge">
<title>Node1&#45;&gt;Node20</title>
<path fill="none" stroke="orange" stroke-dasharray="5,2" d="M119.58,-348.93C178.46,-348.93 264.24,-348.93 318.17,-348.93"/>
<polygon fill="orange" stroke="orange" points="119.69,-345.43 109.69,-348.93 119.69,-352.43 119.69,-345.43"/>
<text text-anchor="middle" x="197.5" y="-351.93" font-family="Helvetica,sans-Serif" font-size="10.00"> &lt; size_t * &gt;</text>
</g>
<!-- Node21 -->
<g id="node21" class="node">
<title>Node21</title>
<g id="a_node21"><a xlink:href="classCallback.html" target="_top" xlink:title=" ">
<polygon fill="white" stroke="#666666" points="422.5,-320.93 316.5,-320.93 316.5,-290.93 422.5,-290.93 422.5,-320.93"/>
<text text-anchor="start" x="324.5" y="-308.93" font-family="Helvetica,sans-Serif" font-size="10.00">Callback&lt; void, IAPI</text>
<text text-anchor="middle" x="369.5" y="-297.93" font-family="Helvetica,sans-Serif" font-size="10.00">_Implementation &amp; &gt;</text>
</a>
</g>
</g>
<!-- Node1&#45;&gt;Node21 -->
<g id="edge24" class="edge">
<title>Node1&#45;&gt;Node21</title>
<path fill="none" stroke="orange" stroke-dasharray="5,2" d="M119.48,-335.04C121.68,-334.65 123.86,-334.28 126,-333.93 191.25,-323.3 267.03,-315.23 316.27,-310.55"/>
<polygon fill="orange" stroke="orange" points="119.08,-331.56 109.89,-336.82 120.36,-338.44 119.08,-331.56"/>
<text text-anchor="middle" x="197.5" y="-336.93" font-family="Helvetica,sans-Serif" font-size="10.00"> &lt; void, IAPI_Implementation &amp; &gt;</text>
</g>
<!-- Node22 -->
<g id="node22" class="node">
<title>Node22</title>
<g id="a_node22"><a xlink:href="classCallback.html" target="_top" xlink:title=" ">
<polygon fill="white" stroke="#666666" points="431,-272.43 308,-272.43 308,-231.43 431,-231.43 431,-272.43"/>
<text text-anchor="start" x="316" y="-260.43" font-family="Helvetica,sans-Serif" font-size="10.00">Callback&lt; bool, char</text>
<text text-anchor="start" x="316" y="-249.43" font-family="Helvetica,sans-Serif" font-size="10.00"> const *const, char const</text>
<text text-anchor="middle" x="369.5" y="-238.43" font-family="Helvetica,sans-Serif" font-size="10.00"> *const &gt;</text>
</a>
</g>
</g>
<!-- Node1&#45;&gt;Node22 -->
<g id="edge25" class="edge">
<title>Node1&#45;&gt;Node22</title>
<path fill="none" stroke="orange" stroke-dasharray="5,2" d="M72.07,-324.76C84.92,-308.6 104.05,-288.43 126,-277.93 183.3,-250.53 256.71,-246.32 307.67,-247.52"/>
<polygon fill="orange" stroke="orange" points="69.45,-322.43 66.17,-332.51 75.01,-326.67 69.45,-322.43"/>
<text text-anchor="start" x="157" y="-302.93" font-family="Helvetica,sans-Serif" font-size="10.00"> &lt; bool, char const</text>
<text text-anchor="start" x="157" y="-291.93" font-family="Helvetica,sans-Serif" font-size="10.00"> *const, char const</text>
<text text-anchor="middle" x="197.5" y="-280.93" font-family="Helvetica,sans-Serif" font-size="10.00"> *const &gt;</text>
</g>
<!-- Node23 -->
<g id="node23" class="node">
<title>Node23</title>
<g id="a_node23"><a xlink:href="classCallback.html" target="_top" xlink:title=" ">
<polygon fill="white" stroke="#666666" points="422,-213.43 317,-213.43 317,-194.43 422,-194.43 422,-213.43"/>
<text text-anchor="middle" x="369.5" y="-201.43" font-family="Helvetica,sans-Serif" font-size="10.00">Callback&lt; uint16_t &gt;</text>
</a>
</g>
</g>
<!-- Node1&#45;&gt;Node23 -->
<g id="edge26" class="edge">
<title>Node1&#45;&gt;Node23</title>
<path fill="none" stroke="orange" stroke-dasharray="5,2" d="M63.12,-322.86C73.16,-295.33 93.1,-253.03 126,-231.93 183.44,-195.1 264.54,-193.53 316.83,-197.42"/>
<polygon fill="orange" stroke="orange" points="59.84,-321.63 59.9,-332.23 66.46,-323.91 59.84,-321.63"/>
<text text-anchor="middle" x="197.5" y="-234.93" font-family="Helvetica,sans-Serif" font-size="10.00"> &lt; uint16_t &gt;</text>
</g>
<!-- Node24 -->
<g id="node24" class="node">
<title>Node24</title>
<g id="a_node24"><a xlink:href="classCallback.html" target="_top" xlink:title=" ">
<polygon fill="white" stroke="#666666" points="425.5,-175.93 313.5,-175.93 313.5,-145.93 425.5,-145.93 425.5,-175.93"/>
<text text-anchor="start" x="321.5" y="-163.93" font-family="Helvetica,sans-Serif" font-size="10.00">Callback&lt; bool, uint16</text>
<text text-anchor="middle" x="369.5" y="-152.93" font-family="Helvetica,sans-Serif" font-size="10.00">_t, uint16_t &gt;</text>
</a>
</g>
</g>
<!-- Node1&#45;&gt;Node24 -->
<g id="edge27" class="edge">
<title>Node1&#45;&gt;Node24</title>
<path fill="none" stroke="orange" stroke-dasharray="5,2" d="M57.81,-322.44C63.4,-284.2 79.71,-214.44 126,-180.93 180.15,-141.73 260.02,-143.35 313.12,-150.31"/>
<polygon fill="orange" stroke="orange" points="54.36,-321.8 56.54,-332.16 61.3,-322.7 54.36,-321.8"/>
<text text-anchor="middle" x="197.5" y="-183.93" font-family="Helvetica,sans-Serif" font-size="10.00"> &lt; bool, uint16_t, uint16_t &gt;</text>
</g>
<!-- Node25 -->
<g id="node25" class="node">
<title>Node25</title>
<g id="a_node25"><a xlink:href="classCallback.html" target="_top" xlink:title=" ">
<polygon fill="white" stroke="#666666" points="436.5,-127.93 302.5,-127.93 302.5,-97.93 436.5,-97.93 436.5,-127.93"/>
<text text-anchor="start" x="310.5" y="-115.93" font-family="Helvetica,sans-Serif" font-size="10.00">Callback&lt; bool, size</text>
<text text-anchor="middle" x="369.5" y="-104.93" font-family="Helvetica,sans-Serif" font-size="10.00">_t const &amp;, size_t const &amp; &gt;</text>
</a>
</g>
</g>
<!-- Node1&#45;&gt;Node25 -->
<g id="edge28" class="edge">
<title>Node1&#45;&gt;Node25</title>
<path fill="none" stroke="orange" stroke-dasharray="5,2" d="M54.16,-322.38C54.22,-273.14 62.28,-168.32 126,-119.93 178.91,-79.75 258.7,-86.43 312.14,-97.48"/>
<polygon fill="orange" stroke="orange" points="50.66,-322.16 54.27,-332.12 57.66,-322.08 50.66,-322.16"/>
<text text-anchor="start" x="154.5" y="-133.93" font-family="Helvetica,sans-Serif" font-size="10.00"> &lt; bool, size_t const</text>
<text text-anchor="middle" x="197.5" y="-122.93" font-family="Helvetica,sans-Serif" font-size="10.00"> &amp;, size_t const &amp; &gt;</text>
</g>
<!-- Node26 -->
<g id="node26" class="node">
<title>Node26</title>
<g id="a_node26"><a xlink:href="classCallback.html" target="_top" xlink:title=" ">
<polygon fill="white" stroke="#666666" points="414,-79.43 325,-79.43 325,-60.43 414,-60.43 414,-79.43"/>
<text text-anchor="middle" x="369.5" y="-67.43" font-family="Helvetica,sans-Serif" font-size="10.00">Callback&lt; bool &gt;</text>
</a>
</g>
</g>
<!-- Node1&#45;&gt;Node26 -->
<g id="edge29" class="edge">
<title>Node1&#45;&gt;Node26</title>
<path fill="none" stroke="orange" stroke-dasharray="5,2" d="M57.82,-322.41C65.08,-259.63 86.69,-104.9 126,-73.93 155.73,-50.51 263.26,-58.01 324.69,-64.55"/>
<polygon fill="orange" stroke="orange" points="54.36,-321.84 56.72,-332.17 61.32,-322.62 54.36,-321.84"/>
<text text-anchor="middle" x="197.5" y="-76.93" font-family="Helvetica,sans-Serif" font-size="10.00"> &lt; bool &gt;</text>
</g>
<!-- Node27 -->
<g id="node27" class="node">
<title>Node27</title>
<g id="a_node27"><a xlink:href="classCallback.html" target="_top" xlink:title=" ">
<polygon fill="white" stroke="#666666" points="436.5,-40.93 302.5,-40.93 302.5,-10.93 436.5,-10.93 436.5,-40.93"/>
<text text-anchor="start" x="310.5" y="-28.93" font-family="Helvetica,sans-Serif" font-size="10.00">Callback&lt; void, size</text>
<text text-anchor="middle" x="369.5" y="-17.93" font-family="Helvetica,sans-Serif" font-size="10.00">_t const &amp;, size_t const &amp; &gt;</text>
</a>
</g>
</g>
<!-- Node1&#45;&gt;Node27 -->
<g id="edge30" class="edge">
<title>Node1&#45;&gt;Node27</title>
<path fill="none" stroke="orange" stroke-dasharray="5,2" d="M56.9,-322.3C62.46,-253 81.18,-69.88 126,-32.93 178.57,10.39 261.52,1.76 315.47,-10.46"/>
<polygon fill="orange" stroke="orange" points="53.44,-321.75 56.16,-331.98 60.42,-322.28 53.44,-321.75"/>
<text text-anchor="start" x="154.5" y="-46.93" font-family="Helvetica,sans-Serif" font-size="10.00"> &lt; void, size_t const</text>
<text text-anchor="middle" x="197.5" y="-35.93" font-family="Helvetica,sans-Serif" font-size="10.00"> &amp;, size_t const &amp; &gt;</text>
</g>
<!-- Node3 -->
<g id="node3" class="node">
<title>Node3</title>
<g id="a_node3"><a xlink:href="classAttribute__Request__Callback.html" target="_top" xlink:title=" ">
<polygon fill="white" stroke="#666666" points="900,-895.43 741,-895.43 741,-876.43 900,-876.43 900,-895.43"/>
<text text-anchor="middle" x="820.5" y="-883.43" font-family="Helvetica,sans-Serif" font-size="10.00">Attribute_Request_Callback&lt; 1 &gt;</text>
</a>
</g>
</g>
<!-- Node2&#45;&gt;Node3 -->
<g id="edge2" class="edge">
<title>Node2&#45;&gt;Node3</title>
<path fill="none" stroke="#63b8ff" d="M389.04,-791.7C410.19,-816.83 447.31,-855.25 489,-872.93 577.15,-910.33 690.69,-904.52 759.14,-895.93"/>
<polygon fill="#63b8ff" stroke="#63b8ff" points="391.99,-789.78 382.95,-784.27 386.58,-794.22 391.99,-789.78"/>
</g>
<!-- Node4 -->
<g id="node4" class="node">
<title>Node4</title>
<g id="a_node4"><a xlink:href="classAttribute__Request__Callback.html" target="_top" xlink:title=" ">
<polygon fill="white" stroke="#666666" points="889,-836.93 752,-836.93 752,-806.93 889,-806.93 889,-836.93"/>
<text text-anchor="start" x="760" y="-824.93" font-family="Helvetica,sans-Serif" font-size="10.00">Attribute_Request_Callback</text>
<text text-anchor="middle" x="820.5" y="-813.93" font-family="Helvetica,sans-Serif" font-size="10.00">&lt; MaxAttributes &gt;</text>
</a>
</g>
</g>
<!-- Node2&#45;&gt;Node4 -->
<g id="edge3" class="edge">
<title>Node2&#45;&gt;Node4</title>
<path fill="none" stroke="#63b8ff" d="M448.46,-777.31C534.1,-787.61 670.27,-803.99 751.66,-813.78"/>
<polygon fill="#63b8ff" stroke="#63b8ff" points="449.08,-773.86 438.74,-776.14 448.25,-780.81 449.08,-773.86"/>
</g>
<!-- Node5 -->
<g id="node5" class="node">
<title>Node5</title>
<g id="a_node5"><a xlink:href="classShared__Attribute__Callback.html" target="_top" xlink:title=" ">
<polygon fill="white" stroke="#666666" points="886.5,-769.93 754.5,-769.93 754.5,-739.93 886.5,-739.93 886.5,-769.93"/>
<text text-anchor="start" x="762.5" y="-757.93" font-family="Helvetica,sans-Serif" font-size="10.00">Shared_Attribute_Callback</text>
<text text-anchor="middle" x="820.5" y="-746.93" font-family="Helvetica,sans-Serif" font-size="10.00">&lt; MaxAttributes &gt;</text>
</a>
</g>
</g>
<!-- Node2&#45;&gt;Node5 -->
<g id="edge4" class="edge">
<title>Node2&#45;&gt;Node5</title>
<path fill="none" stroke="#63b8ff" d="M448.57,-765.67C535.13,-763.17 673.19,-759.17 754.23,-756.82"/>
<polygon fill="#63b8ff" stroke="#63b8ff" points="448.64,-762.17 438.75,-765.96 448.85,-769.17 448.64,-762.17"/>
</g>
<!-- Node6 -->
<g id="node6" class="node">
<title>Node6</title>
<g id="a_node6"><a xlink:href="classShared__Attribute__Callback.html" target="_top" xlink:title=" ">
<polygon fill="white" stroke="#666666" points="897.5,-696.43 743.5,-696.43 743.5,-677.43 897.5,-677.43 897.5,-696.43"/>
<text text-anchor="middle" x="820.5" y="-684.43" font-family="Helvetica,sans-Serif" font-size="10.00">Shared_Attribute_Callback&lt; 1 &gt;</text>
</a>
</g>
</g>
<!-- Node2&#45;&gt;Node6 -->
<g id="edge5" class="edge">
<title>Node2&#45;&gt;Node6</title>
<path fill="none" stroke="#63b8ff" d="M399.73,-746.18C422.7,-730.42 456.19,-710.31 489,-700.93 573.48,-676.78 675.03,-676.5 743.08,-680.18"/>
<polygon fill="#63b8ff" stroke="#63b8ff" points="397.97,-743.14 391.8,-751.75 402,-748.86 397.97,-743.14"/>
</g>
<!-- Node7 -->
<g id="node7" class="node">
<title>Node7</title>
<g id="a_node7"><a xlink:href="classAttribute__Request__Callback.html" target="_top" xlink:title="Client&#45;side or shared attributes request callback wrapper, contains the needed configuration settings...">
<polygon fill="white" stroke="#666666" points="626,-863.93 489,-863.93 489,-833.93 626,-833.93 626,-863.93"/>
<text text-anchor="start" x="497" y="-851.93" font-family="Helvetica,sans-Serif" font-size="10.00">Attribute_Request_Callback</text>
<text text-anchor="middle" x="557.5" y="-840.93" font-family="Helvetica,sans-Serif" font-size="10.00">&lt; MaxAttributes &gt;</text>
</a>
</g>
</g>
<!-- Node2&#45;&gt;Node7 -->
<g id="edge6" class="edge">
<title>Node2&#45;&gt;Node7</title>
<path fill="none" stroke="#63b8ff" d="M407.03,-788.8C425.56,-798.92 448.61,-810.83 470,-819.93 481.51,-824.84 494.16,-829.47 506.14,-833.54"/>
<polygon fill="#63b8ff" stroke="#63b8ff" points="408.74,-785.74 398.3,-783.97 405.35,-791.87 408.74,-785.74"/>
</g>
<!-- Node8 -->
<g id="node8" class="node">
<title>Node8</title>
<g id="a_node8"><a xlink:href="classShared__Attribute__Callback.html" target="_top" xlink:title="Shared attribute update callback wrapper, contains the needed configuration settings to create the re...">
<polygon fill="white" stroke="#666666" points="623.5,-739.93 491.5,-739.93 491.5,-709.93 623.5,-709.93 623.5,-739.93"/>
<text text-anchor="start" x="499.5" y="-727.93" font-family="Helvetica,sans-Serif" font-size="10.00">Shared_Attribute_Callback</text>
<text text-anchor="middle" x="557.5" y="-716.93" font-family="Helvetica,sans-Serif" font-size="10.00">&lt; MaxAttributes &gt;</text>
</a>
</g>
</g>
<!-- Node2&#45;&gt;Node8 -->
<g id="edge9" class="edge">
<title>Node2&#45;&gt;Node8</title>
<path fill="none" stroke="#63b8ff" d="M448.19,-749.97C462.48,-746.67 477.26,-743.25 491.14,-740.04"/>
<polygon fill="#63b8ff" stroke="#63b8ff" points="447.82,-746.47 438.86,-752.13 449.39,-753.29 447.82,-746.47"/>
</g>
<!-- Node7&#45;&gt;Node3 -->
<g id="edge7" class="edge">
<title>Node7&#45;&gt;Node3</title>
<path fill="none" stroke="orange" stroke-dasharray="5,2" d="M637.7,-860.16C673.23,-865.2 714.8,-871.09 749.22,-875.97"/>
<polygon fill="orange" stroke="orange" points="638.28,-856.71 627.89,-858.77 637.3,-863.64 638.28,-856.71"/>
<text text-anchor="middle" x="683.5" y="-873.93" font-family="Helvetica,sans-Serif" font-size="10.00"> &lt; 1 &gt;</text>
</g>
<!-- Node7&#45;&gt;Node4 -->
<g id="edge8" class="edge">
<title>Node7&#45;&gt;Node4</title>
<path fill="none" stroke="orange" stroke-dasharray="5,2" d="M637.4,-840.62C639.63,-840.39 641.83,-840.16 644,-839.93 679.49,-836.25 719.03,-832.19 751.57,-828.86"/>
<polygon fill="orange" stroke="orange" points="637.26,-837.12 627.68,-841.64 637.99,-844.08 637.26,-837.12"/>
<text text-anchor="middle" x="683.5" y="-842.93" font-family="Helvetica,sans-Serif" font-size="10.00"> &lt; MaxAttributes &gt;</text>
</g>
<!-- Node8&#45;&gt;Node5 -->
<g id="edge10" class="edge">
<title>Node8&#45;&gt;Node5</title>
<path fill="none" stroke="orange" stroke-dasharray="5,2" d="M634.99,-733.07C662.72,-736.08 694.28,-739.58 723,-742.93 733.06,-744.11 743.71,-745.39 754.11,-746.67"/>
<polygon fill="orange" stroke="orange" points="635.59,-729.61 625.27,-732.02 634.84,-736.57 635.59,-729.61"/>
<text text-anchor="middle" x="683.5" y="-745.93" font-family="Helvetica,sans-Serif" font-size="10.00"> &lt; MaxAttributes &gt;</text>
</g>
<!-- Node8&#45;&gt;Node6 -->
<g id="edge11" class="edge">
<title>Node8&#45;&gt;Node6</title>
<path fill="none" stroke="orange" stroke-dasharray="5,2" d="M634.86,-713.82C671.63,-708.46 715.37,-702.1 751.04,-696.9"/>
<polygon fill="orange" stroke="orange" points="634.58,-710.32 625.19,-715.23 635.59,-717.25 634.58,-710.32"/>
<text text-anchor="middle" x="683.5" y="-713.93" font-family="Helvetica,sans-Serif" font-size="10.00"> &lt; 1 &gt;</text>
</g>
<!-- Node10 -->
<g id="node10" class="node">
<title>Node10</title>
<g id="a_node10"><a xlink:href="classCallback__Watchdog.html" target="_top" xlink:title="Wrapper class which allows to start a timer and if it is not stopped in the given time then the callb...">
<polygon fill="white" stroke="#666666" points="609,-646.43 506,-646.43 506,-627.43 609,-627.43 609,-646.43"/>
<text text-anchor="middle" x="557.5" y="-634.43" font-family="Helvetica,sans-Serif" font-size="10.00">Callback_Watchdog</text>
</a>
</g>
</g>
<!-- Node9&#45;&gt;Node10 -->
<g id="edge13" class="edge">
<title>Node9&#45;&gt;Node10</title>
<path fill="none" stroke="#63b8ff" d="M425.41,-638.34C450.78,-638.07 480.72,-637.75 505.58,-637.48"/>
<polygon fill="#63b8ff" stroke="#63b8ff" points="425.58,-634.84 415.62,-638.45 425.66,-641.84 425.58,-634.84"/>
</g>
<!-- Node12 -->
<g id="node12" class="node">
<title>Node12</title>
<g id="a_node12"><a xlink:href="classOTA__Update__Callback.html" target="_top" xlink:title="Over the air firmware update callback wrapper, contains the needed configuration settings to create t...">
<polygon fill="white" stroke="#666666" points="615.5,-606.43 499.5,-606.43 499.5,-587.43 615.5,-587.43 615.5,-606.43"/>
<text text-anchor="middle" x="557.5" y="-594.43" font-family="Helvetica,sans-Serif" font-size="10.00">OTA_Update_Callback</text>
</a>
</g>
</g>
<!-- Node11&#45;&gt;Node12 -->
<g id="edge15" class="edge">
<title>Node11&#45;&gt;Node12</title>
<path fill="none" stroke="#63b8ff" d="M433.07,-596.27C454.43,-596.39 478.2,-596.51 499.13,-596.63"/>
<polygon fill="#63b8ff" stroke="#63b8ff" points="433.35,-592.77 423.33,-596.22 433.31,-599.77 433.35,-592.77"/>
</g>
<!-- Node14 -->
<g id="node14" class="node">
<title>Node14</title>
<g id="a_node14"><a xlink:href="classProvision__Callback.html" target="_top" xlink:title="Provisioning callback wrapper, contains the needed configuration settings to create the request that ...">
<polygon fill="white" stroke="#666666" points="607.5,-569.43 507.5,-569.43 507.5,-550.43 607.5,-550.43 607.5,-569.43"/>
<text text-anchor="middle" x="557.5" y="-557.43" font-family="Helvetica,sans-Serif" font-size="10.00">Provision_Callback</text>
</a>
</g>
</g>
<!-- Node13&#45;&gt;Node14 -->
<g id="edge17" class="edge">
<title>Node13&#45;&gt;Node14</title>
<path fill="none" stroke="#63b8ff" d="M456.66,-553.49C473.97,-554.61 491.6,-555.75 507.13,-556.75"/>
<polygon fill="#63b8ff" stroke="#63b8ff" points="457.06,-550.01 446.86,-552.86 456.61,-557 457.06,-550.01"/>
</g>
<!-- Node15 -->
<g id="node15" class="node">
<title>Node15</title>
<g id="a_node15"><a xlink:href="classRPC__Request__Callback.html" target="_top" xlink:title="Client&#45;side RPC callback wrapper, contains the needed configuration settings to create the request th...">
<polygon fill="white" stroke="#666666" points="618,-532.43 497,-532.43 497,-513.43 618,-513.43 618,-532.43"/>
<text text-anchor="middle" x="557.5" y="-520.43" font-family="Helvetica,sans-Serif" font-size="10.00">RPC_Request_Callback</text>
</a>
</g>
</g>
<!-- Node13&#45;&gt;Node15 -->
<g id="edge18" class="edge">
<title>Node13&#45;&gt;Node15</title>
<path fill="none" stroke="#63b8ff" d="M456.64,-536.36C470.17,-534.54 483.89,-532.69 496.65,-530.98"/>
<polygon fill="#63b8ff" stroke="#63b8ff" points="456.29,-532.87 446.85,-537.67 457.23,-539.81 456.29,-532.87"/>
</g>
<!-- Node17 -->
<g id="node17" class="node">
<title>Node17</title>
<g id="a_node17"><a xlink:href="classRPC__Callback.html" target="_top" xlink:title="Server&#45;side RPC callback wrapper, contains the needed configuration settings to create the request th...">
<polygon fill="white" stroke="#666666" points="597.5,-495.43 517.5,-495.43 517.5,-476.43 597.5,-476.43 597.5,-495.43"/>
<text text-anchor="middle" x="557.5" y="-483.43" font-family="Helvetica,sans-Serif" font-size="10.00">RPC_Callback</text>
</a>
</g>
</g>
<!-- Node16&#45;&gt;Node17 -->
<g id="edge20" class="edge">
<title>Node16&#45;&gt;Node17</title>
<path fill="none" stroke="#63b8ff" d="M463.8,-492.91C482.73,-491.49 501.65,-490.06 517.41,-488.88"/>
<polygon fill="#63b8ff" stroke="#63b8ff" points="463.57,-489.42 453.86,-493.66 464.1,-496.4 463.57,-489.42"/>
</g>
</g>
</svg>
