<?xml version="1.0" encoding="UTF-8" standalone="no"?>
<!DOCTYPE svg PUBLIC "-//W3C//DTD SVG 1.1//EN"
 "http://www.w3.org/Graphics/SVG/1.1/DTD/svg11.dtd">
<!-- Generated by graphviz version 7.0.5 (20221223.1930)
 -->
<!-- Title: src/Configuration.h Pages: 1 -->
<!--zoomable 456 -->
<svg id="main" version="1.1" xmlns="http://www.w3.org/2000/svg" xmlns:xlink="http://www.w3.org/1999/xlink" xml:space="preserve" onload="init(evt)">
<style type="text/css"><![CDATA[
.edge:hover path { stroke: red; }
.edge:hover polygon { stroke: red; fill: red; }
]]></style>
<script type="text/javascript"><![CDATA[
var edges = document.getElementsByTagName('g');
if (edges && edges.length) {
  for (var i=0;i<edges.length;i++) {
    if (edges[i].id.substr(0,4)=='edge') {
      edges[i].setAttribute('class','edge');
    }
  }
}
]]></script>
        <defs>
                <circle id="rim" cx="0" cy="0" r="7"/>
                <circle id="rim2" cx="0" cy="0" r="3.5"/>
                <g id="zoomPlus">
                        <use xlink:href="#rim" fill="#404040">
                                <set attributeName="fill" to="#808080" begin="zoomplus.mouseover" end="zoomplus.mouseout"/>
                        </use>
                        <path d="M-4,0h8M0,-4v8" fill="none" stroke="white" stroke-width="1.5" pointer-events="none"/>
                </g>
                <g id="zoomMin">
                        <use xlink:href="#rim" fill="#404040">
                                <set attributeName="fill" to="#808080" begin="zoomminus.mouseover" end="zoomminus.mouseout"/>
                        </use>
                        <path d="M-4,0h8" fill="none" stroke="white" stroke-width="1.5" pointer-events="none"/>
                </g>
                <g id="dirArrow">
                        <path fill="none" stroke="white" stroke-width="1.5" d="M0,-3.0v7 M-2.5,-0.5L0,-3.0L2.5,-0.5"/>
                </g>
               <g id="resetDef">
                       <use xlink:href="#rim2" fill="#404040">
                               <set attributeName="fill" to="#808080" begin="reset.mouseover" end="reset.mouseout"/>
                       </use>
               </g>
        </defs>

<script type="text/javascript">
var viewWidth = 1648;
var viewHeight = 456;
var sectionId = 'dynsection-0';
</script>
<script xlink:href="svgpan.js"/>
<svg id="graph" class="graph">
<g id="viewport">
<title>src/Configuration.h</title>
<!-- Node1 -->
<g id="node1" class="node">
<title>Node1</title>
<g id="a_node1"><a xlink:title=" ">
<polygon fill="#999999" stroke="#666666" points="1088.5,-448 991.5,-448 991.5,-429 1088.5,-429 1088.5,-448"/>
<text text-anchor="middle" x="1040" y="-436" font-family="Helvetica,sans-Serif" font-size="10.00">src/Configuration.h</text>
</a>
</g>
</g>
<!-- Node2 -->
<g id="node2" class="node">
<title>Node2</title>
<g id="a_node2"><a xlink:href="Arduino__ESP32__Updater_8h.html" target="_top" xlink:title=" ">
<polygon fill="white" stroke="#666666" points="292.5,-387.5 143.5,-387.5 143.5,-368.5 292.5,-368.5 292.5,-387.5"/>
<text text-anchor="middle" x="218" y="-375.5" font-family="Helvetica,sans-Serif" font-size="10.00">src/Arduino_ESP32_Updater.h</text>
</a>
</g>
</g>
<!-- Node1&#45;&gt;Node2 -->
<g id="edge1" class="edge">
<title>Node1&#45;&gt;Node2</title>
<path fill="none" stroke="#63b8ff" d="M980.1,-434.67C859.28,-428.74 577.82,-413.82 342,-393 325.92,-391.58 308.7,-389.8 292.36,-387.99"/>
<polygon fill="#63b8ff" stroke="#63b8ff" points="979.61,-438.15 989.77,-435.14 979.95,-431.16 979.61,-438.15"/>
</g>
<!-- Node4 -->
<g id="node4" class="node">
<title>Node4</title>
<g id="a_node4"><a xlink:href="Arduino__ESP8266__Updater_8h.html" target="_top" xlink:title=" ">
<polygon fill="white" stroke="#666666" points="463,-393 351,-393 351,-363 463,-363 463,-393"/>
<text text-anchor="start" x="359" y="-381" font-family="Helvetica,sans-Serif" font-size="10.00">src/Arduino_ESP8266</text>
<text text-anchor="middle" x="407" y="-370" font-family="Helvetica,sans-Serif" font-size="10.00">_Updater.h</text>
</a>
</g>
</g>
<!-- Node1&#45;&gt;Node4 -->
<g id="edge3" class="edge">
<title>Node1&#45;&gt;Node4</title>
<path fill="none" stroke="#63b8ff" d="M979.8,-434C879.48,-427.84 671.83,-413.73 497,-393 486.01,-391.7 474.3,-390.06 463.08,-388.37"/>
<polygon fill="#63b8ff" stroke="#63b8ff" points="979.5,-437.49 989.7,-434.6 979.93,-430.5 979.5,-437.49"/>
</g>
<!-- Node6 -->
<g id="node6" class="node">
<title>Node6</title>
<g id="a_node6"><a xlink:href="Callback_8h.html" target="_top" xlink:title=" ">
<polygon fill="white" stroke="#666666" points="682,-261 604,-261 604,-242 682,-242 682,-261"/>
<text text-anchor="middle" x="643" y="-249" font-family="Helvetica,sans-Serif" font-size="10.00">src/Callback.h</text>
</a>
</g>
</g>
<!-- Node1&#45;&gt;Node6 -->
<g id="edge5" class="edge">
<title>Node1&#45;&gt;Node6</title>
<path fill="none" stroke="#63b8ff" d="M980.17,-431.15C873.7,-418.43 658.53,-385.91 616,-327 600.86,-306.03 622.52,-275.68 635.09,-261.04"/>
<polygon fill="#63b8ff" stroke="#63b8ff" points="979.51,-434.59 989.85,-432.28 980.33,-427.64 979.51,-434.59"/>
</g>
<!-- Node11 -->
<g id="node11" class="node">
<title>Node11</title>
<g id="a_node11"><a xlink:href="OTA__Handler_8h.html" target="_top" xlink:title=" ">
<polygon fill="white" stroke="#666666" points="1261,-134.5 1161,-134.5 1161,-115.5 1261,-115.5 1261,-134.5"/>
<text text-anchor="middle" x="1211" y="-122.5" font-family="Helvetica,sans-Serif" font-size="10.00">src/OTA_Handler.h</text>
</a>
</g>
</g>
<!-- Node1&#45;&gt;Node11 -->
<g id="edge67" class="edge">
<title>Node1&#45;&gt;Node11</title>
<path fill="none" stroke="#63b8ff" d="M1071.76,-423.75C1087.52,-416.05 1106.28,-405.47 1121,-393 1149.49,-368.86 1152.63,-358.3 1173,-327 1206.18,-276.01 1222.35,-265.05 1237,-206 1240.21,-193.06 1240.17,-188.95 1237,-176 1233.19,-160.41 1223.59,-144.28 1217.18,-134.69"/>
<polygon fill="#63b8ff" stroke="#63b8ff" points="1070.34,-420.55 1062.78,-427.97 1073.32,-426.89 1070.34,-420.55"/>
</g>
<!-- Node27 -->
<g id="node27" class="node">
<title>Node27</title>
<g id="a_node27"><a xlink:href="Constants_8h.html" target="_top" xlink:title=" ">
<polygon fill="white" stroke="#666666" points="525.5,-321.5 440.5,-321.5 440.5,-302.5 525.5,-302.5 525.5,-321.5"/>
<text text-anchor="middle" x="483" y="-309.5" font-family="Helvetica,sans-Serif" font-size="10.00">src/Constants.h</text>
</a>
</g>
</g>
<!-- Node1&#45;&gt;Node27 -->
<g id="edge36" class="edge">
<title>Node1&#45;&gt;Node27</title>
<path fill="none" stroke="#63b8ff" d="M980.03,-438C865.05,-438.02 618.46,-433.19 545,-393 515.09,-376.64 494.91,-339.13 486.89,-321.93"/>
<polygon fill="#63b8ff" stroke="#63b8ff" points="979.89,-441.5 989.89,-437.99 979.88,-434.5 979.89,-441.5"/>
</g>
<!-- Node30 -->
<g id="node30" class="node">
<title>Node30</title>
<g id="a_node30"><a xlink:href="Espressif__MQTT__Client_8h.html" target="_top" xlink:title=" ">
<polygon fill="white" stroke="#666666" points="1500.5,-393 1393.5,-393 1393.5,-363 1500.5,-363 1500.5,-393"/>
<text text-anchor="start" x="1401.5" y="-381" font-family="Helvetica,sans-Serif" font-size="10.00">src/Espressif_MQTT</text>
<text text-anchor="middle" x="1447" y="-370" font-family="Helvetica,sans-Serif" font-size="10.00">_Client.h</text>
</a>
</g>
</g>
<!-- Node1&#45;&gt;Node30 -->
<g id="edge44" class="edge">
<title>Node1&#45;&gt;Node30</title>
<path fill="none" stroke="#63b8ff" d="M1099.85,-431.5C1168.86,-424.19 1285.57,-410.6 1385,-393 1387.72,-392.52 1390.49,-392 1393.29,-391.45"/>
<polygon fill="#63b8ff" stroke="#63b8ff" points="1099.87,-427.98 1090.29,-432.51 1100.6,-434.94 1099.87,-427.98"/>
</g>
<!-- Node31 -->
<g id="node31" class="node">
<title>Node31</title>
<g id="a_node31"><a xlink:href="Espressif__Updater_8h.html" target="_top" xlink:title=" ">
<polygon fill="white" stroke="#666666" points="1639.5,-387.5 1518.5,-387.5 1518.5,-368.5 1639.5,-368.5 1639.5,-387.5"/>
<text text-anchor="middle" x="1579" y="-375.5" font-family="Helvetica,sans-Serif" font-size="10.00">src/Espressif_Updater.h</text>
</a>
</g>
</g>
<!-- Node1&#45;&gt;Node31 -->
<g id="edge45" class="edge">
<title>Node1&#45;&gt;Node31</title>
<path fill="none" stroke="#63b8ff" d="M1100.22,-433.85C1189.87,-427.94 1363.59,-414.72 1510,-393 1519.31,-391.62 1529.26,-389.8 1538.63,-387.94"/>
<polygon fill="#63b8ff" stroke="#63b8ff" points="1100.18,-430.34 1090.43,-434.48 1100.64,-437.32 1100.18,-430.34"/>
</g>
<!-- Node32 -->
<g id="node32" class="node">
<title>Node32</title>
<g id="a_node32"><a xlink:href="HashGenerator_8h.html" target="_top" xlink:title=" ">
<polygon fill="white" stroke="#666666" points="1375.5,-387.5 1268.5,-387.5 1268.5,-368.5 1375.5,-368.5 1375.5,-387.5"/>
<text text-anchor="middle" x="1322" y="-375.5" font-family="Helvetica,sans-Serif" font-size="10.00">src/HashGenerator.h</text>
</a>
</g>
</g>
<!-- Node1&#45;&gt;Node32 -->
<g id="edge46" class="edge">
<title>Node1&#45;&gt;Node32</title>
<path fill="none" stroke="#63b8ff" d="M1094.17,-426.26C1147.95,-415.11 1229.32,-398.23 1278.87,-387.95"/>
<polygon fill="#63b8ff" stroke="#63b8ff" points="1093.7,-422.79 1084.62,-428.24 1095.12,-429.64 1093.7,-422.79"/>
</g>
<!-- Node34 -->
<g id="node34" class="node">
<title>Node34</title>
<g id="a_node34"><a xlink:href="Helper_8h.html" target="_top" xlink:title=" ">
<polygon fill="white" stroke="#666666" points="893.5,-387.5 824.5,-387.5 824.5,-368.5 893.5,-368.5 893.5,-387.5"/>
<text text-anchor="middle" x="859" y="-375.5" font-family="Helvetica,sans-Serif" font-size="10.00">src/Helper.h</text>
</a>
</g>
</g>
<!-- Node1&#45;&gt;Node34 -->
<g id="edge49" class="edge">
<title>Node1&#45;&gt;Node34</title>
<path fill="none" stroke="#63b8ff" d="M1001.91,-425.19C967.46,-414.06 917.55,-397.92 886.75,-387.97"/>
<polygon fill="#63b8ff" stroke="#63b8ff" points="1000.48,-428.4 1011.07,-428.15 1002.63,-421.74 1000.48,-428.4"/>
</g>
<!-- Node37 -->
<g id="node37" class="node">
<title>Node37</title>
<g id="a_node37"><a xlink:href="IUpdater_8h.html" target="_top" xlink:title=" ">
<polygon fill="white" stroke="#666666" points="1174,-261 1096,-261 1096,-242 1174,-242 1174,-261"/>
<text text-anchor="middle" x="1135" y="-249" font-family="Helvetica,sans-Serif" font-size="10.00">src/IUpdater.h</text>
</a>
</g>
</g>
<!-- Node1&#45;&gt;Node37 -->
<g id="edge66" class="edge">
<title>Node1&#45;&gt;Node37</title>
<path fill="none" stroke="#63b8ff" d="M1049.78,-418.46C1070.03,-379.03 1115.89,-289.72 1130.46,-261.33"/>
<polygon fill="#63b8ff" stroke="#63b8ff" points="1046.73,-416.74 1045.27,-427.23 1052.96,-419.93 1046.73,-416.74"/>
</g>
<!-- Node38 -->
<g id="node38" class="node">
<title>Node38</title>
<g id="a_node38"><a xlink:href="SDCard__Updater_8h.html" target="_top" xlink:title=" ">
<polygon fill="white" stroke="#666666" points="1212,-200.5 1098,-200.5 1098,-181.5 1212,-181.5 1212,-200.5"/>
<text text-anchor="middle" x="1155" y="-188.5" font-family="Helvetica,sans-Serif" font-size="10.00">src/SDCard_Updater.h</text>
</a>
</g>
</g>
<!-- Node1&#45;&gt;Node38 -->
<g id="edge68" class="edge">
<title>Node1&#45;&gt;Node38</title>
<path fill="none" stroke="#63b8ff" d="M1059.82,-421.79C1093.31,-393.78 1159.69,-331.51 1183,-261 1190.3,-238.91 1173.49,-213.77 1162.87,-200.79"/>
<polygon fill="#63b8ff" stroke="#63b8ff" points="1058,-418.75 1052.49,-427.8 1062.44,-424.17 1058,-418.75"/>
</g>
<!-- Node40 -->
<g id="node40" class="node">
<title>Node40</title>
<g id="a_node40"><a xlink:href="IHTTP__Client_8h.html" target="_top" xlink:title=" ">
<polygon fill="white" stroke="#666666" points="1012,-387.5 912,-387.5 912,-368.5 1012,-368.5 1012,-387.5"/>
<text text-anchor="middle" x="962" y="-375.5" font-family="Helvetica,sans-Serif" font-size="10.00">src/IHTTP_Client.h</text>
</a>
</g>
</g>
<!-- Node1&#45;&gt;Node40 -->
<g id="edge64" class="edge">
<title>Node1&#45;&gt;Node40</title>
<path fill="none" stroke="#63b8ff" d="M1018.97,-421.73C1004.54,-410.9 985.91,-396.93 973.96,-387.97"/>
<polygon fill="#63b8ff" stroke="#63b8ff" points="1016.84,-424.51 1026.94,-427.71 1021.04,-418.91 1016.84,-424.51"/>
</g>
<!-- Node41 -->
<g id="node41" class="node">
<title>Node41</title>
<g id="a_node41"><a xlink:href="Telemetry_8h.html" target="_top" xlink:title=" ">
<polygon fill="white" stroke="#666666" points="1072.5,-321.5 989.5,-321.5 989.5,-302.5 1072.5,-302.5 1072.5,-321.5"/>
<text text-anchor="middle" x="1031" y="-309.5" font-family="Helvetica,sans-Serif" font-size="10.00">src/Telemetry.h</text>
</a>
</g>
</g>
<!-- Node1&#45;&gt;Node41 -->
<g id="edge69" class="edge">
<title>Node1&#45;&gt;Node41</title>
<path fill="none" stroke="#63b8ff" d="M1038.53,-417.2C1036.54,-389.65 1033.07,-341.63 1031.64,-321.87"/>
<polygon fill="#63b8ff" stroke="#63b8ff" points="1035.03,-417.32 1039.24,-427.04 1042.01,-416.81 1035.03,-417.32"/>
</g>
<!-- Node3 -->
<g id="node3" class="node">
<title>Node3</title>
<g id="a_node3"><a xlink:href="Arduino__ESP32__Updater_8cpp.html" target="_top" xlink:title=" ">
<polygon fill="white" stroke="#666666" points="291.5,-321.5 132.5,-321.5 132.5,-302.5 291.5,-302.5 291.5,-321.5"/>
<text text-anchor="middle" x="212" y="-309.5" font-family="Helvetica,sans-Serif" font-size="10.00">src/Arduino_ESP32_Updater.cpp</text>
</a>
</g>
</g>
<!-- Node2&#45;&gt;Node3 -->
<g id="edge2" class="edge">
<title>Node2&#45;&gt;Node3</title>
<path fill="none" stroke="#63b8ff" d="M216.09,-356.68C214.99,-344.94 213.67,-330.77 212.83,-321.82"/>
<polygon fill="#63b8ff" stroke="#63b8ff" points="212.61,-356.96 217.02,-366.59 219.58,-356.31 212.61,-356.96"/>
</g>
<!-- Node5 -->
<g id="node5" class="node">
<title>Node5</title>
<g id="a_node5"><a xlink:href="Arduino__ESP8266__Updater_8cpp.html" target="_top" xlink:title=" ">
<polygon fill="white" stroke="#666666" points="422,-327 310,-327 310,-297 422,-297 422,-327"/>
<text text-anchor="start" x="318" y="-315" font-family="Helvetica,sans-Serif" font-size="10.00">src/Arduino_ESP8266</text>
<text text-anchor="middle" x="366" y="-304" font-family="Helvetica,sans-Serif" font-size="10.00">_Updater.cpp</text>
</a>
</g>
</g>
<!-- Node4&#45;&gt;Node5 -->
<g id="edge4" class="edge">
<title>Node4&#45;&gt;Node5</title>
<path fill="none" stroke="#63b8ff" d="M391.7,-353.11C386.1,-344.38 379.95,-334.78 375.07,-327.16"/>
<polygon fill="#63b8ff" stroke="#63b8ff" points="388.74,-354.99 397.08,-361.52 394.64,-351.21 388.74,-354.99"/>
</g>
<!-- Node7 -->
<g id="node7" class="node">
<title>Node7</title>
<g id="a_node7"><a xlink:href="Callback__Watchdog_8h.html" target="_top" xlink:title=" ">
<polygon fill="white" stroke="#666666" points="651.5,-200.5 524.5,-200.5 524.5,-181.5 651.5,-181.5 651.5,-200.5"/>
<text text-anchor="middle" x="588" y="-188.5" font-family="Helvetica,sans-Serif" font-size="10.00">src/Callback_Watchdog.h</text>
</a>
</g>
</g>
<!-- Node6&#45;&gt;Node7 -->
<g id="edge6" class="edge">
<title>Node6&#45;&gt;Node7</title>
<path fill="none" stroke="#63b8ff" d="M627.14,-233.63C617,-222.85 604.29,-209.32 596.15,-200.67"/>
<polygon fill="#63b8ff" stroke="#63b8ff" points="624.45,-235.88 633.85,-240.77 629.55,-231.08 624.45,-235.88"/>
</g>
<!-- Node18 -->
<g id="node18" class="node">
<title>Node18</title>
<g id="a_node18"><a xlink:href="IAPI__Implementation_8h.html" target="_top" xlink:title=" ">
<polygon fill="white" stroke="#666666" points="506,-200.5 374,-200.5 374,-181.5 506,-181.5 506,-200.5"/>
<text text-anchor="middle" x="440" y="-188.5" font-family="Helvetica,sans-Serif" font-size="10.00">src/IAPI_Implementation.h</text>
</a>
</g>
</g>
<!-- Node6&#45;&gt;Node18 -->
<g id="edge18" class="edge">
<title>Node6&#45;&gt;Node18</title>
<path fill="none" stroke="#63b8ff" d="M601.28,-238.48C562.62,-227.34 505.97,-211.01 471.12,-200.97"/>
<polygon fill="#63b8ff" stroke="#63b8ff" points="600.14,-241.79 610.71,-241.2 602.07,-235.06 600.14,-241.79"/>
</g>
<!-- Node22 -->
<g id="node22" class="node">
<title>Node22</title>
<g id="a_node22"><a xlink:href="IMQTT__Client_8h.html" target="_top" xlink:title=" ">
<polygon fill="white" stroke="#666666" points="809.5,-200.5 708.5,-200.5 708.5,-181.5 809.5,-181.5 809.5,-200.5"/>
<text text-anchor="middle" x="759" y="-188.5" font-family="Helvetica,sans-Serif" font-size="10.00">src/IMQTT_Client.h</text>
</a>
</g>
</g>
<!-- Node6&#45;&gt;Node22 -->
<g id="edge27" class="edge">
<title>Node6&#45;&gt;Node22</title>
<path fill="none" stroke="#63b8ff" d="M670.63,-236.57C692.51,-225.53 722.41,-210.45 741.22,-200.97"/>
<polygon fill="#63b8ff" stroke="#63b8ff" points="669.32,-233.31 661.97,-240.93 672.47,-239.56 669.32,-233.31"/>
</g>
<!-- Node23 -->
<g id="node23" class="node">
<title>Node23</title>
<g id="a_node23"><a xlink:href="OTA__Update__Callback_8h.html" target="_top" xlink:title=" ">
<polygon fill="white" stroke="#666666" points="1080,-200.5 940,-200.5 940,-181.5 1080,-181.5 1080,-200.5"/>
<text text-anchor="middle" x="1010" y="-188.5" font-family="Helvetica,sans-Serif" font-size="10.00">src/OTA_Update_Callback.h</text>
</a>
</g>
</g>
<!-- Node6&#45;&gt;Node23 -->
<g id="edge29" class="edge">
<title>Node6&#45;&gt;Node23</title>
<path fill="none" stroke="#63b8ff" d="M693.55,-242.44C761.72,-231.58 882.71,-212.29 953.7,-200.97"/>
<polygon fill="#63b8ff" stroke="#63b8ff" points="693.09,-238.97 683.77,-244 694.2,-245.88 693.09,-238.97"/>
</g>
<!-- Node25 -->
<g id="node25" class="node">
<title>Node25</title>
<g id="a_node25"><a xlink:href="RPC__Callback_8h.html" target="_top" xlink:title=" ">
<polygon fill="white" stroke="#666666" points="356,-200.5 252,-200.5 252,-181.5 356,-181.5 356,-200.5"/>
<text text-anchor="middle" x="304" y="-188.5" font-family="Helvetica,sans-Serif" font-size="10.00">src/RPC_Callback.h</text>
</a>
</g>
</g>
<!-- Node6&#45;&gt;Node25 -->
<g id="edge32" class="edge">
<title>Node6&#45;&gt;Node25</title>
<path fill="none" stroke="#63b8ff" d="M592.65,-241.65C491.05,-225 463.12,-224.92 365,-206 357.21,-204.5 348.9,-202.72 341.01,-200.93"/>
<polygon fill="#63b8ff" stroke="#63b8ff" points="591.79,-245.05 602.23,-243.23 592.93,-238.15 591.79,-245.05"/>
</g>
<!-- Node26 -->
<g id="node26" class="node">
<title>Node26</title>
<g id="a_node26"><a xlink:href="Shared__Attribute__Callback_8h.html" target="_top" xlink:title=" ">
<polygon fill="white" stroke="#666666" points="234,-206 128,-206 128,-176 234,-176 234,-206"/>
<text text-anchor="start" x="136" y="-194" font-family="Helvetica,sans-Serif" font-size="10.00">src/Shared_Attribute</text>
<text text-anchor="middle" x="181" y="-183" font-family="Helvetica,sans-Serif" font-size="10.00">_Callback.h</text>
</a>
</g>
</g>
<!-- Node6&#45;&gt;Node26 -->
<g id="edge34" class="edge">
<title>Node6&#45;&gt;Node26</title>
<path fill="none" stroke="#63b8ff" d="M592.38,-241.74C437.26,-220.77 394.56,-230.77 243,-206 240.17,-205.54 237.27,-205.02 234.35,-204.48"/>
<polygon fill="#63b8ff" stroke="#63b8ff" points="591.86,-245.2 602.25,-243.1 592.82,-238.27 591.86,-245.2"/>
</g>
<!-- Node8 -->
<g id="node8" class="node">
<title>Node8</title>
<g id="a_node8"><a xlink:href="Attribute__Request__Callback_8h.html" target="_top" xlink:title=" ">
<polygon fill="white" stroke="#666666" points="411.5,-140 300.5,-140 300.5,-110 411.5,-110 411.5,-140"/>
<text text-anchor="start" x="308.5" y="-128" font-family="Helvetica,sans-Serif" font-size="10.00">src/Attribute_Request</text>
<text text-anchor="middle" x="356" y="-117" font-family="Helvetica,sans-Serif" font-size="10.00">_Callback.h</text>
</a>
</g>
</g>
<!-- Node7&#45;&gt;Node8 -->
<g id="edge7" class="edge">
<title>Node7&#45;&gt;Node8</title>
<path fill="none" stroke="#63b8ff" d="M544.88,-178.1C506.31,-167.46 449.67,-151.84 408.48,-140.48"/>
<polygon fill="#63b8ff" stroke="#63b8ff" points="543.71,-181.41 554.28,-180.7 545.57,-174.67 543.71,-181.41"/>
</g>
<!-- Node7&#45;&gt;Node11 -->
<g id="edge10" class="edge">
<title>Node7&#45;&gt;Node11</title>
<path fill="none" stroke="#63b8ff" d="M663.26,-180.09C675.21,-178.63 687.44,-177.22 699,-176 887.08,-156.16 935.27,-162.87 1123,-140 1135.29,-138.5 1148.49,-136.57 1160.83,-134.63"/>
<polygon fill="#63b8ff" stroke="#63b8ff" points="662.93,-176.6 653.43,-181.3 663.78,-183.55 662.93,-176.6"/>
</g>
<!-- Node12 -->
<g id="node12" class="node">
<title>Node12</title>
<g id="a_node12"><a xlink:href="Provision__Callback_8h.html" target="_top" xlink:title=" ">
<polygon fill="white" stroke="#666666" points="832,-134.5 708,-134.5 708,-115.5 832,-115.5 832,-134.5"/>
<text text-anchor="middle" x="770" y="-122.5" font-family="Helvetica,sans-Serif" font-size="10.00">src/Provision_Callback.h</text>
</a>
</g>
</g>
<!-- Node7&#45;&gt;Node12 -->
<g id="edge12" class="edge">
<title>Node7&#45;&gt;Node12</title>
<path fill="none" stroke="#63b8ff" d="M623.73,-177.43C659.35,-164.91 713.16,-145.99 744.62,-134.93"/>
<polygon fill="#63b8ff" stroke="#63b8ff" points="623.01,-173.98 614.73,-180.6 625.33,-180.58 623.01,-173.98"/>
</g>
<!-- Node15 -->
<g id="node15" class="node">
<title>Node15</title>
<g id="a_node15"><a xlink:href="RPC__Request__Callback_8h.html" target="_top" xlink:title=" ">
<polygon fill="white" stroke="#666666" points="651.5,-134.5 506.5,-134.5 506.5,-115.5 651.5,-115.5 651.5,-134.5"/>
<text text-anchor="middle" x="579" y="-122.5" font-family="Helvetica,sans-Serif" font-size="10.00">src/RPC_Request_Callback.h</text>
</a>
</g>
</g>
<!-- Node7&#45;&gt;Node15 -->
<g id="edge15" class="edge">
<title>Node7&#45;&gt;Node15</title>
<path fill="none" stroke="#63b8ff" d="M585.2,-170.05C583.53,-158.24 581.51,-143.87 580.24,-134.82"/>
<polygon fill="#63b8ff" stroke="#63b8ff" points="581.68,-170.19 586.54,-179.6 588.61,-169.21 581.68,-170.19"/>
</g>
<!-- Node9 -->
<g id="node9" class="node">
<title>Node9</title>
<g id="a_node9"><a xlink:href="Attribute__Request_8h.html" target="_top" xlink:title=" ">
<polygon fill="white" stroke="#666666" points="388.5,-74 269.5,-74 269.5,-55 388.5,-55 388.5,-74"/>
<text text-anchor="middle" x="329" y="-62" font-family="Helvetica,sans-Serif" font-size="10.00">src/Attribute_Request.h</text>
</a>
</g>
</g>
<!-- Node8&#45;&gt;Node9 -->
<g id="edge8" class="edge">
<title>Node8&#45;&gt;Node9</title>
<path fill="none" stroke="#63b8ff" d="M344.54,-99.18C340.43,-90.27 336.06,-80.8 333,-74.18"/>
<polygon fill="#63b8ff" stroke="#63b8ff" points="341.32,-100.55 348.69,-108.17 347.68,-97.62 341.32,-100.55"/>
</g>
<!-- Node10 -->
<g id="node10" class="node">
<title>Node10</title>
<g id="a_node10"><a xlink:href="OTA__Firmware__Update_8h.html" target="_top" xlink:title=" ">
<polygon fill="white" stroke="#666666" points="444.5,-19 301.5,-19 301.5,0 444.5,0 444.5,-19"/>
<text text-anchor="middle" x="373" y="-7" font-family="Helvetica,sans-Serif" font-size="10.00">src/OTA_Firmware_Update.h</text>
</a>
</g>
</g>
<!-- Node9&#45;&gt;Node10 -->
<g id="edge9" class="edge">
<title>Node9&#45;&gt;Node10</title>
<path fill="none" stroke="#63b8ff" d="M343.58,-45.93C350.95,-37.06 359.58,-26.67 365.58,-19.44"/>
<polygon fill="#63b8ff" stroke="#63b8ff" points="340.93,-43.65 337.23,-53.58 346.31,-48.13 340.93,-43.65"/>
</g>
<!-- Node11&#45;&gt;Node10 -->
<g id="edge11" class="edge">
<title>Node11&#45;&gt;Node10</title>
<path fill="none" stroke="#63b8ff" d="M1178.46,-110.91C1136.72,-94.76 1061.75,-67.86 995,-55 798.33,-17.11 561.08,-10.75 444.61,-10.13"/>
<polygon fill="#63b8ff" stroke="#63b8ff" points="1177.07,-114.13 1187.66,-114.51 1179.62,-107.61 1177.07,-114.13"/>
</g>
<!-- Node13 -->
<g id="node13" class="node">
<title>Node13</title>
<g id="a_node13"><a xlink:href="Provision_8h.html" target="_top" xlink:title=" ">
<polygon fill="white" stroke="#666666" points="833.5,-74 752.5,-74 752.5,-55 833.5,-55 833.5,-74"/>
<text text-anchor="middle" x="793" y="-62" font-family="Helvetica,sans-Serif" font-size="10.00">src/Provision.h</text>
</a>
</g>
</g>
<!-- Node12&#45;&gt;Node13 -->
<g id="edge13" class="edge">
<title>Node12&#45;&gt;Node13</title>
<path fill="none" stroke="#63b8ff" d="M777.54,-104.83C781.61,-94.48 786.43,-82.22 789.59,-74.17"/>
<polygon fill="#63b8ff" stroke="#63b8ff" points="774.35,-103.37 773.95,-113.96 780.86,-105.93 774.35,-103.37"/>
</g>
<!-- Node14 -->
<g id="node14" class="node">
<title>Node14</title>
<g id="a_node14"><a xlink:href="Provision__Callback_8cpp.html" target="_top" xlink:title=" ">
<polygon fill="white" stroke="#666666" points="986,-74 852,-74 852,-55 986,-55 986,-74"/>
<text text-anchor="middle" x="919" y="-62" font-family="Helvetica,sans-Serif" font-size="10.00">src/Provision_Callback.cpp</text>
</a>
</g>
</g>
<!-- Node12&#45;&gt;Node14 -->
<g id="edge14" class="edge">
<title>Node12&#45;&gt;Node14</title>
<path fill="none" stroke="#63b8ff" d="M803.21,-110.96C831.48,-99.86 871.35,-84.21 896.16,-74.47"/>
<polygon fill="#63b8ff" stroke="#63b8ff" points="802.07,-107.65 794.04,-114.56 804.63,-114.17 802.07,-107.65"/>
</g>
<!-- Node16 -->
<g id="node16" class="node">
<title>Node16</title>
<g id="a_node16"><a xlink:href="Client__Side__RPC_8h.html" target="_top" xlink:title=" ">
<polygon fill="white" stroke="#666666" points="561,-74 445,-74 445,-55 561,-55 561,-74"/>
<text text-anchor="middle" x="503" y="-62" font-family="Helvetica,sans-Serif" font-size="10.00">src/Client_Side_RPC.h</text>
</a>
</g>
</g>
<!-- Node15&#45;&gt;Node16 -->
<g id="edge16" class="edge">
<title>Node15&#45;&gt;Node16</title>
<path fill="none" stroke="#63b8ff" d="M558.51,-108.23C544.45,-97.4 526.3,-83.43 514.65,-74.47"/>
<polygon fill="#63b8ff" stroke="#63b8ff" points="556.2,-110.87 566.26,-114.19 560.47,-105.32 556.2,-110.87"/>
</g>
<!-- Node17 -->
<g id="node17" class="node">
<title>Node17</title>
<g id="a_node17"><a xlink:href="RPC__Request__Callback_8cpp.html" target="_top" xlink:title=" ">
<polygon fill="white" stroke="#666666" points="734.5,-74 579.5,-74 579.5,-55 734.5,-55 734.5,-74"/>
<text text-anchor="middle" x="657" y="-62" font-family="Helvetica,sans-Serif" font-size="10.00">src/RPC_Request_Callback.cpp</text>
</a>
</g>
</g>
<!-- Node15&#45;&gt;Node17 -->
<g id="edge17" class="edge">
<title>Node15&#45;&gt;Node17</title>
<path fill="none" stroke="#63b8ff" d="M600.03,-108.23C614.46,-97.4 633.09,-83.43 645.04,-74.47"/>
<polygon fill="#63b8ff" stroke="#63b8ff" points="597.96,-105.41 592.06,-114.21 602.16,-111.01 597.96,-105.41"/>
</g>
<!-- Node18&#45;&gt;Node9 -->
<g id="edge19" class="edge">
<title>Node18&#45;&gt;Node9</title>
<path fill="none" stroke="#63b8ff" d="M384.75,-178.53C347.19,-169.48 302.35,-155.78 291,-140 275.32,-118.19 302.15,-89 318.23,-74.48"/>
<polygon fill="#63b8ff" stroke="#63b8ff" points="383.61,-181.85 394.15,-180.72 385.21,-175.04 383.61,-181.85"/>
</g>
<!-- Node18&#45;&gt;Node10 -->
<g id="edge21" class="edge">
<title>Node18&#45;&gt;Node10</title>
<path fill="none" stroke="#63b8ff" d="M436.02,-170.63C432.46,-154.28 426.76,-130.36 420,-110 411.65,-84.85 408.41,-78.91 397,-55 390.95,-42.33 383.09,-28.11 378.04,-19.23"/>
<polygon fill="#63b8ff" stroke="#63b8ff" points="432.51,-170.93 438,-179.99 439.35,-169.48 432.51,-170.93"/>
</g>
<!-- Node18&#45;&gt;Node13 -->
<g id="edge22" class="edge">
<title>Node18&#45;&gt;Node13</title>
<path fill="none" stroke="#63b8ff" d="M495.17,-178.75C555.35,-166.28 645.14,-146.99 660,-140 679.79,-130.69 680.34,-121.41 699,-110 722.41,-95.68 751.16,-82.68 770.66,-74.48"/>
<polygon fill="#63b8ff" stroke="#63b8ff" points="494.5,-175.32 485.41,-180.77 495.91,-182.17 494.5,-175.32"/>
</g>
<!-- Node18&#45;&gt;Node16 -->
<g id="edge20" class="edge">
<title>Node18&#45;&gt;Node16</title>
<path fill="none" stroke="#63b8ff" d="M449.71,-170.81C463.55,-143.46 488.38,-94.39 498.51,-74.37"/>
<polygon fill="#63b8ff" stroke="#63b8ff" points="446.61,-169.19 445.21,-179.7 452.85,-172.35 446.61,-169.19"/>
</g>
<!-- Node19 -->
<g id="node19" class="node">
<title>Node19</title>
<g id="a_node19"><a xlink:href="Server__Side__RPC_8h.html" target="_top" xlink:title=" ">
<polygon fill="white" stroke="#666666" points="243.5,-134.5 124.5,-134.5 124.5,-115.5 243.5,-115.5 243.5,-134.5"/>
<text text-anchor="middle" x="184" y="-122.5" font-family="Helvetica,sans-Serif" font-size="10.00">src/Server_Side_RPC.h</text>
</a>
</g>
</g>
<!-- Node18&#45;&gt;Node19 -->
<g id="edge23" class="edge">
<title>Node18&#45;&gt;Node19</title>
<path fill="none" stroke="#63b8ff" d="M392.98,-178.24C342.92,-165.73 264.83,-146.21 219.62,-134.91"/>
<polygon fill="#63b8ff" stroke="#63b8ff" points="392.12,-181.64 402.67,-180.67 393.81,-174.85 392.12,-181.64"/>
</g>
<!-- Node20 -->
<g id="node20" class="node">
<title>Node20</title>
<g id="a_node20"><a xlink:href="Shared__Attribute__Update_8h.html" target="_top" xlink:title=" ">
<polygon fill="white" stroke="#666666" points="106,-140 0,-140 0,-110 106,-110 106,-140"/>
<text text-anchor="start" x="8" y="-128" font-family="Helvetica,sans-Serif" font-size="10.00">src/Shared_Attribute</text>
<text text-anchor="middle" x="53" y="-117" font-family="Helvetica,sans-Serif" font-size="10.00">_Update.h</text>
</a>
</g>
</g>
<!-- Node18&#45;&gt;Node20 -->
<g id="edge24" class="edge">
<title>Node18&#45;&gt;Node20</title>
<path fill="none" stroke="#63b8ff" d="M382.42,-179C376.54,-177.95 370.65,-176.93 365,-176 254.25,-157.7 225.39,-160.38 115,-140 112.18,-139.48 109.29,-138.92 106.38,-138.33"/>
<polygon fill="#63b8ff" stroke="#63b8ff" points="381.69,-182.43 392.15,-180.77 382.94,-175.54 381.69,-182.43"/>
</g>
<!-- Node21 -->
<g id="node21" class="node">
<title>Node21</title>
<g id="a_node21"><a xlink:href="ThingsBoard_8h.html" target="_top" xlink:title=" ">
<polygon fill="white" stroke="#666666" points="945.5,-134.5 850.5,-134.5 850.5,-115.5 945.5,-115.5 945.5,-134.5"/>
<text text-anchor="middle" x="898" y="-122.5" font-family="Helvetica,sans-Serif" font-size="10.00">src/ThingsBoard.h</text>
</a>
</g>
</g>
<!-- Node18&#45;&gt;Node21 -->
<g id="edge26" class="edge">
<title>Node18&#45;&gt;Node21</title>
<path fill="none" stroke="#63b8ff" d="M496.34,-179.02C502.62,-177.93 508.94,-176.9 515,-176 659.19,-154.61 697.47,-165.44 841,-140 848.73,-138.63 856.96,-136.82 864.7,-134.95"/>
<polygon fill="#63b8ff" stroke="#63b8ff" points="495.84,-175.55 486.61,-180.75 497.07,-182.44 495.84,-175.55"/>
</g>
<!-- Node20&#45;&gt;Node10 -->
<g id="edge25" class="edge">
<title>Node20&#45;&gt;Node10</title>
<path fill="none" stroke="#63b8ff" d="M104.58,-105.71C174.29,-80.98 295.85,-37.87 348.03,-19.36"/>
<polygon fill="#63b8ff" stroke="#63b8ff" points="103.53,-102.36 95.28,-109 105.87,-108.96 103.53,-102.36"/>
</g>
<!-- Node22&#45;&gt;Node21 -->
<g id="edge28" class="edge">
<title>Node22&#45;&gt;Node21</title>
<path fill="none" stroke="#63b8ff" d="M788.46,-176.44C815.72,-163.88 855.47,-145.58 878.84,-134.82"/>
<polygon fill="#63b8ff" stroke="#63b8ff" points="787.32,-173.11 779.7,-180.47 790.25,-179.46 787.32,-173.11"/>
</g>
<!-- Node23&#45;&gt;Node11 -->
<g id="edge30" class="edge">
<title>Node23&#45;&gt;Node11</title>
<path fill="none" stroke="#63b8ff" d="M1048.7,-177.68C1088.03,-165.15 1148,-146.06 1182.97,-134.93"/>
<polygon fill="#63b8ff" stroke="#63b8ff" points="1047.86,-174.27 1039.39,-180.64 1049.98,-180.94 1047.86,-174.27"/>
</g>
<!-- Node24 -->
<g id="node24" class="node">
<title>Node24</title>
<g id="a_node24"><a xlink:href="OTA__Update__Callback_8cpp.html" target="_top" xlink:title=" ">
<polygon fill="white" stroke="#666666" points="1114.5,-134.5 963.5,-134.5 963.5,-115.5 1114.5,-115.5 1114.5,-134.5"/>
<text text-anchor="middle" x="1039" y="-122.5" font-family="Helvetica,sans-Serif" font-size="10.00">src/OTA_Update_Callback.cpp</text>
</a>
</g>
</g>
<!-- Node23&#45;&gt;Node24 -->
<g id="edge31" class="edge">
<title>Node23&#45;&gt;Node24</title>
<path fill="none" stroke="#63b8ff" d="M1018.7,-170.8C1024.11,-158.85 1030.82,-144.06 1035,-134.82"/>
<polygon fill="#63b8ff" stroke="#63b8ff" points="1015.6,-169.17 1014.66,-179.72 1021.97,-172.06 1015.6,-169.17"/>
</g>
<!-- Node25&#45;&gt;Node19 -->
<g id="edge33" class="edge">
<title>Node25&#45;&gt;Node19</title>
<path fill="none" stroke="#63b8ff" d="M277.31,-175.76C253.82,-163.24 220.36,-145.39 200.54,-134.82"/>
<polygon fill="#63b8ff" stroke="#63b8ff" points="275.51,-178.77 285.98,-180.39 278.8,-172.59 275.51,-178.77"/>
</g>
<!-- Node26&#45;&gt;Node20 -->
<g id="edge35" class="edge">
<title>Node26&#45;&gt;Node20</title>
<path fill="none" stroke="#63b8ff" d="M142.18,-170.59C122.68,-160.84 99.48,-149.24 81.63,-140.31"/>
<polygon fill="#63b8ff" stroke="#63b8ff" points="140.41,-173.62 150.92,-174.96 143.54,-167.36 140.41,-173.62"/>
</g>
<!-- Node27&#45;&gt;Node8 -->
<g id="edge37" class="edge">
<title>Node27&#45;&gt;Node8</title>
<path fill="none" stroke="#63b8ff" d="M438.9,-299.02C343.06,-272.89 123.94,-212.57 119,-206 110.98,-195.35 110.6,-186.36 119,-176 130.41,-161.94 233.76,-144.16 300.16,-134.04"/>
<polygon fill="#63b8ff" stroke="#63b8ff" points="437.92,-302.38 448.49,-301.63 439.76,-295.63 437.92,-302.38"/>
</g>
<!-- Node27&#45;&gt;Node18 -->
<g id="edge39" class="edge">
<title>Node27&#45;&gt;Node18</title>
<path fill="none" stroke="#63b8ff" d="M475.42,-291.44C471.89,-282.23 467.66,-271.07 464,-261 456.19,-239.55 447.5,-214.15 443.03,-200.96"/>
<polygon fill="#63b8ff" stroke="#63b8ff" points="472.15,-292.69 479.02,-300.76 478.68,-290.18 472.15,-292.69"/>
</g>
<!-- Node27&#45;&gt;Node21 -->
<g id="edge42" class="edge">
<title>Node27&#45;&gt;Node21</title>
<path fill="none" stroke="#63b8ff" d="M481.6,-291.06C481.66,-275.63 484.41,-254.8 497,-242 549.01,-189.09 592.77,-237.37 660,-206 679.82,-196.75 679.32,-185.53 699,-176 702.71,-174.21 804.98,-148.89 861.43,-134.99"/>
<polygon fill="#63b8ff" stroke="#63b8ff" points="478.1,-291.08 481.97,-300.94 485.1,-290.81 478.1,-291.08"/>
</g>
<!-- Node27&#45;&gt;Node25 -->
<g id="edge40" class="edge">
<title>Node27&#45;&gt;Node25</title>
<path fill="none" stroke="#63b8ff" d="M460.34,-295.93C422.44,-270.74 347.4,-220.85 317.12,-200.72"/>
<polygon fill="#63b8ff" stroke="#63b8ff" points="458.02,-298.6 468.29,-301.22 461.9,-292.77 458.02,-298.6"/>
</g>
<!-- Node27&#45;&gt;Node26 -->
<g id="edge41" class="edge">
<title>Node27&#45;&gt;Node26</title>
<path fill="none" stroke="#63b8ff" d="M449.73,-297.89C392.76,-275.44 276.97,-229.82 217.72,-206.47"/>
<polygon fill="#63b8ff" stroke="#63b8ff" points="448.31,-301.09 458.89,-301.5 450.87,-294.58 448.31,-301.09"/>
</g>
<!-- Node28 -->
<g id="node28" class="node">
<title>Node28</title>
<g id="a_node28"><a xlink:href="Helper_8cpp.html" target="_top" xlink:title=" ">
<polygon fill="white" stroke="#666666" points="586,-261 506,-261 506,-242 586,-242 586,-261"/>
<text text-anchor="middle" x="546" y="-249" font-family="Helvetica,sans-Serif" font-size="10.00">src/Helper.cpp</text>
</a>
</g>
</g>
<!-- Node27&#45;&gt;Node28 -->
<g id="edge38" class="edge">
<title>Node27&#45;&gt;Node28</title>
<path fill="none" stroke="#63b8ff" d="M501,-294.28C512.5,-283.6 526.97,-270.17 536.34,-261.47"/>
<polygon fill="#63b8ff" stroke="#63b8ff" points="498.62,-291.72 493.68,-301.09 503.39,-296.85 498.62,-291.72"/>
</g>
<!-- Node29 -->
<g id="node29" class="node">
<title>Node29</title>
<g id="a_node29"><a xlink:href="ThingsBoardHttp_8h.html" target="_top" xlink:title=" ">
<polygon fill="white" stroke="#666666" points="928,-261 814,-261 814,-242 928,-242 928,-261"/>
<text text-anchor="middle" x="871" y="-249" font-family="Helvetica,sans-Serif" font-size="10.00">src/ThingsBoardHttp.h</text>
</a>
</g>
</g>
<!-- Node27&#45;&gt;Node29 -->
<g id="edge43" class="edge">
<title>Node27&#45;&gt;Node29</title>
<path fill="none" stroke="#63b8ff" d="M536.81,-302.89C609.61,-291.91 738.91,-272.42 813.54,-261.16"/>
<polygon fill="#63b8ff" stroke="#63b8ff" points="536.5,-299.39 527.13,-304.35 537.54,-306.32 536.5,-299.39"/>
</g>
<!-- Node32&#45;&gt;Node11 -->
<g id="edge48" class="edge">
<title>Node32&#45;&gt;Node11</title>
<path fill="none" stroke="#63b8ff" d="M1355.47,-363.02C1370.43,-354.87 1386.56,-343.01 1395,-327 1401.22,-315.21 1399.6,-309.51 1395,-297 1364.73,-214.74 1268.56,-156.24 1228.64,-134.9"/>
<polygon fill="#63b8ff" stroke="#63b8ff" points="1354.13,-359.77 1346.77,-367.39 1357.27,-366.03 1354.13,-359.77"/>
</g>
<!-- Node33 -->
<g id="node33" class="node">
<title>Node33</title>
<g id="a_node33"><a xlink:href="HashGenerator_8cpp.html" target="_top" xlink:title=" ">
<polygon fill="white" stroke="#666666" points="1385.5,-321.5 1268.5,-321.5 1268.5,-302.5 1385.5,-302.5 1385.5,-321.5"/>
<text text-anchor="middle" x="1327" y="-309.5" font-family="Helvetica,sans-Serif" font-size="10.00">src/HashGenerator.cpp</text>
</a>
</g>
</g>
<!-- Node32&#45;&gt;Node33 -->
<g id="edge47" class="edge">
<title>Node32&#45;&gt;Node33</title>
<path fill="none" stroke="#63b8ff" d="M1323.59,-356.68C1324.5,-344.94 1325.61,-330.77 1326.31,-321.82"/>
<polygon fill="#63b8ff" stroke="#63b8ff" points="1320.1,-356.35 1322.81,-366.59 1327.08,-356.9 1320.1,-356.35"/>
</g>
<!-- Node34&#45;&gt;Node11 -->
<g id="edge61" class="edge">
<title>Node34&#45;&gt;Node11</title>
<path fill="none" stroke="#63b8ff" d="M896.15,-364.87C898.46,-364.21 900.76,-363.58 903,-363 981.13,-342.73 1006.25,-357.46 1081,-327 1131,-306.62 1144.25,-298.6 1183,-261 1204.32,-240.31 1212.15,-234.36 1221,-206 1228.83,-180.88 1219.77,-149.51 1214.4,-134.62"/>
<polygon fill="#63b8ff" stroke="#63b8ff" points="895.41,-361.43 886.84,-367.66 897.42,-368.14 895.41,-361.43"/>
</g>
<!-- Node34&#45;&gt;Node28 -->
<g id="edge60" class="edge">
<title>Node34&#45;&gt;Node28</title>
<path fill="none" stroke="#63b8ff" d="M812.79,-375.72C761.65,-372.5 678.26,-361.8 616,-327 586.41,-310.46 562.01,-277.13 551.52,-261.27"/>
<polygon fill="#63b8ff" stroke="#63b8ff" points="812.44,-379.2 822.61,-376.26 812.82,-372.21 812.44,-379.2"/>
</g>
<!-- Node34&#45;&gt;Node29 -->
<g id="edge62" class="edge">
<title>Node34&#45;&gt;Node29</title>
<path fill="none" stroke="#63b8ff" d="M878.97,-360.59C888.17,-351.73 898.11,-339.95 903,-327 907.71,-314.53 907.09,-309.69 903,-297 898.51,-283.05 887.84,-269.78 880.05,-261.42"/>
<polygon fill="#63b8ff" stroke="#63b8ff" points="876.8,-357.84 871.7,-367.13 881.47,-363.05 876.8,-357.84"/>
</g>
<!-- Node35 -->
<g id="node35" class="node">
<title>Node35</title>
<g id="a_node35"><a xlink:href="Array_8h.html" target="_top" xlink:title=" ">
<polygon fill="white" stroke="#666666" points="688.5,-321.5 625.5,-321.5 625.5,-302.5 688.5,-302.5 688.5,-321.5"/>
<text text-anchor="middle" x="657" y="-309.5" font-family="Helvetica,sans-Serif" font-size="10.00">src/Array.h</text>
</a>
</g>
</g>
<!-- Node34&#45;&gt;Node35 -->
<g id="edge50" class="edge">
<title>Node34&#45;&gt;Node35</title>
<path fill="none" stroke="#63b8ff" d="M817.76,-364.73C784.93,-354.86 737.89,-340.46 697,-327 692.11,-325.39 686.9,-323.61 681.92,-321.88"/>
<polygon fill="#63b8ff" stroke="#63b8ff" points="816.7,-368.07 827.29,-367.59 818.71,-361.37 816.7,-368.07"/>
</g>
<!-- Node36 -->
<g id="node36" class="node">
<title>Node36</title>
<g id="a_node36"><a xlink:href="DefaultLogger_8h.html" target="_top" xlink:title=" ">
<polygon fill="white" stroke="#666666" points="807.5,-321.5 706.5,-321.5 706.5,-302.5 807.5,-302.5 807.5,-321.5"/>
<text text-anchor="middle" x="757" y="-309.5" font-family="Helvetica,sans-Serif" font-size="10.00">src/DefaultLogger.h</text>
</a>
</g>
</g>
<!-- Node34&#45;&gt;Node36 -->
<g id="edge52" class="edge">
<title>Node34&#45;&gt;Node36</title>
<path fill="none" stroke="#63b8ff" d="M835.22,-362.08C815.33,-349.6 787.6,-332.2 771.06,-321.82"/>
<polygon fill="#63b8ff" stroke="#63b8ff" points="833.2,-364.95 843.54,-367.3 836.92,-359.02 833.2,-364.95"/>
</g>
<!-- Node39 -->
<g id="node39" class="node">
<title>Node39</title>
<g id="a_node39"><a xlink:href="Vector_8h.html" target="_top" xlink:title=" ">
<polygon fill="white" stroke="#666666" points="894.5,-321.5 825.5,-321.5 825.5,-302.5 894.5,-302.5 894.5,-321.5"/>
<text text-anchor="middle" x="860" y="-309.5" font-family="Helvetica,sans-Serif" font-size="10.00">src/Vector.h</text>
</a>
</g>
</g>
<!-- Node34&#45;&gt;Node39 -->
<g id="edge63" class="edge">
<title>Node34&#45;&gt;Node39</title>
<path fill="none" stroke="#63b8ff" d="M859.32,-356.68C859.5,-344.94 859.72,-330.77 859.86,-321.82"/>
<polygon fill="#63b8ff" stroke="#63b8ff" points="855.82,-356.53 859.16,-366.59 862.82,-356.64 855.82,-356.53"/>
</g>
<!-- Node35&#45;&gt;Node6 -->
<g id="edge51" class="edge">
<title>Node35&#45;&gt;Node6</title>
<path fill="none" stroke="#63b8ff" d="M652.33,-291.49C649.87,-281.22 646.98,-269.13 645.07,-261.17"/>
<polygon fill="#63b8ff" stroke="#63b8ff" points="648.85,-291.99 654.58,-300.9 655.66,-290.36 648.85,-291.99"/>
</g>
<!-- Node36&#45;&gt;Node18 -->
<g id="edge53" class="edge">
<title>Node36&#45;&gt;Node18</title>
<path fill="none" stroke="#63b8ff" d="M744.62,-292.79C732.77,-276.82 713.41,-254.3 691,-242 686.51,-239.53 558.12,-214.65 486.75,-200.95"/>
<polygon fill="#63b8ff" stroke="#63b8ff" points="741.76,-294.8 750.41,-300.92 747.47,-290.74 741.76,-294.8"/>
</g>
<!-- Node36&#45;&gt;Node21 -->
<g id="edge58" class="edge">
<title>Node36&#45;&gt;Node21</title>
<path fill="none" stroke="#63b8ff" d="M769.1,-292.9C778.61,-278.84 792.33,-258.95 805,-242 835.6,-201.06 874.5,-154.06 890.55,-134.86"/>
<polygon fill="#63b8ff" stroke="#63b8ff" points="766.25,-290.86 763.57,-301.11 772.06,-294.77 766.25,-290.86"/>
</g>
<!-- Node36&#45;&gt;Node22 -->
<g id="edge54" class="edge">
<title>Node36&#45;&gt;Node22</title>
<path fill="none" stroke="#63b8ff" d="M757.34,-290.82C757.78,-264.49 758.54,-219.57 758.85,-200.72"/>
<polygon fill="#63b8ff" stroke="#63b8ff" points="753.84,-290.48 757.18,-300.54 760.84,-290.6 753.84,-290.48"/>
</g>
<!-- Node36&#45;&gt;Node29 -->
<g id="edge59" class="edge">
<title>Node36&#45;&gt;Node29</title>
<path fill="none" stroke="#63b8ff" d="M784.45,-296.92C805.92,-285.9 835.13,-270.91 853.52,-261.47"/>
<polygon fill="#63b8ff" stroke="#63b8ff" points="782.96,-293.74 775.66,-301.42 786.16,-299.97 782.96,-293.74"/>
</g>
<!-- Node36&#45;&gt;Node37 -->
<g id="edge55" class="edge">
<title>Node36&#45;&gt;Node37</title>
<path fill="none" stroke="#63b8ff" d="M803.33,-299.54C807.61,-298.62 811.88,-297.76 816,-297 935.48,-274.95 966.93,-279.6 1087,-261 1089.84,-260.56 1092.78,-260.09 1095.73,-259.6"/>
<polygon fill="#63b8ff" stroke="#63b8ff" points="802.6,-296.12 793.61,-301.72 804.13,-302.95 802.6,-296.12"/>
</g>
<!-- Node37&#45;&gt;Node23 -->
<g id="edge56" class="edge">
<title>Node37&#45;&gt;Node23</title>
<path fill="none" stroke="#63b8ff" d="M1105.87,-236.87C1082.24,-225.81 1049.61,-210.54 1029.16,-200.97"/>
<polygon fill="#63b8ff" stroke="#63b8ff" points="1104.1,-239.9 1114.64,-240.97 1107.07,-233.56 1104.1,-239.9"/>
</g>
<!-- Node37&#45;&gt;Node38 -->
<g id="edge57" class="edge">
<title>Node37&#45;&gt;Node38</title>
<path fill="none" stroke="#63b8ff" d="M1141.67,-230.99C1145.18,-220.72 1149.31,-208.63 1152.04,-200.67"/>
<polygon fill="#63b8ff" stroke="#63b8ff" points="1138.36,-229.84 1138.44,-240.44 1144.99,-232.11 1138.36,-229.84"/>
</g>
<!-- Node40&#45;&gt;Node29 -->
<g id="edge65" class="edge">
<title>Node40&#45;&gt;Node29</title>
<path fill="none" stroke="#63b8ff" d="M953.85,-357.76C946.19,-340.85 933.73,-316.05 919,-297 908.3,-283.16 893.1,-269.86 882.69,-261.47"/>
<polygon fill="#63b8ff" stroke="#63b8ff" points="950.52,-358.89 957.74,-366.64 956.93,-356.08 950.52,-358.89"/>
</g>
<!-- Node41&#45;&gt;Node21 -->
<g id="edge71" class="edge">
<title>Node41&#45;&gt;Node21</title>
<path fill="none" stroke="#63b8ff" d="M1011.64,-295.11C1000.5,-285.64 986.48,-273.12 975,-261 953.47,-238.27 946.91,-232.96 931,-206 916.65,-181.67 905.58,-149.93 900.71,-134.79"/>
<polygon fill="#63b8ff" stroke="#63b8ff" points="1009.12,-297.57 1019.04,-301.31 1013.62,-292.2 1009.12,-297.57"/>
</g>
<!-- Node41&#45;&gt;Node29 -->
<g id="edge72" class="edge">
<title>Node41&#45;&gt;Node29</title>
<path fill="none" stroke="#63b8ff" d="M996.14,-298.25C965.74,-287.14 922.41,-271.3 895.53,-261.47"/>
<polygon fill="#63b8ff" stroke="#63b8ff" points="994.68,-301.45 1005.28,-301.6 997.09,-294.87 994.68,-301.45"/>
</g>
<!-- Node42 -->
<g id="node42" class="node">
<title>Node42</title>
<g id="a_node42"><a xlink:href="Telemetry_8cpp.html" target="_top" xlink:title=" ">
<polygon fill="white" stroke="#666666" points="1078,-261 984,-261 984,-242 1078,-242 1078,-261"/>
<text text-anchor="middle" x="1031" y="-249" font-family="Helvetica,sans-Serif" font-size="10.00">src/Telemetry.cpp</text>
</a>
</g>
</g>
<!-- Node41&#45;&gt;Node42 -->
<g id="edge70" class="edge">
<title>Node41&#45;&gt;Node42</title>
<path fill="none" stroke="#63b8ff" d="M1031,-291.16C1031,-280.95 1031,-269.04 1031,-261.17"/>
<polygon fill="#63b8ff" stroke="#63b8ff" points="1027.5,-290.85 1031,-300.85 1034.5,-290.85 1027.5,-290.85"/>
</g>
</g>
</svg>
        <g id="navigator" transform="translate(0 0)" fill="#404254">
                <rect fill="#f2f5e9" fill-opacity="0.5" stroke="#606060" stroke-width=".5" x="0" y="0" width="60" height="60"/>
                <use id="zoomplus" xlink:href="#zoomPlus" x="17" y="9" onmousedown="handleZoom(evt,'in')"/>
                <use id="zoomminus" xlink:href="#zoomMin" x="42" y="9" onmousedown="handleZoom(evt,'out')"/>
                <use id="reset" xlink:href="#resetDef" x="30" y="36" onmousedown="handleReset()"/>
                <g id="arrowUp" xlink:href="#dirArrow" transform="translate(30 24)" onmousedown="handlePan(0,-1)">
                  <use xlink:href="#rim" fill="#404040">
                        <set attributeName="fill" to="#808080" begin="arrowUp.mouseover" end="arrowUp.mouseout"/>
                  </use>
                  <path fill="none" stroke="white" stroke-width="1.5" d="M0,-3.0v7 M-2.5,-0.5L0,-3.0L2.5,-0.5"/>
                </g>
                <g id="arrowRight" xlink:href="#dirArrow" transform="rotate(90) translate(36 -43)" onmousedown="handlePan(1,0)">
                  <use xlink:href="#rim" fill="#404040">
                        <set attributeName="fill" to="#808080" begin="arrowRight.mouseover" end="arrowRight.mouseout"/>
                  </use>
                  <path fill="none" stroke="white" stroke-width="1.5" d="M0,-3.0v7 M-2.5,-0.5L0,-3.0L2.5,-0.5"/>
                </g>
                <g id="arrowDown" xlink:href="#dirArrow" transform="rotate(180) translate(-30 -48)" onmousedown="handlePan(0,1)">
                  <use xlink:href="#rim" fill="#404040">
                        <set attributeName="fill" to="#808080" begin="arrowDown.mouseover" end="arrowDown.mouseout"/>
                  </use>
                  <path fill="none" stroke="white" stroke-width="1.5" d="M0,-3.0v7 M-2.5,-0.5L0,-3.0L2.5,-0.5"/>
                </g>
                <g id="arrowLeft" xlink:href="#dirArrow" transform="rotate(270) translate(-36 17)" onmousedown="handlePan(-1,0)">
                  <use xlink:href="#rim" fill="#404040">
                        <set attributeName="fill" to="#808080" begin="arrowLeft.mouseover" end="arrowLeft.mouseout"/>
                  </use>
                  <path fill="none" stroke="white" stroke-width="1.5" d="M0,-3.0v7 M-2.5,-0.5L0,-3.0L2.5,-0.5"/>
                </g>
        </g>
        <svg viewBox="0 0 15 15" width="100%" height="30px" preserveAspectRatio="xMaxYMin meet">
         <g id="arrow_out" transform="scale(0.3 0.3)">
          <a xlink:href="Configuration_8h__dep__incl_org.svg" target="_base">
           <rect id="button" ry="5" rx="5" y="6" x="6" height="38" width="38"
                fill="#f2f5e9" fill-opacity="0.5" stroke="#606060" stroke-width="1.0"/>
           <path id="arrow"
             d="M 11.500037,31.436501 C 11.940474,20.09759 22.043105,11.32322 32.158766,21.979434 L 37.068811,17.246167 C 37.068811,17.246167 37.088388,32 37.088388,32 L 22.160133,31.978069 C 22.160133,31.978069 26.997745,27.140456 26.997745,27.140456 C 18.528582,18.264221 13.291696,25.230495 11.500037,31.436501 z"
             style="fill:#404040;"/>
          </a>
         </g>
        </svg>
</svg>
