<?xml version="1.0" encoding="UTF-8" standalone="no"?>
<!DOCTYPE svg PUBLIC "-//W3C//DTD SVG 1.1//EN"
 "http://www.w3.org/Graphics/SVG/1.1/DTD/svg11.dtd">
<!-- Generated by graphviz version 7.0.5 (20221223.1930)
 -->
<!-- Title: src/DefaultLogger.h Pages: 1 -->
<svg width="979pt" height="258pt"
 viewBox="0.00 0.00 978.50 258.00" xmlns="http://www.w3.org/2000/svg" xmlns:xlink="http://www.w3.org/1999/xlink">
<g id="graph0" class="graph" transform="scale(1 1) rotate(0) translate(4 254)">
<title>src/DefaultLogger.h</title>
<!-- Node1 -->
<g id="node1" class="node">
<title>Node1</title>
<g id="a_node1"><a xlink:title=" ">
<polygon fill="#999999" stroke="#666666" points="711,-250 610,-250 610,-231 711,-231 711,-250"/>
<text text-anchor="middle" x="660.5" y="-238" font-family="Helvetica,sans-Serif" font-size="10.00">src/DefaultLogger.h</text>
</a>
</g>
</g>
<!-- Node2 -->
<g id="node2" class="node">
<title>Node2</title>
<g id="a_node2"><a xlink:href="IAPI__Implementation_8h.html" target="_top" xlink:title=" ">
<polygon fill="white" stroke="#666666" points="475.5,-195 343.5,-195 343.5,-176 475.5,-176 475.5,-195"/>
<text text-anchor="middle" x="409.5" y="-183" font-family="Helvetica,sans-Serif" font-size="10.00">src/IAPI_Implementation.h</text>
</a>
</g>
</g>
<!-- Node1&#45;&gt;Node2 -->
<g id="edge1" class="edge">
<title>Node1&#45;&gt;Node2</title>
<path fill="none" stroke="#63b8ff" d="M606.89,-228.18C560.58,-218.4 494.56,-204.46 451.87,-195.45"/>
<polygon fill="#63b8ff" stroke="#63b8ff" points="605.93,-231.55 616.44,-230.2 607.38,-224.71 605.93,-231.55"/>
</g>
<!-- Node9 -->
<g id="node9" class="node">
<title>Node9</title>
<g id="a_node9"><a xlink:href="ThingsBoard_8h.html" target="_top" xlink:title=" ">
<polygon fill="white" stroke="#666666" points="680,-140 585,-140 585,-121 680,-121 680,-140"/>
<text text-anchor="middle" x="632.5" y="-128" font-family="Helvetica,sans-Serif" font-size="10.00">src/ThingsBoard.h</text>
</a>
</g>
</g>
<!-- Node1&#45;&gt;Node9 -->
<g id="edge19" class="edge">
<title>Node1&#45;&gt;Node9</title>
<path fill="none" stroke="#63b8ff" d="M630.91,-224.88C619.54,-217.59 607.78,-207.61 601.5,-195 591.76,-175.46 610.55,-152.39 622.91,-140.15"/>
<polygon fill="#63b8ff" stroke="#63b8ff" points="628.95,-227.79 639.35,-229.82 632.49,-221.75 628.95,-227.79"/>
</g>
<!-- Node10 -->
<g id="node10" class="node">
<title>Node10</title>
<g id="a_node10"><a xlink:href="IMQTT__Client_8h.html" target="_top" xlink:title=" ">
<polygon fill="white" stroke="#666666" points="711,-195 610,-195 610,-176 711,-176 711,-195"/>
<text text-anchor="middle" x="660.5" y="-183" font-family="Helvetica,sans-Serif" font-size="10.00">src/IMQTT_Client.h</text>
</a>
</g>
</g>
<!-- Node1&#45;&gt;Node10 -->
<g id="edge11" class="edge">
<title>Node1&#45;&gt;Node10</title>
<path fill="none" stroke="#63b8ff" d="M660.5,-219.35C660.5,-211.1 660.5,-201.97 660.5,-195.44"/>
<polygon fill="#63b8ff" stroke="#63b8ff" points="657,-219.23 660.5,-229.23 664,-219.23 657,-219.23"/>
</g>
<!-- Node11 -->
<g id="node11" class="node">
<title>Node11</title>
<g id="a_node11"><a xlink:href="IUpdater_8h.html" target="_top" xlink:title=" ">
<polygon fill="white" stroke="#666666" points="807.5,-195 729.5,-195 729.5,-176 807.5,-176 807.5,-195"/>
<text text-anchor="middle" x="768.5" y="-183" font-family="Helvetica,sans-Serif" font-size="10.00">src/IUpdater.h</text>
</a>
</g>
</g>
<!-- Node1&#45;&gt;Node11 -->
<g id="edge13" class="edge">
<title>Node1&#45;&gt;Node11</title>
<path fill="none" stroke="#63b8ff" d="M688.96,-225.53C708.44,-215.97 733.68,-203.59 750.45,-195.36"/>
<polygon fill="#63b8ff" stroke="#63b8ff" points="687.61,-222.29 680.18,-229.84 690.7,-228.58 687.61,-222.29"/>
</g>
<!-- Node16 -->
<g id="node16" class="node">
<title>Node16</title>
<g id="a_node16"><a xlink:href="ThingsBoardHttp_8h.html" target="_top" xlink:title=" ">
<polygon fill="white" stroke="#666666" points="939.5,-195 825.5,-195 825.5,-176 939.5,-176 939.5,-195"/>
<text text-anchor="middle" x="882.5" y="-183" font-family="Helvetica,sans-Serif" font-size="10.00">src/ThingsBoardHttp.h</text>
</a>
</g>
</g>
<!-- Node1&#45;&gt;Node16 -->
<g id="edge20" class="edge">
<title>Node1&#45;&gt;Node16</title>
<path fill="none" stroke="#63b8ff" d="M709.22,-227.87C750.11,-218.11 807.67,-204.37 845.03,-195.45"/>
<polygon fill="#63b8ff" stroke="#63b8ff" points="708.55,-224.43 699.63,-230.16 710.17,-231.24 708.55,-224.43"/>
</g>
<!-- Node3 -->
<g id="node3" class="node">
<title>Node3</title>
<g id="a_node3"><a xlink:href="Attribute__Request_8h.html" target="_top" xlink:title=" ">
<polygon fill="white" stroke="#666666" points="119,-79.5 0,-79.5 0,-60.5 119,-60.5 119,-79.5"/>
<text text-anchor="middle" x="59.5" y="-67.5" font-family="Helvetica,sans-Serif" font-size="10.00">src/Attribute_Request.h</text>
</a>
</g>
</g>
<!-- Node2&#45;&gt;Node3 -->
<g id="edge2" class="edge">
<title>Node2&#45;&gt;Node3</title>
<path fill="none" stroke="#63b8ff" d="M332.05,-183.98C274.62,-180.82 195.83,-170.5 133.5,-140 103.84,-125.48 77.83,-95.08 66.11,-79.95"/>
<polygon fill="#63b8ff" stroke="#63b8ff" points="331.57,-187.46 341.73,-184.44 331.91,-180.46 331.57,-187.46"/>
</g>
<!-- Node4 -->
<g id="node4" class="node">
<title>Node4</title>
<g id="a_node4"><a xlink:href="OTA__Firmware__Update_8h.html" target="_top" xlink:title=" ">
<polygon fill="white" stroke="#666666" points="294,-19 151,-19 151,0 294,0 294,-19"/>
<text text-anchor="middle" x="222.5" y="-7" font-family="Helvetica,sans-Serif" font-size="10.00">src/OTA_Firmware_Update.h</text>
</a>
</g>
</g>
<!-- Node2&#45;&gt;Node4 -->
<g id="edge5" class="edge">
<title>Node2&#45;&gt;Node4</title>
<path fill="none" stroke="#63b8ff" d="M331.96,-180.82C269,-176.01 187.35,-165.02 166.5,-140 134.35,-101.43 189.6,-41.59 212.89,-19.28"/>
<polygon fill="#63b8ff" stroke="#63b8ff" points="331.34,-184.29 341.57,-181.51 331.85,-177.3 331.34,-184.29"/>
</g>
<!-- Node5 -->
<g id="node5" class="node">
<title>Node5</title>
<g id="a_node5"><a xlink:href="Client__Side__RPC_8h.html" target="_top" xlink:title=" ">
<polygon fill="white" stroke="#666666" points="291.5,-140 175.5,-140 175.5,-121 291.5,-121 291.5,-140"/>
<text text-anchor="middle" x="233.5" y="-128" font-family="Helvetica,sans-Serif" font-size="10.00">src/Client_Side_RPC.h</text>
</a>
</g>
</g>
<!-- Node2&#45;&gt;Node5 -->
<g id="edge4" class="edge">
<title>Node2&#45;&gt;Node5</title>
<path fill="none" stroke="#63b8ff" d="M368.78,-172.24C336.52,-162.52 292.19,-149.18 263.21,-140.45"/>
<polygon fill="#63b8ff" stroke="#63b8ff" points="367.61,-175.54 378.19,-175.07 369.63,-168.84 367.61,-175.54"/>
</g>
<!-- Node6 -->
<g id="node6" class="node">
<title>Node6</title>
<g id="a_node6"><a xlink:href="Provision_8h.html" target="_top" xlink:title=" ">
<polygon fill="white" stroke="#666666" points="391,-140 310,-140 310,-121 391,-121 391,-140"/>
<text text-anchor="middle" x="350.5" y="-128" font-family="Helvetica,sans-Serif" font-size="10.00">src/Provision.h</text>
</a>
</g>
</g>
<!-- Node2&#45;&gt;Node6 -->
<g id="edge6" class="edge">
<title>Node2&#45;&gt;Node6</title>
<path fill="none" stroke="#63b8ff" d="M391.23,-168.09C381.04,-158.94 368.76,-147.9 360.36,-140.36"/>
<polygon fill="#63b8ff" stroke="#63b8ff" points="388.59,-170.42 398.37,-174.5 393.27,-165.21 388.59,-170.42"/>
</g>
<!-- Node7 -->
<g id="node7" class="node">
<title>Node7</title>
<g id="a_node7"><a xlink:href="Server__Side__RPC_8h.html" target="_top" xlink:title=" ">
<polygon fill="white" stroke="#666666" points="528,-140 409,-140 409,-121 528,-121 528,-140"/>
<text text-anchor="middle" x="468.5" y="-128" font-family="Helvetica,sans-Serif" font-size="10.00">src/Server_Side_RPC.h</text>
</a>
</g>
</g>
<!-- Node2&#45;&gt;Node7 -->
<g id="edge7" class="edge">
<title>Node2&#45;&gt;Node7</title>
<path fill="none" stroke="#63b8ff" d="M427.77,-168.09C437.96,-158.94 450.24,-147.9 458.64,-140.36"/>
<polygon fill="#63b8ff" stroke="#63b8ff" points="425.73,-165.21 420.63,-174.5 430.41,-170.42 425.73,-165.21"/>
</g>
<!-- Node8 -->
<g id="node8" class="node">
<title>Node8</title>
<g id="a_node8"><a xlink:href="Shared__Attribute__Update_8h.html" target="_top" xlink:title=" ">
<polygon fill="white" stroke="#666666" points="350.5,-85 244.5,-85 244.5,-55 350.5,-55 350.5,-85"/>
<text text-anchor="start" x="252.5" y="-73" font-family="Helvetica,sans-Serif" font-size="10.00">src/Shared_Attribute</text>
<text text-anchor="middle" x="297.5" y="-62" font-family="Helvetica,sans-Serif" font-size="10.00">_Update.h</text>
</a>
</g>
</g>
<!-- Node2&#45;&gt;Node8 -->
<g id="edge8" class="edge">
<title>Node2&#45;&gt;Node8</title>
<path fill="none" stroke="#63b8ff" d="M481.11,-173.08C521.06,-163.58 558.86,-147.27 537.5,-121 514.44,-92.64 414.3,-79.83 350.88,-74.47"/>
<polygon fill="#63b8ff" stroke="#63b8ff" points="480.59,-169.61 471.59,-175.19 482.11,-176.44 480.59,-169.61"/>
</g>
<!-- Node2&#45;&gt;Node9 -->
<g id="edge10" class="edge">
<title>Node2&#45;&gt;Node9</title>
<path fill="none" stroke="#63b8ff" d="M458.44,-172.87C499.51,-163.11 557.33,-149.37 594.86,-140.45"/>
<polygon fill="#63b8ff" stroke="#63b8ff" points="457.72,-169.44 448.8,-175.16 459.34,-176.25 457.72,-169.44"/>
</g>
<!-- Node3&#45;&gt;Node4 -->
<g id="edge3" class="edge">
<title>Node3&#45;&gt;Node4</title>
<path fill="none" stroke="#63b8ff" d="M95.02,-56.25C125.99,-45.14 170.13,-29.3 197.51,-19.47"/>
<polygon fill="#63b8ff" stroke="#63b8ff" points="93.91,-52.93 85.68,-59.6 96.28,-59.52 93.91,-52.93"/>
</g>
<!-- Node8&#45;&gt;Node4 -->
<g id="edge9" class="edge">
<title>Node8&#45;&gt;Node4</title>
<path fill="none" stroke="#63b8ff" d="M270.15,-47.67C257.52,-37.82 243.23,-26.67 233.62,-19.18"/>
<polygon fill="#63b8ff" stroke="#63b8ff" points="267.73,-50.22 277.77,-53.61 272.03,-44.7 267.73,-50.22"/>
</g>
<!-- Node10&#45;&gt;Node9 -->
<g id="edge12" class="edge">
<title>Node10&#45;&gt;Node9</title>
<path fill="none" stroke="#63b8ff" d="M650.62,-165.79C646.07,-157.18 640.88,-147.36 637.22,-140.44"/>
<polygon fill="#63b8ff" stroke="#63b8ff" points="647.4,-167.2 655.17,-174.41 653.59,-163.93 647.4,-167.2"/>
</g>
<!-- Node12 -->
<g id="node12" class="node">
<title>Node12</title>
<g id="a_node12"><a xlink:href="OTA__Update__Callback_8h.html" target="_top" xlink:title=" ">
<polygon fill="white" stroke="#666666" points="838.5,-140 698.5,-140 698.5,-121 838.5,-121 838.5,-140"/>
<text text-anchor="middle" x="768.5" y="-128" font-family="Helvetica,sans-Serif" font-size="10.00">src/OTA_Update_Callback.h</text>
</a>
</g>
</g>
<!-- Node11&#45;&gt;Node12 -->
<g id="edge14" class="edge">
<title>Node11&#45;&gt;Node12</title>
<path fill="none" stroke="#63b8ff" d="M768.5,-164.35C768.5,-156.1 768.5,-146.97 768.5,-140.44"/>
<polygon fill="#63b8ff" stroke="#63b8ff" points="765,-164.23 768.5,-174.23 772,-164.23 765,-164.23"/>
</g>
<!-- Node15 -->
<g id="node15" class="node">
<title>Node15</title>
<g id="a_node15"><a xlink:href="SDCard__Updater_8h.html" target="_top" xlink:title=" ">
<polygon fill="white" stroke="#666666" points="970.5,-140 856.5,-140 856.5,-121 970.5,-121 970.5,-140"/>
<text text-anchor="middle" x="913.5" y="-128" font-family="Helvetica,sans-Serif" font-size="10.00">src/SDCard_Updater.h</text>
</a>
</g>
</g>
<!-- Node11&#45;&gt;Node15 -->
<g id="edge18" class="edge">
<title>Node11&#45;&gt;Node15</title>
<path fill="none" stroke="#63b8ff" d="M803.84,-171.58C830.34,-161.9 865.92,-148.89 889.27,-140.36"/>
<polygon fill="#63b8ff" stroke="#63b8ff" points="802.71,-168.27 794.52,-174.99 805.11,-174.84 802.71,-168.27"/>
</g>
<!-- Node13 -->
<g id="node13" class="node">
<title>Node13</title>
<g id="a_node13"><a xlink:href="OTA__Handler_8h.html" target="_top" xlink:title=" ">
<polygon fill="white" stroke="#666666" points="605.5,-79.5 505.5,-79.5 505.5,-60.5 605.5,-60.5 605.5,-79.5"/>
<text text-anchor="middle" x="555.5" y="-67.5" font-family="Helvetica,sans-Serif" font-size="10.00">src/OTA_Handler.h</text>
</a>
</g>
</g>
<!-- Node12&#45;&gt;Node13 -->
<g id="edge15" class="edge">
<title>Node12&#45;&gt;Node13</title>
<path fill="none" stroke="#63b8ff" d="M725.25,-117.62C684.67,-106.48 624.88,-90.05 588.15,-79.97"/>
<polygon fill="#63b8ff" stroke="#63b8ff" points="724.12,-120.94 734.69,-120.21 725.97,-114.19 724.12,-120.94"/>
</g>
<!-- Node14 -->
<g id="node14" class="node">
<title>Node14</title>
<g id="a_node14"><a xlink:href="OTA__Update__Callback_8cpp.html" target="_top" xlink:title=" ">
<polygon fill="white" stroke="#666666" points="844,-79.5 693,-79.5 693,-60.5 844,-60.5 844,-79.5"/>
<text text-anchor="middle" x="768.5" y="-67.5" font-family="Helvetica,sans-Serif" font-size="10.00">src/OTA_Update_Callback.cpp</text>
</a>
</g>
</g>
<!-- Node12&#45;&gt;Node14 -->
<g id="edge17" class="edge">
<title>Node12&#45;&gt;Node14</title>
<path fill="none" stroke="#63b8ff" d="M768.5,-109.66C768.5,-99.45 768.5,-87.54 768.5,-79.67"/>
<polygon fill="#63b8ff" stroke="#63b8ff" points="765,-109.35 768.5,-119.35 772,-109.35 765,-109.35"/>
</g>
<!-- Node13&#45;&gt;Node4 -->
<g id="edge16" class="edge">
<title>Node13&#45;&gt;Node4</title>
<path fill="none" stroke="#63b8ff" d="M494.26,-58.24C430.9,-47.11 333.05,-29.92 273.67,-19.49"/>
<polygon fill="#63b8ff" stroke="#63b8ff" points="493.34,-61.63 503.8,-59.92 494.55,-54.74 493.34,-61.63"/>
</g>
</g>
</svg>
