<?xml version="1.0" encoding="UTF-8" standalone="no"?>
<!DOCTYPE svg PUBLIC "-//W3C//DTD SVG 1.1//EN"
 "http://www.w3.org/Graphics/SVG/1.1/DTD/svg11.dtd">
<!-- Generated by graphviz version 7.0.5 (20221223.1930)
 -->
<!-- Title: src/Helper.h Pages: 1 -->
<svg width="1397pt" height="379pt"
 viewBox="0.00 0.00 1396.50 379.00" xmlns="http://www.w3.org/2000/svg" xmlns:xlink="http://www.w3.org/1999/xlink">
<g id="graph0" class="graph" transform="scale(1 1) rotate(0) translate(4 375)">
<title>src/Helper.h</title>
<!-- Node1 -->
<g id="node1" class="node">
<title>Node1</title>
<g id="a_node1"><a xlink:title=" ">
<polygon fill="#999999" stroke="#666666" points="1147,-371 1078,-371 1078,-352 1147,-352 1147,-371"/>
<text text-anchor="middle" x="1112.5" y="-359" font-family="Helvetica,sans-Serif" font-size="10.00">src/Helper.h</text>
</a>
</g>
</g>
<!-- Node2 -->
<g id="node2" class="node">
<title>Node2</title>
<g id="a_node2"><a xlink:href="Array_8h.html" target="_top" xlink:title=" ">
<polygon fill="white" stroke="#666666" points="955,-316 892,-316 892,-297 955,-297 955,-316"/>
<text text-anchor="middle" x="923.5" y="-304" font-family="Helvetica,sans-Serif" font-size="10.00">src/Array.h</text>
</a>
</g>
</g>
<!-- Node1&#45;&gt;Node2 -->
<g id="edge1" class="edge">
<title>Node1&#45;&gt;Node2</title>
<path fill="none" stroke="#63b8ff" d="M1069.68,-348.49C1034.96,-338.76 986.8,-325.25 955.4,-316.45"/>
<polygon fill="#63b8ff" stroke="#63b8ff" points="1068.41,-351.77 1078.98,-351.1 1070.3,-345.03 1068.41,-351.77"/>
</g>
<!-- Node8 -->
<g id="node8" class="node">
<title>Node8</title>
<g id="a_node8"><a xlink:href="OTA__Handler_8h.html" target="_top" xlink:title=" ">
<polygon fill="white" stroke="#666666" points="269.5,-134.5 169.5,-134.5 169.5,-115.5 269.5,-115.5 269.5,-134.5"/>
<text text-anchor="middle" x="219.5" y="-122.5" font-family="Helvetica,sans-Serif" font-size="10.00">src/OTA_Handler.h</text>
</a>
</g>
</g>
<!-- Node1&#45;&gt;Node8 -->
<g id="edge42" class="edge">
<title>Node1&#45;&gt;Node8</title>
<path fill="none" stroke="#63b8ff" d="M1066.28,-357.03C952.16,-347.83 648.39,-319.39 401.5,-261 327.1,-243.4 290.01,-262.5 238.5,-206 220.13,-185.85 218.59,-151.24 219,-134.96"/>
<polygon fill="#63b8ff" stroke="#63b8ff" points="1065.92,-360.52 1076.16,-357.82 1066.47,-353.54 1065.92,-360.52"/>
</g>
<!-- Node24 -->
<g id="node24" class="node">
<title>Node24</title>
<g id="a_node24"><a xlink:href="DefaultLogger_8h.html" target="_top" xlink:title=" ">
<polygon fill="white" stroke="#666666" points="1124,-316 1023,-316 1023,-297 1124,-297 1124,-316"/>
<text text-anchor="middle" x="1073.5" y="-304" font-family="Helvetica,sans-Serif" font-size="10.00">src/DefaultLogger.h</text>
</a>
</g>
</g>
<!-- Node1&#45;&gt;Node24 -->
<g id="edge33" class="edge">
<title>Node1&#45;&gt;Node24</title>
<path fill="none" stroke="#63b8ff" d="M1099.36,-342.65C1092.88,-333.84 1085.34,-323.59 1080.08,-316.44"/>
<polygon fill="#63b8ff" stroke="#63b8ff" points="1096.42,-344.55 1105.16,-350.53 1102.06,-340.4 1096.42,-344.55"/>
</g>
<!-- Node27 -->
<g id="node27" class="node">
<title>Node27</title>
<g id="a_node27"><a xlink:href="ThingsBoardHttp_8h.html" target="_top" xlink:title=" ">
<polygon fill="white" stroke="#666666" points="1388.5,-261 1274.5,-261 1274.5,-242 1388.5,-242 1388.5,-261"/>
<text text-anchor="middle" x="1331.5" y="-249" font-family="Helvetica,sans-Serif" font-size="10.00">src/ThingsBoardHttp.h</text>
</a>
</g>
</g>
<!-- Node1&#45;&gt;Node27 -->
<g id="edge43" class="edge">
<title>Node1&#45;&gt;Node27</title>
<path fill="none" stroke="#63b8ff" d="M1124.97,-342.33C1135.71,-328.01 1152.47,-308.58 1171.5,-297 1202.66,-278.04 1242.09,-266.95 1274.01,-260.59"/>
<polygon fill="#63b8ff" stroke="#63b8ff" points="1122.14,-340.28 1119.15,-350.44 1127.82,-344.36 1122.14,-340.28"/>
</g>
<!-- Node28 -->
<g id="node28" class="node">
<title>Node28</title>
<g id="a_node28"><a xlink:href="Helper_8cpp.html" target="_top" xlink:title=" ">
<polygon fill="white" stroke="#666666" points="1260.5,-316 1180.5,-316 1180.5,-297 1260.5,-297 1260.5,-316"/>
<text text-anchor="middle" x="1220.5" y="-304" font-family="Helvetica,sans-Serif" font-size="10.00">src/Helper.cpp</text>
</a>
</g>
</g>
<!-- Node1&#45;&gt;Node28 -->
<g id="edge41" class="edge">
<title>Node1&#45;&gt;Node28</title>
<path fill="none" stroke="#63b8ff" d="M1140.96,-346.53C1160.44,-336.97 1185.68,-324.59 1202.45,-316.36"/>
<polygon fill="#63b8ff" stroke="#63b8ff" points="1139.61,-343.29 1132.18,-350.84 1142.7,-349.58 1139.61,-343.29"/>
</g>
<!-- Node29 -->
<g id="node29" class="node">
<title>Node29</title>
<g id="a_node29"><a xlink:href="Vector_8h.html" target="_top" xlink:title=" ">
<polygon fill="white" stroke="#666666" points="1348,-316 1279,-316 1279,-297 1348,-297 1348,-316"/>
<text text-anchor="middle" x="1313.5" y="-304" font-family="Helvetica,sans-Serif" font-size="10.00">src/Vector.h</text>
</a>
</g>
</g>
<!-- Node1&#45;&gt;Node29 -->
<g id="edge44" class="edge">
<title>Node1&#45;&gt;Node29</title>
<path fill="none" stroke="#63b8ff" d="M1157.56,-348.62C1194.52,-338.87 1246.03,-325.29 1279.57,-316.45"/>
<polygon fill="#63b8ff" stroke="#63b8ff" points="1156.84,-345.19 1148.06,-351.12 1158.62,-351.96 1156.84,-345.19"/>
</g>
<!-- Node3 -->
<g id="node3" class="node">
<title>Node3</title>
<g id="a_node3"><a xlink:href="Callback_8h.html" target="_top" xlink:title=" ">
<polygon fill="white" stroke="#666666" points="947.5,-261 869.5,-261 869.5,-242 947.5,-242 947.5,-261"/>
<text text-anchor="middle" x="908.5" y="-249" font-family="Helvetica,sans-Serif" font-size="10.00">src/Callback.h</text>
</a>
</g>
</g>
<!-- Node2&#45;&gt;Node3 -->
<g id="edge2" class="edge">
<title>Node2&#45;&gt;Node3</title>
<path fill="none" stroke="#63b8ff" d="M917.96,-285.93C915.58,-277.53 912.92,-268.13 911.03,-261.44"/>
<polygon fill="#63b8ff" stroke="#63b8ff" points="914.52,-286.62 920.61,-295.29 921.26,-284.72 914.52,-286.62"/>
</g>
<!-- Node4 -->
<g id="node4" class="node">
<title>Node4</title>
<g id="a_node4"><a xlink:href="Callback__Watchdog_8h.html" target="_top" xlink:title=" ">
<polygon fill="white" stroke="#666666" points="665,-200.5 538,-200.5 538,-181.5 665,-181.5 665,-200.5"/>
<text text-anchor="middle" x="601.5" y="-188.5" font-family="Helvetica,sans-Serif" font-size="10.00">src/Callback_Watchdog.h</text>
</a>
</g>
</g>
<!-- Node3&#45;&gt;Node4 -->
<g id="edge3" class="edge">
<title>Node3&#45;&gt;Node4</title>
<path fill="none" stroke="#63b8ff" d="M858.19,-240.91C800.07,-229.84 705.18,-211.76 648.49,-200.95"/>
<polygon fill="#63b8ff" stroke="#63b8ff" points="857.34,-244.31 867.82,-242.75 858.65,-237.44 857.34,-244.31"/>
</g>
<!-- Node15 -->
<g id="node15" class="node">
<title>Node15</title>
<g id="a_node15"><a xlink:href="IAPI__Implementation_8h.html" target="_top" xlink:title=" ">
<polygon fill="white" stroke="#666666" points="974.5,-200.5 842.5,-200.5 842.5,-181.5 974.5,-181.5 974.5,-200.5"/>
<text text-anchor="middle" x="908.5" y="-188.5" font-family="Helvetica,sans-Serif" font-size="10.00">src/IAPI_Implementation.h</text>
</a>
</g>
</g>
<!-- Node3&#45;&gt;Node15 -->
<g id="edge15" class="edge">
<title>Node3&#45;&gt;Node15</title>
<path fill="none" stroke="#63b8ff" d="M908.5,-230.66C908.5,-220.45 908.5,-208.54 908.5,-200.67"/>
<polygon fill="#63b8ff" stroke="#63b8ff" points="905,-230.35 908.5,-240.35 912,-230.35 905,-230.35"/>
</g>
<!-- Node19 -->
<g id="node19" class="node">
<title>Node19</title>
<g id="a_node19"><a xlink:href="IMQTT__Client_8h.html" target="_top" xlink:title=" ">
<polygon fill="white" stroke="#666666" points="1218,-200.5 1117,-200.5 1117,-181.5 1218,-181.5 1218,-200.5"/>
<text text-anchor="middle" x="1167.5" y="-188.5" font-family="Helvetica,sans-Serif" font-size="10.00">src/IMQTT_Client.h</text>
</a>
</g>
</g>
<!-- Node3&#45;&gt;Node19 -->
<g id="edge24" class="edge">
<title>Node3&#45;&gt;Node19</title>
<path fill="none" stroke="#63b8ff" d="M958.92,-239.36C999.16,-230.44 1056.98,-217.54 1107.5,-206 1114.59,-204.38 1122.15,-202.63 1129.42,-200.94"/>
<polygon fill="#63b8ff" stroke="#63b8ff" points="958.28,-235.92 949.27,-241.5 959.79,-242.75 958.28,-235.92"/>
</g>
<!-- Node20 -->
<g id="node20" class="node">
<title>Node20</title>
<g id="a_node20"><a xlink:href="OTA__Update__Callback_8h.html" target="_top" xlink:title=" ">
<polygon fill="white" stroke="#666666" points="519.5,-200.5 379.5,-200.5 379.5,-181.5 519.5,-181.5 519.5,-200.5"/>
<text text-anchor="middle" x="449.5" y="-188.5" font-family="Helvetica,sans-Serif" font-size="10.00">src/OTA_Update_Callback.h</text>
</a>
</g>
</g>
<!-- Node3&#45;&gt;Node20 -->
<g id="edge26" class="edge">
<title>Node3&#45;&gt;Node20</title>
<path fill="none" stroke="#63b8ff" d="M857.88,-245.53C784.94,-238.15 646.09,-223.29 528.5,-206 518.44,-204.52 507.69,-202.75 497.47,-200.97"/>
<polygon fill="#63b8ff" stroke="#63b8ff" points="857.21,-248.98 867.51,-246.5 857.91,-242.01 857.21,-248.98"/>
</g>
<!-- Node22 -->
<g id="node22" class="node">
<title>Node22</title>
<g id="a_node22"><a xlink:href="RPC__Callback_8h.html" target="_top" xlink:title=" ">
<polygon fill="white" stroke="#666666" points="824.5,-200.5 720.5,-200.5 720.5,-181.5 824.5,-181.5 824.5,-200.5"/>
<text text-anchor="middle" x="772.5" y="-188.5" font-family="Helvetica,sans-Serif" font-size="10.00">src/RPC_Callback.h</text>
</a>
</g>
</g>
<!-- Node3&#45;&gt;Node22 -->
<g id="edge29" class="edge">
<title>Node3&#45;&gt;Node22</title>
<path fill="none" stroke="#63b8ff" d="M877.5,-237.16C851.74,-226.08 815.79,-210.62 793.35,-200.97"/>
<polygon fill="#63b8ff" stroke="#63b8ff" points="875.88,-240.28 886.45,-241.02 878.65,-233.85 875.88,-240.28"/>
</g>
<!-- Node23 -->
<g id="node23" class="node">
<title>Node23</title>
<g id="a_node23"><a xlink:href="Shared__Attribute__Callback_8h.html" target="_top" xlink:title=" ">
<polygon fill="white" stroke="#666666" points="1098.5,-206 992.5,-206 992.5,-176 1098.5,-176 1098.5,-206"/>
<text text-anchor="start" x="1000.5" y="-194" font-family="Helvetica,sans-Serif" font-size="10.00">src/Shared_Attribute</text>
<text text-anchor="middle" x="1045.5" y="-183" font-family="Helvetica,sans-Serif" font-size="10.00">_Callback.h</text>
</a>
</g>
</g>
<!-- Node3&#45;&gt;Node23 -->
<g id="edge31" class="edge">
<title>Node3&#45;&gt;Node23</title>
<path fill="none" stroke="#63b8ff" d="M939.82,-237.13C961.28,-227.96 989.71,-215.82 1011.68,-206.44"/>
<polygon fill="#63b8ff" stroke="#63b8ff" points="938.52,-233.87 930.7,-241.02 941.27,-240.31 938.52,-233.87"/>
</g>
<!-- Node5 -->
<g id="node5" class="node">
<title>Node5</title>
<g id="a_node5"><a xlink:href="Attribute__Request__Callback_8h.html" target="_top" xlink:title=" ">
<polygon fill="white" stroke="#666666" points="743,-140 632,-140 632,-110 743,-110 743,-140"/>
<text text-anchor="start" x="640" y="-128" font-family="Helvetica,sans-Serif" font-size="10.00">src/Attribute_Request</text>
<text text-anchor="middle" x="687.5" y="-117" font-family="Helvetica,sans-Serif" font-size="10.00">_Callback.h</text>
</a>
</g>
</g>
<!-- Node4&#45;&gt;Node5 -->
<g id="edge4" class="edge">
<title>Node4&#45;&gt;Node5</title>
<path fill="none" stroke="#63b8ff" d="M622.3,-174.52C636.22,-164.16 654.42,-150.62 668.05,-140.48"/>
<polygon fill="#63b8ff" stroke="#63b8ff" points="620.6,-171.42 614.67,-180.2 624.78,-177.04 620.6,-171.42"/>
</g>
<!-- Node4&#45;&gt;Node8 -->
<g id="edge7" class="edge">
<title>Node4&#45;&gt;Node8</title>
<path fill="none" stroke="#63b8ff" d="M545.46,-178.98C539.74,-177.94 534.01,-176.92 528.5,-176 417.79,-157.42 388.78,-160.98 278.5,-140 270.85,-138.54 262.69,-136.76 254.96,-134.96"/>
<polygon fill="#63b8ff" stroke="#63b8ff" points="544.43,-182.35 554.9,-180.73 545.71,-175.46 544.43,-182.35"/>
</g>
<!-- Node9 -->
<g id="node9" class="node">
<title>Node9</title>
<g id="a_node9"><a xlink:href="Provision__Callback_8h.html" target="_top" xlink:title=" ">
<polygon fill="white" stroke="#666666" points="613.5,-134.5 489.5,-134.5 489.5,-115.5 613.5,-115.5 613.5,-134.5"/>
<text text-anchor="middle" x="551.5" y="-122.5" font-family="Helvetica,sans-Serif" font-size="10.00">src/Provision_Callback.h</text>
</a>
</g>
</g>
<!-- Node4&#45;&gt;Node9 -->
<g id="edge9" class="edge">
<title>Node4&#45;&gt;Node9</title>
<path fill="none" stroke="#63b8ff" d="M587.64,-172.26C578.13,-160.08 565.91,-144.44 558.39,-134.82"/>
<polygon fill="#63b8ff" stroke="#63b8ff" points="584.7,-174.18 593.62,-179.91 590.22,-169.87 584.7,-174.18"/>
</g>
<!-- Node12 -->
<g id="node12" class="node">
<title>Node12</title>
<g id="a_node12"><a xlink:href="RPC__Request__Callback_8h.html" target="_top" xlink:title=" ">
<polygon fill="white" stroke="#666666" points="433,-134.5 288,-134.5 288,-115.5 433,-115.5 433,-134.5"/>
<text text-anchor="middle" x="360.5" y="-122.5" font-family="Helvetica,sans-Serif" font-size="10.00">src/RPC_Request_Callback.h</text>
</a>
</g>
</g>
<!-- Node4&#45;&gt;Node12 -->
<g id="edge12" class="edge">
<title>Node4&#45;&gt;Node12</title>
<path fill="none" stroke="#63b8ff" d="M556.63,-178.09C509.49,-165.57 436.41,-146.16 394.04,-134.91"/>
<polygon fill="#63b8ff" stroke="#63b8ff" points="555.71,-181.46 566.27,-180.65 557.51,-174.7 555.71,-181.46"/>
</g>
<!-- Node6 -->
<g id="node6" class="node">
<title>Node6</title>
<g id="a_node6"><a xlink:href="Attribute__Request_8h.html" target="_top" xlink:title=" ">
<polygon fill="white" stroke="#666666" points="956,-74 837,-74 837,-55 956,-55 956,-74"/>
<text text-anchor="middle" x="896.5" y="-62" font-family="Helvetica,sans-Serif" font-size="10.00">src/Attribute_Request.h</text>
</a>
</g>
</g>
<!-- Node5&#45;&gt;Node6 -->
<g id="edge5" class="edge">
<title>Node5&#45;&gt;Node6</title>
<path fill="none" stroke="#63b8ff" d="M750.06,-106.49C787.78,-95.93 834.25,-82.92 864.59,-74.43"/>
<polygon fill="#63b8ff" stroke="#63b8ff" points="749.31,-103.07 740.62,-109.13 751.19,-109.81 749.31,-103.07"/>
</g>
<!-- Node7 -->
<g id="node7" class="node">
<title>Node7</title>
<g id="a_node7"><a xlink:href="OTA__Firmware__Update_8h.html" target="_top" xlink:title=" ">
<polygon fill="white" stroke="#666666" points="1012,-19 869,-19 869,0 1012,0 1012,-19"/>
<text text-anchor="middle" x="940.5" y="-7" font-family="Helvetica,sans-Serif" font-size="10.00">src/OTA_Firmware_Update.h</text>
</a>
</g>
</g>
<!-- Node6&#45;&gt;Node7 -->
<g id="edge6" class="edge">
<title>Node6&#45;&gt;Node7</title>
<path fill="none" stroke="#63b8ff" d="M911.08,-45.93C918.45,-37.06 927.08,-26.67 933.08,-19.44"/>
<polygon fill="#63b8ff" stroke="#63b8ff" points="908.43,-43.65 904.73,-53.58 913.81,-48.13 908.43,-43.65"/>
</g>
<!-- Node8&#45;&gt;Node7 -->
<g id="edge8" class="edge">
<title>Node8&#45;&gt;Node7</title>
<path fill="none" stroke="#63b8ff" d="M216.31,-104.11C215.04,-88.4 216.3,-67.17 229.5,-55 275.74,-12.38 697.24,-9.39 868.58,-9.97"/>
<polygon fill="#63b8ff" stroke="#63b8ff" points="212.8,-104.25 217.51,-113.74 219.75,-103.39 212.8,-104.25"/>
</g>
<!-- Node10 -->
<g id="node10" class="node">
<title>Node10</title>
<g id="a_node10"><a xlink:href="Provision_8h.html" target="_top" xlink:title=" ">
<polygon fill="white" stroke="#666666" points="804,-74 723,-74 723,-55 804,-55 804,-74"/>
<text text-anchor="middle" x="763.5" y="-62" font-family="Helvetica,sans-Serif" font-size="10.00">src/Provision.h</text>
</a>
</g>
</g>
<!-- Node9&#45;&gt;Node10 -->
<g id="edge10" class="edge">
<title>Node9&#45;&gt;Node10</title>
<path fill="none" stroke="#63b8ff" d="M594.55,-112.12C634.94,-100.98 694.45,-84.55 731,-74.47"/>
<polygon fill="#63b8ff" stroke="#63b8ff" points="593.87,-108.68 585.16,-114.71 595.73,-115.43 593.87,-108.68"/>
</g>
<!-- Node11 -->
<g id="node11" class="node">
<title>Node11</title>
<g id="a_node11"><a xlink:href="Provision__Callback_8cpp.html" target="_top" xlink:title=" ">
<polygon fill="white" stroke="#666666" points="680.5,-74 546.5,-74 546.5,-55 680.5,-55 680.5,-74"/>
<text text-anchor="middle" x="613.5" y="-62" font-family="Helvetica,sans-Serif" font-size="10.00">src/Provision_Callback.cpp</text>
</a>
</g>
</g>
<!-- Node9&#45;&gt;Node11 -->
<g id="edge11" class="edge">
<title>Node9&#45;&gt;Node11</title>
<path fill="none" stroke="#63b8ff" d="M569.22,-107.28C580.54,-96.6 594.77,-83.17 603.99,-74.47"/>
<polygon fill="#63b8ff" stroke="#63b8ff" points="566.89,-104.67 562.02,-114.08 571.69,-109.76 566.89,-104.67"/>
</g>
<!-- Node13 -->
<g id="node13" class="node">
<title>Node13</title>
<g id="a_node13"><a xlink:href="Client__Side__RPC_8h.html" target="_top" xlink:title=" ">
<polygon fill="white" stroke="#666666" points="528.5,-74 412.5,-74 412.5,-55 528.5,-55 528.5,-74"/>
<text text-anchor="middle" x="470.5" y="-62" font-family="Helvetica,sans-Serif" font-size="10.00">src/Client_Side_RPC.h</text>
</a>
</g>
</g>
<!-- Node12&#45;&gt;Node13 -->
<g id="edge13" class="edge">
<title>Node12&#45;&gt;Node13</title>
<path fill="none" stroke="#63b8ff" d="M387.27,-109.76C407.96,-98.76 435.97,-83.86 453.64,-74.47"/>
<polygon fill="#63b8ff" stroke="#63b8ff" points="385.73,-106.62 378.54,-114.4 389.02,-112.8 385.73,-106.62"/>
</g>
<!-- Node14 -->
<g id="node14" class="node">
<title>Node14</title>
<g id="a_node14"><a xlink:href="RPC__Request__Callback_8cpp.html" target="_top" xlink:title=" ">
<polygon fill="white" stroke="#666666" points="394,-74 239,-74 239,-55 394,-55 394,-74"/>
<text text-anchor="middle" x="316.5" y="-62" font-family="Helvetica,sans-Serif" font-size="10.00">src/RPC_Request_Callback.cpp</text>
</a>
</g>
</g>
<!-- Node12&#45;&gt;Node14 -->
<g id="edge14" class="edge">
<title>Node12&#45;&gt;Node14</title>
<path fill="none" stroke="#63b8ff" d="M347.32,-106.48C339.3,-95.81 329.4,-82.65 323.02,-74.17"/>
<polygon fill="#63b8ff" stroke="#63b8ff" points="344.29,-108.27 353.1,-114.16 349.88,-104.06 344.29,-108.27"/>
</g>
<!-- Node15&#45;&gt;Node6 -->
<g id="edge16" class="edge">
<title>Node15&#45;&gt;Node6</title>
<path fill="none" stroke="#63b8ff" d="M916.59,-170.6C922.3,-154.27 928.01,-130.37 922.5,-110 918.85,-96.53 910,-82.95 903.63,-74.4"/>
<polygon fill="#63b8ff" stroke="#63b8ff" points="913.46,-169 913.15,-179.59 920,-171.51 913.46,-169"/>
</g>
<!-- Node15&#45;&gt;Node7 -->
<g id="edge18" class="edge">
<title>Node15&#45;&gt;Node7</title>
<path fill="none" stroke="#63b8ff" d="M920.99,-171.89C935.23,-149.93 957.44,-111.2 964.5,-74 966.08,-65.7 966.57,-63.19 964.5,-55 961.15,-41.72 952.97,-28.1 947.09,-19.49"/>
<polygon fill="#63b8ff" stroke="#63b8ff" points="918.22,-169.73 915.58,-179.99 924.05,-173.62 918.22,-169.73"/>
</g>
<!-- Node15&#45;&gt;Node10 -->
<g id="edge19" class="edge">
<title>Node15&#45;&gt;Node10</title>
<path fill="none" stroke="#63b8ff" d="M908.55,-169.69C907.53,-151.86 903.29,-126.3 888.5,-110 866.98,-86.29 831.98,-75.21 804.48,-70.03"/>
<polygon fill="#63b8ff" stroke="#63b8ff" points="905.05,-169.64 908.8,-179.55 912.05,-169.47 905.05,-169.64"/>
</g>
<!-- Node15&#45;&gt;Node13 -->
<g id="edge17" class="edge">
<title>Node15&#45;&gt;Node13</title>
<path fill="none" stroke="#63b8ff" d="M852.9,-179.09C846.38,-177.97 839.8,-176.91 833.5,-176 755.45,-164.76 537.14,-194.86 480.5,-140 462.69,-122.75 465.81,-90.07 468.6,-74.36"/>
<polygon fill="#63b8ff" stroke="#63b8ff" points="851.84,-182.46 862.3,-180.76 853.06,-175.56 851.84,-182.46"/>
</g>
<!-- Node16 -->
<g id="node16" class="node">
<title>Node16</title>
<g id="a_node16"><a xlink:href="Server__Side__RPC_8h.html" target="_top" xlink:title=" ">
<polygon fill="white" stroke="#666666" points="880,-134.5 761,-134.5 761,-115.5 880,-115.5 880,-134.5"/>
<text text-anchor="middle" x="820.5" y="-122.5" font-family="Helvetica,sans-Serif" font-size="10.00">src/Server_Side_RPC.h</text>
</a>
</g>
</g>
<!-- Node15&#45;&gt;Node16 -->
<g id="edge20" class="edge">
<title>Node15&#45;&gt;Node16</title>
<path fill="none" stroke="#63b8ff" d="M887.04,-174.39C869.95,-161.96 846.64,-145.01 832.63,-134.82"/>
<polygon fill="#63b8ff" stroke="#63b8ff" points="884.89,-177.16 895.04,-180.21 889.01,-171.5 884.89,-177.16"/>
</g>
<!-- Node17 -->
<g id="node17" class="node">
<title>Node17</title>
<g id="a_node17"><a xlink:href="Shared__Attribute__Update_8h.html" target="_top" xlink:title=" ">
<polygon fill="white" stroke="#666666" points="1118.5,-140 1012.5,-140 1012.5,-110 1118.5,-110 1118.5,-140"/>
<text text-anchor="start" x="1020.5" y="-128" font-family="Helvetica,sans-Serif" font-size="10.00">src/Shared_Attribute</text>
<text text-anchor="middle" x="1065.5" y="-117" font-family="Helvetica,sans-Serif" font-size="10.00">_Update.h</text>
</a>
</g>
</g>
<!-- Node15&#45;&gt;Node17 -->
<g id="edge21" class="edge">
<title>Node15&#45;&gt;Node17</title>
<path fill="none" stroke="#63b8ff" d="M940.76,-176.85C966.73,-166.26 1003.19,-151.4 1029.98,-140.48"/>
<polygon fill="#63b8ff" stroke="#63b8ff" points="939.67,-173.51 931.73,-180.53 942.31,-180 939.67,-173.51"/>
</g>
<!-- Node18 -->
<g id="node18" class="node">
<title>Node18</title>
<g id="a_node18"><a xlink:href="ThingsBoard_8h.html" target="_top" xlink:title=" ">
<polygon fill="white" stroke="#666666" points="1232,-134.5 1137,-134.5 1137,-115.5 1232,-115.5 1232,-134.5"/>
<text text-anchor="middle" x="1184.5" y="-122.5" font-family="Helvetica,sans-Serif" font-size="10.00">src/ThingsBoard.h</text>
</a>
</g>
</g>
<!-- Node15&#45;&gt;Node18 -->
<g id="edge23" class="edge">
<title>Node15&#45;&gt;Node18</title>
<path fill="none" stroke="#63b8ff" d="M959.6,-178.58C1004.02,-168.6 1070.07,-153.61 1127.5,-140 1134.24,-138.4 1141.42,-136.67 1148.34,-134.98"/>
<polygon fill="#63b8ff" stroke="#63b8ff" points="958.98,-175.14 949.98,-180.74 960.51,-181.97 958.98,-175.14"/>
</g>
<!-- Node17&#45;&gt;Node7 -->
<g id="edge22" class="edge">
<title>Node17&#45;&gt;Node7</title>
<path fill="none" stroke="#63b8ff" d="M1044.94,-101.19C1032.07,-87.34 1014.87,-69.57 998.5,-55 983.52,-41.67 964.94,-27.84 952.91,-19.21"/>
<polygon fill="#63b8ff" stroke="#63b8ff" points="1042.35,-103.55 1051.7,-108.55 1047.51,-98.82 1042.35,-103.55"/>
</g>
<!-- Node19&#45;&gt;Node18 -->
<g id="edge25" class="edge">
<title>Node19&#45;&gt;Node18</title>
<path fill="none" stroke="#63b8ff" d="M1172.8,-170.05C1175.94,-158.24 1179.75,-143.87 1182.16,-134.82"/>
<polygon fill="#63b8ff" stroke="#63b8ff" points="1169.44,-169.07 1170.25,-179.64 1176.2,-170.87 1169.44,-169.07"/>
</g>
<!-- Node20&#45;&gt;Node8 -->
<g id="edge27" class="edge">
<title>Node20&#45;&gt;Node8</title>
<path fill="none" stroke="#63b8ff" d="M406.65,-178.08C361.68,-165.56 292.02,-146.18 251.58,-134.93"/>
<polygon fill="#63b8ff" stroke="#63b8ff" points="405.49,-181.39 416.06,-180.7 407.37,-174.64 405.49,-181.39"/>
</g>
<!-- Node21 -->
<g id="node21" class="node">
<title>Node21</title>
<g id="a_node21"><a xlink:href="OTA__Update__Callback_8cpp.html" target="_top" xlink:title=" ">
<polygon fill="white" stroke="#666666" points="151,-134.5 0,-134.5 0,-115.5 151,-115.5 151,-134.5"/>
<text text-anchor="middle" x="75.5" y="-122.5" font-family="Helvetica,sans-Serif" font-size="10.00">src/OTA_Update_Callback.cpp</text>
</a>
</g>
</g>
<!-- Node20&#45;&gt;Node21 -->
<g id="edge28" class="edge">
<title>Node20&#45;&gt;Node21</title>
<path fill="none" stroke="#63b8ff" d="M388.02,-179.06C382.1,-178.02 376.19,-176.99 370.5,-176 286.18,-161.38 188.21,-144.87 129.08,-134.96"/>
<polygon fill="#63b8ff" stroke="#63b8ff" points="387.41,-182.51 397.87,-180.79 388.63,-175.61 387.41,-182.51"/>
</g>
<!-- Node22&#45;&gt;Node16 -->
<g id="edge30" class="edge">
<title>Node22&#45;&gt;Node16</title>
<path fill="none" stroke="#63b8ff" d="M786.08,-171.9C795.17,-159.77 806.74,-144.34 813.88,-134.82"/>
<polygon fill="#63b8ff" stroke="#63b8ff" points="783.28,-169.79 780.08,-179.89 788.88,-173.99 783.28,-169.79"/>
</g>
<!-- Node23&#45;&gt;Node17 -->
<g id="edge32" class="edge">
<title>Node23&#45;&gt;Node17</title>
<path fill="none" stroke="#63b8ff" d="M1053.32,-164.97C1055.95,-156.55 1058.8,-147.45 1061.07,-140.16"/>
<polygon fill="#63b8ff" stroke="#63b8ff" points="1050.03,-163.76 1050.39,-174.35 1056.71,-165.85 1050.03,-163.76"/>
</g>
<!-- Node24&#45;&gt;Node15 -->
<g id="edge34" class="edge">
<title>Node24&#45;&gt;Node15</title>
<path fill="none" stroke="#63b8ff" d="M1051.18,-290.14C1016.15,-266.05 949.4,-220.14 921.39,-200.86"/>
<polygon fill="#63b8ff" stroke="#63b8ff" points="1049.08,-292.95 1059.31,-295.74 1053.05,-287.18 1049.08,-292.95"/>
</g>
<!-- Node24&#45;&gt;Node18 -->
<g id="edge39" class="edge">
<title>Node24&#45;&gt;Node18</title>
<path fill="none" stroke="#63b8ff" d="M1112.77,-292.57C1149.87,-278.01 1203.33,-250.4 1227.5,-206 1241.52,-180.24 1212.47,-149.68 1195.53,-134.9"/>
<polygon fill="#63b8ff" stroke="#63b8ff" points="1111.86,-289.17 1103.73,-295.97 1114.32,-295.72 1111.86,-289.17"/>
</g>
<!-- Node24&#45;&gt;Node19 -->
<g id="edge35" class="edge">
<title>Node24&#45;&gt;Node19</title>
<path fill="none" stroke="#63b8ff" d="M1088.06,-287.91C1108.44,-263.32 1144.68,-219.56 1160.16,-200.86"/>
<polygon fill="#63b8ff" stroke="#63b8ff" points="1085.52,-285.49 1081.84,-295.43 1090.92,-289.96 1085.52,-285.49"/>
</g>
<!-- Node25 -->
<g id="node25" class="node">
<title>Node25</title>
<g id="a_node25"><a xlink:href="IUpdater_8h.html" target="_top" xlink:title=" ">
<polygon fill="white" stroke="#666666" points="488.5,-261 410.5,-261 410.5,-242 488.5,-242 488.5,-261"/>
<text text-anchor="middle" x="449.5" y="-249" font-family="Helvetica,sans-Serif" font-size="10.00">src/IUpdater.h</text>
</a>
</g>
</g>
<!-- Node24&#45;&gt;Node25 -->
<g id="edge36" class="edge">
<title>Node24&#45;&gt;Node25</title>
<path fill="none" stroke="#63b8ff" d="M1011.59,-300.24C883.87,-289.39 594.32,-264.8 488.86,-255.84"/>
<polygon fill="#63b8ff" stroke="#63b8ff" points="1010.93,-303.7 1021.19,-301.06 1011.52,-296.72 1010.93,-303.7"/>
</g>
<!-- Node24&#45;&gt;Node27 -->
<g id="edge40" class="edge">
<title>Node24&#45;&gt;Node27</title>
<path fill="none" stroke="#63b8ff" d="M1128.3,-294.24C1175.92,-284.46 1243.97,-270.48 1287.95,-261.45"/>
<polygon fill="#63b8ff" stroke="#63b8ff" points="1127.84,-290.76 1118.75,-296.2 1129.25,-297.62 1127.84,-290.76"/>
</g>
<!-- Node25&#45;&gt;Node20 -->
<g id="edge37" class="edge">
<title>Node25&#45;&gt;Node20</title>
<path fill="none" stroke="#63b8ff" d="M449.5,-230.66C449.5,-220.45 449.5,-208.54 449.5,-200.67"/>
<polygon fill="#63b8ff" stroke="#63b8ff" points="446,-230.35 449.5,-240.35 453,-230.35 446,-230.35"/>
</g>
<!-- Node26 -->
<g id="node26" class="node">
<title>Node26</title>
<g id="a_node26"><a xlink:href="SDCard__Updater_8h.html" target="_top" xlink:title=" ">
<polygon fill="white" stroke="#666666" points="361.5,-200.5 247.5,-200.5 247.5,-181.5 361.5,-181.5 361.5,-200.5"/>
<text text-anchor="middle" x="304.5" y="-188.5" font-family="Helvetica,sans-Serif" font-size="10.00">src/SDCard_Updater.h</text>
</a>
</g>
</g>
<!-- Node25&#45;&gt;Node26 -->
<g id="edge38" class="edge">
<title>Node25&#45;&gt;Node26</title>
<path fill="none" stroke="#63b8ff" d="M416.81,-237.31C389.32,-226.22 350.77,-210.67 326.73,-200.97"/>
<polygon fill="#63b8ff" stroke="#63b8ff" points="415.49,-240.55 426.07,-241.05 418.11,-234.06 415.49,-240.55"/>
</g>
</g>
</svg>
