<?xml version="1.0" encoding="UTF-8" standalone="no"?>
<!DOCTYPE svg PUBLIC "-//W3C//DTD SVG 1.1//EN"
 "http://www.w3.org/Graphics/SVG/1.1/DTD/svg11.dtd">
<!-- Generated by graphviz version 7.0.5 (20221223.1930)
 -->
<!-- Title: src/IAPI_Implementation.h Pages: 1 -->
<svg width="495pt" height="247pt"
 viewBox="0.00 0.00 495.00 247.00" xmlns="http://www.w3.org/2000/svg" xmlns:xlink="http://www.w3.org/1999/xlink">
<g id="graph0" class="graph" transform="scale(1 1) rotate(0) translate(4 243)">
<title>src/IAPI_Implementation.h</title>
<!-- Node1 -->
<g id="node1" class="node">
<title>Node1</title>
<g id="a_node1"><a xlink:title=" ">
<polygon fill="#999999" stroke="#666666" points="322,-239 190,-239 190,-220 322,-220 322,-239"/>
<text text-anchor="middle" x="256" y="-227" font-family="Helvetica,sans-Serif" font-size="10.00">src/IAPI_Implementation.h</text>
</a>
</g>
</g>
<!-- Node2 -->
<g id="node2" class="node">
<title>Node2</title>
<g id="a_node2"><a xlink:href="Callback_8h.html" target="_top" xlink:title=" ">
<polygon fill="white" stroke="#666666" points="287,-184 225,-184 225,-165 287,-165 287,-184"/>
<text text-anchor="middle" x="256" y="-172" font-family="Helvetica,sans-Serif" font-size="10.00">Callback.h</text>
</a>
</g>
</g>
<!-- Node1&#45;&gt;Node2 -->
<g id="edge1" class="edge">
<title>Node1&#45;&gt;Node2</title>
<path fill="none" stroke="#63b8ff" d="M256,-219.75C256,-213.27 256,-204.16 256,-195.9"/>
<polygon fill="#63b8ff" stroke="#63b8ff" points="259.5,-195.96 256,-185.96 252.5,-195.96 259.5,-195.96"/>
</g>
<!-- Node13 -->
<g id="node13" class="node">
<title>Node13</title>
<g id="a_node13"><a xlink:href="Constants_8h.html" target="_top" xlink:title=" ">
<polygon fill="white" stroke="#666666" points="81,-74 13,-74 13,-55 81,-55 81,-74"/>
<text text-anchor="middle" x="47" y="-62" font-family="Helvetica,sans-Serif" font-size="10.00">Constants.h</text>
</a>
</g>
</g>
<!-- Node1&#45;&gt;Node13 -->
<g id="edge15" class="edge">
<title>Node1&#45;&gt;Node13</title>
<path fill="none" stroke="#63b8ff" d="M189.64,-221.33C160.66,-215.32 127.9,-204.28 104,-184 73.34,-157.99 57.89,-111.69 51.23,-85.32"/>
<polygon fill="#63b8ff" stroke="#63b8ff" points="54.72,-84.87 49.05,-75.93 47.9,-86.46 54.72,-84.87"/>
</g>
<!-- Node14 -->
<g id="node14" class="node">
<title>Node14</title>
<g id="a_node14"><a xlink:href="DefaultLogger_8h.html" target="_top" xlink:title=" ">
<polygon fill="white" stroke="#666666" points="197.5,-184 112.5,-184 112.5,-165 197.5,-165 197.5,-184"/>
<text text-anchor="middle" x="155" y="-172" font-family="Helvetica,sans-Serif" font-size="10.00">DefaultLogger.h</text>
</a>
</g>
</g>
<!-- Node1&#45;&gt;Node14 -->
<g id="edge17" class="edge">
<title>Node1&#45;&gt;Node14</title>
<path fill="none" stroke="#63b8ff" d="M238.87,-219.51C223.25,-211.31 199.92,-199.07 181.83,-189.58"/>
<polygon fill="#63b8ff" stroke="#63b8ff" points="183.7,-186.61 173.22,-185.06 180.45,-192.81 183.7,-186.61"/>
</g>
<!-- Node15 -->
<g id="node15" class="node">
<title>Node15</title>
<g id="a_node15"><a xlink:href="API__Process__Type_8h.html" target="_top" xlink:title=" ">
<polygon fill="white" stroke="#666666" points="413,-184 305,-184 305,-165 413,-165 413,-184"/>
<text text-anchor="middle" x="359" y="-172" font-family="Helvetica,sans-Serif" font-size="10.00">API_Process_Type.h</text>
</a>
</g>
</g>
<!-- Node1&#45;&gt;Node15 -->
<g id="edge19" class="edge">
<title>Node1&#45;&gt;Node15</title>
<path fill="none" stroke="#63b8ff" d="M273.47,-219.51C289.4,-211.31 313.19,-199.07 331.64,-189.58"/>
<polygon fill="#63b8ff" stroke="#63b8ff" points="333.15,-192.74 340.44,-185.05 329.95,-186.51 333.15,-192.74"/>
</g>
<!-- Node17 -->
<g id="node17" class="node">
<title>Node17</title>
<g id="a_node17"><a xlink:title=" ">
<polygon fill="#e0e0e0" stroke="#999999" points="487,-184 431,-184 431,-165 487,-165 487,-184"/>
<text text-anchor="middle" x="459" y="-172" font-family="Helvetica,sans-Serif" font-size="10.00">algorithm</text>
</a>
</g>
</g>
<!-- Node1&#45;&gt;Node17 -->
<g id="edge21" class="edge">
<title>Node1&#45;&gt;Node17</title>
<path fill="none" stroke="#63b8ff" d="M290.44,-219.51C326.21,-210.17 382.11,-195.57 419.62,-185.78"/>
<polygon fill="#63b8ff" stroke="#63b8ff" points="420.37,-189.2 429.16,-183.29 418.6,-182.43 420.37,-189.2"/>
</g>
<!-- Node3 -->
<g id="node3" class="node">
<title>Node3</title>
<g id="a_node3"><a xlink:href="Configuration_8h.html" target="_top" xlink:title=" ">
<polygon fill="white" stroke="#666666" points="80,-19 0,-19 0,0 80,0 80,-19"/>
<text text-anchor="middle" x="40" y="-7" font-family="Helvetica,sans-Serif" font-size="10.00">Configuration.h</text>
</a>
</g>
</g>
<!-- Node2&#45;&gt;Node3 -->
<g id="edge2" class="edge">
<title>Node2&#45;&gt;Node3</title>
<path fill="none" stroke="#63b8ff" d="M233.09,-164.54C214.21,-156.61 187.2,-144 166,-129 127.51,-101.78 124.51,-87.12 90,-55 79.79,-45.5 68.17,-35.13 58.7,-26.79"/>
<polygon fill="#63b8ff" stroke="#63b8ff" points="61.05,-24.19 51.22,-20.23 56.43,-29.46 61.05,-24.19"/>
</g>
<!-- Node4 -->
<g id="node4" class="node">
<title>Node4</title>
<g id="a_node4"><a xlink:href="Array_8h.html" target="_top" xlink:title=" ">
<polygon fill="white" stroke="#666666" points="221.5,-129 174.5,-129 174.5,-110 221.5,-110 221.5,-129"/>
<text text-anchor="middle" x="198" y="-117" font-family="Helvetica,sans-Serif" font-size="10.00">Array.h</text>
</a>
</g>
</g>
<!-- Node2&#45;&gt;Node4 -->
<g id="edge3" class="edge">
<title>Node2&#45;&gt;Node4</title>
<path fill="none" stroke="#63b8ff" d="M246.16,-164.51C237.95,-157 226.02,-146.1 216.09,-137.03"/>
<polygon fill="#63b8ff" stroke="#63b8ff" points="218.55,-134.54 208.81,-130.38 213.83,-139.71 218.55,-134.54"/>
</g>
<!-- Node6 -->
<g id="node6" class="node">
<title>Node6</title>
<g id="a_node6"><a xlink:title=" ">
<polygon fill="#e0e0e0" stroke="#999999" points="443,-19 365,-19 365,0 443,0 443,-19"/>
<text text-anchor="middle" x="404" y="-7" font-family="Helvetica,sans-Serif" font-size="10.00">ArduinoJson.h</text>
</a>
</g>
</g>
<!-- Node2&#45;&gt;Node6 -->
<g id="edge12" class="edge">
<title>Node2&#45;&gt;Node6</title>
<path fill="none" stroke="#63b8ff" d="M287.24,-164.72C316.88,-155.8 358.55,-141.56 370,-129 395.16,-101.39 401.82,-56.36 403.51,-30.48"/>
<polygon fill="#63b8ff" stroke="#63b8ff" points="406.99,-30.84 403.94,-20.7 400,-30.54 406.99,-30.84"/>
</g>
<!-- Node11 -->
<g id="node11" class="node">
<title>Node11</title>
<g id="a_node11"><a xlink:title=" ">
<polygon fill="#e0e0e0" stroke="#999999" points="298.5,-129 239.5,-129 239.5,-110 298.5,-110 298.5,-129"/>
<text text-anchor="middle" x="269" y="-117" font-family="Helvetica,sans-Serif" font-size="10.00">functional</text>
</a>
</g>
</g>
<!-- Node2&#45;&gt;Node11 -->
<g id="edge13" class="edge">
<title>Node2&#45;&gt;Node11</title>
<path fill="none" stroke="#63b8ff" d="M258.15,-164.75C259.76,-158.19 262.02,-148.95 264.07,-140.6"/>
<polygon fill="#63b8ff" stroke="#63b8ff" points="267.46,-141.46 266.45,-130.91 260.66,-139.79 267.46,-141.46"/>
</g>
<!-- Node12 -->
<g id="node12" class="node">
<title>Node12</title>
<g id="a_node12"><a xlink:title=" ">
<polygon fill="#e0e0e0" stroke="#999999" points="361,-129 317,-129 317,-110 361,-110 361,-129"/>
<text text-anchor="middle" x="339" y="-117" font-family="Helvetica,sans-Serif" font-size="10.00">vector</text>
</a>
</g>
</g>
<!-- Node2&#45;&gt;Node12 -->
<g id="edge14" class="edge">
<title>Node2&#45;&gt;Node12</title>
<path fill="none" stroke="#63b8ff" d="M270.08,-164.51C282.56,-156.54 301.02,-144.75 315.69,-135.38"/>
<polygon fill="#63b8ff" stroke="#63b8ff" points="317.31,-138.5 323.85,-130.17 313.54,-132.6 317.31,-138.5"/>
</g>
<!-- Node5 -->
<g id="node5" class="node">
<title>Node5</title>
<g id="a_node5"><a xlink:href="Helper_8h.html" target="_top" xlink:title=" ">
<polygon fill="white" stroke="#666666" points="226.5,-74 173.5,-74 173.5,-55 226.5,-55 226.5,-74"/>
<text text-anchor="middle" x="200" y="-62" font-family="Helvetica,sans-Serif" font-size="10.00">Helper.h</text>
</a>
</g>
</g>
<!-- Node4&#45;&gt;Node5 -->
<g id="edge4" class="edge">
<title>Node4&#45;&gt;Node5</title>
<path fill="none" stroke="#63b8ff" d="M198.33,-109.75C198.57,-103.27 198.92,-94.16 199.23,-85.9"/>
<polygon fill="#63b8ff" stroke="#63b8ff" points="202.73,-86.08 199.61,-75.95 195.73,-85.82 202.73,-86.08"/>
</g>
<!-- Node8 -->
<g id="node8" class="node">
<title>Node8</title>
<g id="a_node8"><a xlink:title=" ">
<polygon fill="#e0e0e0" stroke="#999999" points="346.5,-19 295.5,-19 295.5,0 346.5,0 346.5,-19"/>
<text text-anchor="middle" x="321" y="-7" font-family="Helvetica,sans-Serif" font-size="10.00">assert.h</text>
</a>
</g>
</g>
<!-- Node4&#45;&gt;Node8 -->
<g id="edge11" class="edge">
<title>Node4&#45;&gt;Node8</title>
<path fill="none" stroke="#63b8ff" d="M208.07,-109.66C228.7,-91.55 276.06,-49.96 302.42,-26.81"/>
<polygon fill="#63b8ff" stroke="#63b8ff" points="304.45,-29.69 309.66,-20.46 299.83,-24.43 304.45,-29.69"/>
</g>
<!-- Node5&#45;&gt;Node3 -->
<g id="edge5" class="edge">
<title>Node5&#45;&gt;Node3</title>
<path fill="none" stroke="#63b8ff" d="M173.22,-54.63C147.11,-45.98 107.16,-32.75 77.81,-23.03"/>
<polygon fill="#63b8ff" stroke="#63b8ff" points="79.17,-19.79 68.57,-19.96 76.96,-26.43 79.17,-19.79"/>
</g>
<!-- Node5&#45;&gt;Node6 -->
<g id="edge6" class="edge">
<title>Node5&#45;&gt;Node6</title>
<path fill="none" stroke="#63b8ff" d="M226.67,-56.57C260.14,-47.88 318.05,-32.83 358.55,-22.31"/>
<polygon fill="#63b8ff" stroke="#63b8ff" points="359.22,-25.75 368.02,-19.85 357.46,-18.97 359.22,-25.75"/>
</g>
<!-- Node7 -->
<g id="node7" class="node">
<title>Node7</title>
<g id="a_node7"><a xlink:title=" ">
<polygon fill="#e0e0e0" stroke="#999999" points="208.5,-19 161.5,-19 161.5,0 208.5,0 208.5,-19"/>
<text text-anchor="middle" x="185" y="-7" font-family="Helvetica,sans-Serif" font-size="10.00">iterator</text>
</a>
</g>
</g>
<!-- Node5&#45;&gt;Node7 -->
<g id="edge7" class="edge">
<title>Node5&#45;&gt;Node7</title>
<path fill="none" stroke="#63b8ff" d="M197.52,-54.75C195.65,-48.11 192.99,-38.73 190.61,-30.31"/>
<polygon fill="#63b8ff" stroke="#63b8ff" points="194.03,-29.57 187.94,-20.9 187.3,-31.47 194.03,-29.57"/>
</g>
<!-- Node5&#45;&gt;Node8 -->
<g id="edge8" class="edge">
<title>Node5&#45;&gt;Node8</title>
<path fill="none" stroke="#63b8ff" d="M220.53,-54.51C239.68,-46.12 268.5,-33.5 290.37,-23.92"/>
<polygon fill="#63b8ff" stroke="#63b8ff" points="291.64,-27.18 299.39,-19.97 288.83,-20.77 291.64,-27.18"/>
</g>
<!-- Node9 -->
<g id="node9" class="node">
<title>Node9</title>
<g id="a_node9"><a xlink:title=" ">
<polygon fill="#e0e0e0" stroke="#999999" points="277.5,-19 226.5,-19 226.5,0 277.5,0 277.5,-19"/>
<text text-anchor="middle" x="252" y="-7" font-family="Helvetica,sans-Serif" font-size="10.00">stdarg.h</text>
</a>
</g>
</g>
<!-- Node5&#45;&gt;Node9 -->
<g id="edge9" class="edge">
<title>Node5&#45;&gt;Node9</title>
<path fill="none" stroke="#63b8ff" d="M208.59,-54.75C215.84,-47.35 226.45,-36.54 235.37,-27.45"/>
<polygon fill="#63b8ff" stroke="#63b8ff" points="237.66,-30.11 242.17,-20.52 232.66,-25.21 237.66,-30.11"/>
</g>
<!-- Node10 -->
<g id="node10" class="node">
<title>Node10</title>
<g id="a_node10"><a xlink:title=" ">
<polygon fill="#e0e0e0" stroke="#999999" points="143.5,-19 98.5,-19 98.5,0 143.5,0 143.5,-19"/>
<text text-anchor="middle" x="121" y="-7" font-family="Helvetica,sans-Serif" font-size="10.00">stdio.h</text>
</a>
</g>
</g>
<!-- Node5&#45;&gt;Node10 -->
<g id="edge10" class="edge">
<title>Node5&#45;&gt;Node10</title>
<path fill="none" stroke="#63b8ff" d="M186.6,-54.51C174.84,-46.62 157.49,-34.98 143.59,-25.65"/>
<polygon fill="#63b8ff" stroke="#63b8ff" points="145.71,-22.87 135.46,-20.2 141.81,-28.68 145.71,-22.87"/>
</g>
<!-- Node13&#45;&gt;Node3 -->
<g id="edge16" class="edge">
<title>Node13&#45;&gt;Node3</title>
<path fill="none" stroke="#63b8ff" d="M45.84,-54.75C44.98,-48.19 43.76,-38.95 42.66,-30.6"/>
<polygon fill="#63b8ff" stroke="#63b8ff" points="46.16,-30.4 41.38,-20.94 39.22,-31.31 46.16,-30.4"/>
</g>
<!-- Node14&#45;&gt;Node5 -->
<g id="edge18" class="edge">
<title>Node14&#45;&gt;Node5</title>
<path fill="none" stroke="#63b8ff" d="M155.2,-164.91C155.77,-152.35 157.94,-128.45 166,-110 170.32,-100.12 177.28,-90.45 183.78,-82.66"/>
<polygon fill="#63b8ff" stroke="#63b8ff" points="186.25,-85.14 190.27,-75.34 181.01,-80.5 186.25,-85.14"/>
</g>
<!-- Node16 -->
<g id="node16" class="node">
<title>Node16</title>
<g id="a_node16"><a xlink:title=" ">
<polygon fill="#e0e0e0" stroke="#999999" points="465,-129 417,-129 417,-110 465,-110 465,-129"/>
<text text-anchor="middle" x="441" y="-117" font-family="Helvetica,sans-Serif" font-size="10.00">stdint.h</text>
</a>
</g>
</g>
<!-- Node15&#45;&gt;Node16 -->
<g id="edge20" class="edge">
<title>Node15&#45;&gt;Node16</title>
<path fill="none" stroke="#63b8ff" d="M372.91,-164.51C385.24,-156.54 403.47,-144.75 417.97,-135.38"/>
<polygon fill="#63b8ff" stroke="#63b8ff" points="419.53,-138.55 426.02,-130.18 415.73,-132.67 419.53,-138.55"/>
</g>
</g>
</svg>
