<?xml version="1.0" encoding="UTF-8" standalone="no"?>
<!DOCTYPE svg PUBLIC "-//W3C//DTD SVG 1.1//EN"
 "http://www.w3.org/Graphics/SVG/1.1/DTD/svg11.dtd">
<!-- Generated by graphviz version 7.0.5 (20221223.1930)
 -->
<!-- Title: src/IMQTT_Client.h Pages: 1 -->
<svg width="451pt" height="247pt"
 viewBox="0.00 0.00 451.00 247.00" xmlns="http://www.w3.org/2000/svg" xmlns:xlink="http://www.w3.org/1999/xlink">
<g id="graph0" class="graph" transform="scale(1 1) rotate(0) translate(4 243)">
<title>src/IMQTT_Client.h</title>
<!-- Node1 -->
<g id="node1" class="node">
<title>Node1</title>
<g id="a_node1"><a xlink:title=" ">
<polygon fill="#999999" stroke="#666666" points="322.5,-239 221.5,-239 221.5,-220 322.5,-220 322.5,-239"/>
<text text-anchor="middle" x="272" y="-227" font-family="Helvetica,sans-Serif" font-size="10.00">src/IMQTT_Client.h</text>
</a>
</g>
</g>
<!-- Node2 -->
<g id="node2" class="node">
<title>Node2</title>
<g id="a_node2"><a xlink:href="Callback_8h.html" target="_top" xlink:title=" ">
<polygon fill="white" stroke="#666666" points="257,-184 195,-184 195,-165 257,-165 257,-184"/>
<text text-anchor="middle" x="226" y="-172" font-family="Helvetica,sans-Serif" font-size="10.00">Callback.h</text>
</a>
</g>
</g>
<!-- Node1&#45;&gt;Node2 -->
<g id="edge1" class="edge">
<title>Node1&#45;&gt;Node2</title>
<path fill="none" stroke="#63b8ff" d="M264.4,-219.75C258.12,-212.5 248.99,-201.98 241.2,-193.02"/>
<polygon fill="#63b8ff" stroke="#63b8ff" points="243.95,-190.84 234.75,-185.59 238.66,-195.43 243.95,-190.84"/>
</g>
<!-- Node13 -->
<g id="node13" class="node">
<title>Node13</title>
<g id="a_node13"><a xlink:href="DefaultLogger_8h.html" target="_top" xlink:title=" ">
<polygon fill="white" stroke="#666666" points="376.5,-184 291.5,-184 291.5,-165 376.5,-165 376.5,-184"/>
<text text-anchor="middle" x="334" y="-172" font-family="Helvetica,sans-Serif" font-size="10.00">DefaultLogger.h</text>
</a>
</g>
</g>
<!-- Node1&#45;&gt;Node13 -->
<g id="edge15" class="edge">
<title>Node1&#45;&gt;Node13</title>
<path fill="none" stroke="#63b8ff" d="M282.52,-219.51C291.39,-211.93 304.31,-200.88 314.99,-191.75"/>
<polygon fill="#63b8ff" stroke="#63b8ff" points="317.16,-194.5 322.49,-185.34 312.61,-189.18 317.16,-194.5"/>
</g>
<!-- Node3 -->
<g id="node3" class="node">
<title>Node3</title>
<g id="a_node3"><a xlink:href="Configuration_8h.html" target="_top" xlink:title=" ">
<polygon fill="white" stroke="#666666" points="443,-19 363,-19 363,0 443,0 443,-19"/>
<text text-anchor="middle" x="403" y="-7" font-family="Helvetica,sans-Serif" font-size="10.00">Configuration.h</text>
</a>
</g>
</g>
<!-- Node2&#45;&gt;Node3 -->
<g id="edge2" class="edge">
<title>Node2&#45;&gt;Node3</title>
<path fill="none" stroke="#63b8ff" d="M241.89,-164.63C256.19,-156.3 277.43,-143.05 294,-129 331.85,-96.9 369.63,-52.33 389.23,-28.03"/>
<polygon fill="#63b8ff" stroke="#63b8ff" points="391.81,-30.4 395.3,-20.4 386.33,-26.04 391.81,-30.4"/>
</g>
<!-- Node4 -->
<g id="node4" class="node">
<title>Node4</title>
<g id="a_node4"><a xlink:href="Array_8h.html" target="_top" xlink:title=" ">
<polygon fill="white" stroke="#666666" points="145.5,-129 98.5,-129 98.5,-110 145.5,-110 145.5,-129"/>
<text text-anchor="middle" x="122" y="-117" font-family="Helvetica,sans-Serif" font-size="10.00">Array.h</text>
</a>
</g>
</g>
<!-- Node2&#45;&gt;Node4 -->
<g id="edge3" class="edge">
<title>Node2&#45;&gt;Node4</title>
<path fill="none" stroke="#63b8ff" d="M208.36,-164.51C192.27,-156.31 168.25,-144.07 149.63,-134.58"/>
<polygon fill="#63b8ff" stroke="#63b8ff" points="151.23,-131.47 140.73,-130.05 148.05,-137.7 151.23,-131.47"/>
</g>
<!-- Node6 -->
<g id="node6" class="node">
<title>Node6</title>
<g id="a_node6"><a xlink:title=" ">
<polygon fill="#e0e0e0" stroke="#999999" points="78,-19 0,-19 0,0 78,0 78,-19"/>
<text text-anchor="middle" x="39" y="-7" font-family="Helvetica,sans-Serif" font-size="10.00">ArduinoJson.h</text>
</a>
</g>
</g>
<!-- Node2&#45;&gt;Node6 -->
<g id="edge12" class="edge">
<title>Node2&#45;&gt;Node6</title>
<path fill="none" stroke="#63b8ff" d="M194.51,-170.76C164.04,-166.55 118.29,-155.89 89,-129 60.17,-102.52 47.38,-56.74 42.18,-30.5"/>
<polygon fill="#63b8ff" stroke="#63b8ff" points="45.66,-30.09 40.46,-20.86 38.77,-31.32 45.66,-30.09"/>
</g>
<!-- Node11 -->
<g id="node11" class="node">
<title>Node11</title>
<g id="a_node11"><a xlink:title=" ">
<polygon fill="#e0e0e0" stroke="#999999" points="222.5,-129 163.5,-129 163.5,-110 222.5,-110 222.5,-129"/>
<text text-anchor="middle" x="193" y="-117" font-family="Helvetica,sans-Serif" font-size="10.00">functional</text>
</a>
</g>
</g>
<!-- Node2&#45;&gt;Node11 -->
<g id="edge13" class="edge">
<title>Node2&#45;&gt;Node11</title>
<path fill="none" stroke="#63b8ff" d="M220.55,-164.75C216.23,-157.81 210.04,-147.86 204.62,-139.16"/>
<polygon fill="#63b8ff" stroke="#63b8ff" points="207.62,-137.37 199.37,-130.73 201.68,-141.07 207.62,-137.37"/>
</g>
<!-- Node12 -->
<g id="node12" class="node">
<title>Node12</title>
<g id="a_node12"><a xlink:title=" ">
<polygon fill="#e0e0e0" stroke="#999999" points="285,-129 241,-129 241,-110 285,-110 285,-129"/>
<text text-anchor="middle" x="263" y="-117" font-family="Helvetica,sans-Serif" font-size="10.00">vector</text>
</a>
</g>
</g>
<!-- Node2&#45;&gt;Node12 -->
<g id="edge14" class="edge">
<title>Node2&#45;&gt;Node12</title>
<path fill="none" stroke="#63b8ff" d="M232.11,-164.75C237.01,-157.73 244.05,-147.64 250.17,-138.87"/>
<polygon fill="#63b8ff" stroke="#63b8ff" points="253.04,-140.89 255.89,-130.68 247.3,-136.88 253.04,-140.89"/>
</g>
<!-- Node5 -->
<g id="node5" class="node">
<title>Node5</title>
<g id="a_node5"><a xlink:href="Helper_8h.html" target="_top" xlink:title=" ">
<polygon fill="white" stroke="#666666" points="246.5,-74 193.5,-74 193.5,-55 246.5,-55 246.5,-74"/>
<text text-anchor="middle" x="220" y="-62" font-family="Helvetica,sans-Serif" font-size="10.00">Helper.h</text>
</a>
</g>
</g>
<!-- Node4&#45;&gt;Node5 -->
<g id="edge4" class="edge">
<title>Node4&#45;&gt;Node5</title>
<path fill="none" stroke="#63b8ff" d="M138.62,-109.51C153.78,-101.31 176.42,-89.07 193.97,-79.58"/>
<polygon fill="#63b8ff" stroke="#63b8ff" points="195.16,-82.91 202.29,-75.08 191.83,-76.76 195.16,-82.91"/>
</g>
<!-- Node8 -->
<g id="node8" class="node">
<title>Node8</title>
<g id="a_node8"><a xlink:title=" ">
<polygon fill="#e0e0e0" stroke="#999999" points="147.5,-19 96.5,-19 96.5,0 147.5,0 147.5,-19"/>
<text text-anchor="middle" x="122" y="-7" font-family="Helvetica,sans-Serif" font-size="10.00">assert.h</text>
</a>
</g>
</g>
<!-- Node4&#45;&gt;Node8 -->
<g id="edge11" class="edge">
<title>Node4&#45;&gt;Node8</title>
<path fill="none" stroke="#63b8ff" d="M122,-109.66C122,-92.57 122,-54.61 122,-30.92"/>
<polygon fill="#63b8ff" stroke="#63b8ff" points="125.5,-30.97 122,-20.97 118.5,-30.97 125.5,-30.97"/>
</g>
<!-- Node5&#45;&gt;Node3 -->
<g id="edge5" class="edge">
<title>Node5&#45;&gt;Node3</title>
<path fill="none" stroke="#63b8ff" d="M246.61,-55.79C276.66,-47.09 325.96,-32.81 361.18,-22.61"/>
<polygon fill="#63b8ff" stroke="#63b8ff" points="361.99,-26.02 370.62,-19.88 360.04,-19.3 361.99,-26.02"/>
</g>
<!-- Node5&#45;&gt;Node6 -->
<g id="edge6" class="edge">
<title>Node5&#45;&gt;Node6</title>
<path fill="none" stroke="#63b8ff" d="M193.29,-55.68C163.48,-46.95 114.87,-32.72 80.18,-22.56"/>
<polygon fill="#63b8ff" stroke="#63b8ff" points="81.48,-19.29 70.9,-19.84 79.51,-26.01 81.48,-19.29"/>
</g>
<!-- Node7 -->
<g id="node7" class="node">
<title>Node7</title>
<g id="a_node7"><a xlink:title=" ">
<polygon fill="#e0e0e0" stroke="#999999" points="275.5,-19 228.5,-19 228.5,0 275.5,0 275.5,-19"/>
<text text-anchor="middle" x="252" y="-7" font-family="Helvetica,sans-Serif" font-size="10.00">iterator</text>
</a>
</g>
</g>
<!-- Node5&#45;&gt;Node7 -->
<g id="edge7" class="edge">
<title>Node5&#45;&gt;Node7</title>
<path fill="none" stroke="#63b8ff" d="M225.28,-54.75C229.47,-47.81 235.48,-37.86 240.73,-29.16"/>
<polygon fill="#63b8ff" stroke="#63b8ff" points="243.65,-31.11 245.82,-20.74 237.65,-27.49 243.65,-31.11"/>
</g>
<!-- Node5&#45;&gt;Node8 -->
<g id="edge8" class="edge">
<title>Node5&#45;&gt;Node8</title>
<path fill="none" stroke="#63b8ff" d="M203.38,-54.51C188.22,-46.31 165.58,-34.07 148.03,-24.58"/>
<polygon fill="#63b8ff" stroke="#63b8ff" points="150.17,-21.76 139.71,-20.08 146.84,-27.91 150.17,-21.76"/>
</g>
<!-- Node9 -->
<g id="node9" class="node">
<title>Node9</title>
<g id="a_node9"><a xlink:title=" ">
<polygon fill="#e0e0e0" stroke="#999999" points="344.5,-19 293.5,-19 293.5,0 344.5,0 344.5,-19"/>
<text text-anchor="middle" x="319" y="-7" font-family="Helvetica,sans-Serif" font-size="10.00">stdarg.h</text>
</a>
</g>
</g>
<!-- Node5&#45;&gt;Node9 -->
<g id="edge9" class="edge">
<title>Node5&#45;&gt;Node9</title>
<path fill="none" stroke="#63b8ff" d="M236.79,-54.51C252.1,-46.31 274.97,-34.07 292.7,-24.58"/>
<polygon fill="#63b8ff" stroke="#63b8ff" points="293.96,-27.88 301.12,-20.07 290.65,-21.71 293.96,-27.88"/>
</g>
<!-- Node10 -->
<g id="node10" class="node">
<title>Node10</title>
<g id="a_node10"><a xlink:title=" ">
<polygon fill="#e0e0e0" stroke="#999999" points="210.5,-19 165.5,-19 165.5,0 210.5,0 210.5,-19"/>
<text text-anchor="middle" x="188" y="-7" font-family="Helvetica,sans-Serif" font-size="10.00">stdio.h</text>
</a>
</g>
</g>
<!-- Node5&#45;&gt;Node10 -->
<g id="edge10" class="edge">
<title>Node5&#45;&gt;Node10</title>
<path fill="none" stroke="#63b8ff" d="M214.72,-54.75C210.53,-47.81 204.52,-37.86 199.27,-29.16"/>
<polygon fill="#63b8ff" stroke="#63b8ff" points="202.35,-27.49 194.18,-20.74 196.35,-31.11 202.35,-27.49"/>
</g>
<!-- Node13&#45;&gt;Node5 -->
<g id="edge16" class="edge">
<title>Node13&#45;&gt;Node5</title>
<path fill="none" stroke="#63b8ff" d="M330.15,-164.81C324.01,-151.69 310.94,-126.59 294,-110 281.33,-97.59 264.57,-87.15 250.2,-79.51"/>
<polygon fill="#63b8ff" stroke="#63b8ff" points="252.11,-76.55 241.61,-75.13 248.93,-82.79 252.11,-76.55"/>
</g>
</g>
</svg>
