<?xml version="1.0" encoding="UTF-8" standalone="no"?>
<!DOCTYPE svg PUBLIC "-//W3C//DTD SVG 1.1//EN"
 "http://www.w3.org/Graphics/SVG/1.1/DTD/svg11.dtd">
<!-- Generated by graphviz version 7.0.5 (20221223.1930)
 -->
<!-- Title: Graphical Class Hierarchy Pages: 1 -->
<svg width="316pt" height="64pt"
 viewBox="0.00 0.00 316.00 64.00" xmlns="http://www.w3.org/2000/svg" xmlns:xlink="http://www.w3.org/1999/xlink">
<g id="graph0" class="graph" transform="scale(1 1) rotate(0) translate(4 60)">
<title>Graphical Class Hierarchy</title>
<!-- Node0 -->
<g id="node1" class="node">
<title>Node0</title>
<g id="a_node1"><a xlink:href="classCallback.html" target="_top" xlink:title=" ">
<polygon fill="white" stroke="#666666" points="151,-42.5 0,-42.5 0,-12.5 151,-12.5 151,-42.5"/>
<text text-anchor="start" x="8" y="-30.5" font-family="Helvetica,sans-Serif" font-size="10.00">Callback&lt; void, JsonDocument</text>
<text text-anchor="middle" x="75.5" y="-19.5" font-family="Helvetica,sans-Serif" font-size="10.00"> const &amp; &gt;</text>
</a>
</g>
</g>
<!-- Node1 -->
<g id="node2" class="node">
<title>Node1</title>
<g id="a_node2"><a xlink:href="classProvision__Callback.html" target="_top" xlink:title="Provisioning callback wrapper, contains the needed configuration settings to create the request that ...">
<polygon fill="white" stroke="#666666" points="297.5,-56 197.5,-56 197.5,-37 297.5,-37 297.5,-56"/>
<text text-anchor="middle" x="247.5" y="-44" font-family="Helvetica,sans-Serif" font-size="10.00">Provision_Callback</text>
</a>
</g>
</g>
<!-- Node0&#45;&gt;Node1 -->
<g id="edge1" class="edge">
<title>Node0&#45;&gt;Node1</title>
<path fill="none" stroke="#63b8ff" d="M162.16,-37.07C174.26,-38.43 186.34,-39.78 197.43,-41.02"/>
<polygon fill="#63b8ff" stroke="#63b8ff" points="162.9,-33.63 152.57,-36 162.12,-40.59 162.9,-33.63"/>
</g>
<!-- Node2 -->
<g id="node3" class="node">
<title>Node2</title>
<g id="a_node3"><a xlink:href="classRPC__Request__Callback.html" target="_top" xlink:title="Client&#45;side RPC callback wrapper, contains the needed configuration settings to create the request th...">
<polygon fill="white" stroke="#666666" points="308,-19 187,-19 187,0 308,0 308,-19"/>
<text text-anchor="middle" x="247.5" y="-7" font-family="Helvetica,sans-Serif" font-size="10.00">RPC_Request_Callback</text>
</a>
</g>
</g>
<!-- Node0&#45;&gt;Node2 -->
<g id="edge2" class="edge">
<title>Node0&#45;&gt;Node2</title>
<path fill="none" stroke="#63b8ff" d="M162.24,-18.42C170.45,-17.55 178.66,-16.68 186.54,-15.85"/>
<polygon fill="#63b8ff" stroke="#63b8ff" points="162.15,-14.91 152.57,-19.45 162.88,-21.87 162.15,-14.91"/>
</g>
</g>
</svg>
