<?xml version="1.0" encoding="UTF-8" standalone="no"?>
<!DOCTYPE svg PUBLIC "-//W3C//DTD SVG 1.1//EN"
 "http://www.w3.org/Graphics/SVG/1.1/DTD/svg11.dtd">
<!-- Generated by graphviz version 7.0.5 (20221223.1930)
 -->
<!-- Title: Graphical Class Hierarchy Pages: 1 -->
<svg width="336pt" height="409pt"
 viewBox="0.00 0.00 336.00 409.00" xmlns="http://www.w3.org/2000/svg" xmlns:xlink="http://www.w3.org/1999/xlink">
<g id="graph0" class="graph" transform="scale(1 1) rotate(0) translate(4 405)">
<title>Graphical Class Hierarchy</title>
<!-- Node0 -->
<g id="node1" class="node">
<title>Node0</title>
<g id="a_node1"><a xlink:href="classIAPI__Implementation.html" target="_top" xlink:title="Base functionality required by all API implementation.">
<polygon fill="white" stroke="#666666" points="108,-194 0,-194 0,-175 108,-175 108,-194"/>
<text text-anchor="middle" x="54" y="-182" font-family="Helvetica,sans-Serif" font-size="10.00">IAPI_Implementation</text>
</a>
</g>
</g>
<!-- Node1 -->
<g id="node2" class="node">
<title>Node1</title>
<g id="a_node2"><a xlink:href="classAttribute__Request.html" target="_top" xlink:title=" ">
<polygon fill="white" stroke="#666666" points="310.5,-401 161.5,-401 161.5,-360 310.5,-360 310.5,-401"/>
<text text-anchor="start" x="169.5" y="-389" font-family="Helvetica,sans-Serif" font-size="10.00">Attribute_Request&lt;</text>
<text text-anchor="start" x="169.5" y="-378" font-family="Helvetica,sans-Serif" font-size="10.00"> 1U, OTA_ATTRIBUTE_KEYS</text>
<text text-anchor="middle" x="236" y="-367" font-family="Helvetica,sans-Serif" font-size="10.00">_AMOUNT, DefaultLogger &gt;</text>
</a>
</g>
</g>
<!-- Node0&#45;&gt;Node1 -->
<g id="edge1" class="edge">
<title>Node0&#45;&gt;Node1</title>
<path fill="none" stroke="#63b8ff" d="M60.48,-205.3C70.84,-240.54 96.59,-311.99 144,-351.5 149.22,-355.85 155.11,-359.56 161.31,-362.7"/>
<polygon fill="#63b8ff" stroke="#63b8ff" points="63.92,-204.61 57.86,-195.92 57.18,-206.49 63.92,-204.61"/>
</g>
<!-- Node2 -->
<g id="node3" class="node">
<title>Node2</title>
<g id="a_node3"><a xlink:href="classShared__Attribute__Update.html" target="_top" xlink:title=" ">
<polygon fill="white" stroke="#666666" points="313.5,-342 158.5,-342 158.5,-301 313.5,-301 313.5,-342"/>
<text text-anchor="start" x="166.5" y="-330" font-family="Helvetica,sans-Serif" font-size="10.00">Shared_Attribute_Update</text>
<text text-anchor="start" x="166.5" y="-319" font-family="Helvetica,sans-Serif" font-size="10.00">&lt; 1U, OTA_ATTRIBUTE_KEYS</text>
<text text-anchor="middle" x="236" y="-308" font-family="Helvetica,sans-Serif" font-size="10.00">_AMOUNT, DefaultLogger &gt;</text>
</a>
</g>
</g>
<!-- Node0&#45;&gt;Node2 -->
<g id="edge2" class="edge">
<title>Node0&#45;&gt;Node2</title>
<path fill="none" stroke="#63b8ff" d="M66.36,-204.31C81.21,-228.52 109.45,-269.12 144,-292.5 148.39,-295.47 153.11,-298.16 158,-300.58"/>
<polygon fill="#63b8ff" stroke="#63b8ff" points="69.39,-202.57 61.27,-195.77 63.38,-206.15 69.39,-202.57"/>
</g>
<!-- Node3 -->
<g id="node4" class="node">
<title>Node3</title>
<g id="a_node4"><a xlink:href="classAttribute__Request.html" target="_top" xlink:title="Handles the internal implementation of the ThingsBoard shared and server&#45;side Attribute API....">
<polygon fill="white" stroke="#666666" points="318,-283 154,-283 154,-242 318,-242 318,-283"/>
<text text-anchor="start" x="162" y="-271" font-family="Helvetica,sans-Serif" font-size="10.00">Attribute_Request&lt;</text>
<text text-anchor="start" x="162" y="-260" font-family="Helvetica,sans-Serif" font-size="10.00"> MaxSubscriptions, MaxAttributes,</text>
<text text-anchor="middle" x="236" y="-249" font-family="Helvetica,sans-Serif" font-size="10.00"> Logger &gt;</text>
</a>
</g>
</g>
<!-- Node0&#45;&gt;Node3 -->
<g id="edge3" class="edge">
<title>Node0&#45;&gt;Node3</title>
<path fill="none" stroke="#63b8ff" d="M80.78,-199.97C98.23,-210.05 122.03,-223.04 144,-232.5 151.33,-235.66 159.12,-238.69 166.92,-241.52"/>
<polygon fill="#63b8ff" stroke="#63b8ff" points="83,-197.22 72.6,-195.19 79.46,-203.26 83,-197.22"/>
</g>
<!-- Node4 -->
<g id="node5" class="node">
<title>Node4</title>
<g id="a_node5"><a xlink:href="classClient__Side__RPC.html" target="_top" xlink:title="Handles the internal implementation of the ThingsBoard client side RPC API. See https://thingsboard....">
<polygon fill="white" stroke="#666666" points="326,-223.5 146,-223.5 146,-193.5 326,-193.5 326,-223.5"/>
<text text-anchor="start" x="154" y="-211.5" font-family="Helvetica,sans-Serif" font-size="10.00">Client_Side_RPC&lt; MaxSubscriptions,</text>
<text text-anchor="middle" x="236" y="-200.5" font-family="Helvetica,sans-Serif" font-size="10.00"> MaxRequestRPC, Logger &gt;</text>
</a>
</g>
</g>
<!-- Node0&#45;&gt;Node4 -->
<g id="edge4" class="edge">
<title>Node0&#45;&gt;Node4</title>
<path fill="none" stroke="#63b8ff" d="M119.39,-193.08C127.89,-194.22 136.72,-195.4 145.54,-196.57"/>
<polygon fill="#63b8ff" stroke="#63b8ff" points="119.91,-189.62 109.53,-191.77 118.98,-196.56 119.91,-189.62"/>
</g>
<!-- Node5 -->
<g id="node6" class="node">
<title>Node5</title>
<g id="a_node6"><a xlink:href="classOTA__Firmware__Update.html" target="_top" xlink:title="Handles the internal implementation of the ThingsBoard over the air firmware update API....">
<polygon fill="white" stroke="#666666" points="295.5,-175.5 176.5,-175.5 176.5,-145.5 295.5,-145.5 295.5,-175.5"/>
<text text-anchor="start" x="184.5" y="-163.5" font-family="Helvetica,sans-Serif" font-size="10.00">OTA_Firmware_Update</text>
<text text-anchor="middle" x="236" y="-152.5" font-family="Helvetica,sans-Serif" font-size="10.00">&lt; Logger &gt;</text>
</a>
</g>
</g>
<!-- Node0&#45;&gt;Node5 -->
<g id="edge5" class="edge">
<title>Node0&#45;&gt;Node5</title>
<path fill="none" stroke="#63b8ff" d="M119.31,-175.92C137.81,-173.46 157.89,-170.78 176.05,-168.36"/>
<polygon fill="#63b8ff" stroke="#63b8ff" points="118.98,-172.44 109.53,-177.23 119.91,-179.38 118.98,-172.44"/>
</g>
<!-- Node6 -->
<g id="node7" class="node">
<title>Node6</title>
<g id="a_node7"><a xlink:href="classProvision.html" target="_top" xlink:title="Handles the internal implementation of the ThingsBoard provision API. See https://thingsboard....">
<polygon fill="white" stroke="#666666" points="288,-127 184,-127 184,-108 288,-108 288,-127"/>
<text text-anchor="middle" x="236" y="-115" font-family="Helvetica,sans-Serif" font-size="10.00">Provision&lt; Logger &gt;</text>
</a>
</g>
</g>
<!-- Node0&#45;&gt;Node6 -->
<g id="edge6" class="edge">
<title>Node0&#45;&gt;Node6</title>
<path fill="none" stroke="#63b8ff" d="M79.5,-168.78C96.89,-158.26 121.12,-144.86 144,-136.5 156.58,-131.9 170.57,-128.29 183.73,-125.51"/>
<polygon fill="#63b8ff" stroke="#63b8ff" points="78.07,-165.55 71.4,-173.79 81.75,-171.5 78.07,-165.55"/>
</g>
<!-- Node7 -->
<g id="node8" class="node">
<title>Node7</title>
<g id="a_node8"><a xlink:href="classServer__Side__RPC.html" target="_top" xlink:title="Handles the internal implementation of the ThingsBoard server side RPC API. See https://thingsboard....">
<polygon fill="white" stroke="#666666" points="328,-89.5 144,-89.5 144,-59.5 328,-59.5 328,-89.5"/>
<text text-anchor="start" x="152" y="-77.5" font-family="Helvetica,sans-Serif" font-size="10.00">Server_Side_RPC&lt; MaxSubscriptions,</text>
<text text-anchor="middle" x="236" y="-66.5" font-family="Helvetica,sans-Serif" font-size="10.00"> MaxRPC, Logger &gt;</text>
</a>
</g>
</g>
<!-- Node0&#45;&gt;Node7 -->
<g id="edge7" class="edge">
<title>Node0&#45;&gt;Node7</title>
<path fill="none" stroke="#63b8ff" d="M69.59,-165.93C85.77,-146.57 113.62,-116.7 144,-99.5 150.56,-95.79 157.7,-92.6 165,-89.87"/>
<polygon fill="#63b8ff" stroke="#63b8ff" points="66.98,-163.59 63.39,-173.56 72.41,-168.01 66.98,-163.59"/>
</g>
<!-- Node8 -->
<g id="node9" class="node">
<title>Node8</title>
<g id="a_node9"><a xlink:href="classShared__Attribute__Update.html" target="_top" xlink:title="Handles the internal implementation of the ThingsBoard shared attribute update API....">
<polygon fill="white" stroke="#666666" points="321,-41 151,-41 151,0 321,0 321,-41"/>
<text text-anchor="start" x="159" y="-29" font-family="Helvetica,sans-Serif" font-size="10.00">Shared_Attribute_Update</text>
<text text-anchor="start" x="159" y="-18" font-family="Helvetica,sans-Serif" font-size="10.00">&lt; MaxSubscriptions, MaxAttributes,</text>
<text text-anchor="middle" x="236" y="-7" font-family="Helvetica,sans-Serif" font-size="10.00"> Logger &gt;</text>
</a>
</g>
</g>
<!-- Node0&#45;&gt;Node8 -->
<g id="edge8" class="edge">
<title>Node0&#45;&gt;Node8</title>
<path fill="none" stroke="#63b8ff" d="M63.27,-164.23C76.21,-134.95 103.99,-81.01 144,-50.5 148.5,-47.07 153.41,-44.02 158.54,-41.32"/>
<polygon fill="#63b8ff" stroke="#63b8ff" points="60.06,-162.83 59.36,-173.41 66.5,-165.57 60.06,-162.83"/>
</g>
</g>
</svg>
