<?xml version="1.0" encoding="UTF-8" standalone="no"?>
<!DOCTYPE svg PUBLIC "-//W3C//DTD SVG 1.1//EN"
 "http://www.w3.org/Graphics/SVG/1.1/DTD/svg11.dtd">
<!-- Generated by graphviz version 7.0.5 (20221223.1930)
 -->
<!-- Title: Graphical Class Hierarchy Pages: 1 -->
<svg width="338pt" height="258pt"
 viewBox="0.00 0.00 338.00 257.50" xmlns="http://www.w3.org/2000/svg" xmlns:xlink="http://www.w3.org/1999/xlink">
<g id="graph0" class="graph" transform="scale(1 1) rotate(0) translate(4 253.5)">
<title>Graphical Class Hierarchy</title>
<!-- Node0 -->
<g id="node1" class="node">
<title>Node0</title>
<g id="a_node1"><a xlink:href="classCallback.html" target="_top" xlink:title=" ">
<polygon fill="white" stroke="#666666" points="135,-142 0,-142 0,-112 135,-112 135,-142"/>
<text text-anchor="start" x="8" y="-130" font-family="Helvetica,sans-Serif" font-size="10.00">Callback&lt; void, JsonObject</text>
<text text-anchor="middle" x="67.5" y="-119" font-family="Helvetica,sans-Serif" font-size="10.00">Const const &amp; &gt;</text>
</a>
</g>
</g>
<!-- Node1 -->
<g id="node2" class="node">
<title>Node1</title>
<g id="a_node2"><a xlink:href="classAttribute__Request__Callback.html" target="_top" xlink:title=" ">
<polygon fill="white" stroke="#666666" points="330,-249.5 171,-249.5 171,-230.5 330,-230.5 330,-249.5"/>
<text text-anchor="middle" x="250.5" y="-237.5" font-family="Helvetica,sans-Serif" font-size="10.00">Attribute_Request_Callback&lt; 1 &gt;</text>
</a>
</g>
</g>
<!-- Node0&#45;&gt;Node1 -->
<g id="edge1" class="edge">
<title>Node0&#45;&gt;Node1</title>
<path fill="none" stroke="#63b8ff" d="M88.08,-150.82C107.07,-172.35 137.82,-203.31 171,-221 177.93,-224.69 185.58,-227.68 193.31,-230.09"/>
<polygon fill="#63b8ff" stroke="#63b8ff" points="90.85,-148.67 81.67,-143.38 85.55,-153.24 90.85,-148.67"/>
</g>
<!-- Node2 -->
<g id="node3" class="node">
<title>Node2</title>
<g id="a_node3"><a xlink:href="classAttribute__Request__Callback.html" target="_top" xlink:title=" ">
<polygon fill="white" stroke="#666666" points="319,-212 182,-212 182,-182 319,-182 319,-212"/>
<text text-anchor="start" x="190" y="-200" font-family="Helvetica,sans-Serif" font-size="10.00">Attribute_Request_Callback</text>
<text text-anchor="middle" x="250.5" y="-189" font-family="Helvetica,sans-Serif" font-size="10.00">&lt; MaxAttributes &gt;</text>
</a>
</g>
</g>
<!-- Node0&#45;&gt;Node2 -->
<g id="edge2" class="edge">
<title>Node0&#45;&gt;Node2</title>
<path fill="none" stroke="#63b8ff" d="M110.3,-147.19C128.7,-155.7 150.7,-165.38 171,-173 179,-176.01 187.57,-178.92 195.99,-181.62"/>
<polygon fill="#63b8ff" stroke="#63b8ff" points="111.84,-144.04 101.3,-142.98 108.88,-150.38 111.84,-144.04"/>
</g>
<!-- Node3 -->
<g id="node4" class="node">
<title>Node3</title>
<g id="a_node4"><a xlink:href="classShared__Attribute__Callback.html" target="_top" xlink:title=" ">
<polygon fill="white" stroke="#666666" points="316.5,-164 184.5,-164 184.5,-134 316.5,-134 316.5,-164"/>
<text text-anchor="start" x="192.5" y="-152" font-family="Helvetica,sans-Serif" font-size="10.00">Shared_Attribute_Callback</text>
<text text-anchor="middle" x="250.5" y="-141" font-family="Helvetica,sans-Serif" font-size="10.00">&lt; MaxAttributes &gt;</text>
</a>
</g>
</g>
<!-- Node0&#45;&gt;Node3 -->
<g id="edge3" class="edge">
<title>Node0&#45;&gt;Node3</title>
<path fill="none" stroke="#63b8ff" d="M146.72,-136.51C159.18,-138.02 171.97,-139.58 184.1,-141.05"/>
<polygon fill="#63b8ff" stroke="#63b8ff" points="147.24,-133.04 136.89,-135.31 146.39,-139.99 147.24,-133.04"/>
</g>
<!-- Node4 -->
<g id="node5" class="node">
<title>Node4</title>
<g id="a_node5"><a xlink:href="classShared__Attribute__Callback.html" target="_top" xlink:title=" ">
<polygon fill="white" stroke="#666666" points="327.5,-115.5 173.5,-115.5 173.5,-96.5 327.5,-96.5 327.5,-115.5"/>
<text text-anchor="middle" x="250.5" y="-103.5" font-family="Helvetica,sans-Serif" font-size="10.00">Shared_Attribute_Callback&lt; 1 &gt;</text>
</a>
</g>
</g>
<!-- Node0&#45;&gt;Node4 -->
<g id="edge4" class="edge">
<title>Node0&#45;&gt;Node4</title>
<path fill="none" stroke="#63b8ff" d="M146.76,-117.92C155.5,-116.91 164.4,-115.87 173.12,-114.86"/>
<polygon fill="#63b8ff" stroke="#63b8ff" points="146.42,-114.44 136.89,-119.07 147.22,-121.39 146.42,-114.44"/>
</g>
<!-- Node5 -->
<g id="node6" class="node">
<title>Node5</title>
<g id="a_node6"><a xlink:href="classAttribute__Request__Callback.html" target="_top" xlink:title="Client&#45;side or shared attributes request callback wrapper, contains the needed configuration settings...">
<polygon fill="white" stroke="#666666" points="319,-78 182,-78 182,-48 319,-48 319,-78"/>
<text text-anchor="start" x="190" y="-66" font-family="Helvetica,sans-Serif" font-size="10.00">Attribute_Request_Callback</text>
<text text-anchor="middle" x="250.5" y="-55" font-family="Helvetica,sans-Serif" font-size="10.00">&lt; MaxAttributes &gt;</text>
</a>
</g>
</g>
<!-- Node0&#45;&gt;Node5 -->
<g id="edge5" class="edge">
<title>Node0&#45;&gt;Node5</title>
<path fill="none" stroke="#63b8ff" d="M117.93,-107.56C134.7,-101.13 153.6,-94.08 171,-88 180.18,-84.79 190.03,-81.53 199.53,-78.46"/>
<polygon fill="#63b8ff" stroke="#63b8ff" points="116.74,-104.27 108.66,-111.13 119.25,-110.8 116.74,-104.27"/>
</g>
<!-- Node6 -->
<g id="node7" class="node">
<title>Node6</title>
<g id="a_node7"><a xlink:href="classShared__Attribute__Callback.html" target="_top" xlink:title="Shared attribute update callback wrapper, contains the needed configuration settings to create the re...">
<polygon fill="white" stroke="#666666" points="316.5,-30 184.5,-30 184.5,0 316.5,0 316.5,-30"/>
<text text-anchor="start" x="192.5" y="-18" font-family="Helvetica,sans-Serif" font-size="10.00">Shared_Attribute_Callback</text>
<text text-anchor="middle" x="250.5" y="-7" font-family="Helvetica,sans-Serif" font-size="10.00">&lt; MaxAttributes &gt;</text>
</a>
</g>
</g>
<!-- Node0&#45;&gt;Node6 -->
<g id="edge6" class="edge">
<title>Node0&#45;&gt;Node6</title>
<path fill="none" stroke="#63b8ff" d="M90.21,-103.57C109.66,-83.83 139.86,-56.14 171,-39 176.87,-35.77 183.23,-32.92 189.7,-30.41"/>
<polygon fill="#63b8ff" stroke="#63b8ff" points="87.79,-101.04 83.36,-110.66 92.82,-105.9 87.79,-101.04"/>
</g>
</g>
</svg>
