<?xml version="1.0" encoding="UTF-8" standalone="no"?>
<!DOCTYPE svg PUBLIC "-//W3C//DTD SVG 1.1//EN"
 "http://www.w3.org/Graphics/SVG/1.1/DTD/svg11.dtd">
<!-- Generated by graphviz version 7.0.5 (20221223.1930)
 -->
<!-- Title: src/OTA_Update_Callback.cpp Pages: 1 -->
<svg width="527pt" height="302pt"
 viewBox="0.00 0.00 527.34 302.00" xmlns="http://www.w3.org/2000/svg" xmlns:xlink="http://www.w3.org/1999/xlink">
<g id="graph0" class="graph" transform="scale(1 1) rotate(0) translate(4 298)">
<title>src/OTA_Update_Callback.cpp</title>
<!-- Node1 -->
<g id="node1" class="node">
<title>Node1</title>
<g id="a_node1"><a xlink:title=" ">
<polygon fill="#999999" stroke="#666666" points="365,-294 214,-294 214,-275 365,-275 365,-294"/>
<text text-anchor="middle" x="289.5" y="-282" font-family="Helvetica,sans-Serif" font-size="10.00">src/OTA_Update_Callback.cpp</text>
</a>
</g>
</g>
<!-- Node2 -->
<g id="node2" class="node">
<title>Node2</title>
<g id="a_node2"><a xlink:href="OTA__Update__Callback_8h.html" target="_top" xlink:title=" ">
<polygon fill="white" stroke="#666666" points="351.5,-239 227.5,-239 227.5,-220 351.5,-220 351.5,-239"/>
<text text-anchor="middle" x="289.5" y="-227" font-family="Helvetica,sans-Serif" font-size="10.00">OTA_Update_Callback.h</text>
</a>
</g>
</g>
<!-- Node1&#45;&gt;Node2 -->
<g id="edge1" class="edge">
<title>Node1&#45;&gt;Node2</title>
<path fill="none" stroke="#63b8ff" d="M289.5,-274.75C289.5,-268.27 289.5,-259.16 289.5,-250.9"/>
<polygon fill="#63b8ff" stroke="#63b8ff" points="293,-250.96 289.5,-240.96 286,-250.96 293,-250.96"/>
</g>
<!-- Node3 -->
<g id="node3" class="node">
<title>Node3</title>
<g id="a_node3"><a xlink:href="Callback_8h.html" target="_top" xlink:title=" ">
<polygon fill="white" stroke="#666666" points="200.5,-184 138.5,-184 138.5,-165 200.5,-165 200.5,-184"/>
<text text-anchor="middle" x="169.5" y="-172" font-family="Helvetica,sans-Serif" font-size="10.00">Callback.h</text>
</a>
</g>
</g>
<!-- Node2&#45;&gt;Node3 -->
<g id="edge2" class="edge">
<title>Node2&#45;&gt;Node3</title>
<path fill="none" stroke="#63b8ff" d="M269.14,-219.51C250.15,-211.12 221.57,-198.5 199.88,-188.92"/>
<polygon fill="#63b8ff" stroke="#63b8ff" points="201.5,-185.81 190.94,-184.97 198.67,-192.21 201.5,-185.81"/>
</g>
<!-- Node14 -->
<g id="node14" class="node">
<title>Node14</title>
<g id="a_node14"><a xlink:href="IUpdater_8h.html" target="_top" xlink:title=" ">
<polygon fill="white" stroke="#666666" points="442.5,-184 380.5,-184 380.5,-165 442.5,-165 442.5,-184"/>
<text text-anchor="middle" x="411.5" y="-172" font-family="Helvetica,sans-Serif" font-size="10.00">IUpdater.h</text>
</a>
</g>
</g>
<!-- Node2&#45;&gt;Node14 -->
<g id="edge16" class="edge">
<title>Node2&#45;&gt;Node14</title>
<path fill="none" stroke="#63b8ff" d="M310.2,-219.51C329.5,-211.12 358.56,-198.5 380.61,-188.92"/>
<polygon fill="#63b8ff" stroke="#63b8ff" points="381.94,-192.16 389.72,-184.96 379.16,-185.74 381.94,-192.16"/>
</g>
<!-- Node4 -->
<g id="node4" class="node">
<title>Node4</title>
<g id="a_node4"><a xlink:href="Configuration_8h.html" target="_top" xlink:title=" ">
<polygon fill="white" stroke="#666666" points="459.5,-19 379.5,-19 379.5,0 459.5,0 459.5,-19"/>
<text text-anchor="middle" x="419.5" y="-7" font-family="Helvetica,sans-Serif" font-size="10.00">Configuration.h</text>
</a>
</g>
</g>
<!-- Node3&#45;&gt;Node4 -->
<g id="edge3" class="edge">
<title>Node3&#45;&gt;Node4</title>
<path fill="none" stroke="#63b8ff" d="M183.3,-164.5C224.19,-137.84 345.06,-59.03 396.21,-25.68"/>
<polygon fill="#63b8ff" stroke="#63b8ff" points="398.01,-28.69 404.48,-20.29 394.19,-22.82 398.01,-28.69"/>
</g>
<!-- Node5 -->
<g id="node5" class="node">
<title>Node5</title>
<g id="a_node5"><a xlink:href="Array_8h.html" target="_top" xlink:title=" ">
<polygon fill="white" stroke="#666666" points="225,-129 178,-129 178,-110 225,-110 225,-129"/>
<text text-anchor="middle" x="201.5" y="-117" font-family="Helvetica,sans-Serif" font-size="10.00">Array.h</text>
</a>
</g>
</g>
<!-- Node3&#45;&gt;Node5 -->
<g id="edge4" class="edge">
<title>Node3&#45;&gt;Node5</title>
<path fill="none" stroke="#63b8ff" d="M174.78,-164.75C178.97,-157.81 184.98,-147.86 190.23,-139.16"/>
<polygon fill="#63b8ff" stroke="#63b8ff" points="193.15,-141.11 195.32,-130.74 187.15,-137.49 193.15,-141.11"/>
</g>
<!-- Node7 -->
<g id="node7" class="node">
<title>Node7</title>
<g id="a_node7"><a xlink:title=" ">
<polygon fill="#e0e0e0" stroke="#999999" points="94.5,-19 16.5,-19 16.5,0 94.5,0 94.5,-19"/>
<text text-anchor="middle" x="55.5" y="-7" font-family="Helvetica,sans-Serif" font-size="10.00">ArduinoJson.h</text>
</a>
</g>
</g>
<!-- Node3&#45;&gt;Node7 -->
<g id="edge13" class="edge">
<title>Node3&#45;&gt;Node7</title>
<path fill="none" stroke="#63b8ff" d="M151.99,-164.64C138.09,-156.86 118.98,-144.4 106.5,-129 82.13,-98.93 67.42,-55.46 60.44,-30.38"/>
<polygon fill="#63b8ff" stroke="#63b8ff" points="63.86,-29.65 57.93,-20.87 57.09,-31.43 63.86,-29.65"/>
</g>
<!-- Node12 -->
<g id="node12" class="node">
<title>Node12</title>
<g id="a_node12"><a xlink:title=" ">
<polygon fill="#e0e0e0" stroke="#999999" points="59,-129 0,-129 0,-110 59,-110 59,-129"/>
<text text-anchor="middle" x="29.5" y="-117" font-family="Helvetica,sans-Serif" font-size="10.00">functional</text>
</a>
</g>
</g>
<!-- Node3&#45;&gt;Node12 -->
<g id="edge14" class="edge">
<title>Node3&#45;&gt;Node12</title>
<path fill="none" stroke="#63b8ff" d="M145.75,-164.51C123.19,-155.97 89.03,-143.03 63.56,-133.4"/>
<polygon fill="#63b8ff" stroke="#63b8ff" points="64.91,-130.16 54.31,-129.89 62.43,-136.71 64.91,-130.16"/>
</g>
<!-- Node13 -->
<g id="node13" class="node">
<title>Node13</title>
<g id="a_node13"><a xlink:title=" ">
<polygon fill="#e0e0e0" stroke="#999999" points="159.5,-129 115.5,-129 115.5,-110 159.5,-110 159.5,-129"/>
<text text-anchor="middle" x="137.5" y="-117" font-family="Helvetica,sans-Serif" font-size="10.00">vector</text>
</a>
</g>
</g>
<!-- Node3&#45;&gt;Node13 -->
<g id="edge15" class="edge">
<title>Node3&#45;&gt;Node13</title>
<path fill="none" stroke="#63b8ff" d="M164.22,-164.75C160.03,-157.81 154.02,-147.86 148.77,-139.16"/>
<polygon fill="#63b8ff" stroke="#63b8ff" points="151.85,-137.49 143.68,-130.74 145.85,-141.11 151.85,-137.49"/>
</g>
<!-- Node6 -->
<g id="node6" class="node">
<title>Node6</title>
<g id="a_node6"><a xlink:href="Helper_8h.html" target="_top" xlink:title=" ">
<polygon fill="white" stroke="#666666" points="228,-74 175,-74 175,-55 228,-55 228,-74"/>
<text text-anchor="middle" x="201.5" y="-62" font-family="Helvetica,sans-Serif" font-size="10.00">Helper.h</text>
</a>
</g>
</g>
<!-- Node5&#45;&gt;Node6 -->
<g id="edge5" class="edge">
<title>Node5&#45;&gt;Node6</title>
<path fill="none" stroke="#63b8ff" d="M201.5,-109.75C201.5,-103.27 201.5,-94.16 201.5,-85.9"/>
<polygon fill="#63b8ff" stroke="#63b8ff" points="205,-85.96 201.5,-75.96 198,-85.96 205,-85.96"/>
</g>
<!-- Node9 -->
<g id="node9" class="node">
<title>Node9</title>
<g id="a_node9"><a xlink:title=" ">
<polygon fill="#e0e0e0" stroke="#999999" points="164,-19 113,-19 113,0 164,0 164,-19"/>
<text text-anchor="middle" x="138.5" y="-7" font-family="Helvetica,sans-Serif" font-size="10.00">assert.h</text>
</a>
</g>
</g>
<!-- Node5&#45;&gt;Node9 -->
<g id="edge12" class="edge">
<title>Node5&#45;&gt;Node9</title>
<path fill="none" stroke="#63b8ff" d="M192.97,-109.52C185.11,-100.91 173.49,-87.29 165.5,-74 157,-59.85 149.82,-42.53 145.01,-29.56"/>
<polygon fill="#63b8ff" stroke="#63b8ff" points="148.44,-28.76 141.8,-20.51 141.85,-31.1 148.44,-28.76"/>
</g>
<!-- Node6&#45;&gt;Node4 -->
<g id="edge6" class="edge">
<title>Node6&#45;&gt;Node4</title>
<path fill="none" stroke="#63b8ff" d="M228.23,-57C263.9,-48.33 327.66,-32.83 371.7,-22.12"/>
<polygon fill="#63b8ff" stroke="#63b8ff" points="372.36,-25.56 381.25,-19.8 370.71,-18.76 372.36,-25.56"/>
</g>
<!-- Node6&#45;&gt;Node7 -->
<g id="edge7" class="edge">
<title>Node6&#45;&gt;Node7</title>
<path fill="none" stroke="#63b8ff" d="M176.73,-54.51C153.1,-45.93 117.26,-32.92 90.67,-23.27"/>
<polygon fill="#63b8ff" stroke="#63b8ff" points="91.92,-20 81.32,-19.87 89.53,-26.58 91.92,-20"/>
</g>
<!-- Node8 -->
<g id="node8" class="node">
<title>Node8</title>
<g id="a_node8"><a xlink:title=" ">
<polygon fill="#e0e0e0" stroke="#999999" points="292,-19 245,-19 245,0 292,0 292,-19"/>
<text text-anchor="middle" x="268.5" y="-7" font-family="Helvetica,sans-Serif" font-size="10.00">iterator</text>
</a>
</g>
</g>
<!-- Node6&#45;&gt;Node8 -->
<g id="edge8" class="edge">
<title>Node6&#45;&gt;Node8</title>
<path fill="none" stroke="#63b8ff" d="M212.87,-54.51C222.55,-46.85 236.7,-35.66 248.31,-26.47"/>
<polygon fill="#63b8ff" stroke="#63b8ff" points="250.44,-29.25 256.12,-20.3 246.1,-23.76 250.44,-29.25"/>
</g>
<!-- Node6&#45;&gt;Node9 -->
<g id="edge9" class="edge">
<title>Node6&#45;&gt;Node9</title>
<path fill="none" stroke="#63b8ff" d="M190.81,-54.51C181.8,-46.93 168.67,-35.88 157.82,-26.75"/>
<polygon fill="#63b8ff" stroke="#63b8ff" points="160.09,-24.09 150.19,-20.33 155.59,-29.45 160.09,-24.09"/>
</g>
<!-- Node10 -->
<g id="node10" class="node">
<title>Node10</title>
<g id="a_node10"><a xlink:title=" ">
<polygon fill="#e0e0e0" stroke="#999999" points="361,-19 310,-19 310,0 361,0 361,-19"/>
<text text-anchor="middle" x="335.5" y="-7" font-family="Helvetica,sans-Serif" font-size="10.00">stdarg.h</text>
</a>
</g>
</g>
<!-- Node6&#45;&gt;Node10 -->
<g id="edge10" class="edge">
<title>Node6&#45;&gt;Node10</title>
<path fill="none" stroke="#63b8ff" d="M224.23,-54.51C245.73,-46.01 278.23,-33.15 302.57,-23.53"/>
<polygon fill="#63b8ff" stroke="#63b8ff" points="303.69,-26.85 311.7,-19.91 301.11,-20.34 303.69,-26.85"/>
</g>
<!-- Node11 -->
<g id="node11" class="node">
<title>Node11</title>
<g id="a_node11"><a xlink:title=" ">
<polygon fill="#e0e0e0" stroke="#999999" points="227,-19 182,-19 182,0 227,0 227,-19"/>
<text text-anchor="middle" x="204.5" y="-7" font-family="Helvetica,sans-Serif" font-size="10.00">stdio.h</text>
</a>
</g>
</g>
<!-- Node6&#45;&gt;Node11 -->
<g id="edge11" class="edge">
<title>Node6&#45;&gt;Node11</title>
<path fill="none" stroke="#63b8ff" d="M202,-54.75C202.36,-48.27 202.88,-39.16 203.35,-30.9"/>
<polygon fill="#63b8ff" stroke="#63b8ff" points="206.84,-31.13 203.91,-20.95 199.85,-30.74 206.84,-31.13"/>
</g>
<!-- Node14&#45;&gt;Node4 -->
<g id="edge17" class="edge">
<title>Node14&#45;&gt;Node4</title>
<path fill="none" stroke="#63b8ff" d="M442.95,-168.89C466.52,-163.61 497.22,-152.43 512.5,-129 538.18,-89.62 481.94,-47.12 446.17,-25.29"/>
<polygon fill="#63b8ff" stroke="#63b8ff" points="447.97,-22.29 437.57,-20.23 444.41,-28.32 447.97,-22.29"/>
</g>
<!-- Node15 -->
<g id="node15" class="node">
<title>Node15</title>
<g id="a_node15"><a xlink:href="DefaultLogger_8h.html" target="_top" xlink:title=" ">
<polygon fill="white" stroke="#666666" points="368,-129 283,-129 283,-110 368,-110 368,-129"/>
<text text-anchor="middle" x="325.5" y="-117" font-family="Helvetica,sans-Serif" font-size="10.00">DefaultLogger.h</text>
</a>
</g>
</g>
<!-- Node14&#45;&gt;Node15 -->
<g id="edge18" class="edge">
<title>Node14&#45;&gt;Node15</title>
<path fill="none" stroke="#63b8ff" d="M396.91,-164.51C383.98,-156.54 364.86,-144.75 349.65,-135.38"/>
<polygon fill="#63b8ff" stroke="#63b8ff" points="351.51,-132.42 341.16,-130.15 347.84,-138.38 351.51,-132.42"/>
</g>
<!-- Node16 -->
<g id="node16" class="node">
<title>Node16</title>
<g id="a_node16"><a xlink:title=" ">
<polygon fill="#e0e0e0" stroke="#999999" points="437,-129 386,-129 386,-110 437,-110 437,-129"/>
<text text-anchor="middle" x="411.5" y="-117" font-family="Helvetica,sans-Serif" font-size="10.00">stddef.h</text>
</a>
</g>
</g>
<!-- Node14&#45;&gt;Node16 -->
<g id="edge20" class="edge">
<title>Node14&#45;&gt;Node16</title>
<path fill="none" stroke="#63b8ff" d="M411.5,-164.75C411.5,-158.27 411.5,-149.16 411.5,-140.9"/>
<polygon fill="#63b8ff" stroke="#63b8ff" points="415,-140.96 411.5,-130.96 408,-140.96 415,-140.96"/>
</g>
<!-- Node17 -->
<g id="node17" class="node">
<title>Node17</title>
<g id="a_node17"><a xlink:title=" ">
<polygon fill="#e0e0e0" stroke="#999999" points="503.5,-129 455.5,-129 455.5,-110 503.5,-110 503.5,-129"/>
<text text-anchor="middle" x="479.5" y="-117" font-family="Helvetica,sans-Serif" font-size="10.00">stdint.h</text>
</a>
</g>
</g>
<!-- Node14&#45;&gt;Node17 -->
<g id="edge21" class="edge">
<title>Node14&#45;&gt;Node17</title>
<path fill="none" stroke="#63b8ff" d="M423.04,-164.51C432.96,-156.77 447.51,-145.43 459.36,-136.2"/>
<polygon fill="#63b8ff" stroke="#63b8ff" points="461.21,-139.2 466.94,-130.29 456.9,-133.68 461.21,-139.2"/>
</g>
<!-- Node15&#45;&gt;Node6 -->
<g id="edge19" class="edge">
<title>Node15&#45;&gt;Node6</title>
<path fill="none" stroke="#63b8ff" d="M304.47,-109.51C284.75,-101.08 255.03,-88.38 232.59,-78.79"/>
<polygon fill="#63b8ff" stroke="#63b8ff" points="234.19,-75.66 223.62,-74.95 231.44,-82.1 234.19,-75.66"/>
</g>
</g>
</svg>
