<?xml version="1.0" encoding="UTF-8" standalone="no"?>
<!DOCTYPE svg PUBLIC "-//W3C//DTD SVG 1.1//EN"
 "http://www.w3.org/Graphics/SVG/1.1/DTD/svg11.dtd">
<!-- Generated by graphviz version 7.0.5 (20221223.1930)
 -->
<!-- Title: src/OTA_Handler.h Pages: 1 -->
<svg width="868pt" height="302pt"
 viewBox="0.00 0.00 868.00 302.00" xmlns="http://www.w3.org/2000/svg" xmlns:xlink="http://www.w3.org/1999/xlink">
<g id="graph0" class="graph" transform="scale(1 1) rotate(0) translate(4 298)">
<title>src/OTA_Handler.h</title>
<!-- Node1 -->
<g id="node1" class="node">
<title>Node1</title>
<g id="a_node1"><a xlink:title=" ">
<polygon fill="#999999" stroke="#666666" points="579,-294 479,-294 479,-275 579,-275 579,-294"/>
<text text-anchor="middle" x="529" y="-282" font-family="Helvetica,sans-Serif" font-size="10.00">src/OTA_Handler.h</text>
</a>
</g>
</g>
<!-- Node2 -->
<g id="node2" class="node">
<title>Node2</title>
<g id="a_node2"><a xlink:href="Configuration_8h.html" target="_top" xlink:title=" ">
<polygon fill="white" stroke="#666666" points="502,-19 422,-19 422,0 502,0 502,-19"/>
<text text-anchor="middle" x="462" y="-7" font-family="Helvetica,sans-Serif" font-size="10.00">Configuration.h</text>
</a>
</g>
</g>
<!-- Node1&#45;&gt;Node2 -->
<g id="edge1" class="edge">
<title>Node1&#45;&gt;Node2</title>
<path fill="none" stroke="#63b8ff" d="M579.38,-283.63C653.69,-280.87 784,-263.48 784,-175.5 784,-175.5 784,-175.5 784,-118.5 784,-62.17 604.61,-29.76 513.62,-16.95"/>
<polygon fill="#63b8ff" stroke="#63b8ff" points="514.34,-13.51 503.95,-15.62 513.38,-20.45 514.34,-13.51"/>
</g>
<!-- Node3 -->
<g id="node3" class="node">
<title>Node3</title>
<g id="a_node3"><a xlink:href="Callback__Watchdog_8h.html" target="_top" xlink:title=" ">
<polygon fill="white" stroke="#666666" points="305,-239 195,-239 195,-220 305,-220 305,-239"/>
<text text-anchor="middle" x="250" y="-227" font-family="Helvetica,sans-Serif" font-size="10.00">Callback_Watchdog.h</text>
</a>
</g>
</g>
<!-- Node1&#45;&gt;Node3 -->
<g id="edge2" class="edge">
<title>Node1&#45;&gt;Node3</title>
<path fill="none" stroke="#63b8ff" d="M481.67,-274.51C433.83,-265.42 359.81,-251.36 308.36,-241.59"/>
<polygon fill="#63b8ff" stroke="#63b8ff" points="309.06,-238.16 298.58,-239.73 307.75,-245.03 309.06,-238.16"/>
</g>
<!-- Node6 -->
<g id="node6" class="node">
<title>Node6</title>
<g id="a_node6"><a xlink:href="Helper_8h.html" target="_top" xlink:title=" ">
<polygon fill="white" stroke="#666666" points="219.5,-74 166.5,-74 166.5,-55 219.5,-55 219.5,-74"/>
<text text-anchor="middle" x="193" y="-62" font-family="Helvetica,sans-Serif" font-size="10.00">Helper.h</text>
</a>
</g>
</g>
<!-- Node1&#45;&gt;Node6 -->
<g id="edge33" class="edge">
<title>Node1&#45;&gt;Node6</title>
<path fill="none" stroke="#63b8ff" d="M478.66,-280.18C396.58,-274.23 237.84,-260.35 186,-239 121.12,-212.28 57,-168.98 95,-110 108.21,-89.49 133.43,-78.33 154.98,-72.31"/>
<polygon fill="#63b8ff" stroke="#63b8ff" points="155.81,-75.71 164.68,-69.91 154.13,-68.92 155.81,-75.71"/>
</g>
<!-- Node15 -->
<g id="node15" class="node">
<title>Node15</title>
<g id="a_node15"><a xlink:href="HashGenerator_8h.html" target="_top" xlink:title=" ">
<polygon fill="white" stroke="#666666" points="666,-184 576,-184 576,-165 666,-165 666,-184"/>
<text text-anchor="middle" x="621" y="-172" font-family="Helvetica,sans-Serif" font-size="10.00">HashGenerator.h</text>
</a>
</g>
</g>
<!-- Node1&#45;&gt;Node15 -->
<g id="edge18" class="edge">
<title>Node1&#45;&gt;Node15</title>
<path fill="none" stroke="#63b8ff" d="M552.56,-274.5C568.67,-267.22 589.31,-255.45 602,-239 611.69,-226.43 616.46,-208.98 618.79,-195.55"/>
<polygon fill="#63b8ff" stroke="#63b8ff" points="622.25,-196.08 620.15,-185.69 615.31,-195.12 622.25,-196.08"/>
</g>
<!-- Node19 -->
<g id="node19" class="node">
<title>Node19</title>
<g id="a_node19"><a xlink:href="OTA__Update__Callback_8h.html" target="_top" xlink:title=" ">
<polygon fill="white" stroke="#666666" points="447,-239 323,-239 323,-220 447,-220 447,-239"/>
<text text-anchor="middle" x="385" y="-227" font-family="Helvetica,sans-Serif" font-size="10.00">OTA_Update_Callback.h</text>
</a>
</g>
</g>
<!-- Node1&#45;&gt;Node19 -->
<g id="edge23" class="edge">
<title>Node1&#45;&gt;Node19</title>
<path fill="none" stroke="#63b8ff" d="M504.57,-274.51C481.26,-265.93 445.91,-252.92 419.69,-243.27"/>
<polygon fill="#63b8ff" stroke="#63b8ff" points="421.08,-240.05 410.49,-239.88 418.66,-246.62 421.08,-240.05"/>
</g>
<!-- Node22 -->
<g id="node22" class="node">
<title>Node22</title>
<g id="a_node22"><a xlink:href="OTA__Failure__Response_8h.html" target="_top" xlink:title=" ">
<polygon fill="white" stroke="#666666" points="593,-239 465,-239 465,-220 593,-220 593,-239"/>
<text text-anchor="middle" x="529" y="-227" font-family="Helvetica,sans-Serif" font-size="10.00">OTA_Failure_Response.h</text>
</a>
</g>
</g>
<!-- Node1&#45;&gt;Node22 -->
<g id="edge31" class="edge">
<title>Node1&#45;&gt;Node22</title>
<path fill="none" stroke="#63b8ff" d="M529,-274.75C529,-268.27 529,-259.16 529,-250.9"/>
<polygon fill="#63b8ff" stroke="#63b8ff" points="532.5,-250.96 529,-240.96 525.5,-250.96 532.5,-250.96"/>
</g>
<!-- Node23 -->
<g id="node23" class="node">
<title>Node23</title>
<g id="a_node23"><a xlink:title=" ">
<polygon fill="#e0e0e0" stroke="#999999" points="860,-239 812,-239 812,-220 860,-220 860,-239"/>
<text text-anchor="middle" x="836" y="-227" font-family="Helvetica,sans-Serif" font-size="10.00">string.h</text>
</a>
</g>
</g>
<!-- Node1&#45;&gt;Node23 -->
<g id="edge34" class="edge">
<title>Node1&#45;&gt;Node23</title>
<path fill="none" stroke="#63b8ff" d="M579.22,-276.05C633.37,-267.82 722.03,-253.77 798,-239 798.82,-238.84 799.65,-238.68 800.49,-238.51"/>
<polygon fill="#63b8ff" stroke="#63b8ff" points="800.97,-241.98 810.03,-236.5 799.53,-235.13 800.97,-241.98"/>
</g>
<!-- Node4 -->
<g id="node4" class="node">
<title>Node4</title>
<g id="a_node4"><a xlink:href="Callback_8h.html" target="_top" xlink:title=" ">
<polygon fill="white" stroke="#666666" points="283,-184 221,-184 221,-165 283,-165 283,-184"/>
<text text-anchor="middle" x="252" y="-172" font-family="Helvetica,sans-Serif" font-size="10.00">Callback.h</text>
</a>
</g>
</g>
<!-- Node3&#45;&gt;Node4 -->
<g id="edge3" class="edge">
<title>Node3&#45;&gt;Node4</title>
<path fill="none" stroke="#63b8ff" d="M250.33,-219.75C250.57,-213.27 250.92,-204.16 251.23,-195.9"/>
<polygon fill="#63b8ff" stroke="#63b8ff" points="254.73,-196.08 251.61,-185.95 247.73,-195.82 254.73,-196.08"/>
</g>
<!-- Node14 -->
<g id="node14" class="node">
<title>Node14</title>
<g id="a_node14"><a xlink:title=" ">
<polygon fill="#e0e0e0" stroke="#999999" points="203,-184 123,-184 123,-165 203,-165 203,-184"/>
<text text-anchor="middle" x="163" y="-172" font-family="Helvetica,sans-Serif" font-size="10.00">arduino&#45;timer.h</text>
</a>
</g>
</g>
<!-- Node3&#45;&gt;Node14 -->
<g id="edge17" class="edge">
<title>Node3&#45;&gt;Node14</title>
<path fill="none" stroke="#63b8ff" d="M235.24,-219.51C222.04,-211.47 202.44,-199.53 186.99,-190.11"/>
<polygon fill="#63b8ff" stroke="#63b8ff" points="189.19,-187.36 178.83,-185.15 185.55,-193.34 189.19,-187.36"/>
</g>
<!-- Node4&#45;&gt;Node2 -->
<g id="edge4" class="edge">
<title>Node4&#45;&gt;Node2</title>
<path fill="none" stroke="#63b8ff" d="M263.59,-164.5C297.65,-138.07 397.78,-60.35 441.35,-26.53"/>
<polygon fill="#63b8ff" stroke="#63b8ff" points="443.5,-29.29 449.25,-20.4 439.2,-23.76 443.5,-29.29"/>
</g>
<!-- Node5 -->
<g id="node5" class="node">
<title>Node5</title>
<g id="a_node5"><a xlink:href="Array_8h.html" target="_top" xlink:title=" ">
<polygon fill="white" stroke="#666666" points="151.5,-129 104.5,-129 104.5,-110 151.5,-110 151.5,-129"/>
<text text-anchor="middle" x="128" y="-117" font-family="Helvetica,sans-Serif" font-size="10.00">Array.h</text>
</a>
</g>
</g>
<!-- Node4&#45;&gt;Node5 -->
<g id="edge5" class="edge">
<title>Node4&#45;&gt;Node5</title>
<path fill="none" stroke="#63b8ff" d="M230.97,-164.51C211.25,-156.08 181.53,-143.38 159.09,-133.79"/>
<polygon fill="#63b8ff" stroke="#63b8ff" points="160.69,-130.66 150.12,-129.95 157.94,-137.1 160.69,-130.66"/>
</g>
<!-- Node7 -->
<g id="node7" class="node">
<title>Node7</title>
<g id="a_node7"><a xlink:title=" ">
<polygon fill="#e0e0e0" stroke="#999999" points="78,-19 0,-19 0,0 78,0 78,-19"/>
<text text-anchor="middle" x="39" y="-7" font-family="Helvetica,sans-Serif" font-size="10.00">ArduinoJson.h</text>
</a>
</g>
</g>
<!-- Node4&#45;&gt;Node7 -->
<g id="edge14" class="edge">
<title>Node4&#45;&gt;Node7</title>
<path fill="none" stroke="#63b8ff" d="M220.56,-166.07C177.58,-155.69 104.67,-137.19 95,-129 64.42,-103.1 49.41,-56.76 43.02,-30.35"/>
<polygon fill="#63b8ff" stroke="#63b8ff" points="46.52,-29.95 40.94,-20.95 39.69,-31.47 46.52,-29.95"/>
</g>
<!-- Node12 -->
<g id="node12" class="node">
<title>Node12</title>
<g id="a_node12"><a xlink:title=" ">
<polygon fill="#e0e0e0" stroke="#999999" points="291.5,-129 232.5,-129 232.5,-110 291.5,-110 291.5,-129"/>
<text text-anchor="middle" x="262" y="-117" font-family="Helvetica,sans-Serif" font-size="10.00">functional</text>
</a>
</g>
</g>
<!-- Node4&#45;&gt;Node12 -->
<g id="edge15" class="edge">
<title>Node4&#45;&gt;Node12</title>
<path fill="none" stroke="#63b8ff" d="M253.65,-164.75C254.89,-158.19 256.63,-148.95 258.21,-140.6"/>
<polygon fill="#63b8ff" stroke="#63b8ff" points="261.62,-141.4 260.03,-130.93 254.74,-140.11 261.62,-141.4"/>
</g>
<!-- Node13 -->
<g id="node13" class="node">
<title>Node13</title>
<g id="a_node13"><a xlink:title=" ">
<polygon fill="#e0e0e0" stroke="#999999" points="214,-129 170,-129 170,-110 214,-110 214,-129"/>
<text text-anchor="middle" x="192" y="-117" font-family="Helvetica,sans-Serif" font-size="10.00">vector</text>
</a>
</g>
</g>
<!-- Node4&#45;&gt;Node13 -->
<g id="edge16" class="edge">
<title>Node4&#45;&gt;Node13</title>
<path fill="none" stroke="#63b8ff" d="M241.82,-164.51C233.24,-156.93 220.73,-145.88 210.4,-136.75"/>
<polygon fill="#63b8ff" stroke="#63b8ff" points="212.97,-134.36 203.16,-130.36 208.34,-139.6 212.97,-134.36"/>
</g>
<!-- Node5&#45;&gt;Node6 -->
<g id="edge6" class="edge">
<title>Node5&#45;&gt;Node6</title>
<path fill="none" stroke="#63b8ff" d="M139.03,-109.51C148.42,-101.85 162.15,-90.66 173.41,-81.47"/>
<polygon fill="#63b8ff" stroke="#63b8ff" points="175.43,-84.35 180.96,-75.31 171,-78.92 175.43,-84.35"/>
</g>
<!-- Node9 -->
<g id="node9" class="node">
<title>Node9</title>
<g id="a_node9"><a xlink:title=" ">
<polygon fill="#e0e0e0" stroke="#999999" points="149.5,-19 98.5,-19 98.5,0 149.5,0 149.5,-19"/>
<text text-anchor="middle" x="124" y="-7" font-family="Helvetica,sans-Serif" font-size="10.00">assert.h</text>
</a>
</g>
</g>
<!-- Node5&#45;&gt;Node9 -->
<g id="edge13" class="edge">
<title>Node5&#45;&gt;Node9</title>
<path fill="none" stroke="#63b8ff" d="M127.67,-109.66C127.04,-92.57 125.63,-54.61 124.76,-30.92"/>
<polygon fill="#63b8ff" stroke="#63b8ff" points="128.26,-30.84 124.39,-20.97 121.26,-31.1 128.26,-30.84"/>
</g>
<!-- Node6&#45;&gt;Node2 -->
<g id="edge7" class="edge">
<title>Node6&#45;&gt;Node2</title>
<path fill="none" stroke="#63b8ff" d="M219.78,-58.22C264.16,-49.48 353.71,-31.84 410.62,-20.62"/>
<polygon fill="#63b8ff" stroke="#63b8ff" points="411.27,-24.06 420.4,-18.7 409.91,-17.2 411.27,-24.06"/>
</g>
<!-- Node6&#45;&gt;Node7 -->
<g id="edge8" class="edge">
<title>Node6&#45;&gt;Node7</title>
<path fill="none" stroke="#63b8ff" d="M166.88,-54.51C141.8,-45.88 103.69,-32.76 75.6,-23.1"/>
<polygon fill="#63b8ff" stroke="#63b8ff" points="77.02,-19.88 66.43,-19.94 74.74,-26.5 77.02,-19.88"/>
</g>
<!-- Node8 -->
<g id="node8" class="node">
<title>Node8</title>
<g id="a_node8"><a xlink:title=" ">
<polygon fill="#e0e0e0" stroke="#999999" points="346.5,-19 299.5,-19 299.5,0 346.5,0 346.5,-19"/>
<text text-anchor="middle" x="323" y="-7" font-family="Helvetica,sans-Serif" font-size="10.00">iterator</text>
</a>
</g>
</g>
<!-- Node6&#45;&gt;Node8 -->
<g id="edge9" class="edge">
<title>Node6&#45;&gt;Node8</title>
<path fill="none" stroke="#63b8ff" d="M215.05,-54.51C235.81,-46.04 267.16,-33.27 290.73,-23.66"/>
<polygon fill="#63b8ff" stroke="#63b8ff" points="291.93,-26.95 299.87,-19.93 289.29,-20.46 291.93,-26.95"/>
</g>
<!-- Node6&#45;&gt;Node9 -->
<g id="edge10" class="edge">
<title>Node6&#45;&gt;Node9</title>
<path fill="none" stroke="#63b8ff" d="M181.3,-54.51C171.22,-46.77 156.46,-35.43 144.44,-26.2"/>
<polygon fill="#63b8ff" stroke="#63b8ff" points="146.79,-23.6 136.73,-20.28 142.53,-29.15 146.79,-23.6"/>
</g>
<!-- Node10 -->
<g id="node10" class="node">
<title>Node10</title>
<g id="a_node10"><a xlink:title=" ">
<polygon fill="#e0e0e0" stroke="#999999" points="218.5,-19 167.5,-19 167.5,0 218.5,0 218.5,-19"/>
<text text-anchor="middle" x="193" y="-7" font-family="Helvetica,sans-Serif" font-size="10.00">stdarg.h</text>
</a>
</g>
</g>
<!-- Node6&#45;&gt;Node10 -->
<g id="edge11" class="edge">
<title>Node6&#45;&gt;Node10</title>
<path fill="none" stroke="#63b8ff" d="M193,-54.75C193,-48.27 193,-39.16 193,-30.9"/>
<polygon fill="#63b8ff" stroke="#63b8ff" points="196.5,-30.96 193,-20.96 189.5,-30.96 196.5,-30.96"/>
</g>
<!-- Node11 -->
<g id="node11" class="node">
<title>Node11</title>
<g id="a_node11"><a xlink:title=" ">
<polygon fill="#e0e0e0" stroke="#999999" points="281.5,-19 236.5,-19 236.5,0 281.5,0 281.5,-19"/>
<text text-anchor="middle" x="259" y="-7" font-family="Helvetica,sans-Serif" font-size="10.00">stdio.h</text>
</a>
</g>
</g>
<!-- Node6&#45;&gt;Node11 -->
<g id="edge12" class="edge">
<title>Node6&#45;&gt;Node11</title>
<path fill="none" stroke="#63b8ff" d="M204.2,-54.51C213.74,-46.85 227.67,-35.66 239.11,-26.47"/>
<polygon fill="#63b8ff" stroke="#63b8ff" points="241.18,-29.3 246.79,-20.31 236.8,-23.84 241.18,-29.3"/>
</g>
<!-- Node15&#45;&gt;Node2 -->
<g id="edge19" class="edge">
<title>Node15&#45;&gt;Node2</title>
<path fill="none" stroke="#63b8ff" d="M622.82,-164.57C624.96,-151.57 627.08,-127.14 617,-110 591.11,-65.97 537.19,-38.15 500.29,-23.45"/>
<polygon fill="#63b8ff" stroke="#63b8ff" points="501.91,-20.32 491.32,-20.02 499.41,-26.86 501.91,-20.32"/>
</g>
<!-- Node16 -->
<g id="node16" class="node">
<title>Node16</title>
<g id="a_node16"><a xlink:title=" ">
<polygon fill="#e0e0e0" stroke="#999999" points="756,-129 664,-129 664,-110 756,-110 756,-129"/>
<text text-anchor="middle" x="710" y="-117" font-family="Helvetica,sans-Serif" font-size="10.00">Seeed_mbedtls.h</text>
</a>
</g>
</g>
<!-- Node15&#45;&gt;Node16 -->
<g id="edge20" class="edge">
<title>Node15&#45;&gt;Node16</title>
<path fill="none" stroke="#63b8ff" d="M636.1,-164.51C649.6,-156.47 669.65,-144.53 685.46,-135.11"/>
<polygon fill="#63b8ff" stroke="#63b8ff" points="687.02,-138.26 693.82,-130.13 683.44,-132.24 687.02,-138.26"/>
</g>
<!-- Node17 -->
<g id="node17" class="node">
<title>Node17</title>
<g id="a_node17"><a xlink:title=" ">
<polygon fill="#e0e0e0" stroke="#999999" points="538,-129 490,-129 490,-110 538,-110 538,-129"/>
<text text-anchor="middle" x="514" y="-117" font-family="Helvetica,sans-Serif" font-size="10.00">stdint.h</text>
</a>
</g>
</g>
<!-- Node15&#45;&gt;Node17 -->
<g id="edge21" class="edge">
<title>Node15&#45;&gt;Node17</title>
<path fill="none" stroke="#63b8ff" d="M602.85,-164.51C586.22,-156.27 561.36,-143.96 542.15,-134.45"/>
<polygon fill="#63b8ff" stroke="#63b8ff" points="543.75,-131.33 533.24,-130.03 540.65,-137.6 543.75,-131.33"/>
</g>
<!-- Node18 -->
<g id="node18" class="node">
<title>Node18</title>
<g id="a_node18"><a xlink:title=" ">
<polygon fill="#e0e0e0" stroke="#999999" points="607.5,-129 556.5,-129 556.5,-110 607.5,-110 607.5,-129"/>
<text text-anchor="middle" x="582" y="-117" font-family="Helvetica,sans-Serif" font-size="10.00">stddef.h</text>
</a>
</g>
</g>
<!-- Node15&#45;&gt;Node18 -->
<g id="edge22" class="edge">
<title>Node15&#45;&gt;Node18</title>
<path fill="none" stroke="#63b8ff" d="M614.56,-164.75C609.34,-157.66 601.81,-147.42 595.31,-138.59"/>
<polygon fill="#63b8ff" stroke="#63b8ff" points="598.22,-136.64 589.48,-130.66 592.58,-140.79 598.22,-136.64"/>
</g>
<!-- Node19&#45;&gt;Node4 -->
<g id="edge24" class="edge">
<title>Node19&#45;&gt;Node4</title>
<path fill="none" stroke="#63b8ff" d="M362.44,-219.51C341.1,-211.01 308.84,-198.15 284.69,-188.53"/>
<polygon fill="#63b8ff" stroke="#63b8ff" points="286.22,-185.37 275.63,-184.92 283.63,-191.87 286.22,-185.37"/>
</g>
<!-- Node20 -->
<g id="node20" class="node">
<title>Node20</title>
<g id="a_node20"><a xlink:href="IUpdater_8h.html" target="_top" xlink:title=" ">
<polygon fill="white" stroke="#666666" points="493,-184 431,-184 431,-165 493,-165 493,-184"/>
<text text-anchor="middle" x="462" y="-172" font-family="Helvetica,sans-Serif" font-size="10.00">IUpdater.h</text>
</a>
</g>
</g>
<!-- Node19&#45;&gt;Node20 -->
<g id="edge25" class="edge">
<title>Node19&#45;&gt;Node20</title>
<path fill="none" stroke="#63b8ff" d="M398.06,-219.51C409.52,-211.62 426.43,-199.98 439.98,-190.65"/>
<polygon fill="#63b8ff" stroke="#63b8ff" points="441.63,-193.77 447.88,-185.22 437.66,-188 441.63,-193.77"/>
</g>
<!-- Node20&#45;&gt;Node2 -->
<g id="edge26" class="edge">
<title>Node20&#45;&gt;Node2</title>
<path fill="none" stroke="#63b8ff" d="M462,-164.74C462,-139.53 462,-66.36 462,-30.62"/>
<polygon fill="#63b8ff" stroke="#63b8ff" points="465.5,-30.82 462,-20.82 458.5,-30.82 465.5,-30.82"/>
</g>
<!-- Node20&#45;&gt;Node17 -->
<g id="edge30" class="edge">
<title>Node20&#45;&gt;Node17</title>
<path fill="none" stroke="#63b8ff" d="M470.59,-164.75C477.84,-157.35 488.45,-146.54 497.37,-137.45"/>
<polygon fill="#63b8ff" stroke="#63b8ff" points="499.66,-140.11 504.17,-130.52 494.66,-135.21 499.66,-140.11"/>
</g>
<!-- Node20&#45;&gt;Node18 -->
<g id="edge29" class="edge">
<title>Node20&#45;&gt;Node18</title>
<path fill="none" stroke="#63b8ff" d="M482.36,-164.51C501.35,-156.12 529.93,-143.5 551.62,-133.92"/>
<polygon fill="#63b8ff" stroke="#63b8ff" points="552.83,-137.21 560.56,-129.97 550,-130.81 552.83,-137.21"/>
</g>
<!-- Node21 -->
<g id="node21" class="node">
<title>Node21</title>
<g id="a_node21"><a xlink:href="DefaultLogger_8h.html" target="_top" xlink:title=" ">
<polygon fill="white" stroke="#666666" points="433.5,-129 348.5,-129 348.5,-110 433.5,-110 433.5,-129"/>
<text text-anchor="middle" x="391" y="-117" font-family="Helvetica,sans-Serif" font-size="10.00">DefaultLogger.h</text>
</a>
</g>
</g>
<!-- Node20&#45;&gt;Node21 -->
<g id="edge27" class="edge">
<title>Node20&#45;&gt;Node21</title>
<path fill="none" stroke="#63b8ff" d="M449.96,-164.51C439.59,-156.77 424.4,-145.43 412.03,-136.2"/>
<polygon fill="#63b8ff" stroke="#63b8ff" points="414.19,-133.44 404.08,-130.26 410,-139.05 414.19,-133.44"/>
</g>
<!-- Node21&#45;&gt;Node6 -->
<g id="edge28" class="edge">
<title>Node21&#45;&gt;Node6</title>
<path fill="none" stroke="#63b8ff" d="M357.41,-109.51C322.22,-100.09 267.05,-85.32 230.47,-75.53"/>
<polygon fill="#63b8ff" stroke="#63b8ff" points="231.78,-72.26 221.22,-73.05 229.97,-79.02 231.78,-72.26"/>
</g>
<!-- Node22&#45;&gt;Node17 -->
<g id="edge32" class="edge">
<title>Node22&#45;&gt;Node17</title>
<path fill="none" stroke="#63b8ff" d="M527.77,-219.66C525.39,-202.5 520.08,-164.26 516.79,-140.6"/>
<polygon fill="#63b8ff" stroke="#63b8ff" points="520.3,-140.38 515.45,-130.96 513.36,-141.35 520.3,-140.38"/>
</g>
</g>
</svg>
