<?xml version="1.0" encoding="UTF-8" standalone="no"?>
<!DOCTYPE svg PUBLIC "-//W3C//DTD SVG 1.1//EN"
 "http://www.w3.org/Graphics/SVG/1.1/DTD/svg11.dtd">
<!-- Generated by graphviz version 7.0.5 (20221223.1930)
 -->
<!-- Title: src/OTA_Firmware_Update.h Pages: 1 -->
<svg width="947pt" height="412pt"
 viewBox="0.00 0.00 947.00 412.00" xmlns="http://www.w3.org/2000/svg" xmlns:xlink="http://www.w3.org/1999/xlink">
<g id="graph0" class="graph" transform="scale(1 1) rotate(0) translate(4 408)">
<title>src/OTA_Firmware_Update.h</title>
<!-- Node1 -->
<g id="node1" class="node">
<title>Node1</title>
<g id="a_node1"><a xlink:title=" ">
<polygon fill="#999999" stroke="#666666" points="754.5,-404 611.5,-404 611.5,-385 754.5,-385 754.5,-404"/>
<text text-anchor="middle" x="683" y="-392" font-family="Helvetica,sans-Serif" font-size="10.00">src/OTA_Firmware_Update.h</text>
</a>
</g>
</g>
<!-- Node2 -->
<g id="node2" class="node">
<title>Node2</title>
<g id="a_node2"><a xlink:href="Attribute__Request_8h.html" target="_top" xlink:title=" ">
<polygon fill="white" stroke="#666666" points="695,-349 593,-349 593,-330 695,-330 695,-349"/>
<text text-anchor="middle" x="644" y="-337" font-family="Helvetica,sans-Serif" font-size="10.00">Attribute_Request.h</text>
</a>
</g>
</g>
<!-- Node1&#45;&gt;Node2 -->
<g id="edge1" class="edge">
<title>Node1&#45;&gt;Node2</title>
<path fill="none" stroke="#63b8ff" d="M676.56,-384.75C671.34,-377.66 663.81,-367.42 657.31,-358.59"/>
<polygon fill="#63b8ff" stroke="#63b8ff" points="660.22,-356.64 651.48,-350.66 654.58,-360.79 660.22,-356.64"/>
</g>
<!-- Node18 -->
<g id="node18" class="node">
<title>Node18</title>
<g id="a_node18"><a xlink:href="IAPI__Implementation_8h.html" target="_top" xlink:title=" ">
<polygon fill="white" stroke="#666666" points="781,-239 665,-239 665,-220 781,-220 781,-239"/>
<text text-anchor="middle" x="723" y="-227" font-family="Helvetica,sans-Serif" font-size="10.00">IAPI_Implementation.h</text>
</a>
</g>
</g>
<!-- Node1&#45;&gt;Node18 -->
<g id="edge53" class="edge">
<title>Node1&#45;&gt;Node18</title>
<path fill="none" stroke="#63b8ff" d="M688.12,-384.6C692.95,-375.82 700.01,-361.89 704,-349 714.39,-315.41 719.34,-274.61 721.5,-250.71"/>
<polygon fill="#63b8ff" stroke="#63b8ff" points="724.98,-251.08 722.31,-240.82 718.01,-250.5 724.98,-251.08"/>
</g>
<!-- Node23 -->
<g id="node23" class="node">
<title>Node23</title>
<g id="a_node23"><a xlink:href="Shared__Attribute__Update_8h.html" target="_top" xlink:title=" ">
<polygon fill="white" stroke="#666666" points="885,-294 751,-294 751,-275 885,-275 885,-294"/>
<text text-anchor="middle" x="818" y="-282" font-family="Helvetica,sans-Serif" font-size="10.00">Shared_Attribute_Update.h</text>
</a>
</g>
</g>
<!-- Node1&#45;&gt;Node23 -->
<g id="edge29" class="edge">
<title>Node1&#45;&gt;Node23</title>
<path fill="none" stroke="#63b8ff" d="M694.05,-384.66C716.79,-366.47 769.13,-324.6 797.99,-301.51"/>
<polygon fill="#63b8ff" stroke="#63b8ff" points="800,-304.39 805.62,-295.41 795.62,-298.92 800,-304.39"/>
</g>
<!-- Node25 -->
<g id="node25" class="node">
<title>Node25</title>
<g id="a_node25"><a xlink:href="OTA__Handler_8h.html" target="_top" xlink:title=" ">
<polygon fill="white" stroke="#666666" points="344.5,-294 261.5,-294 261.5,-275 344.5,-275 344.5,-294"/>
<text text-anchor="middle" x="303" y="-282" font-family="Helvetica,sans-Serif" font-size="10.00">OTA_Handler.h</text>
</a>
</g>
</g>
<!-- Node1&#45;&gt;Node25 -->
<g id="edge34" class="edge">
<title>Node1&#45;&gt;Node25</title>
<path fill="none" stroke="#63b8ff" d="M651.58,-384.57C583.45,-365.21 422.07,-319.34 345.17,-297.49"/>
<polygon fill="#63b8ff" stroke="#63b8ff" points="346.49,-294.22 335.91,-294.85 344.58,-300.95 346.49,-294.22"/>
</g>
<!-- Node3 -->
<g id="node3" class="node">
<title>Node3</title>
<g id="a_node3"><a xlink:href="Attribute__Request__Callback_8h.html" target="_top" xlink:title=" ">
<polygon fill="white" stroke="#666666" points="656.5,-294 511.5,-294 511.5,-275 656.5,-275 656.5,-294"/>
<text text-anchor="middle" x="584" y="-282" font-family="Helvetica,sans-Serif" font-size="10.00">Attribute_Request_Callback.h</text>
</a>
</g>
</g>
<!-- Node2&#45;&gt;Node3 -->
<g id="edge2" class="edge">
<title>Node2&#45;&gt;Node3</title>
<path fill="none" stroke="#63b8ff" d="M633.82,-329.51C625.24,-321.93 612.73,-310.88 602.4,-301.75"/>
<polygon fill="#63b8ff" stroke="#63b8ff" points="604.97,-299.36 595.16,-295.36 600.34,-304.6 604.97,-299.36"/>
</g>
<!-- Node2&#45;&gt;Node18 -->
<g id="edge21" class="edge">
<title>Node2&#45;&gt;Node18</title>
<path fill="none" stroke="#63b8ff" d="M650.46,-329.66C663.37,-312.02 692.55,-272.12 709.71,-248.67"/>
<polygon fill="#63b8ff" stroke="#63b8ff" points="712.47,-250.82 715.55,-240.68 706.82,-246.69 712.47,-250.82"/>
</g>
<!-- Node4 -->
<g id="node4" class="node">
<title>Node4</title>
<g id="a_node4"><a xlink:href="Callback__Watchdog_8h.html" target="_top" xlink:title=" ">
<polygon fill="white" stroke="#666666" points="609,-239 499,-239 499,-220 609,-220 609,-239"/>
<text text-anchor="middle" x="554" y="-227" font-family="Helvetica,sans-Serif" font-size="10.00">Callback_Watchdog.h</text>
</a>
</g>
</g>
<!-- Node3&#45;&gt;Node4 -->
<g id="edge3" class="edge">
<title>Node3&#45;&gt;Node4</title>
<path fill="none" stroke="#63b8ff" d="M579.05,-274.75C575.16,-267.88 569.61,-258.08 564.72,-249.45"/>
<polygon fill="#63b8ff" stroke="#63b8ff" points="567.78,-247.74 559.81,-240.76 561.69,-251.19 567.78,-247.74"/>
</g>
<!-- Node17 -->
<g id="node17" class="node">
<title>Node17</title>
<g id="a_node17"><a xlink:href="Constants_8h.html" target="_top" xlink:title=" ">
<polygon fill="white" stroke="#666666" points="649,-184 581,-184 581,-165 649,-165 649,-184"/>
<text text-anchor="middle" x="615" y="-172" font-family="Helvetica,sans-Serif" font-size="10.00">Constants.h</text>
</a>
</g>
</g>
<!-- Node3&#45;&gt;Node17 -->
<g id="edge19" class="edge">
<title>Node3&#45;&gt;Node17</title>
<path fill="none" stroke="#63b8ff" d="M593.61,-274.69C601.87,-266.41 613.2,-253.18 618,-239 622.72,-225.04 621.7,-208.37 619.65,-195.62"/>
<polygon fill="#63b8ff" stroke="#63b8ff" points="623.1,-195.02 617.71,-185.89 616.23,-196.38 623.1,-195.02"/>
</g>
<!-- Node5 -->
<g id="node5" class="node">
<title>Node5</title>
<g id="a_node5"><a xlink:href="Callback_8h.html" target="_top" xlink:title=" ">
<polygon fill="white" stroke="#666666" points="767,-184 705,-184 705,-165 767,-165 767,-184"/>
<text text-anchor="middle" x="736" y="-172" font-family="Helvetica,sans-Serif" font-size="10.00">Callback.h</text>
</a>
</g>
</g>
<!-- Node4&#45;&gt;Node5 -->
<g id="edge4" class="edge">
<title>Node4&#45;&gt;Node5</title>
<path fill="none" stroke="#63b8ff" d="M584.87,-219.51C615.03,-210.73 661.14,-197.3 694.5,-187.59"/>
<polygon fill="#63b8ff" stroke="#63b8ff" points="695.2,-191.03 703.83,-184.87 693.25,-184.31 695.2,-191.03"/>
</g>
<!-- Node16 -->
<g id="node16" class="node">
<title>Node16</title>
<g id="a_node16"><a xlink:title=" ">
<polygon fill="#e0e0e0" stroke="#999999" points="437,-184 357,-184 357,-165 437,-165 437,-184"/>
<text text-anchor="middle" x="397" y="-172" font-family="Helvetica,sans-Serif" font-size="10.00">arduino&#45;timer.h</text>
</a>
</g>
</g>
<!-- Node4&#45;&gt;Node16 -->
<g id="edge18" class="edge">
<title>Node4&#45;&gt;Node16</title>
<path fill="none" stroke="#63b8ff" d="M527.37,-219.51C501.8,-210.88 462.95,-197.76 434.31,-188.1"/>
<polygon fill="#63b8ff" stroke="#63b8ff" points="435.53,-184.81 424.94,-184.93 433.29,-191.45 435.53,-184.81"/>
</g>
<!-- Node6 -->
<g id="node6" class="node">
<title>Node6</title>
<g id="a_node6"><a xlink:href="Configuration_8h.html" target="_top" xlink:title=" ">
<polygon fill="white" stroke="#666666" points="381,-19 301,-19 301,0 381,0 381,-19"/>
<text text-anchor="middle" x="341" y="-7" font-family="Helvetica,sans-Serif" font-size="10.00">Configuration.h</text>
</a>
</g>
</g>
<!-- Node5&#45;&gt;Node6 -->
<g id="edge5" class="edge">
<title>Node5&#45;&gt;Node6</title>
<path fill="none" stroke="#63b8ff" d="M704.81,-167.89C669.43,-160.99 610.38,-147.84 562,-129 486.38,-99.56 403.71,-50.16 364.35,-25.48"/>
<polygon fill="#63b8ff" stroke="#63b8ff" points="366.26,-22.55 355.93,-20.16 362.52,-28.46 366.26,-22.55"/>
</g>
<!-- Node7 -->
<g id="node7" class="node">
<title>Node7</title>
<g id="a_node7"><a xlink:href="Array_8h.html" target="_top" xlink:title=" ">
<polygon fill="white" stroke="#666666" points="757.5,-129 710.5,-129 710.5,-110 757.5,-110 757.5,-129"/>
<text text-anchor="middle" x="734" y="-117" font-family="Helvetica,sans-Serif" font-size="10.00">Array.h</text>
</a>
</g>
</g>
<!-- Node5&#45;&gt;Node7 -->
<g id="edge6" class="edge">
<title>Node5&#45;&gt;Node7</title>
<path fill="none" stroke="#63b8ff" d="M735.67,-164.75C735.43,-158.27 735.08,-149.16 734.77,-140.9"/>
<polygon fill="#63b8ff" stroke="#63b8ff" points="738.27,-140.82 734.39,-130.95 731.27,-141.08 738.27,-140.82"/>
</g>
<!-- Node9 -->
<g id="node9" class="node">
<title>Node9</title>
<g id="a_node9"><a xlink:title=" ">
<polygon fill="#e0e0e0" stroke="#999999" points="825,-19 747,-19 747,0 825,0 825,-19"/>
<text text-anchor="middle" x="786" y="-7" font-family="Helvetica,sans-Serif" font-size="10.00">ArduinoJson.h</text>
</a>
</g>
</g>
<!-- Node5&#45;&gt;Node9 -->
<g id="edge15" class="edge">
<title>Node5&#45;&gt;Node9</title>
<path fill="none" stroke="#63b8ff" d="M743.98,-164.67C751.19,-156.17 761.5,-142.62 767,-129 780.22,-96.25 784.27,-54.91 785.49,-30.71"/>
<polygon fill="#63b8ff" stroke="#63b8ff" points="788.97,-31.12 785.85,-21 781.98,-30.86 788.97,-31.12"/>
</g>
<!-- Node14 -->
<g id="node14" class="node">
<title>Node14</title>
<g id="a_node14"><a xlink:title=" ">
<polygon fill="#e0e0e0" stroke="#999999" points="692.5,-129 633.5,-129 633.5,-110 692.5,-110 692.5,-129"/>
<text text-anchor="middle" x="663" y="-117" font-family="Helvetica,sans-Serif" font-size="10.00">functional</text>
</a>
</g>
</g>
<!-- Node5&#45;&gt;Node14 -->
<g id="edge16" class="edge">
<title>Node5&#45;&gt;Node14</title>
<path fill="none" stroke="#63b8ff" d="M723.62,-164.51C712.85,-156.7 697.03,-145.21 684.25,-135.93"/>
<polygon fill="#63b8ff" stroke="#63b8ff" points="686.57,-133.29 676.43,-130.25 682.46,-138.95 686.57,-133.29"/>
</g>
<!-- Node15 -->
<g id="node15" class="node">
<title>Node15</title>
<g id="a_node15"><a xlink:title=" ">
<polygon fill="#e0e0e0" stroke="#999999" points="615,-129 571,-129 571,-110 615,-110 615,-129"/>
<text text-anchor="middle" x="593" y="-117" font-family="Helvetica,sans-Serif" font-size="10.00">vector</text>
</a>
</g>
</g>
<!-- Node5&#45;&gt;Node15 -->
<g id="edge17" class="edge">
<title>Node5&#45;&gt;Node15</title>
<path fill="none" stroke="#63b8ff" d="M711.74,-164.51C688.18,-155.77 652.21,-142.45 626.04,-132.75"/>
<polygon fill="#63b8ff" stroke="#63b8ff" points="627.5,-129.55 616.91,-129.36 625.07,-136.12 627.5,-129.55"/>
</g>
<!-- Node8 -->
<g id="node8" class="node">
<title>Node8</title>
<g id="a_node8"><a xlink:href="Helper_8h.html" target="_top" xlink:title=" ">
<polygon fill="white" stroke="#666666" points="621.5,-74 568.5,-74 568.5,-55 621.5,-55 621.5,-74"/>
<text text-anchor="middle" x="595" y="-62" font-family="Helvetica,sans-Serif" font-size="10.00">Helper.h</text>
</a>
</g>
</g>
<!-- Node7&#45;&gt;Node8 -->
<g id="edge7" class="edge">
<title>Node7&#45;&gt;Node8</title>
<path fill="none" stroke="#63b8ff" d="M710.42,-109.51C688.02,-100.97 654.1,-88.03 628.82,-78.4"/>
<polygon fill="#63b8ff" stroke="#63b8ff" points="630.24,-75.19 619.65,-74.9 627.74,-81.73 630.24,-75.19"/>
</g>
<!-- Node11 -->
<g id="node11" class="node">
<title>Node11</title>
<g id="a_node11"><a xlink:title=" ">
<polygon fill="#e0e0e0" stroke="#999999" points="728.5,-19 677.5,-19 677.5,0 728.5,0 728.5,-19"/>
<text text-anchor="middle" x="703" y="-7" font-family="Helvetica,sans-Serif" font-size="10.00">assert.h</text>
</a>
</g>
</g>
<!-- Node7&#45;&gt;Node11 -->
<g id="edge14" class="edge">
<title>Node7&#45;&gt;Node11</title>
<path fill="none" stroke="#63b8ff" d="M731.46,-109.66C726.51,-92.42 715.46,-53.9 708.67,-30.27"/>
<polygon fill="#63b8ff" stroke="#63b8ff" points="712.11,-29.56 705.99,-20.92 705.38,-31.49 712.11,-29.56"/>
</g>
<!-- Node8&#45;&gt;Node6 -->
<g id="edge8" class="edge">
<title>Node8&#45;&gt;Node6</title>
<path fill="none" stroke="#63b8ff" d="M568.3,-57.93C526.77,-49.26 445.94,-32.4 392.72,-21.29"/>
<polygon fill="#63b8ff" stroke="#63b8ff" points="393.46,-17.87 382.96,-19.26 392.03,-24.72 393.46,-17.87"/>
</g>
<!-- Node8&#45;&gt;Node9 -->
<g id="edge9" class="edge">
<title>Node8&#45;&gt;Node9</title>
<path fill="none" stroke="#63b8ff" d="M621.96,-56.02C653.37,-47.3 705.67,-32.79 742.77,-22.5"/>
<polygon fill="#63b8ff" stroke="#63b8ff" points="743.6,-25.9 752.3,-19.85 741.72,-19.15 743.6,-25.9"/>
</g>
<!-- Node10 -->
<g id="node10" class="node">
<title>Node10</title>
<g id="a_node10"><a xlink:title=" ">
<polygon fill="#e0e0e0" stroke="#999999" points="659.5,-19 612.5,-19 612.5,0 659.5,0 659.5,-19"/>
<text text-anchor="middle" x="636" y="-7" font-family="Helvetica,sans-Serif" font-size="10.00">iterator</text>
</a>
</g>
</g>
<!-- Node8&#45;&gt;Node10 -->
<g id="edge10" class="edge">
<title>Node8&#45;&gt;Node10</title>
<path fill="none" stroke="#63b8ff" d="M601.77,-54.75C607.32,-47.58 615.34,-37.2 622.23,-28.3"/>
<polygon fill="#63b8ff" stroke="#63b8ff" points="624.81,-30.69 628.16,-20.64 619.27,-26.41 624.81,-30.69"/>
</g>
<!-- Node8&#45;&gt;Node11 -->
<g id="edge11" class="edge">
<title>Node8&#45;&gt;Node11</title>
<path fill="none" stroke="#63b8ff" d="M613.32,-54.51C630.18,-46.24 655.43,-33.84 674.85,-24.31"/>
<polygon fill="#63b8ff" stroke="#63b8ff" points="676.16,-27.57 683.59,-20.02 673.07,-21.29 676.16,-27.57"/>
</g>
<!-- Node12 -->
<g id="node12" class="node">
<title>Node12</title>
<g id="a_node12"><a xlink:title=" ">
<polygon fill="#e0e0e0" stroke="#999999" points="531.5,-19 480.5,-19 480.5,0 531.5,0 531.5,-19"/>
<text text-anchor="middle" x="506" y="-7" font-family="Helvetica,sans-Serif" font-size="10.00">stdarg.h</text>
</a>
</g>
</g>
<!-- Node8&#45;&gt;Node12 -->
<g id="edge12" class="edge">
<title>Node8&#45;&gt;Node12</title>
<path fill="none" stroke="#63b8ff" d="M579.9,-54.51C566.4,-46.47 546.35,-34.53 530.54,-25.11"/>
<polygon fill="#63b8ff" stroke="#63b8ff" points="532.56,-22.24 522.18,-20.13 528.98,-28.26 532.56,-22.24"/>
</g>
<!-- Node13 -->
<g id="node13" class="node">
<title>Node13</title>
<g id="a_node13"><a xlink:title=" ">
<polygon fill="#e0e0e0" stroke="#999999" points="594.5,-19 549.5,-19 549.5,0 594.5,0 594.5,-19"/>
<text text-anchor="middle" x="572" y="-7" font-family="Helvetica,sans-Serif" font-size="10.00">stdio.h</text>
</a>
</g>
</g>
<!-- Node8&#45;&gt;Node13 -->
<g id="edge13" class="edge">
<title>Node8&#45;&gt;Node13</title>
<path fill="none" stroke="#63b8ff" d="M591.2,-54.75C588.26,-47.96 584.06,-38.3 580.35,-29.73"/>
<polygon fill="#63b8ff" stroke="#63b8ff" points="583.67,-28.61 576.48,-20.83 577.25,-31.4 583.67,-28.61"/>
</g>
<!-- Node17&#45;&gt;Node6 -->
<g id="edge20" class="edge">
<title>Node17&#45;&gt;Node6</title>
<path fill="none" stroke="#63b8ff" d="M580.74,-166.69C577.78,-166.12 574.84,-165.55 572,-165 486.31,-148.54 444.46,-186.7 379,-129 350.45,-103.83 343.2,-57.19 341.45,-30.54"/>
<polygon fill="#63b8ff" stroke="#63b8ff" points="344.96,-30.6 341.03,-20.76 337.96,-30.9 344.96,-30.6"/>
</g>
<!-- Node18&#45;&gt;Node5 -->
<g id="edge22" class="edge">
<title>Node18&#45;&gt;Node5</title>
<path fill="none" stroke="#63b8ff" d="M725.15,-219.75C726.76,-213.19 729.02,-203.95 731.07,-195.6"/>
<polygon fill="#63b8ff" stroke="#63b8ff" points="734.46,-196.46 733.45,-185.91 727.66,-194.79 734.46,-196.46"/>
</g>
<!-- Node18&#45;&gt;Node17 -->
<g id="edge23" class="edge">
<title>Node18&#45;&gt;Node17</title>
<path fill="none" stroke="#63b8ff" d="M704.68,-219.51C687.82,-211.24 662.57,-198.84 643.15,-189.31"/>
<polygon fill="#63b8ff" stroke="#63b8ff" points="644.93,-186.29 634.41,-185.02 641.84,-192.57 644.93,-186.29"/>
</g>
<!-- Node19 -->
<g id="node19" class="node">
<title>Node19</title>
<g id="a_node19"><a xlink:href="DefaultLogger_8h.html" target="_top" xlink:title=" ">
<polygon fill="white" stroke="#666666" points="473.5,-129 388.5,-129 388.5,-110 473.5,-110 473.5,-129"/>
<text text-anchor="middle" x="431" y="-117" font-family="Helvetica,sans-Serif" font-size="10.00">DefaultLogger.h</text>
</a>
</g>
</g>
<!-- Node18&#45;&gt;Node19 -->
<g id="edge24" class="edge">
<title>Node18&#45;&gt;Node19</title>
<path fill="none" stroke="#63b8ff" d="M716.9,-219.91C706.52,-205.98 683.98,-178.65 658,-165 628.56,-149.54 542.23,-135.46 484.92,-127.44"/>
<polygon fill="#63b8ff" stroke="#63b8ff" points="485.4,-123.98 475.02,-126.08 484.45,-130.91 485.4,-123.98"/>
</g>
<!-- Node20 -->
<g id="node20" class="node">
<title>Node20</title>
<g id="a_node20"><a xlink:href="API__Process__Type_8h.html" target="_top" xlink:title=" ">
<polygon fill="white" stroke="#666666" points="563,-184 455,-184 455,-165 563,-165 563,-184"/>
<text text-anchor="middle" x="509" y="-172" font-family="Helvetica,sans-Serif" font-size="10.00">API_Process_Type.h</text>
</a>
</g>
</g>
<!-- Node18&#45;&gt;Node20 -->
<g id="edge26" class="edge">
<title>Node18&#45;&gt;Node20</title>
<path fill="none" stroke="#63b8ff" d="M686.7,-219.51C650.77,-210.61 595.6,-196.95 556.27,-187.21"/>
<polygon fill="#63b8ff" stroke="#63b8ff" points="557.14,-183.82 546.59,-184.81 555.46,-190.61 557.14,-183.82"/>
</g>
<!-- Node22 -->
<g id="node22" class="node">
<title>Node22</title>
<g id="a_node22"><a xlink:title=" ">
<polygon fill="#e0e0e0" stroke="#999999" points="841,-184 785,-184 785,-165 841,-165 841,-184"/>
<text text-anchor="middle" x="813" y="-172" font-family="Helvetica,sans-Serif" font-size="10.00">algorithm</text>
</a>
</g>
</g>
<!-- Node18&#45;&gt;Node22 -->
<g id="edge28" class="edge">
<title>Node18&#45;&gt;Node22</title>
<path fill="none" stroke="#63b8ff" d="M738.27,-219.51C751.93,-211.47 772.2,-199.53 788.18,-190.11"/>
<polygon fill="#63b8ff" stroke="#63b8ff" points="789.81,-193.22 796.65,-185.13 786.26,-187.18 789.81,-193.22"/>
</g>
<!-- Node19&#45;&gt;Node8 -->
<g id="edge25" class="edge">
<title>Node19&#45;&gt;Node8</title>
<path fill="none" stroke="#63b8ff" d="M458.82,-109.51C485.89,-100.76 527.21,-87.41 557.23,-77.71"/>
<polygon fill="#63b8ff" stroke="#63b8ff" points="558.25,-81.05 566.69,-74.65 556.1,-74.39 558.25,-81.05"/>
</g>
<!-- Node21 -->
<g id="node21" class="node">
<title>Node21</title>
<g id="a_node21"><a xlink:title=" ">
<polygon fill="#e0e0e0" stroke="#999999" points="294,-129 246,-129 246,-110 294,-110 294,-129"/>
<text text-anchor="middle" x="270" y="-117" font-family="Helvetica,sans-Serif" font-size="10.00">stdint.h</text>
</a>
</g>
</g>
<!-- Node20&#45;&gt;Node21 -->
<g id="edge27" class="edge">
<title>Node20&#45;&gt;Node21</title>
<path fill="none" stroke="#63b8ff" d="M468.46,-164.51C422.71,-154.36 349.02,-138.02 305.47,-128.37"/>
<polygon fill="#63b8ff" stroke="#63b8ff" points="306.29,-124.96 295.77,-126.22 304.78,-131.8 306.29,-124.96"/>
</g>
<!-- Node23&#45;&gt;Node18 -->
<g id="edge33" class="edge">
<title>Node23&#45;&gt;Node18</title>
<path fill="none" stroke="#63b8ff" d="M801.88,-274.51C787.33,-266.39 765.66,-254.3 748.71,-244.85"/>
<polygon fill="#63b8ff" stroke="#63b8ff" points="750.64,-241.91 740.2,-240.1 747.23,-248.02 750.64,-241.91"/>
</g>
<!-- Node24 -->
<g id="node24" class="node">
<title>Node24</title>
<g id="a_node24"><a xlink:href="Shared__Attribute__Callback_8h.html" target="_top" xlink:title=" ">
<polygon fill="white" stroke="#666666" points="939,-239 799,-239 799,-220 939,-220 939,-239"/>
<text text-anchor="middle" x="869" y="-227" font-family="Helvetica,sans-Serif" font-size="10.00">Shared_Attribute_Callback.h</text>
</a>
</g>
</g>
<!-- Node23&#45;&gt;Node24 -->
<g id="edge30" class="edge">
<title>Node23&#45;&gt;Node24</title>
<path fill="none" stroke="#63b8ff" d="M826.42,-274.75C833.47,-267.43 843.73,-256.76 852.41,-247.74"/>
<polygon fill="#63b8ff" stroke="#63b8ff" points="854.93,-250.17 859.35,-240.53 849.89,-245.31 854.93,-250.17"/>
</g>
<!-- Node24&#45;&gt;Node5 -->
<g id="edge31" class="edge">
<title>Node24&#45;&gt;Node5</title>
<path fill="none" stroke="#63b8ff" d="M846.44,-219.51C825.1,-211.01 792.84,-198.15 768.69,-188.53"/>
<polygon fill="#63b8ff" stroke="#63b8ff" points="770.22,-185.37 759.63,-184.92 767.63,-191.87 770.22,-185.37"/>
</g>
<!-- Node24&#45;&gt;Node17 -->
<g id="edge32" class="edge">
<title>Node24&#45;&gt;Node17</title>
<path fill="none" stroke="#63b8ff" d="M825.91,-219.51C779.89,-209.91 707.24,-194.75 660.36,-184.97"/>
<polygon fill="#63b8ff" stroke="#63b8ff" points="661.31,-181.59 650.8,-182.97 659.88,-188.44 661.31,-181.59"/>
</g>
<!-- Node25&#45;&gt;Node4 -->
<g id="edge36" class="edge">
<title>Node25&#45;&gt;Node4</title>
<path fill="none" stroke="#63b8ff" d="M344.73,-274.69C387.48,-265.66 454.11,-251.59 500.67,-241.76"/>
<polygon fill="#63b8ff" stroke="#63b8ff" points="501.21,-245.22 510.27,-239.73 499.76,-238.38 501.21,-245.22"/>
</g>
<!-- Node25&#45;&gt;Node6 -->
<g id="edge35" class="edge">
<title>Node25&#45;&gt;Node6</title>
<path fill="none" stroke="#63b8ff" d="M261.23,-279.96C216.93,-275.05 145.67,-263.79 89,-239 44.48,-219.53 0,-224.09 0,-175.5 0,-175.5 0,-175.5 0,-118.5 0,-58.59 193.72,-27.64 289.14,-16.02"/>
<polygon fill="#63b8ff" stroke="#63b8ff" points="289.52,-19.5 299.04,-14.85 288.7,-12.55 289.52,-19.5"/>
</g>
<!-- Node25&#45;&gt;Node8 -->
<g id="edge51" class="edge">
<title>Node25&#45;&gt;Node8</title>
<path fill="none" stroke="#63b8ff" d="M305.27,-274.54C311.74,-249.65 330.94,-180.42 348,-165 393.74,-123.64 424.9,-152.29 482,-129 514.74,-115.65 549.86,-94.77 572.1,-80.63"/>
<polygon fill="#63b8ff" stroke="#63b8ff" points="573.86,-83.66 580.37,-75.29 570.07,-77.77 573.86,-83.66"/>
</g>
<!-- Node26 -->
<g id="node26" class="node">
<title>Node26</title>
<g id="a_node26"><a xlink:href="HashGenerator_8h.html" target="_top" xlink:title=" ">
<polygon fill="white" stroke="#666666" points="157,-184 67,-184 67,-165 157,-165 157,-184"/>
<text text-anchor="middle" x="112" y="-172" font-family="Helvetica,sans-Serif" font-size="10.00">HashGenerator.h</text>
</a>
</g>
</g>
<!-- Node25&#45;&gt;Node26 -->
<g id="edge37" class="edge">
<title>Node25&#45;&gt;Node26</title>
<path fill="none" stroke="#63b8ff" d="M261.35,-280.49C207.47,-275.63 118.12,-263.95 98,-239 87.82,-226.38 93.47,-207.93 100.39,-194.17"/>
<polygon fill="#63b8ff" stroke="#63b8ff" points="103.33,-196.09 105.19,-185.66 97.23,-192.65 103.33,-196.09"/>
</g>
<!-- Node29 -->
<g id="node29" class="node">
<title>Node29</title>
<g id="a_node29"><a xlink:href="OTA__Update__Callback_8h.html" target="_top" xlink:title=" ">
<polygon fill="white" stroke="#666666" points="481,-239 357,-239 357,-220 481,-220 481,-239"/>
<text text-anchor="middle" x="419" y="-227" font-family="Helvetica,sans-Serif" font-size="10.00">OTA_Update_Callback.h</text>
</a>
</g>
</g>
<!-- Node25&#45;&gt;Node29 -->
<g id="edge42" class="edge">
<title>Node25&#45;&gt;Node29</title>
<path fill="none" stroke="#63b8ff" d="M322.68,-274.51C340.95,-266.16 368.41,-253.61 389.35,-244.05"/>
<polygon fill="#63b8ff" stroke="#63b8ff" points="390.6,-247.33 398.24,-239.99 387.69,-240.96 390.6,-247.33"/>
</g>
<!-- Node31 -->
<g id="node31" class="node">
<title>Node31</title>
<g id="a_node31"><a xlink:href="OTA__Failure__Response_8h.html" target="_top" xlink:title=" ">
<polygon fill="white" stroke="#666666" points="235,-239 107,-239 107,-220 235,-220 235,-239"/>
<text text-anchor="middle" x="171" y="-227" font-family="Helvetica,sans-Serif" font-size="10.00">OTA_Failure_Response.h</text>
</a>
</g>
</g>
<!-- Node25&#45;&gt;Node31 -->
<g id="edge49" class="edge">
<title>Node25&#45;&gt;Node31</title>
<path fill="none" stroke="#63b8ff" d="M280.61,-274.51C259.43,-266.01 227.41,-253.15 203.44,-243.53"/>
<polygon fill="#63b8ff" stroke="#63b8ff" points="205.05,-240.4 194.47,-239.92 202.44,-246.9 205.05,-240.4"/>
</g>
<!-- Node32 -->
<g id="node32" class="node">
<title>Node32</title>
<g id="a_node32"><a xlink:title=" ">
<polygon fill="#e0e0e0" stroke="#999999" points="301,-239 253,-239 253,-220 301,-220 301,-239"/>
<text text-anchor="middle" x="277" y="-227" font-family="Helvetica,sans-Serif" font-size="10.00">string.h</text>
</a>
</g>
</g>
<!-- Node25&#45;&gt;Node32 -->
<g id="edge52" class="edge">
<title>Node25&#45;&gt;Node32</title>
<path fill="none" stroke="#63b8ff" d="M298.71,-274.75C295.38,-267.96 290.64,-258.3 286.44,-249.73"/>
<polygon fill="#63b8ff" stroke="#63b8ff" points="289.6,-248.24 282.05,-240.8 283.32,-251.32 289.6,-248.24"/>
</g>
<!-- Node26&#45;&gt;Node6 -->
<g id="edge38" class="edge">
<title>Node26&#45;&gt;Node6</title>
<path fill="none" stroke="#63b8ff" d="M94.53,-164.7C73.36,-152.85 42.23,-130.82 57,-110 109.82,-35.53 222.87,-16.36 289.3,-11.7"/>
<polygon fill="#63b8ff" stroke="#63b8ff" points="289.46,-15.2 299.23,-11.1 289.04,-8.21 289.46,-15.2"/>
</g>
<!-- Node26&#45;&gt;Node21 -->
<g id="edge40" class="edge">
<title>Node26&#45;&gt;Node21</title>
<path fill="none" stroke="#63b8ff" d="M138.8,-164.51C165.23,-155.64 205.76,-142.05 234.78,-132.32"/>
<polygon fill="#63b8ff" stroke="#63b8ff" points="235.86,-135.64 244.23,-129.14 233.64,-129.01 235.86,-135.64"/>
</g>
<!-- Node27 -->
<g id="node27" class="node">
<title>Node27</title>
<g id="a_node27"><a xlink:title=" ">
<polygon fill="#e0e0e0" stroke="#999999" points="158,-129 66,-129 66,-110 158,-110 158,-129"/>
<text text-anchor="middle" x="112" y="-117" font-family="Helvetica,sans-Serif" font-size="10.00">Seeed_mbedtls.h</text>
</a>
</g>
</g>
<!-- Node26&#45;&gt;Node27 -->
<g id="edge39" class="edge">
<title>Node26&#45;&gt;Node27</title>
<path fill="none" stroke="#63b8ff" d="M112,-164.75C112,-158.27 112,-149.16 112,-140.9"/>
<polygon fill="#63b8ff" stroke="#63b8ff" points="115.5,-140.96 112,-130.96 108.5,-140.96 115.5,-140.96"/>
</g>
<!-- Node28 -->
<g id="node28" class="node">
<title>Node28</title>
<g id="a_node28"><a xlink:title=" ">
<polygon fill="#e0e0e0" stroke="#999999" points="227.5,-129 176.5,-129 176.5,-110 227.5,-110 227.5,-129"/>
<text text-anchor="middle" x="202" y="-117" font-family="Helvetica,sans-Serif" font-size="10.00">stddef.h</text>
</a>
</g>
</g>
<!-- Node26&#45;&gt;Node28 -->
<g id="edge41" class="edge">
<title>Node26&#45;&gt;Node28</title>
<path fill="none" stroke="#63b8ff" d="M127.27,-164.51C140.93,-156.47 161.2,-144.53 177.18,-135.11"/>
<polygon fill="#63b8ff" stroke="#63b8ff" points="178.81,-138.22 185.65,-130.13 175.26,-132.18 178.81,-138.22"/>
</g>
<!-- Node29&#45;&gt;Node5 -->
<g id="edge43" class="edge">
<title>Node29&#45;&gt;Node5</title>
<path fill="none" stroke="#63b8ff" d="M472.77,-219.51C535.08,-209.09 636.45,-192.14 693.51,-182.6"/>
<polygon fill="#63b8ff" stroke="#63b8ff" points="693.86,-186.09 703.15,-180.99 692.71,-179.19 693.86,-186.09"/>
</g>
<!-- Node30 -->
<g id="node30" class="node">
<title>Node30</title>
<g id="a_node30"><a xlink:href="IUpdater_8h.html" target="_top" xlink:title=" ">
<polygon fill="white" stroke="#666666" points="301,-184 239,-184 239,-165 301,-165 301,-184"/>
<text text-anchor="middle" x="270" y="-172" font-family="Helvetica,sans-Serif" font-size="10.00">IUpdater.h</text>
</a>
</g>
</g>
<!-- Node29&#45;&gt;Node30 -->
<g id="edge44" class="edge">
<title>Node29&#45;&gt;Node30</title>
<path fill="none" stroke="#63b8ff" d="M393.72,-219.51C369.5,-210.89 332.7,-197.8 305.53,-188.14"/>
<polygon fill="#63b8ff" stroke="#63b8ff" points="306.92,-184.92 296.33,-184.87 304.58,-191.51 306.92,-184.92"/>
</g>
<!-- Node30&#45;&gt;Node6 -->
<g id="edge45" class="edge">
<title>Node30&#45;&gt;Node6</title>
<path fill="none" stroke="#63b8ff" d="M278.04,-164.54C285.39,-155.95 296.15,-142.35 303,-129 319.81,-96.25 331.08,-54.6 336.73,-30.41"/>
<polygon fill="#63b8ff" stroke="#63b8ff" points="340.14,-31.21 338.91,-20.69 333.31,-29.68 340.14,-31.21"/>
</g>
<!-- Node30&#45;&gt;Node19 -->
<g id="edge46" class="edge">
<title>Node30&#45;&gt;Node19</title>
<path fill="none" stroke="#63b8ff" d="M297.31,-164.51C323.64,-155.84 363.72,-142.65 393.13,-132.97"/>
<polygon fill="#63b8ff" stroke="#63b8ff" points="393.98,-136.37 402.39,-129.92 391.79,-129.72 393.98,-136.37"/>
</g>
<!-- Node30&#45;&gt;Node21 -->
<g id="edge48" class="edge">
<title>Node30&#45;&gt;Node21</title>
<path fill="none" stroke="#63b8ff" d="M270,-164.75C270,-158.27 270,-149.16 270,-140.9"/>
<polygon fill="#63b8ff" stroke="#63b8ff" points="273.5,-140.96 270,-130.96 266.5,-140.96 273.5,-140.96"/>
</g>
<!-- Node30&#45;&gt;Node28 -->
<g id="edge47" class="edge">
<title>Node30&#45;&gt;Node28</title>
<path fill="none" stroke="#63b8ff" d="M258.46,-164.51C248.54,-156.77 233.99,-145.43 222.14,-136.2"/>
<polygon fill="#63b8ff" stroke="#63b8ff" points="224.6,-133.68 214.56,-130.29 220.29,-139.2 224.6,-133.68"/>
</g>
<!-- Node31&#45;&gt;Node21 -->
<g id="edge50" class="edge">
<title>Node31&#45;&gt;Node21</title>
<path fill="none" stroke="#63b8ff" d="M179.1,-219.66C195.49,-201.78 232.83,-161.05 254.21,-137.73"/>
<polygon fill="#63b8ff" stroke="#63b8ff" points="256.59,-140.31 260.76,-130.58 251.43,-135.58 256.59,-140.31"/>
</g>
</g>
</svg>
