<?xml version="1.0" encoding="UTF-8" standalone="no"?>
<!DOCTYPE svg PUBLIC "-//W3C//DTD SVG 1.1//EN"
 "http://www.w3.org/Graphics/SVG/1.1/DTD/svg11.dtd">
<!-- Generated by graphviz version 7.0.5 (20221223.1930)
 -->
<!-- Title: src/Provision_Callback.h Pages: 1 -->
<svg width="451pt" height="302pt"
 viewBox="0.00 0.00 450.50 302.00" xmlns="http://www.w3.org/2000/svg" xmlns:xlink="http://www.w3.org/1999/xlink">
<g id="graph0" class="graph" transform="scale(1 1) rotate(0) translate(4 298)">
<title>src/Provision_Callback.h</title>
<!-- Node1 -->
<g id="node1" class="node">
<title>Node1</title>
<g id="a_node1"><a xlink:title=" ">
<polygon fill="#999999" stroke="#666666" points="316,-294 192,-294 192,-275 316,-275 316,-294"/>
<text text-anchor="middle" x="254" y="-282" font-family="Helvetica,sans-Serif" font-size="10.00">src/Provision_Callback.h</text>
</a>
</g>
</g>
<!-- Node2 -->
<g id="node2" class="node">
<title>Node2</title>
<g id="a_node2"><a xlink:href="Callback__Watchdog_8h.html" target="_top" xlink:title=" ">
<polygon fill="white" stroke="#666666" points="309,-239 199,-239 199,-220 309,-220 309,-239"/>
<text text-anchor="middle" x="254" y="-227" font-family="Helvetica,sans-Serif" font-size="10.00">Callback_Watchdog.h</text>
</a>
</g>
</g>
<!-- Node1&#45;&gt;Node2 -->
<g id="edge1" class="edge">
<title>Node1&#45;&gt;Node2</title>
<path fill="none" stroke="#63b8ff" d="M254,-274.75C254,-268.27 254,-259.16 254,-250.9"/>
<polygon fill="#63b8ff" stroke="#63b8ff" points="257.5,-250.96 254,-240.96 250.5,-250.96 257.5,-250.96"/>
</g>
<!-- Node3 -->
<g id="node3" class="node">
<title>Node3</title>
<g id="a_node3"><a xlink:href="Callback_8h.html" target="_top" xlink:title=" ">
<polygon fill="white" stroke="#666666" points="241,-184 179,-184 179,-165 241,-165 241,-184"/>
<text text-anchor="middle" x="210" y="-172" font-family="Helvetica,sans-Serif" font-size="10.00">Callback.h</text>
</a>
</g>
</g>
<!-- Node2&#45;&gt;Node3 -->
<g id="edge2" class="edge">
<title>Node2&#45;&gt;Node3</title>
<path fill="none" stroke="#63b8ff" d="M246.73,-219.75C240.72,-212.5 231.99,-201.98 224.54,-193.02"/>
<polygon fill="#63b8ff" stroke="#63b8ff" points="227.47,-191.07 218.39,-185.61 222.08,-195.54 227.47,-191.07"/>
</g>
<!-- Node14 -->
<g id="node14" class="node">
<title>Node14</title>
<g id="a_node14"><a xlink:title=" ">
<polygon fill="#e0e0e0" stroke="#999999" points="339,-184 259,-184 259,-165 339,-165 339,-184"/>
<text text-anchor="middle" x="299" y="-172" font-family="Helvetica,sans-Serif" font-size="10.00">arduino&#45;timer.h</text>
</a>
</g>
</g>
<!-- Node2&#45;&gt;Node14 -->
<g id="edge16" class="edge">
<title>Node2&#45;&gt;Node14</title>
<path fill="none" stroke="#63b8ff" d="M261.43,-219.75C267.58,-212.5 276.51,-201.98 284.13,-193.02"/>
<polygon fill="#63b8ff" stroke="#63b8ff" points="286.62,-195.48 290.43,-185.6 281.29,-190.95 286.62,-195.48"/>
</g>
<!-- Node4 -->
<g id="node4" class="node">
<title>Node4</title>
<g id="a_node4"><a xlink:href="Configuration_8h.html" target="_top" xlink:title=" ">
<polygon fill="white" stroke="#666666" points="80,-19 0,-19 0,0 80,0 80,-19"/>
<text text-anchor="middle" x="40" y="-7" font-family="Helvetica,sans-Serif" font-size="10.00">Configuration.h</text>
</a>
</g>
</g>
<!-- Node3&#45;&gt;Node4 -->
<g id="edge3" class="edge">
<title>Node3&#45;&gt;Node4</title>
<path fill="none" stroke="#63b8ff" d="M200.86,-164.74C173.65,-138.65 92.85,-61.17 57.21,-27"/>
<polygon fill="#63b8ff" stroke="#63b8ff" points="59.92,-24.75 50.28,-20.35 55.07,-29.8 59.92,-24.75"/>
</g>
<!-- Node5 -->
<g id="node5" class="node">
<title>Node5</title>
<g id="a_node5"><a xlink:href="Array_8h.html" target="_top" xlink:title=" ">
<polygon fill="white" stroke="#666666" points="233.5,-129 186.5,-129 186.5,-110 233.5,-110 233.5,-129"/>
<text text-anchor="middle" x="210" y="-117" font-family="Helvetica,sans-Serif" font-size="10.00">Array.h</text>
</a>
</g>
</g>
<!-- Node3&#45;&gt;Node5 -->
<g id="edge4" class="edge">
<title>Node3&#45;&gt;Node5</title>
<path fill="none" stroke="#63b8ff" d="M210,-164.75C210,-158.27 210,-149.16 210,-140.9"/>
<polygon fill="#63b8ff" stroke="#63b8ff" points="213.5,-140.96 210,-130.96 206.5,-140.96 213.5,-140.96"/>
</g>
<!-- Node7 -->
<g id="node7" class="node">
<title>Node7</title>
<g id="a_node7"><a xlink:title=" ">
<polygon fill="#e0e0e0" stroke="#999999" points="176,-19 98,-19 98,0 176,0 176,-19"/>
<text text-anchor="middle" x="137" y="-7" font-family="Helvetica,sans-Serif" font-size="10.00">ArduinoJson.h</text>
</a>
</g>
</g>
<!-- Node3&#45;&gt;Node7 -->
<g id="edge13" class="edge">
<title>Node3&#45;&gt;Node7</title>
<path fill="none" stroke="#63b8ff" d="M202.01,-164.52C194.69,-155.91 183.95,-142.3 177,-129 159.78,-96.07 147.7,-54.2 141.59,-30.07"/>
<polygon fill="#63b8ff" stroke="#63b8ff" points="145.07,-29.56 139.3,-20.67 138.27,-31.22 145.07,-29.56"/>
</g>
<!-- Node12 -->
<g id="node12" class="node">
<title>Node12</title>
<g id="a_node12"><a xlink:title=" ">
<polygon fill="#e0e0e0" stroke="#999999" points="310.5,-129 251.5,-129 251.5,-110 310.5,-110 310.5,-129"/>
<text text-anchor="middle" x="281" y="-117" font-family="Helvetica,sans-Serif" font-size="10.00">functional</text>
</a>
</g>
</g>
<!-- Node3&#45;&gt;Node12 -->
<g id="edge14" class="edge">
<title>Node3&#45;&gt;Node12</title>
<path fill="none" stroke="#63b8ff" d="M222.04,-164.51C232.41,-156.77 247.6,-145.43 259.97,-136.2"/>
<polygon fill="#63b8ff" stroke="#63b8ff" points="262,-139.05 267.92,-130.26 257.81,-133.44 262,-139.05"/>
</g>
<!-- Node13 -->
<g id="node13" class="node">
<title>Node13</title>
<g id="a_node13"><a xlink:title=" ">
<polygon fill="#e0e0e0" stroke="#999999" points="373,-129 329,-129 329,-110 373,-110 373,-129"/>
<text text-anchor="middle" x="351" y="-117" font-family="Helvetica,sans-Serif" font-size="10.00">vector</text>
</a>
</g>
</g>
<!-- Node3&#45;&gt;Node13 -->
<g id="edge15" class="edge">
<title>Node3&#45;&gt;Node13</title>
<path fill="none" stroke="#63b8ff" d="M233.92,-164.51C257.05,-155.81 292.3,-142.57 318.07,-132.88"/>
<polygon fill="#63b8ff" stroke="#63b8ff" points="319.28,-136.16 327.41,-129.37 316.82,-129.61 319.28,-136.16"/>
</g>
<!-- Node6 -->
<g id="node6" class="node">
<title>Node6</title>
<g id="a_node6"><a xlink:href="Helper_8h.html" target="_top" xlink:title=" ">
<polygon fill="white" stroke="#666666" points="244.5,-74 191.5,-74 191.5,-55 244.5,-55 244.5,-74"/>
<text text-anchor="middle" x="218" y="-62" font-family="Helvetica,sans-Serif" font-size="10.00">Helper.h</text>
</a>
</g>
</g>
<!-- Node5&#45;&gt;Node6 -->
<g id="edge5" class="edge">
<title>Node5&#45;&gt;Node6</title>
<path fill="none" stroke="#63b8ff" d="M211.32,-109.75C212.31,-103.19 213.71,-93.95 214.97,-85.6"/>
<polygon fill="#63b8ff" stroke="#63b8ff" points="218.39,-86.35 216.42,-75.94 211.47,-85.3 218.39,-86.35"/>
</g>
<!-- Node9 -->
<g id="node9" class="node">
<title>Node9</title>
<g id="a_node9"><a xlink:title=" ">
<polygon fill="#e0e0e0" stroke="#999999" points="442.5,-19 391.5,-19 391.5,0 442.5,0 442.5,-19"/>
<text text-anchor="middle" x="417" y="-7" font-family="Helvetica,sans-Serif" font-size="10.00">assert.h</text>
</a>
</g>
</g>
<!-- Node5&#45;&gt;Node9 -->
<g id="edge12" class="edge">
<title>Node5&#45;&gt;Node9</title>
<path fill="none" stroke="#63b8ff" d="M226.94,-109.66C262.72,-90.99 346.28,-47.4 389.7,-24.74"/>
<polygon fill="#63b8ff" stroke="#63b8ff" points="391.24,-27.89 398.48,-20.16 388,-21.68 391.24,-27.89"/>
</g>
<!-- Node6&#45;&gt;Node4 -->
<g id="edge6" class="edge">
<title>Node6&#45;&gt;Node4</title>
<path fill="none" stroke="#63b8ff" d="M191.35,-55.57C162.16,-46.87 114.99,-32.83 81.06,-22.73"/>
<polygon fill="#63b8ff" stroke="#63b8ff" points="82.14,-19.4 71.56,-19.9 80.15,-26.11 82.14,-19.4"/>
</g>
<!-- Node6&#45;&gt;Node7 -->
<g id="edge7" class="edge">
<title>Node6&#45;&gt;Node7</title>
<path fill="none" stroke="#63b8ff" d="M204.26,-54.51C192.2,-46.62 174.41,-34.98 160.16,-25.65"/>
<polygon fill="#63b8ff" stroke="#63b8ff" points="162.09,-22.73 151.8,-20.19 158.26,-28.59 162.09,-22.73"/>
</g>
<!-- Node8 -->
<g id="node8" class="node">
<title>Node8</title>
<g id="a_node8"><a xlink:title=" ">
<polygon fill="#e0e0e0" stroke="#999999" points="241.5,-19 194.5,-19 194.5,0 241.5,0 241.5,-19"/>
<text text-anchor="middle" x="218" y="-7" font-family="Helvetica,sans-Serif" font-size="10.00">iterator</text>
</a>
</g>
</g>
<!-- Node6&#45;&gt;Node8 -->
<g id="edge8" class="edge">
<title>Node6&#45;&gt;Node8</title>
<path fill="none" stroke="#63b8ff" d="M218,-54.75C218,-48.27 218,-39.16 218,-30.9"/>
<polygon fill="#63b8ff" stroke="#63b8ff" points="221.5,-30.96 218,-20.96 214.5,-30.96 221.5,-30.96"/>
</g>
<!-- Node6&#45;&gt;Node9 -->
<g id="edge9" class="edge">
<title>Node6&#45;&gt;Node9</title>
<path fill="none" stroke="#63b8ff" d="M244.84,-56.35C279.79,-47.04 341.05,-30.73 380.29,-20.28"/>
<polygon fill="#63b8ff" stroke="#63b8ff" points="380.99,-23.71 389.75,-17.76 379.19,-16.95 380.99,-23.71"/>
</g>
<!-- Node10 -->
<g id="node10" class="node">
<title>Node10</title>
<g id="a_node10"><a xlink:title=" ">
<polygon fill="#e0e0e0" stroke="#999999" points="310.5,-19 259.5,-19 259.5,0 310.5,0 310.5,-19"/>
<text text-anchor="middle" x="285" y="-7" font-family="Helvetica,sans-Serif" font-size="10.00">stdarg.h</text>
</a>
</g>
</g>
<!-- Node6&#45;&gt;Node10 -->
<g id="edge10" class="edge">
<title>Node6&#45;&gt;Node10</title>
<path fill="none" stroke="#63b8ff" d="M229.37,-54.51C239.05,-46.85 253.2,-35.66 264.81,-26.47"/>
<polygon fill="#63b8ff" stroke="#63b8ff" points="266.94,-29.25 272.62,-20.3 262.6,-23.76 266.94,-29.25"/>
</g>
<!-- Node11 -->
<g id="node11" class="node">
<title>Node11</title>
<g id="a_node11"><a xlink:title=" ">
<polygon fill="#e0e0e0" stroke="#999999" points="373.5,-19 328.5,-19 328.5,0 373.5,0 373.5,-19"/>
<text text-anchor="middle" x="351" y="-7" font-family="Helvetica,sans-Serif" font-size="10.00">stdio.h</text>
</a>
</g>
</g>
<!-- Node6&#45;&gt;Node11 -->
<g id="edge11" class="edge">
<title>Node6&#45;&gt;Node11</title>
<path fill="none" stroke="#63b8ff" d="M240.56,-54.51C261.9,-46.01 294.16,-33.15 318.31,-23.53"/>
<polygon fill="#63b8ff" stroke="#63b8ff" points="319.37,-26.87 327.37,-19.92 316.78,-20.37 319.37,-26.87"/>
</g>
</g>
</svg>
