<?xml version="1.0" encoding="UTF-8" standalone="no"?>
<!DOCTYPE svg PUBLIC "-//W3C//DTD SVG 1.1//EN"
 "http://www.w3.org/Graphics/SVG/1.1/DTD/svg11.dtd">
<!-- Generated by graphviz version 7.0.5 (20221223.1930)
 -->
<!-- Title: src/Provision_Callback.h Pages: 1 -->
<svg width="242pt" height="82pt"
 viewBox="0.00 0.00 241.50 82.00" xmlns="http://www.w3.org/2000/svg" xmlns:xlink="http://www.w3.org/1999/xlink">
<g id="graph0" class="graph" transform="scale(1 1) rotate(0) translate(4 78)">
<title>src/Provision_Callback.h</title>
<!-- Node1 -->
<g id="node1" class="node">
<title>Node1</title>
<g id="a_node1"><a xlink:title=" ">
<polygon fill="#999999" stroke="#666666" points="165.5,-74 41.5,-74 41.5,-55 165.5,-55 165.5,-74"/>
<text text-anchor="middle" x="103.5" y="-62" font-family="Helvetica,sans-Serif" font-size="10.00">src/Provision_Callback.h</text>
</a>
</g>
</g>
<!-- Node2 -->
<g id="node2" class="node">
<title>Node2</title>
<g id="a_node2"><a xlink:href="Provision_8h.html" target="_top" xlink:title=" ">
<polygon fill="white" stroke="#666666" points="81,-19 0,-19 0,0 81,0 81,-19"/>
<text text-anchor="middle" x="40.5" y="-7" font-family="Helvetica,sans-Serif" font-size="10.00">src/Provision.h</text>
</a>
</g>
</g>
<!-- Node1&#45;&gt;Node2 -->
<g id="edge1" class="edge">
<title>Node1&#45;&gt;Node2</title>
<path fill="none" stroke="#63b8ff" d="M84.32,-47.37C73.38,-38.16 60.09,-26.98 51.03,-19.36"/>
<polygon fill="#63b8ff" stroke="#63b8ff" points="81.75,-49.78 91.65,-53.53 86.26,-44.42 81.75,-49.78"/>
</g>
<!-- Node3 -->
<g id="node3" class="node">
<title>Node3</title>
<g id="a_node3"><a xlink:href="Provision__Callback_8cpp.html" target="_top" xlink:title=" ">
<polygon fill="white" stroke="#666666" points="233.5,-19 99.5,-19 99.5,0 233.5,0 233.5,-19"/>
<text text-anchor="middle" x="166.5" y="-7" font-family="Helvetica,sans-Serif" font-size="10.00">src/Provision_Callback.cpp</text>
</a>
</g>
</g>
<!-- Node1&#45;&gt;Node3 -->
<g id="edge2" class="edge">
<title>Node1&#45;&gt;Node3</title>
<path fill="none" stroke="#63b8ff" d="M122.68,-47.37C133.62,-38.16 146.91,-26.98 155.97,-19.36"/>
<polygon fill="#63b8ff" stroke="#63b8ff" points="120.74,-44.42 115.35,-53.53 125.25,-49.78 120.74,-44.42"/>
</g>
</g>
</svg>
