<?xml version="1.0" encoding="UTF-8" standalone="no"?>
<!DOCTYPE svg PUBLIC "-//W3C//DTD SVG 1.1//EN"
 "http://www.w3.org/Graphics/SVG/1.1/DTD/svg11.dtd">
<!-- Generated by graphviz version 7.0.5 (20221223.1930)
 -->
<!-- Title: src/Provision.h Pages: 1 -->
<!--zoomable 357 -->
<svg id="main" version="1.1" xmlns="http://www.w3.org/2000/svg" xmlns:xlink="http://www.w3.org/1999/xlink" xml:space="preserve" onload="init(evt)">
<style type="text/css"><![CDATA[
.edge:hover path { stroke: red; }
.edge:hover polygon { stroke: red; fill: red; }
]]></style>
<script type="text/javascript"><![CDATA[
var edges = document.getElementsByTagName('g');
if (edges && edges.length) {
  for (var i=0;i<edges.length;i++) {
    if (edges[i].id.substr(0,4)=='edge') {
      edges[i].setAttribute('class','edge');
    }
  }
}
]]></script>
        <defs>
                <circle id="rim" cx="0" cy="0" r="7"/>
                <circle id="rim2" cx="0" cy="0" r="3.5"/>
                <g id="zoomPlus">
                        <use xlink:href="#rim" fill="#404040">
                                <set attributeName="fill" to="#808080" begin="zoomplus.mouseover" end="zoomplus.mouseout"/>
                        </use>
                        <path d="M-4,0h8M0,-4v8" fill="none" stroke="white" stroke-width="1.5" pointer-events="none"/>
                </g>
                <g id="zoomMin">
                        <use xlink:href="#rim" fill="#404040">
                                <set attributeName="fill" to="#808080" begin="zoomminus.mouseover" end="zoomminus.mouseout"/>
                        </use>
                        <path d="M-4,0h8" fill="none" stroke="white" stroke-width="1.5" pointer-events="none"/>
                </g>
                <g id="dirArrow">
                        <path fill="none" stroke="white" stroke-width="1.5" d="M0,-3.0v7 M-2.5,-0.5L0,-3.0L2.5,-0.5"/>
                </g>
               <g id="resetDef">
                       <use xlink:href="#rim2" fill="#404040">
                               <set attributeName="fill" to="#808080" begin="reset.mouseover" end="reset.mouseout"/>
                       </use>
               </g>
        </defs>

<script type="text/javascript">
var viewWidth = 553;
var viewHeight = 357;
var sectionId = 'dynsection-0';
</script>
<script xlink:href="svgpan.js"/>
<svg id="graph" class="graph">
<g id="viewport">
<title>src/Provision.h</title>
<!-- Node1 -->
<g id="node1" class="node">
<title>Node1</title>
<g id="a_node1"><a xlink:title=" ">
<polygon fill="#999999" stroke="#666666" points="300.5,-349 219.5,-349 219.5,-330 300.5,-330 300.5,-349"/>
<text text-anchor="middle" x="260" y="-337" font-family="Helvetica,sans-Serif" font-size="10.00">src/Provision.h</text>
</a>
</g>
</g>
<!-- Node2 -->
<g id="node2" class="node">
<title>Node2</title>
<g id="a_node2"><a xlink:href="Provision__Callback_8h.html" target="_top" xlink:title=" ">
<polygon fill="white" stroke="#666666" points="272.5,-294 165.5,-294 165.5,-275 272.5,-275 272.5,-294"/>
<text text-anchor="middle" x="219" y="-282" font-family="Helvetica,sans-Serif" font-size="10.00">Provision_Callback.h</text>
</a>
</g>
</g>
<!-- Node1&#45;&gt;Node2 -->
<g id="edge1" class="edge">
<title>Node1&#45;&gt;Node2</title>
<path fill="none" stroke="#63b8ff" d="M253.23,-329.75C247.68,-322.58 239.66,-312.2 232.77,-303.3"/>
<polygon fill="#63b8ff" stroke="#63b8ff" points="235.73,-301.41 226.84,-295.64 230.19,-305.69 235.73,-301.41"/>
</g>
<!-- Node16 -->
<g id="node16" class="node">
<title>Node16</title>
<g id="a_node16"><a xlink:href="IAPI__Implementation_8h.html" target="_top" xlink:title=" ">
<polygon fill="white" stroke="#666666" points="410,-239 294,-239 294,-220 410,-220 410,-239"/>
<text text-anchor="middle" x="352" y="-227" font-family="Helvetica,sans-Serif" font-size="10.00">IAPI_Implementation.h</text>
</a>
</g>
</g>
<!-- Node1&#45;&gt;Node16 -->
<g id="edge18" class="edge">
<title>Node1&#45;&gt;Node16</title>
<path fill="none" stroke="#63b8ff" d="M267.53,-329.66C282.69,-311.86 317.15,-271.41 337.06,-248.04"/>
<polygon fill="#63b8ff" stroke="#63b8ff" points="339.57,-250.49 343.39,-240.61 334.24,-245.96 339.57,-250.49"/>
</g>
<!-- Node3 -->
<g id="node3" class="node">
<title>Node3</title>
<g id="a_node3"><a xlink:href="Callback__Watchdog_8h.html" target="_top" xlink:title=" ">
<polygon fill="white" stroke="#666666" points="250,-239 140,-239 140,-220 250,-220 250,-239"/>
<text text-anchor="middle" x="195" y="-227" font-family="Helvetica,sans-Serif" font-size="10.00">Callback_Watchdog.h</text>
</a>
</g>
</g>
<!-- Node2&#45;&gt;Node3 -->
<g id="edge2" class="edge">
<title>Node2&#45;&gt;Node3</title>
<path fill="none" stroke="#63b8ff" d="M215.04,-274.75C211.96,-267.96 207.59,-258.3 203.71,-249.73"/>
<polygon fill="#63b8ff" stroke="#63b8ff" points="206.99,-248.49 199.67,-240.82 200.61,-251.37 206.99,-248.49"/>
</g>
<!-- Node4 -->
<g id="node4" class="node">
<title>Node4</title>
<g id="a_node4"><a xlink:href="Callback_8h.html" target="_top" xlink:title=" ">
<polygon fill="white" stroke="#666666" points="226,-184 164,-184 164,-165 226,-165 226,-184"/>
<text text-anchor="middle" x="195" y="-172" font-family="Helvetica,sans-Serif" font-size="10.00">Callback.h</text>
</a>
</g>
</g>
<!-- Node3&#45;&gt;Node4 -->
<g id="edge3" class="edge">
<title>Node3&#45;&gt;Node4</title>
<path fill="none" stroke="#63b8ff" d="M195,-219.75C195,-213.27 195,-204.16 195,-195.9"/>
<polygon fill="#63b8ff" stroke="#63b8ff" points="198.5,-195.96 195,-185.96 191.5,-195.96 198.5,-195.96"/>
</g>
<!-- Node15 -->
<g id="node15" class="node">
<title>Node15</title>
<g id="a_node15"><a xlink:title=" ">
<polygon fill="#e0e0e0" stroke="#999999" points="146,-184 66,-184 66,-165 146,-165 146,-184"/>
<text text-anchor="middle" x="106" y="-172" font-family="Helvetica,sans-Serif" font-size="10.00">arduino&#45;timer.h</text>
</a>
</g>
</g>
<!-- Node3&#45;&gt;Node15 -->
<g id="edge17" class="edge">
<title>Node3&#45;&gt;Node15</title>
<path fill="none" stroke="#63b8ff" d="M179.9,-219.51C166.4,-211.47 146.35,-199.53 130.54,-190.11"/>
<polygon fill="#63b8ff" stroke="#63b8ff" points="132.56,-187.24 122.18,-185.13 128.98,-193.26 132.56,-187.24"/>
</g>
<!-- Node5 -->
<g id="node5" class="node">
<title>Node5</title>
<g id="a_node5"><a xlink:href="Configuration_8h.html" target="_top" xlink:title=" ">
<polygon fill="white" stroke="#666666" points="448,-19 368,-19 368,0 448,0 448,-19"/>
<text text-anchor="middle" x="408" y="-7" font-family="Helvetica,sans-Serif" font-size="10.00">Configuration.h</text>
</a>
</g>
</g>
<!-- Node4&#45;&gt;Node5 -->
<g id="edge4" class="edge">
<title>Node4&#45;&gt;Node5</title>
<path fill="none" stroke="#63b8ff" d="M205.31,-164.68C219.93,-152.23 247.65,-128.93 272,-110 311.53,-79.28 358.99,-45.17 386.11,-25.93"/>
<polygon fill="#63b8ff" stroke="#63b8ff" points="388.07,-28.82 394.21,-20.19 384.02,-23.11 388.07,-28.82"/>
</g>
<!-- Node6 -->
<g id="node6" class="node">
<title>Node6</title>
<g id="a_node6"><a xlink:href="Array_8h.html" target="_top" xlink:title=" ">
<polygon fill="white" stroke="#666666" points="147.5,-129 100.5,-129 100.5,-110 147.5,-110 147.5,-129"/>
<text text-anchor="middle" x="124" y="-117" font-family="Helvetica,sans-Serif" font-size="10.00">Array.h</text>
</a>
</g>
</g>
<!-- Node4&#45;&gt;Node6 -->
<g id="edge5" class="edge">
<title>Node4&#45;&gt;Node6</title>
<path fill="none" stroke="#63b8ff" d="M182.96,-164.51C172.59,-156.77 157.4,-145.43 145.03,-136.2"/>
<polygon fill="#63b8ff" stroke="#63b8ff" points="147.19,-133.44 137.08,-130.26 143,-139.05 147.19,-133.44"/>
</g>
<!-- Node8 -->
<g id="node8" class="node">
<title>Node8</title>
<g id="a_node8"><a xlink:title=" ">
<polygon fill="#e0e0e0" stroke="#999999" points="83,-19 5,-19 5,0 83,0 83,-19"/>
<text text-anchor="middle" x="44" y="-7" font-family="Helvetica,sans-Serif" font-size="10.00">ArduinoJson.h</text>
</a>
</g>
</g>
<!-- Node4&#45;&gt;Node8 -->
<g id="edge14" class="edge">
<title>Node4&#45;&gt;Node8</title>
<path fill="none" stroke="#63b8ff" d="M163.55,-166.9C140.75,-160.65 110.59,-149.12 91,-129 64.07,-101.34 52.01,-56.35 47.07,-30.49"/>
<polygon fill="#63b8ff" stroke="#63b8ff" points="50.58,-30.25 45.44,-20.99 43.68,-31.44 50.58,-30.25"/>
</g>
<!-- Node13 -->
<g id="node13" class="node">
<title>Node13</title>
<g id="a_node13"><a xlink:title=" ">
<polygon fill="#e0e0e0" stroke="#999999" points="224.5,-129 165.5,-129 165.5,-110 224.5,-110 224.5,-129"/>
<text text-anchor="middle" x="195" y="-117" font-family="Helvetica,sans-Serif" font-size="10.00">functional</text>
</a>
</g>
</g>
<!-- Node4&#45;&gt;Node13 -->
<g id="edge15" class="edge">
<title>Node4&#45;&gt;Node13</title>
<path fill="none" stroke="#63b8ff" d="M195,-164.75C195,-158.27 195,-149.16 195,-140.9"/>
<polygon fill="#63b8ff" stroke="#63b8ff" points="198.5,-140.96 195,-130.96 191.5,-140.96 198.5,-140.96"/>
</g>
<!-- Node14 -->
<g id="node14" class="node">
<title>Node14</title>
<g id="a_node14"><a xlink:title=" ">
<polygon fill="#e0e0e0" stroke="#999999" points="44,-129 0,-129 0,-110 44,-110 44,-129"/>
<text text-anchor="middle" x="22" y="-117" font-family="Helvetica,sans-Serif" font-size="10.00">vector</text>
</a>
</g>
</g>
<!-- Node4&#45;&gt;Node14 -->
<g id="edge16" class="edge">
<title>Node4&#45;&gt;Node14</title>
<path fill="none" stroke="#63b8ff" d="M165.65,-164.51C135.09,-155.15 87.29,-140.5 55.32,-130.71"/>
<polygon fill="#63b8ff" stroke="#63b8ff" points="56.36,-127.37 45.77,-127.78 54.31,-134.06 56.36,-127.37"/>
</g>
<!-- Node7 -->
<g id="node7" class="node">
<title>Node7</title>
<g id="a_node7"><a xlink:href="Helper_8h.html" target="_top" xlink:title=" ">
<polygon fill="white" stroke="#666666" points="223.5,-74 170.5,-74 170.5,-55 223.5,-55 223.5,-74"/>
<text text-anchor="middle" x="197" y="-62" font-family="Helvetica,sans-Serif" font-size="10.00">Helper.h</text>
</a>
</g>
</g>
<!-- Node6&#45;&gt;Node7 -->
<g id="edge6" class="edge">
<title>Node6&#45;&gt;Node7</title>
<path fill="none" stroke="#63b8ff" d="M136.38,-109.51C147.15,-101.7 162.97,-90.21 175.75,-80.93"/>
<polygon fill="#63b8ff" stroke="#63b8ff" points="177.54,-83.95 183.57,-75.25 173.43,-78.29 177.54,-83.95"/>
</g>
<!-- Node10 -->
<g id="node10" class="node">
<title>Node10</title>
<g id="a_node10"><a xlink:title=" ">
<polygon fill="#e0e0e0" stroke="#999999" points="152.5,-19 101.5,-19 101.5,0 152.5,0 152.5,-19"/>
<text text-anchor="middle" x="127" y="-7" font-family="Helvetica,sans-Serif" font-size="10.00">assert.h</text>
</a>
</g>
</g>
<!-- Node6&#45;&gt;Node10 -->
<g id="edge13" class="edge">
<title>Node6&#45;&gt;Node10</title>
<path fill="none" stroke="#63b8ff" d="M124.25,-109.66C124.72,-92.57 125.77,-54.61 126.43,-30.92"/>
<polygon fill="#63b8ff" stroke="#63b8ff" points="129.93,-31.07 126.71,-20.97 122.93,-30.87 129.93,-31.07"/>
</g>
<!-- Node7&#45;&gt;Node5 -->
<g id="edge7" class="edge">
<title>Node7&#45;&gt;Node5</title>
<path fill="none" stroke="#63b8ff" d="M223.72,-56.79C258.26,-48.11 318.97,-32.86 361.22,-22.25"/>
<polygon fill="#63b8ff" stroke="#63b8ff" points="362.03,-25.65 370.88,-19.82 360.33,-18.87 362.03,-25.65"/>
</g>
<!-- Node7&#45;&gt;Node8 -->
<g id="edge8" class="edge">
<title>Node7&#45;&gt;Node8</title>
<path fill="none" stroke="#63b8ff" d="M171.05,-54.51C146.13,-45.88 108.27,-32.76 80.36,-23.1"/>
<polygon fill="#63b8ff" stroke="#63b8ff" points="81.85,-19.91 71.26,-19.94 79.56,-26.52 81.85,-19.91"/>
</g>
<!-- Node9 -->
<g id="node9" class="node">
<title>Node9</title>
<g id="a_node9"><a xlink:title=" ">
<polygon fill="#e0e0e0" stroke="#999999" points="349.5,-19 302.5,-19 302.5,0 349.5,0 349.5,-19"/>
<text text-anchor="middle" x="326" y="-7" font-family="Helvetica,sans-Serif" font-size="10.00">iterator</text>
</a>
</g>
</g>
<!-- Node7&#45;&gt;Node9 -->
<g id="edge9" class="edge">
<title>Node7&#45;&gt;Node9</title>
<path fill="none" stroke="#63b8ff" d="M218.88,-54.51C239.49,-46.04 270.59,-33.27 293.98,-23.66"/>
<polygon fill="#63b8ff" stroke="#63b8ff" points="295.12,-26.97 303.04,-19.93 292.46,-20.5 295.12,-26.97"/>
</g>
<!-- Node7&#45;&gt;Node10 -->
<g id="edge10" class="edge">
<title>Node7&#45;&gt;Node10</title>
<path fill="none" stroke="#63b8ff" d="M185.13,-54.51C174.91,-46.77 159.93,-35.43 147.74,-26.2"/>
<polygon fill="#63b8ff" stroke="#63b8ff" points="149.99,-23.52 139.91,-20.27 145.77,-29.1 149.99,-23.52"/>
</g>
<!-- Node11 -->
<g id="node11" class="node">
<title>Node11</title>
<g id="a_node11"><a xlink:title=" ">
<polygon fill="#e0e0e0" stroke="#999999" points="221.5,-19 170.5,-19 170.5,0 221.5,0 221.5,-19"/>
<text text-anchor="middle" x="196" y="-7" font-family="Helvetica,sans-Serif" font-size="10.00">stdarg.h</text>
</a>
</g>
</g>
<!-- Node7&#45;&gt;Node11 -->
<g id="edge11" class="edge">
<title>Node7&#45;&gt;Node11</title>
<path fill="none" stroke="#63b8ff" d="M196.83,-54.75C196.71,-48.27 196.54,-39.16 196.38,-30.9"/>
<polygon fill="#63b8ff" stroke="#63b8ff" points="199.89,-30.89 196.2,-20.96 192.89,-31.02 199.89,-30.89"/>
</g>
<!-- Node12 -->
<g id="node12" class="node">
<title>Node12</title>
<g id="a_node12"><a xlink:title=" ">
<polygon fill="#e0e0e0" stroke="#999999" points="284.5,-19 239.5,-19 239.5,0 284.5,0 284.5,-19"/>
<text text-anchor="middle" x="262" y="-7" font-family="Helvetica,sans-Serif" font-size="10.00">stdio.h</text>
</a>
</g>
</g>
<!-- Node7&#45;&gt;Node12 -->
<g id="edge12" class="edge">
<title>Node7&#45;&gt;Node12</title>
<path fill="none" stroke="#63b8ff" d="M208.03,-54.51C217.42,-46.85 231.15,-35.66 242.41,-26.47"/>
<polygon fill="#63b8ff" stroke="#63b8ff" points="244.43,-29.35 249.96,-20.31 240,-23.92 244.43,-29.35"/>
</g>
<!-- Node16&#45;&gt;Node4 -->
<g id="edge19" class="edge">
<title>Node16&#45;&gt;Node4</title>
<path fill="none" stroke="#63b8ff" d="M325.37,-219.51C299.8,-210.88 260.95,-197.76 232.31,-188.1"/>
<polygon fill="#63b8ff" stroke="#63b8ff" points="233.53,-184.81 222.94,-184.93 231.29,-191.45 233.53,-184.81"/>
</g>
<!-- Node17 -->
<g id="node17" class="node">
<title>Node17</title>
<g id="a_node17"><a xlink:href="Constants_8h.html" target="_top" xlink:title=" ">
<polygon fill="white" stroke="#666666" points="468,-74 400,-74 400,-55 468,-55 468,-74"/>
<text text-anchor="middle" x="434" y="-62" font-family="Helvetica,sans-Serif" font-size="10.00">Constants.h</text>
</a>
</g>
</g>
<!-- Node16&#45;&gt;Node17 -->
<g id="edge20" class="edge">
<title>Node16&#45;&gt;Node17</title>
<path fill="none" stroke="#63b8ff" d="M390.94,-219.53C409.81,-213.02 430.78,-202.06 442,-184 460.89,-153.59 450.48,-109.94 441.82,-84.98"/>
<polygon fill="#63b8ff" stroke="#63b8ff" points="445.17,-83.93 438.38,-75.79 438.61,-86.38 445.17,-83.93"/>
</g>
<!-- Node18 -->
<g id="node18" class="node">
<title>Node18</title>
<g id="a_node18"><a xlink:href="DefaultLogger_8h.html" target="_top" xlink:title=" ">
<polygon fill="white" stroke="#666666" points="366.5,-129 281.5,-129 281.5,-110 366.5,-110 366.5,-129"/>
<text text-anchor="middle" x="324" y="-117" font-family="Helvetica,sans-Serif" font-size="10.00">DefaultLogger.h</text>
</a>
</g>
</g>
<!-- Node16&#45;&gt;Node18 -->
<g id="edge22" class="edge">
<title>Node16&#45;&gt;Node18</title>
<path fill="none" stroke="#63b8ff" d="M341.84,-219.81C333.1,-211.6 321.1,-198.43 316,-184 311,-169.87 313.49,-153 316.97,-140.2"/>
<polygon fill="#63b8ff" stroke="#63b8ff" points="320.25,-141.43 319.93,-130.84 313.57,-139.32 320.25,-141.43"/>
</g>
<!-- Node19 -->
<g id="node19" class="node">
<title>Node19</title>
<g id="a_node19"><a xlink:href="API__Process__Type_8h.html" target="_top" xlink:title=" ">
<polygon fill="white" stroke="#666666" points="433,-184 325,-184 325,-165 433,-165 433,-184"/>
<text text-anchor="middle" x="379" y="-172" font-family="Helvetica,sans-Serif" font-size="10.00">API_Process_Type.h</text>
</a>
</g>
</g>
<!-- Node16&#45;&gt;Node19 -->
<g id="edge24" class="edge">
<title>Node16&#45;&gt;Node19</title>
<path fill="none" stroke="#63b8ff" d="M356.46,-219.75C359.95,-212.88 364.95,-203.08 369.35,-194.45"/>
<polygon fill="#63b8ff" stroke="#63b8ff" points="372.34,-196.29 373.76,-185.79 366.1,-193.11 372.34,-196.29"/>
</g>
<!-- Node21 -->
<g id="node21" class="node">
<title>Node21</title>
<g id="a_node21"><a xlink:title=" ">
<polygon fill="#e0e0e0" stroke="#999999" points="545,-184 489,-184 489,-165 545,-165 545,-184"/>
<text text-anchor="middle" x="517" y="-172" font-family="Helvetica,sans-Serif" font-size="10.00">algorithm</text>
</a>
</g>
</g>
<!-- Node16&#45;&gt;Node21 -->
<g id="edge26" class="edge">
<title>Node16&#45;&gt;Node21</title>
<path fill="none" stroke="#63b8ff" d="M379.99,-219.51C407.09,-210.8 448.41,-197.53 478.58,-187.84"/>
<polygon fill="#63b8ff" stroke="#63b8ff" points="479.26,-191.3 487.71,-184.91 477.12,-184.64 479.26,-191.3"/>
</g>
<!-- Node17&#45;&gt;Node5 -->
<g id="edge21" class="edge">
<title>Node17&#45;&gt;Node5</title>
<path fill="none" stroke="#63b8ff" d="M429.71,-54.75C426.38,-47.96 421.64,-38.3 417.44,-29.73"/>
<polygon fill="#63b8ff" stroke="#63b8ff" points="420.6,-28.24 413.05,-20.8 414.32,-31.32 420.6,-28.24"/>
</g>
<!-- Node18&#45;&gt;Node7 -->
<g id="edge23" class="edge">
<title>Node18&#45;&gt;Node7</title>
<path fill="none" stroke="#63b8ff" d="M302.46,-109.51C282.26,-101.08 251.83,-88.38 228.84,-78.79"/>
<polygon fill="#63b8ff" stroke="#63b8ff" points="230.2,-75.56 219.62,-74.94 227.5,-82.02 230.2,-75.56"/>
</g>
<!-- Node20 -->
<g id="node20" class="node">
<title>Node20</title>
<g id="a_node20"><a xlink:title=" ">
<polygon fill="#e0e0e0" stroke="#999999" points="433,-129 385,-129 385,-110 433,-110 433,-129"/>
<text text-anchor="middle" x="409" y="-117" font-family="Helvetica,sans-Serif" font-size="10.00">stdint.h</text>
</a>
</g>
</g>
<!-- Node19&#45;&gt;Node20 -->
<g id="edge25" class="edge">
<title>Node19&#45;&gt;Node20</title>
<path fill="none" stroke="#63b8ff" d="M383.95,-164.75C387.84,-157.88 393.39,-148.08 398.28,-139.45"/>
<polygon fill="#63b8ff" stroke="#63b8ff" points="401.31,-141.19 403.19,-130.76 395.22,-137.74 401.31,-141.19"/>
</g>
</g>
</svg>
        <g id="navigator" transform="translate(0 0)" fill="#404254">
                <rect fill="#f2f5e9" fill-opacity="0.5" stroke="#606060" stroke-width=".5" x="0" y="0" width="60" height="60"/>
                <use id="zoomplus" xlink:href="#zoomPlus" x="17" y="9" onmousedown="handleZoom(evt,'in')"/>
                <use id="zoomminus" xlink:href="#zoomMin" x="42" y="9" onmousedown="handleZoom(evt,'out')"/>
                <use id="reset" xlink:href="#resetDef" x="30" y="36" onmousedown="handleReset()"/>
                <g id="arrowUp" xlink:href="#dirArrow" transform="translate(30 24)" onmousedown="handlePan(0,-1)">
                  <use xlink:href="#rim" fill="#404040">
                        <set attributeName="fill" to="#808080" begin="arrowUp.mouseover" end="arrowUp.mouseout"/>
                  </use>
                  <path fill="none" stroke="white" stroke-width="1.5" d="M0,-3.0v7 M-2.5,-0.5L0,-3.0L2.5,-0.5"/>
                </g>
                <g id="arrowRight" xlink:href="#dirArrow" transform="rotate(90) translate(36 -43)" onmousedown="handlePan(1,0)">
                  <use xlink:href="#rim" fill="#404040">
                        <set attributeName="fill" to="#808080" begin="arrowRight.mouseover" end="arrowRight.mouseout"/>
                  </use>
                  <path fill="none" stroke="white" stroke-width="1.5" d="M0,-3.0v7 M-2.5,-0.5L0,-3.0L2.5,-0.5"/>
                </g>
                <g id="arrowDown" xlink:href="#dirArrow" transform="rotate(180) translate(-30 -48)" onmousedown="handlePan(0,1)">
                  <use xlink:href="#rim" fill="#404040">
                        <set attributeName="fill" to="#808080" begin="arrowDown.mouseover" end="arrowDown.mouseout"/>
                  </use>
                  <path fill="none" stroke="white" stroke-width="1.5" d="M0,-3.0v7 M-2.5,-0.5L0,-3.0L2.5,-0.5"/>
                </g>
                <g id="arrowLeft" xlink:href="#dirArrow" transform="rotate(270) translate(-36 17)" onmousedown="handlePan(-1,0)">
                  <use xlink:href="#rim" fill="#404040">
                        <set attributeName="fill" to="#808080" begin="arrowLeft.mouseover" end="arrowLeft.mouseout"/>
                  </use>
                  <path fill="none" stroke="white" stroke-width="1.5" d="M0,-3.0v7 M-2.5,-0.5L0,-3.0L2.5,-0.5"/>
                </g>
        </g>
        <svg viewBox="0 0 15 15" width="100%" height="30px" preserveAspectRatio="xMaxYMin meet">
         <g id="arrow_out" transform="scale(0.3 0.3)">
          <a xlink:href="Provision_8h__incl_org.svg" target="_base">
           <rect id="button" ry="5" rx="5" y="6" x="6" height="38" width="38"
                fill="#f2f5e9" fill-opacity="0.5" stroke="#606060" stroke-width="1.0"/>
           <path id="arrow"
             d="M 11.500037,31.436501 C 11.940474,20.09759 22.043105,11.32322 32.158766,21.979434 L 37.068811,17.246167 C 37.068811,17.246167 37.088388,32 37.088388,32 L 22.160133,31.978069 C 22.160133,31.978069 26.997745,27.140456 26.997745,27.140456 C 18.528582,18.264221 13.291696,25.230495 11.500037,31.436501 z"
             style="fill:#404040;"/>
          </a>
         </g>
        </svg>
</svg>
