<?xml version="1.0" encoding="UTF-8" standalone="no"?>
<!DOCTYPE svg PUBLIC "-//W3C//DTD SVG 1.1//EN"
 "http://www.w3.org/Graphics/SVG/1.1/DTD/svg11.dtd">
<!-- Generated by graphviz version 7.0.5 (20221223.1930)
 -->
<!-- Title: src/RPC_Callback.h Pages: 1 -->
<svg width="451pt" height="247pt"
 viewBox="0.00 0.00 451.00 247.00" xmlns="http://www.w3.org/2000/svg" xmlns:xlink="http://www.w3.org/1999/xlink">
<g id="graph0" class="graph" transform="scale(1 1) rotate(0) translate(4 243)">
<title>src/RPC_Callback.h</title>
<!-- Node1 -->
<g id="node1" class="node">
<title>Node1</title>
<g id="a_node1"><a xlink:title=" ">
<polygon fill="#999999" stroke="#666666" points="356,-239 252,-239 252,-220 356,-220 356,-239"/>
<text text-anchor="middle" x="304" y="-227" font-family="Helvetica,sans-Serif" font-size="10.00">src/RPC_Callback.h</text>
</a>
</g>
</g>
<!-- Node2 -->
<g id="node2" class="node">
<title>Node2</title>
<g id="a_node2"><a xlink:href="Callback_8h.html" target="_top" xlink:title=" ">
<polygon fill="white" stroke="#666666" points="290,-184 228,-184 228,-165 290,-165 290,-184"/>
<text text-anchor="middle" x="259" y="-172" font-family="Helvetica,sans-Serif" font-size="10.00">Callback.h</text>
</a>
</g>
</g>
<!-- Node1&#45;&gt;Node2 -->
<g id="edge1" class="edge">
<title>Node1&#45;&gt;Node2</title>
<path fill="none" stroke="#63b8ff" d="M296.57,-219.75C290.42,-212.5 281.49,-201.98 273.87,-193.02"/>
<polygon fill="#63b8ff" stroke="#63b8ff" points="276.71,-190.95 267.57,-185.6 271.38,-195.48 276.71,-190.95"/>
</g>
<!-- Node13 -->
<g id="node13" class="node">
<title>Node13</title>
<g id="a_node13"><a xlink:href="Constants_8h.html" target="_top" xlink:title=" ">
<polygon fill="white" stroke="#666666" points="439,-74 371,-74 371,-55 439,-55 439,-74"/>
<text text-anchor="middle" x="405" y="-62" font-family="Helvetica,sans-Serif" font-size="10.00">Constants.h</text>
</a>
</g>
</g>
<!-- Node1&#45;&gt;Node13 -->
<g id="edge15" class="edge">
<title>Node1&#45;&gt;Node13</title>
<path fill="none" stroke="#63b8ff" d="M309.43,-219.74C325.32,-194.09 371.98,-118.78 393.67,-83.78"/>
<polygon fill="#63b8ff" stroke="#63b8ff" points="396.45,-85.94 398.75,-75.59 390.5,-82.25 396.45,-85.94"/>
</g>
<!-- Node3 -->
<g id="node3" class="node">
<title>Node3</title>
<g id="a_node3"><a xlink:href="Configuration_8h.html" target="_top" xlink:title=" ">
<polygon fill="white" stroke="#666666" points="443,-19 363,-19 363,0 443,0 443,-19"/>
<text text-anchor="middle" x="403" y="-7" font-family="Helvetica,sans-Serif" font-size="10.00">Configuration.h</text>
</a>
</g>
</g>
<!-- Node2&#45;&gt;Node3 -->
<g id="edge2" class="edge">
<title>Node2&#45;&gt;Node3</title>
<path fill="none" stroke="#63b8ff" d="M276.19,-164.59C290.15,-156.7 309.64,-144.1 323,-129 347.63,-101.15 340.56,-85.37 362,-55 368.87,-45.27 377.69,-35.44 385.39,-27.49"/>
<polygon fill="#63b8ff" stroke="#63b8ff" points="387.78,-30.05 392.38,-20.51 382.83,-25.11 387.78,-30.05"/>
</g>
<!-- Node4 -->
<g id="node4" class="node">
<title>Node4</title>
<g id="a_node4"><a xlink:href="Array_8h.html" target="_top" xlink:title=" ">
<polygon fill="white" stroke="#666666" points="314.5,-129 267.5,-129 267.5,-110 314.5,-110 314.5,-129"/>
<text text-anchor="middle" x="291" y="-117" font-family="Helvetica,sans-Serif" font-size="10.00">Array.h</text>
</a>
</g>
</g>
<!-- Node2&#45;&gt;Node4 -->
<g id="edge3" class="edge">
<title>Node2&#45;&gt;Node4</title>
<path fill="none" stroke="#63b8ff" d="M264.28,-164.75C268.47,-157.81 274.48,-147.86 279.73,-139.16"/>
<polygon fill="#63b8ff" stroke="#63b8ff" points="282.65,-141.11 284.82,-130.74 276.65,-137.49 282.65,-141.11"/>
</g>
<!-- Node6 -->
<g id="node6" class="node">
<title>Node6</title>
<g id="a_node6"><a xlink:title=" ">
<polygon fill="#e0e0e0" stroke="#999999" points="78,-19 0,-19 0,0 78,0 78,-19"/>
<text text-anchor="middle" x="39" y="-7" font-family="Helvetica,sans-Serif" font-size="10.00">ArduinoJson.h</text>
</a>
</g>
</g>
<!-- Node2&#45;&gt;Node6 -->
<g id="edge12" class="edge">
<title>Node2&#45;&gt;Node6</title>
<path fill="none" stroke="#63b8ff" d="M227.67,-169.73C197.12,-164.74 150.63,-153.51 118,-129 83.03,-102.73 58.66,-56.18 46.95,-29.92"/>
<polygon fill="#63b8ff" stroke="#63b8ff" points="50.21,-28.64 43.06,-20.82 43.77,-31.39 50.21,-28.64"/>
</g>
<!-- Node11 -->
<g id="node11" class="node">
<title>Node11</title>
<g id="a_node11"><a xlink:title=" ">
<polygon fill="#e0e0e0" stroke="#999999" points="186.5,-129 127.5,-129 127.5,-110 186.5,-110 186.5,-129"/>
<text text-anchor="middle" x="157" y="-117" font-family="Helvetica,sans-Serif" font-size="10.00">functional</text>
</a>
</g>
</g>
<!-- Node2&#45;&gt;Node11 -->
<g id="edge13" class="edge">
<title>Node2&#45;&gt;Node11</title>
<path fill="none" stroke="#63b8ff" d="M241.7,-164.51C225.92,-156.31 202.36,-144.07 184.09,-134.58"/>
<polygon fill="#63b8ff" stroke="#63b8ff" points="185.88,-131.56 175.39,-130.06 182.65,-137.77 185.88,-131.56"/>
</g>
<!-- Node12 -->
<g id="node12" class="node">
<title>Node12</title>
<g id="a_node12"><a xlink:title=" ">
<polygon fill="#e0e0e0" stroke="#999999" points="249,-129 205,-129 205,-110 249,-110 249,-129"/>
<text text-anchor="middle" x="227" y="-117" font-family="Helvetica,sans-Serif" font-size="10.00">vector</text>
</a>
</g>
</g>
<!-- Node2&#45;&gt;Node12 -->
<g id="edge14" class="edge">
<title>Node2&#45;&gt;Node12</title>
<path fill="none" stroke="#63b8ff" d="M253.72,-164.75C249.53,-157.81 243.52,-147.86 238.27,-139.16"/>
<polygon fill="#63b8ff" stroke="#63b8ff" points="241.35,-137.49 233.18,-130.74 235.35,-141.11 241.35,-137.49"/>
</g>
<!-- Node5 -->
<g id="node5" class="node">
<title>Node5</title>
<g id="a_node5"><a xlink:href="Helper_8h.html" target="_top" xlink:title=" ">
<polygon fill="white" stroke="#666666" points="276.5,-74 223.5,-74 223.5,-55 276.5,-55 276.5,-74"/>
<text text-anchor="middle" x="250" y="-62" font-family="Helvetica,sans-Serif" font-size="10.00">Helper.h</text>
</a>
</g>
</g>
<!-- Node4&#45;&gt;Node5 -->
<g id="edge4" class="edge">
<title>Node4&#45;&gt;Node5</title>
<path fill="none" stroke="#63b8ff" d="M284.23,-109.75C278.68,-102.58 270.66,-92.2 263.77,-83.3"/>
<polygon fill="#63b8ff" stroke="#63b8ff" points="266.73,-81.41 257.84,-75.64 261.19,-85.69 266.73,-81.41"/>
</g>
<!-- Node8 -->
<g id="node8" class="node">
<title>Node8</title>
<g id="a_node8"><a xlink:title=" ">
<polygon fill="#e0e0e0" stroke="#999999" points="344.5,-19 293.5,-19 293.5,0 344.5,0 344.5,-19"/>
<text text-anchor="middle" x="319" y="-7" font-family="Helvetica,sans-Serif" font-size="10.00">assert.h</text>
</a>
</g>
</g>
<!-- Node4&#45;&gt;Node8 -->
<g id="edge11" class="edge">
<title>Node4&#45;&gt;Node8</title>
<path fill="none" stroke="#63b8ff" d="M293.29,-109.66C297.74,-92.5 307.66,-54.26 313.79,-30.6"/>
<polygon fill="#63b8ff" stroke="#63b8ff" points="317.18,-31.48 316.3,-20.93 310.4,-29.73 317.18,-31.48"/>
</g>
<!-- Node5&#45;&gt;Node3 -->
<g id="edge5" class="edge">
<title>Node5&#45;&gt;Node3</title>
<path fill="none" stroke="#63b8ff" d="M275.95,-54.51C300.87,-45.88 338.73,-32.76 366.64,-23.1"/>
<polygon fill="#63b8ff" stroke="#63b8ff" points="367.44,-26.52 375.74,-19.94 365.15,-19.91 367.44,-26.52"/>
</g>
<!-- Node5&#45;&gt;Node6 -->
<g id="edge6" class="edge">
<title>Node5&#45;&gt;Node6</title>
<path fill="none" stroke="#63b8ff" d="M223.28,-56.79C188.74,-48.11 128.03,-32.86 85.78,-22.25"/>
<polygon fill="#63b8ff" stroke="#63b8ff" points="86.67,-18.87 76.12,-19.82 84.97,-25.65 86.67,-18.87"/>
</g>
<!-- Node7 -->
<g id="node7" class="node">
<title>Node7</title>
<g id="a_node7"><a xlink:title=" ">
<polygon fill="#e0e0e0" stroke="#999999" points="143.5,-19 96.5,-19 96.5,0 143.5,0 143.5,-19"/>
<text text-anchor="middle" x="120" y="-7" font-family="Helvetica,sans-Serif" font-size="10.00">iterator</text>
</a>
</g>
</g>
<!-- Node5&#45;&gt;Node7 -->
<g id="edge7" class="edge">
<title>Node5&#45;&gt;Node7</title>
<path fill="none" stroke="#63b8ff" d="M227.95,-54.51C207.19,-46.04 175.84,-33.27 152.27,-23.66"/>
<polygon fill="#63b8ff" stroke="#63b8ff" points="153.71,-20.46 143.13,-19.93 151.07,-26.95 153.71,-20.46"/>
</g>
<!-- Node5&#45;&gt;Node8 -->
<g id="edge8" class="edge">
<title>Node5&#45;&gt;Node8</title>
<path fill="none" stroke="#63b8ff" d="M261.7,-54.51C271.78,-46.77 286.54,-35.43 298.56,-26.2"/>
<polygon fill="#63b8ff" stroke="#63b8ff" points="300.47,-29.15 306.27,-20.28 296.21,-23.6 300.47,-29.15"/>
</g>
<!-- Node9 -->
<g id="node9" class="node">
<title>Node9</title>
<g id="a_node9"><a xlink:title=" ">
<polygon fill="#e0e0e0" stroke="#999999" points="212.5,-19 161.5,-19 161.5,0 212.5,0 212.5,-19"/>
<text text-anchor="middle" x="187" y="-7" font-family="Helvetica,sans-Serif" font-size="10.00">stdarg.h</text>
</a>
</g>
</g>
<!-- Node5&#45;&gt;Node9 -->
<g id="edge9" class="edge">
<title>Node5&#45;&gt;Node9</title>
<path fill="none" stroke="#63b8ff" d="M239.31,-54.51C230.3,-46.93 217.17,-35.88 206.32,-26.75"/>
<polygon fill="#63b8ff" stroke="#63b8ff" points="208.59,-24.09 198.69,-20.33 204.09,-29.45 208.59,-24.09"/>
</g>
<!-- Node10 -->
<g id="node10" class="node">
<title>Node10</title>
<g id="a_node10"><a xlink:title=" ">
<polygon fill="#e0e0e0" stroke="#999999" points="275.5,-19 230.5,-19 230.5,0 275.5,0 275.5,-19"/>
<text text-anchor="middle" x="253" y="-7" font-family="Helvetica,sans-Serif" font-size="10.00">stdio.h</text>
</a>
</g>
</g>
<!-- Node5&#45;&gt;Node10 -->
<g id="edge10" class="edge">
<title>Node5&#45;&gt;Node10</title>
<path fill="none" stroke="#63b8ff" d="M250.5,-54.75C250.86,-48.27 251.38,-39.16 251.85,-30.9"/>
<polygon fill="#63b8ff" stroke="#63b8ff" points="255.34,-31.13 252.41,-20.95 248.35,-30.74 255.34,-31.13"/>
</g>
<!-- Node13&#45;&gt;Node3 -->
<g id="edge16" class="edge">
<title>Node13&#45;&gt;Node3</title>
<path fill="none" stroke="#63b8ff" d="M404.67,-54.75C404.43,-48.27 404.08,-39.16 403.77,-30.9"/>
<polygon fill="#63b8ff" stroke="#63b8ff" points="407.27,-30.82 403.39,-20.95 400.27,-31.08 407.27,-30.82"/>
</g>
</g>
</svg>
