<?xml version="1.0" encoding="UTF-8" standalone="no"?>
<!DOCTYPE svg PUBLIC "-//W3C//DTD SVG 1.1//EN"
 "http://www.w3.org/Graphics/SVG/1.1/DTD/svg11.dtd">
<!-- Generated by graphviz version 7.0.5 (20221223.1930)
 -->
<!-- Title: src/SDCard_Updater.h Pages: 1 -->
<svg width="451pt" height="247pt"
 viewBox="0.00 0.00 450.50 247.00" xmlns="http://www.w3.org/2000/svg" xmlns:xlink="http://www.w3.org/1999/xlink">
<g id="graph0" class="graph" transform="scale(1 1) rotate(0) translate(4 243)">
<title>src/SDCard_Updater.h</title>
<!-- Node1 -->
<g id="node1" class="node">
<title>Node1</title>
<g id="a_node1"><a xlink:title=" ">
<polygon fill="#999999" stroke="#666666" points="151,-239 37,-239 37,-220 151,-220 151,-239"/>
<text text-anchor="middle" x="94" y="-227" font-family="Helvetica,sans-Serif" font-size="10.00">src/SDCard_Updater.h</text>
</a>
</g>
</g>
<!-- Node2 -->
<g id="node2" class="node">
<title>Node2</title>
<g id="a_node2"><a xlink:href="Configuration_8h.html" target="_top" xlink:title=" ">
<polygon fill="white" stroke="#666666" points="80,-19 0,-19 0,0 80,0 80,-19"/>
<text text-anchor="middle" x="40" y="-7" font-family="Helvetica,sans-Serif" font-size="10.00">Configuration.h</text>
</a>
</g>
</g>
<!-- Node1&#45;&gt;Node2 -->
<g id="edge1" class="edge">
<title>Node1&#45;&gt;Node2</title>
<path fill="none" stroke="#63b8ff" d="M91.63,-219.82C85.27,-196.37 67.36,-129.78 54,-74 50.49,-59.34 46.83,-42.71 44.14,-30.14"/>
<polygon fill="#63b8ff" stroke="#63b8ff" points="47.62,-29.69 42.12,-20.63 40.77,-31.14 47.62,-29.69"/>
</g>
<!-- Node3 -->
<g id="node3" class="node">
<title>Node3</title>
<g id="a_node3"><a xlink:href="IUpdater_8h.html" target="_top" xlink:title=" ">
<polygon fill="white" stroke="#666666" points="180,-184 118,-184 118,-165 180,-165 180,-184"/>
<text text-anchor="middle" x="149" y="-172" font-family="Helvetica,sans-Serif" font-size="10.00">IUpdater.h</text>
</a>
</g>
</g>
<!-- Node1&#45;&gt;Node3 -->
<g id="edge2" class="edge">
<title>Node1&#45;&gt;Node3</title>
<path fill="none" stroke="#63b8ff" d="M103.08,-219.75C110.84,-212.27 122.21,-201.32 131.7,-192.17"/>
<polygon fill="#63b8ff" stroke="#63b8ff" points="133.86,-194.95 138.63,-185.49 129,-189.91 133.86,-194.95"/>
</g>
<!-- Node3&#45;&gt;Node2 -->
<g id="edge3" class="edge">
<title>Node3&#45;&gt;Node2</title>
<path fill="none" stroke="#63b8ff" d="M135.68,-164.52C124.28,-156.32 108.01,-143.32 97,-129 72.95,-97.73 55.4,-54.68 46.53,-30"/>
<polygon fill="#63b8ff" stroke="#63b8ff" points="49.86,-28.95 43.28,-20.64 43.25,-31.24 49.86,-28.95"/>
</g>
<!-- Node4 -->
<g id="node4" class="node">
<title>Node4</title>
<g id="a_node4"><a xlink:href="DefaultLogger_8h.html" target="_top" xlink:title=" ">
<polygon fill="white" stroke="#666666" points="191.5,-129 106.5,-129 106.5,-110 191.5,-110 191.5,-129"/>
<text text-anchor="middle" x="149" y="-117" font-family="Helvetica,sans-Serif" font-size="10.00">DefaultLogger.h</text>
</a>
</g>
</g>
<!-- Node3&#45;&gt;Node4 -->
<g id="edge4" class="edge">
<title>Node3&#45;&gt;Node4</title>
<path fill="none" stroke="#63b8ff" d="M149,-164.75C149,-158.27 149,-149.16 149,-140.9"/>
<polygon fill="#63b8ff" stroke="#63b8ff" points="152.5,-140.96 149,-130.96 145.5,-140.96 152.5,-140.96"/>
</g>
<!-- Node11 -->
<g id="node11" class="node">
<title>Node11</title>
<g id="a_node11"><a xlink:title=" ">
<polygon fill="#e0e0e0" stroke="#999999" points="260.5,-129 209.5,-129 209.5,-110 260.5,-110 260.5,-129"/>
<text text-anchor="middle" x="235" y="-117" font-family="Helvetica,sans-Serif" font-size="10.00">stddef.h</text>
</a>
</g>
</g>
<!-- Node3&#45;&gt;Node11 -->
<g id="edge12" class="edge">
<title>Node3&#45;&gt;Node11</title>
<path fill="none" stroke="#63b8ff" d="M163.59,-164.51C176.52,-156.54 195.64,-144.75 210.85,-135.38"/>
<polygon fill="#63b8ff" stroke="#63b8ff" points="212.66,-138.38 219.34,-130.15 208.99,-132.42 212.66,-138.38"/>
</g>
<!-- Node12 -->
<g id="node12" class="node">
<title>Node12</title>
<g id="a_node12"><a xlink:title=" ">
<polygon fill="#e0e0e0" stroke="#999999" points="327,-129 279,-129 279,-110 327,-110 327,-129"/>
<text text-anchor="middle" x="303" y="-117" font-family="Helvetica,sans-Serif" font-size="10.00">stdint.h</text>
</a>
</g>
</g>
<!-- Node3&#45;&gt;Node12 -->
<g id="edge13" class="edge">
<title>Node3&#45;&gt;Node12</title>
<path fill="none" stroke="#63b8ff" d="M175.12,-164.51C200.73,-155.7 239.92,-142.21 268.17,-132.49"/>
<polygon fill="#63b8ff" stroke="#63b8ff" points="269.03,-135.89 277.35,-129.33 266.76,-129.27 269.03,-135.89"/>
</g>
<!-- Node5 -->
<g id="node5" class="node">
<title>Node5</title>
<g id="a_node5"><a xlink:href="Helper_8h.html" target="_top" xlink:title=" ">
<polygon fill="white" stroke="#666666" points="244.5,-74 191.5,-74 191.5,-55 244.5,-55 244.5,-74"/>
<text text-anchor="middle" x="218" y="-62" font-family="Helvetica,sans-Serif" font-size="10.00">Helper.h</text>
</a>
</g>
</g>
<!-- Node4&#45;&gt;Node5 -->
<g id="edge5" class="edge">
<title>Node4&#45;&gt;Node5</title>
<path fill="none" stroke="#63b8ff" d="M160.7,-109.51C170.78,-101.77 185.54,-90.43 197.56,-81.2"/>
<polygon fill="#63b8ff" stroke="#63b8ff" points="199.47,-84.15 205.27,-75.28 195.21,-78.6 199.47,-84.15"/>
</g>
<!-- Node5&#45;&gt;Node2 -->
<g id="edge6" class="edge">
<title>Node5&#45;&gt;Node2</title>
<path fill="none" stroke="#63b8ff" d="M191.35,-55.57C162.16,-46.87 114.99,-32.83 81.06,-22.73"/>
<polygon fill="#63b8ff" stroke="#63b8ff" points="82.14,-19.4 71.56,-19.9 80.15,-26.11 82.14,-19.4"/>
</g>
<!-- Node6 -->
<g id="node6" class="node">
<title>Node6</title>
<g id="a_node6"><a xlink:title=" ">
<polygon fill="#e0e0e0" stroke="#999999" points="176,-19 98,-19 98,0 176,0 176,-19"/>
<text text-anchor="middle" x="137" y="-7" font-family="Helvetica,sans-Serif" font-size="10.00">ArduinoJson.h</text>
</a>
</g>
</g>
<!-- Node5&#45;&gt;Node6 -->
<g id="edge7" class="edge">
<title>Node5&#45;&gt;Node6</title>
<path fill="none" stroke="#63b8ff" d="M204.26,-54.51C192.2,-46.62 174.41,-34.98 160.16,-25.65"/>
<polygon fill="#63b8ff" stroke="#63b8ff" points="162.09,-22.73 151.8,-20.19 158.26,-28.59 162.09,-22.73"/>
</g>
<!-- Node7 -->
<g id="node7" class="node">
<title>Node7</title>
<g id="a_node7"><a xlink:title=" ">
<polygon fill="#e0e0e0" stroke="#999999" points="241.5,-19 194.5,-19 194.5,0 241.5,0 241.5,-19"/>
<text text-anchor="middle" x="218" y="-7" font-family="Helvetica,sans-Serif" font-size="10.00">iterator</text>
</a>
</g>
</g>
<!-- Node5&#45;&gt;Node7 -->
<g id="edge8" class="edge">
<title>Node5&#45;&gt;Node7</title>
<path fill="none" stroke="#63b8ff" d="M218,-54.75C218,-48.27 218,-39.16 218,-30.9"/>
<polygon fill="#63b8ff" stroke="#63b8ff" points="221.5,-30.96 218,-20.96 214.5,-30.96 221.5,-30.96"/>
</g>
<!-- Node8 -->
<g id="node8" class="node">
<title>Node8</title>
<g id="a_node8"><a xlink:title=" ">
<polygon fill="#e0e0e0" stroke="#999999" points="310.5,-19 259.5,-19 259.5,0 310.5,0 310.5,-19"/>
<text text-anchor="middle" x="285" y="-7" font-family="Helvetica,sans-Serif" font-size="10.00">assert.h</text>
</a>
</g>
</g>
<!-- Node5&#45;&gt;Node8 -->
<g id="edge9" class="edge">
<title>Node5&#45;&gt;Node8</title>
<path fill="none" stroke="#63b8ff" d="M229.37,-54.51C239.05,-46.85 253.2,-35.66 264.81,-26.47"/>
<polygon fill="#63b8ff" stroke="#63b8ff" points="266.94,-29.25 272.62,-20.3 262.6,-23.76 266.94,-29.25"/>
</g>
<!-- Node9 -->
<g id="node9" class="node">
<title>Node9</title>
<g id="a_node9"><a xlink:title=" ">
<polygon fill="#e0e0e0" stroke="#999999" points="379.5,-19 328.5,-19 328.5,0 379.5,0 379.5,-19"/>
<text text-anchor="middle" x="354" y="-7" font-family="Helvetica,sans-Serif" font-size="10.00">stdarg.h</text>
</a>
</g>
</g>
<!-- Node5&#45;&gt;Node9 -->
<g id="edge10" class="edge">
<title>Node5&#45;&gt;Node9</title>
<path fill="none" stroke="#63b8ff" d="M241.07,-54.51C262.89,-46.01 295.88,-33.15 320.58,-23.53"/>
<polygon fill="#63b8ff" stroke="#63b8ff" points="321.81,-26.8 329.86,-19.91 319.27,-20.28 321.81,-26.8"/>
</g>
<!-- Node10 -->
<g id="node10" class="node">
<title>Node10</title>
<g id="a_node10"><a xlink:title=" ">
<polygon fill="#e0e0e0" stroke="#999999" points="442.5,-19 397.5,-19 397.5,0 442.5,0 442.5,-19"/>
<text text-anchor="middle" x="420" y="-7" font-family="Helvetica,sans-Serif" font-size="10.00">stdio.h</text>
</a>
</g>
</g>
<!-- Node5&#45;&gt;Node10 -->
<g id="edge11" class="edge">
<title>Node5&#45;&gt;Node10</title>
<path fill="none" stroke="#63b8ff" d="M244.98,-56.59C276.59,-48.48 330.84,-34.47 386.23,-19.72"/>
<polygon fill="#63b8ff" stroke="#63b8ff" points="387.1,-23.11 395.86,-17.15 385.3,-16.34 387.1,-23.11"/>
</g>
</g>
</svg>
