<?xml version="1.0" encoding="UTF-8" standalone="no"?>
<!DOCTYPE svg PUBLIC "-//W3C//DTD SVG 1.1//EN"
 "http://www.w3.org/Graphics/SVG/1.1/DTD/svg11.dtd">
<!-- Generated by graphviz version 7.0.5 (20221223.1930)
 -->
<!-- Title: src/Server_Side_RPC.h Pages: 1 -->
<svg width="657pt" height="302pt"
 viewBox="0.00 0.00 657.00 302.00" xmlns="http://www.w3.org/2000/svg" xmlns:xlink="http://www.w3.org/1999/xlink">
<g id="graph0" class="graph" transform="scale(1 1) rotate(0) translate(4 298)">
<title>src/Server_Side_RPC.h</title>
<!-- Node1 -->
<g id="node1" class="node">
<title>Node1</title>
<g id="a_node1"><a xlink:title=" ">
<polygon fill="#999999" stroke="#666666" points="438.5,-294 319.5,-294 319.5,-275 438.5,-275 438.5,-294"/>
<text text-anchor="middle" x="379" y="-282" font-family="Helvetica,sans-Serif" font-size="10.00">src/Server_Side_RPC.h</text>
</a>
</g>
</g>
<!-- Node2 -->
<g id="node2" class="node">
<title>Node2</title>
<g id="a_node2"><a xlink:href="RPC__Callback_8h.html" target="_top" xlink:title=" ">
<polygon fill="white" stroke="#666666" points="362.5,-239 275.5,-239 275.5,-220 362.5,-220 362.5,-239"/>
<text text-anchor="middle" x="319" y="-227" font-family="Helvetica,sans-Serif" font-size="10.00">RPC_Callback.h</text>
</a>
</g>
</g>
<!-- Node1&#45;&gt;Node2 -->
<g id="edge1" class="edge">
<title>Node1&#45;&gt;Node2</title>
<path fill="none" stroke="#63b8ff" d="M368.82,-274.51C360.24,-266.93 347.73,-255.88 337.4,-246.75"/>
<polygon fill="#63b8ff" stroke="#63b8ff" points="339.97,-244.36 330.16,-240.36 335.34,-249.6 339.97,-244.36"/>
</g>
<!-- Node15 -->
<g id="node15" class="node">
<title>Node15</title>
<g id="a_node15"><a xlink:href="IAPI__Implementation_8h.html" target="_top" xlink:title=" ">
<polygon fill="white" stroke="#666666" points="497,-239 381,-239 381,-220 497,-220 497,-239"/>
<text text-anchor="middle" x="439" y="-227" font-family="Helvetica,sans-Serif" font-size="10.00">IAPI_Implementation.h</text>
</a>
</g>
</g>
<!-- Node1&#45;&gt;Node15 -->
<g id="edge18" class="edge">
<title>Node1&#45;&gt;Node15</title>
<path fill="none" stroke="#63b8ff" d="M389.18,-274.51C397.76,-266.93 410.27,-255.88 420.6,-246.75"/>
<polygon fill="#63b8ff" stroke="#63b8ff" points="422.66,-249.6 427.84,-240.36 418.03,-244.36 422.66,-249.6"/>
</g>
<!-- Node3 -->
<g id="node3" class="node">
<title>Node3</title>
<g id="a_node3"><a xlink:href="Callback_8h.html" target="_top" xlink:title=" ">
<polygon fill="white" stroke="#666666" points="323,-184 261,-184 261,-165 323,-165 323,-184"/>
<text text-anchor="middle" x="292" y="-172" font-family="Helvetica,sans-Serif" font-size="10.00">Callback.h</text>
</a>
</g>
</g>
<!-- Node2&#45;&gt;Node3 -->
<g id="edge2" class="edge">
<title>Node2&#45;&gt;Node3</title>
<path fill="none" stroke="#63b8ff" d="M314.54,-219.75C311.05,-212.88 306.05,-203.08 301.65,-194.45"/>
<polygon fill="#63b8ff" stroke="#63b8ff" points="304.9,-193.11 297.24,-185.79 298.66,-196.29 304.9,-193.11"/>
</g>
<!-- Node14 -->
<g id="node14" class="node">
<title>Node14</title>
<g id="a_node14"><a xlink:href="Constants_8h.html" target="_top" xlink:title=" ">
<polygon fill="white" stroke="#666666" points="411,-184 343,-184 343,-165 411,-165 411,-184"/>
<text text-anchor="middle" x="377" y="-172" font-family="Helvetica,sans-Serif" font-size="10.00">Constants.h</text>
</a>
</g>
</g>
<!-- Node2&#45;&gt;Node14 -->
<g id="edge16" class="edge">
<title>Node2&#45;&gt;Node14</title>
<path fill="none" stroke="#63b8ff" d="M328.84,-219.51C337.05,-212 348.98,-201.1 358.91,-192.03"/>
<polygon fill="#63b8ff" stroke="#63b8ff" points="361.17,-194.71 366.19,-185.38 356.45,-189.54 361.17,-194.71"/>
</g>
<!-- Node4 -->
<g id="node4" class="node">
<title>Node4</title>
<g id="a_node4"><a xlink:href="Configuration_8h.html" target="_top" xlink:title=" ">
<polygon fill="white" stroke="#666666" points="443,-19 363,-19 363,0 443,0 443,-19"/>
<text text-anchor="middle" x="403" y="-7" font-family="Helvetica,sans-Serif" font-size="10.00">Configuration.h</text>
</a>
</g>
</g>
<!-- Node3&#45;&gt;Node4 -->
<g id="edge3" class="edge">
<title>Node3&#45;&gt;Node4</title>
<path fill="none" stroke="#63b8ff" d="M298.21,-164.66C304.5,-155.7 314.48,-141.42 323,-129 347.23,-93.67 375.14,-52.13 390.77,-28.8"/>
<polygon fill="#63b8ff" stroke="#63b8ff" points="393.53,-30.96 396.18,-20.71 387.71,-27.07 393.53,-30.96"/>
</g>
<!-- Node5 -->
<g id="node5" class="node">
<title>Node5</title>
<g id="a_node5"><a xlink:href="Array_8h.html" target="_top" xlink:title=" ">
<polygon fill="white" stroke="#666666" points="174.5,-129 127.5,-129 127.5,-110 174.5,-110 174.5,-129"/>
<text text-anchor="middle" x="151" y="-117" font-family="Helvetica,sans-Serif" font-size="10.00">Array.h</text>
</a>
</g>
</g>
<!-- Node3&#45;&gt;Node5 -->
<g id="edge4" class="edge">
<title>Node3&#45;&gt;Node5</title>
<path fill="none" stroke="#63b8ff" d="M268.08,-164.51C245.36,-155.97 210.95,-143.03 185.31,-133.4"/>
<polygon fill="#63b8ff" stroke="#63b8ff" points="186.57,-130.13 175.98,-129.89 184.11,-136.69 186.57,-130.13"/>
</g>
<!-- Node7 -->
<g id="node7" class="node">
<title>Node7</title>
<g id="a_node7"><a xlink:title=" ">
<polygon fill="#e0e0e0" stroke="#999999" points="78,-19 0,-19 0,0 78,0 78,-19"/>
<text text-anchor="middle" x="39" y="-7" font-family="Helvetica,sans-Serif" font-size="10.00">ArduinoJson.h</text>
</a>
</g>
</g>
<!-- Node3&#45;&gt;Node7 -->
<g id="edge13" class="edge">
<title>Node3&#45;&gt;Node7</title>
<path fill="none" stroke="#63b8ff" d="M260.6,-172.16C223.42,-169.16 161.12,-159.56 118,-129 82.14,-103.58 57.99,-56.32 46.58,-29.81"/>
<polygon fill="#63b8ff" stroke="#63b8ff" points="49.85,-28.56 42.81,-20.65 43.37,-31.23 49.85,-28.56"/>
</g>
<!-- Node12 -->
<g id="node12" class="node">
<title>Node12</title>
<g id="a_node12"><a xlink:title=" ">
<polygon fill="#e0e0e0" stroke="#999999" points="251.5,-129 192.5,-129 192.5,-110 251.5,-110 251.5,-129"/>
<text text-anchor="middle" x="222" y="-117" font-family="Helvetica,sans-Serif" font-size="10.00">functional</text>
</a>
</g>
</g>
<!-- Node3&#45;&gt;Node12 -->
<g id="edge14" class="edge">
<title>Node3&#45;&gt;Node12</title>
<path fill="none" stroke="#63b8ff" d="M280.13,-164.51C269.91,-156.77 254.93,-145.43 242.74,-136.2"/>
<polygon fill="#63b8ff" stroke="#63b8ff" points="244.99,-133.52 234.91,-130.27 240.77,-139.1 244.99,-133.52"/>
</g>
<!-- Node13 -->
<g id="node13" class="node">
<title>Node13</title>
<g id="a_node13"><a xlink:title=" ">
<polygon fill="#e0e0e0" stroke="#999999" points="314,-129 270,-129 270,-110 314,-110 314,-129"/>
<text text-anchor="middle" x="292" y="-117" font-family="Helvetica,sans-Serif" font-size="10.00">vector</text>
</a>
</g>
</g>
<!-- Node3&#45;&gt;Node13 -->
<g id="edge15" class="edge">
<title>Node3&#45;&gt;Node13</title>
<path fill="none" stroke="#63b8ff" d="M292,-164.75C292,-158.27 292,-149.16 292,-140.9"/>
<polygon fill="#63b8ff" stroke="#63b8ff" points="295.5,-140.96 292,-130.96 288.5,-140.96 295.5,-140.96"/>
</g>
<!-- Node6 -->
<g id="node6" class="node">
<title>Node6</title>
<g id="a_node6"><a xlink:href="Helper_8h.html" target="_top" xlink:title=" ">
<polygon fill="white" stroke="#666666" points="248.5,-74 195.5,-74 195.5,-55 248.5,-55 248.5,-74"/>
<text text-anchor="middle" x="222" y="-62" font-family="Helvetica,sans-Serif" font-size="10.00">Helper.h</text>
</a>
</g>
</g>
<!-- Node5&#45;&gt;Node6 -->
<g id="edge5" class="edge">
<title>Node5&#45;&gt;Node6</title>
<path fill="none" stroke="#63b8ff" d="M163.04,-109.51C173.41,-101.77 188.6,-90.43 200.97,-81.2"/>
<polygon fill="#63b8ff" stroke="#63b8ff" points="203,-84.05 208.92,-75.26 198.81,-78.44 203,-84.05"/>
</g>
<!-- Node9 -->
<g id="node9" class="node">
<title>Node9</title>
<g id="a_node9"><a xlink:title=" ">
<polygon fill="#e0e0e0" stroke="#999999" points="147.5,-19 96.5,-19 96.5,0 147.5,0 147.5,-19"/>
<text text-anchor="middle" x="122" y="-7" font-family="Helvetica,sans-Serif" font-size="10.00">assert.h</text>
</a>
</g>
</g>
<!-- Node5&#45;&gt;Node9 -->
<g id="edge12" class="edge">
<title>Node5&#45;&gt;Node9</title>
<path fill="none" stroke="#63b8ff" d="M148.63,-109.66C144,-92.42 133.65,-53.9 127.31,-30.27"/>
<polygon fill="#63b8ff" stroke="#63b8ff" points="130.77,-29.67 124.8,-20.92 124.01,-31.49 130.77,-29.67"/>
</g>
<!-- Node6&#45;&gt;Node4 -->
<g id="edge6" class="edge">
<title>Node6&#45;&gt;Node4</title>
<path fill="none" stroke="#63b8ff" d="M248.71,-55.68C278.52,-46.95 327.13,-32.72 361.82,-22.56"/>
<polygon fill="#63b8ff" stroke="#63b8ff" points="362.49,-26.01 371.1,-19.84 360.52,-19.29 362.49,-26.01"/>
</g>
<!-- Node6&#45;&gt;Node7 -->
<g id="edge7" class="edge">
<title>Node6&#45;&gt;Node7</title>
<path fill="none" stroke="#63b8ff" d="M195.39,-55.79C165.34,-47.09 116.04,-32.81 80.82,-22.61"/>
<polygon fill="#63b8ff" stroke="#63b8ff" points="81.96,-19.3 71.38,-19.88 80.01,-26.02 81.96,-19.3"/>
</g>
<!-- Node8 -->
<g id="node8" class="node">
<title>Node8</title>
<g id="a_node8"><a xlink:title=" ">
<polygon fill="#e0e0e0" stroke="#999999" points="212.5,-19 165.5,-19 165.5,0 212.5,0 212.5,-19"/>
<text text-anchor="middle" x="189" y="-7" font-family="Helvetica,sans-Serif" font-size="10.00">iterator</text>
</a>
</g>
</g>
<!-- Node6&#45;&gt;Node8 -->
<g id="edge8" class="edge">
<title>Node6&#45;&gt;Node8</title>
<path fill="none" stroke="#63b8ff" d="M216.55,-54.75C212.23,-47.81 206.04,-37.86 200.62,-29.16"/>
<polygon fill="#63b8ff" stroke="#63b8ff" points="203.62,-27.37 195.37,-20.73 197.68,-31.07 203.62,-27.37"/>
</g>
<!-- Node6&#45;&gt;Node9 -->
<g id="edge9" class="edge">
<title>Node6&#45;&gt;Node9</title>
<path fill="none" stroke="#63b8ff" d="M205.04,-54.51C189.64,-46.35 166.69,-34.19 148.81,-24.71"/>
<polygon fill="#63b8ff" stroke="#63b8ff" points="150.53,-21.66 140.05,-20.07 147.25,-27.84 150.53,-21.66"/>
</g>
<!-- Node10 -->
<g id="node10" class="node">
<title>Node10</title>
<g id="a_node10"><a xlink:title=" ">
<polygon fill="#e0e0e0" stroke="#999999" points="281.5,-19 230.5,-19 230.5,0 281.5,0 281.5,-19"/>
<text text-anchor="middle" x="256" y="-7" font-family="Helvetica,sans-Serif" font-size="10.00">stdarg.h</text>
</a>
</g>
</g>
<!-- Node6&#45;&gt;Node10 -->
<g id="edge10" class="edge">
<title>Node6&#45;&gt;Node10</title>
<path fill="none" stroke="#63b8ff" d="M227.61,-54.75C232.12,-47.73 238.59,-37.64 244.21,-28.87"/>
<polygon fill="#63b8ff" stroke="#63b8ff" points="246.99,-31.02 249.45,-20.72 241.1,-27.24 246.99,-31.02"/>
</g>
<!-- Node11 -->
<g id="node11" class="node">
<title>Node11</title>
<g id="a_node11"><a xlink:title=" ">
<polygon fill="#e0e0e0" stroke="#999999" points="344.5,-19 299.5,-19 299.5,0 344.5,0 344.5,-19"/>
<text text-anchor="middle" x="322" y="-7" font-family="Helvetica,sans-Serif" font-size="10.00">stdio.h</text>
</a>
</g>
</g>
<!-- Node6&#45;&gt;Node11 -->
<g id="edge11" class="edge">
<title>Node6&#45;&gt;Node11</title>
<path fill="none" stroke="#63b8ff" d="M238.96,-54.51C254.36,-46.35 277.31,-34.19 295.19,-24.71"/>
<polygon fill="#63b8ff" stroke="#63b8ff" points="296.75,-27.84 303.95,-20.07 293.47,-21.66 296.75,-27.84"/>
</g>
<!-- Node14&#45;&gt;Node4 -->
<g id="edge17" class="edge">
<title>Node14&#45;&gt;Node4</title>
<path fill="none" stroke="#63b8ff" d="M378.4,-164.74C382.42,-139.53 394.09,-66.36 399.79,-30.62"/>
<polygon fill="#63b8ff" stroke="#63b8ff" points="403.24,-31.23 401.36,-20.8 396.33,-30.13 403.24,-31.23"/>
</g>
<!-- Node15&#45;&gt;Node3 -->
<g id="edge19" class="edge">
<title>Node15&#45;&gt;Node3</title>
<path fill="none" stroke="#63b8ff" d="M414.06,-219.51C390.16,-210.89 353.86,-197.8 327.05,-188.14"/>
<polygon fill="#63b8ff" stroke="#63b8ff" points="328.59,-184.97 317.99,-184.87 326.21,-191.56 328.59,-184.97"/>
</g>
<!-- Node15&#45;&gt;Node14 -->
<g id="edge20" class="edge">
<title>Node15&#45;&gt;Node14</title>
<path fill="none" stroke="#63b8ff" d="M428.48,-219.51C419.61,-211.93 406.69,-200.88 396.01,-191.75"/>
<polygon fill="#63b8ff" stroke="#63b8ff" points="398.39,-189.18 388.51,-185.34 393.84,-194.5 398.39,-189.18"/>
</g>
<!-- Node16 -->
<g id="node16" class="node">
<title>Node16</title>
<g id="a_node16"><a xlink:href="DefaultLogger_8h.html" target="_top" xlink:title=" ">
<polygon fill="white" stroke="#666666" points="493.5,-129 408.5,-129 408.5,-110 493.5,-110 493.5,-129"/>
<text text-anchor="middle" x="451" y="-117" font-family="Helvetica,sans-Serif" font-size="10.00">DefaultLogger.h</text>
</a>
</g>
</g>
<!-- Node15&#45;&gt;Node16 -->
<g id="edge21" class="edge">
<title>Node15&#45;&gt;Node16</title>
<path fill="none" stroke="#63b8ff" d="M439.98,-219.66C441.89,-202.5 446.14,-164.26 448.77,-140.6"/>
<polygon fill="#63b8ff" stroke="#63b8ff" points="452.21,-141.29 449.84,-130.96 445.25,-140.52 452.21,-141.29"/>
</g>
<!-- Node17 -->
<g id="node17" class="node">
<title>Node17</title>
<g id="a_node17"><a xlink:href="API__Process__Type_8h.html" target="_top" xlink:title=" ">
<polygon fill="white" stroke="#666666" points="649,-184 541,-184 541,-165 649,-165 649,-184"/>
<text text-anchor="middle" x="595" y="-172" font-family="Helvetica,sans-Serif" font-size="10.00">API_Process_Type.h</text>
</a>
</g>
</g>
<!-- Node15&#45;&gt;Node17 -->
<g id="edge23" class="edge">
<title>Node15&#45;&gt;Node17</title>
<path fill="none" stroke="#63b8ff" d="M465.46,-219.51C490.86,-210.88 529.47,-197.76 557.92,-188.1"/>
<polygon fill="#63b8ff" stroke="#63b8ff" points="558.89,-191.46 567.23,-184.93 556.64,-184.84 558.89,-191.46"/>
</g>
<!-- Node19 -->
<g id="node19" class="node">
<title>Node19</title>
<g id="a_node19"><a xlink:title=" ">
<polygon fill="#e0e0e0" stroke="#999999" points="523,-184 467,-184 467,-165 523,-165 523,-184"/>
<text text-anchor="middle" x="495" y="-172" font-family="Helvetica,sans-Serif" font-size="10.00">algorithm</text>
</a>
</g>
</g>
<!-- Node15&#45;&gt;Node19 -->
<g id="edge25" class="edge">
<title>Node15&#45;&gt;Node19</title>
<path fill="none" stroke="#63b8ff" d="M448.5,-219.51C456.43,-212 467.95,-201.1 477.54,-192.03"/>
<polygon fill="#63b8ff" stroke="#63b8ff" points="479.68,-194.81 484.54,-185.4 474.87,-189.73 479.68,-194.81"/>
</g>
<!-- Node16&#45;&gt;Node6 -->
<g id="edge22" class="edge">
<title>Node16&#45;&gt;Node6</title>
<path fill="none" stroke="#63b8ff" d="M412.15,-109.51C369.7,-99.68 302.12,-84.04 260,-74.29"/>
<polygon fill="#63b8ff" stroke="#63b8ff" points="260.84,-70.9 250.31,-72.05 259.26,-77.72 260.84,-70.9"/>
</g>
<!-- Node18 -->
<g id="node18" class="node">
<title>Node18</title>
<g id="a_node18"><a xlink:title=" ">
<polygon fill="#e0e0e0" stroke="#999999" points="619,-129 571,-129 571,-110 619,-110 619,-129"/>
<text text-anchor="middle" x="595" y="-117" font-family="Helvetica,sans-Serif" font-size="10.00">stdint.h</text>
</a>
</g>
</g>
<!-- Node17&#45;&gt;Node18 -->
<g id="edge24" class="edge">
<title>Node17&#45;&gt;Node18</title>
<path fill="none" stroke="#63b8ff" d="M595,-164.75C595,-158.27 595,-149.16 595,-140.9"/>
<polygon fill="#63b8ff" stroke="#63b8ff" points="598.5,-140.96 595,-130.96 591.5,-140.96 598.5,-140.96"/>
</g>
</g>
</svg>
