<?xml version="1.0" encoding="UTF-8" standalone="no"?>
<!DOCTYPE svg PUBLIC "-//W3C//DTD SVG 1.1//EN"
 "http://www.w3.org/Graphics/SVG/1.1/DTD/svg11.dtd">
<!-- Generated by graphviz version 7.0.5 (20221223.1930)
 -->
<!-- Title: src/Shared_Attribute_Callback.h Pages: 1 -->
<svg width="151pt" height="159pt"
 viewBox="0.00 0.00 151.00 159.00" xmlns="http://www.w3.org/2000/svg" xmlns:xlink="http://www.w3.org/1999/xlink">
<g id="graph0" class="graph" transform="scale(1 1) rotate(0) translate(4 155)">
<title>src/Shared_Attribute_Callback.h</title>
<!-- Node1 -->
<g id="node1" class="node">
<title>Node1</title>
<g id="a_node1"><a xlink:title=" ">
<polygon fill="#999999" stroke="#666666" points="124.5,-151 18.5,-151 18.5,-121 124.5,-121 124.5,-151"/>
<text text-anchor="start" x="26.5" y="-139" font-family="Helvetica,sans-Serif" font-size="10.00">src/Shared_Attribute</text>
<text text-anchor="middle" x="71.5" y="-128" font-family="Helvetica,sans-Serif" font-size="10.00">_Callback.h</text>
</a>
</g>
</g>
<!-- Node2 -->
<g id="node2" class="node">
<title>Node2</title>
<g id="a_node2"><a xlink:href="Shared__Attribute__Update_8h.html" target="_top" xlink:title=" ">
<polygon fill="white" stroke="#666666" points="124.5,-85 18.5,-85 18.5,-55 124.5,-55 124.5,-85"/>
<text text-anchor="start" x="26.5" y="-73" font-family="Helvetica,sans-Serif" font-size="10.00">src/Shared_Attribute</text>
<text text-anchor="middle" x="71.5" y="-62" font-family="Helvetica,sans-Serif" font-size="10.00">_Update.h</text>
</a>
</g>
</g>
<!-- Node1&#45;&gt;Node2 -->
<g id="edge1" class="edge">
<title>Node1&#45;&gt;Node2</title>
<path fill="none" stroke="#63b8ff" d="M71.5,-109.39C71.5,-101.13 71.5,-92.28 71.5,-85.16"/>
<polygon fill="#63b8ff" stroke="#63b8ff" points="68,-109.28 71.5,-119.28 75,-109.28 68,-109.28"/>
</g>
<!-- Node3 -->
<g id="node3" class="node">
<title>Node3</title>
<g id="a_node3"><a xlink:href="OTA__Firmware__Update_8h.html" target="_top" xlink:title=" ">
<polygon fill="white" stroke="#666666" points="143,-19 0,-19 0,0 143,0 143,-19"/>
<text text-anchor="middle" x="71.5" y="-7" font-family="Helvetica,sans-Serif" font-size="10.00">src/OTA_Firmware_Update.h</text>
</a>
</g>
</g>
<!-- Node2&#45;&gt;Node3 -->
<g id="edge2" class="edge">
<title>Node2&#45;&gt;Node3</title>
<path fill="none" stroke="#63b8ff" d="M71.5,-43.3C71.5,-34.65 71.5,-25.58 71.5,-19.18"/>
<polygon fill="#63b8ff" stroke="#63b8ff" points="68,-43.03 71.5,-53.03 75,-43.03 68,-43.03"/>
</g>
</g>
</svg>
