<?xml version="1.0" encoding="UTF-8" standalone="no"?>
<!DOCTYPE svg PUBLIC "-//W3C//DTD SVG 1.1//EN"
 "http://www.w3.org/Graphics/SVG/1.1/DTD/svg11.dtd">
<!-- Generated by graphviz version 7.0.5 (20221223.1930)
 -->
<!-- Title: src/Shared_Attribute_Update.h Pages: 1 -->
<!--zoomable 313 -->
<svg id="main" version="1.1" xmlns="http://www.w3.org/2000/svg" xmlns:xlink="http://www.w3.org/1999/xlink" xml:space="preserve" onload="init(evt)">
<style type="text/css"><![CDATA[
.edge:hover path { stroke: red; }
.edge:hover polygon { stroke: red; fill: red; }
]]></style>
<script type="text/javascript"><![CDATA[
var edges = document.getElementsByTagName('g');
if (edges && edges.length) {
  for (var i=0;i<edges.length;i++) {
    if (edges[i].id.substr(0,4)=='edge') {
      edges[i].setAttribute('class','edge');
    }
  }
}
]]></script>
        <defs>
                <circle id="rim" cx="0" cy="0" r="7"/>
                <circle id="rim2" cx="0" cy="0" r="3.5"/>
                <g id="zoomPlus">
                        <use xlink:href="#rim" fill="#404040">
                                <set attributeName="fill" to="#808080" begin="zoomplus.mouseover" end="zoomplus.mouseout"/>
                        </use>
                        <path d="M-4,0h8M0,-4v8" fill="none" stroke="white" stroke-width="1.5" pointer-events="none"/>
                </g>
                <g id="zoomMin">
                        <use xlink:href="#rim" fill="#404040">
                                <set attributeName="fill" to="#808080" begin="zoomminus.mouseover" end="zoomminus.mouseout"/>
                        </use>
                        <path d="M-4,0h8" fill="none" stroke="white" stroke-width="1.5" pointer-events="none"/>
                </g>
                <g id="dirArrow">
                        <path fill="none" stroke="white" stroke-width="1.5" d="M0,-3.0v7 M-2.5,-0.5L0,-3.0L2.5,-0.5"/>
                </g>
               <g id="resetDef">
                       <use xlink:href="#rim2" fill="#404040">
                               <set attributeName="fill" to="#808080" begin="reset.mouseover" end="reset.mouseout"/>
                       </use>
               </g>
        </defs>

<script type="text/javascript">
var viewWidth = 658;
var viewHeight = 313;
var sectionId = 'dynsection-0';
</script>
<script xlink:href="svgpan.js"/>
<svg id="graph" class="graph">
<g id="viewport">
<title>src/Shared_Attribute_Update.h</title>
<!-- Node1 -->
<g id="node1" class="node">
<title>Node1</title>
<g id="a_node1"><a xlink:title=" ">
<polygon fill="#999999" stroke="#666666" points="420,-305 314,-305 314,-275 420,-275 420,-305"/>
<text text-anchor="start" x="322" y="-293" font-family="Helvetica,sans-Serif" font-size="10.00">src/Shared_Attribute</text>
<text text-anchor="middle" x="367" y="-282" font-family="Helvetica,sans-Serif" font-size="10.00">_Update.h</text>
</a>
</g>
</g>
<!-- Node2 -->
<g id="node2" class="node">
<title>Node2</title>
<g id="a_node2"><a xlink:href="Shared__Attribute__Callback_8h.html" target="_top" xlink:title=" ">
<polygon fill="white" stroke="#666666" points="364,-239 224,-239 224,-220 364,-220 364,-239"/>
<text text-anchor="middle" x="294" y="-227" font-family="Helvetica,sans-Serif" font-size="10.00">Shared_Attribute_Callback.h</text>
</a>
</g>
</g>
<!-- Node1&#45;&gt;Node2 -->
<g id="edge1" class="edge">
<title>Node1&#45;&gt;Node2</title>
<path fill="none" stroke="#63b8ff" d="M348.96,-274.54C338.24,-265.96 324.66,-255.07 313.67,-246.26"/>
<polygon fill="#63b8ff" stroke="#63b8ff" points="316,-243.64 306.01,-240.12 311.62,-249.11 316,-243.64"/>
</g>
<!-- Node15 -->
<g id="node15" class="node">
<title>Node15</title>
<g id="a_node15"><a xlink:href="IAPI__Implementation_8h.html" target="_top" xlink:title=" ">
<polygon fill="white" stroke="#666666" points="498,-239 382,-239 382,-220 498,-220 498,-239"/>
<text text-anchor="middle" x="440" y="-227" font-family="Helvetica,sans-Serif" font-size="10.00">IAPI_Implementation.h</text>
</a>
</g>
</g>
<!-- Node1&#45;&gt;Node15 -->
<g id="edge18" class="edge">
<title>Node1&#45;&gt;Node15</title>
<path fill="none" stroke="#63b8ff" d="M385.04,-274.54C395.76,-265.96 409.34,-255.07 420.33,-246.26"/>
<polygon fill="#63b8ff" stroke="#63b8ff" points="422.38,-249.11 427.99,-240.12 418,-243.64 422.38,-249.11"/>
</g>
<!-- Node3 -->
<g id="node3" class="node">
<title>Node3</title>
<g id="a_node3"><a xlink:href="Callback_8h.html" target="_top" xlink:title=" ">
<polygon fill="white" stroke="#666666" points="323,-184 261,-184 261,-165 323,-165 323,-184"/>
<text text-anchor="middle" x="292" y="-172" font-family="Helvetica,sans-Serif" font-size="10.00">Callback.h</text>
</a>
</g>
</g>
<!-- Node2&#45;&gt;Node3 -->
<g id="edge2" class="edge">
<title>Node2&#45;&gt;Node3</title>
<path fill="none" stroke="#63b8ff" d="M293.67,-219.75C293.43,-213.27 293.08,-204.16 292.77,-195.9"/>
<polygon fill="#63b8ff" stroke="#63b8ff" points="296.27,-195.82 292.39,-185.95 289.27,-196.08 296.27,-195.82"/>
</g>
<!-- Node14 -->
<g id="node14" class="node">
<title>Node14</title>
<g id="a_node14"><a xlink:href="Constants_8h.html" target="_top" xlink:title=" ">
<polygon fill="white" stroke="#666666" points="412,-184 344,-184 344,-165 412,-165 412,-184"/>
<text text-anchor="middle" x="378" y="-172" font-family="Helvetica,sans-Serif" font-size="10.00">Constants.h</text>
</a>
</g>
</g>
<!-- Node2&#45;&gt;Node14 -->
<g id="edge16" class="edge">
<title>Node2&#45;&gt;Node14</title>
<path fill="none" stroke="#63b8ff" d="M308.25,-219.51C320.88,-211.54 339.56,-199.75 354.41,-190.38"/>
<polygon fill="#63b8ff" stroke="#63b8ff" points="356.09,-193.46 362.68,-185.17 352.36,-187.54 356.09,-193.46"/>
</g>
<!-- Node4 -->
<g id="node4" class="node">
<title>Node4</title>
<g id="a_node4"><a xlink:href="Configuration_8h.html" target="_top" xlink:title=" ">
<polygon fill="white" stroke="#666666" points="443,-19 363,-19 363,0 443,0 443,-19"/>
<text text-anchor="middle" x="403" y="-7" font-family="Helvetica,sans-Serif" font-size="10.00">Configuration.h</text>
</a>
</g>
</g>
<!-- Node3&#45;&gt;Node4 -->
<g id="edge3" class="edge">
<title>Node3&#45;&gt;Node4</title>
<path fill="none" stroke="#63b8ff" d="M298.21,-164.66C304.5,-155.7 314.48,-141.42 323,-129 347.23,-93.67 375.14,-52.13 390.77,-28.8"/>
<polygon fill="#63b8ff" stroke="#63b8ff" points="393.53,-30.96 396.18,-20.71 387.71,-27.07 393.53,-30.96"/>
</g>
<!-- Node5 -->
<g id="node5" class="node">
<title>Node5</title>
<g id="a_node5"><a xlink:href="Array_8h.html" target="_top" xlink:title=" ">
<polygon fill="white" stroke="#666666" points="174.5,-129 127.5,-129 127.5,-110 174.5,-110 174.5,-129"/>
<text text-anchor="middle" x="151" y="-117" font-family="Helvetica,sans-Serif" font-size="10.00">Array.h</text>
</a>
</g>
</g>
<!-- Node3&#45;&gt;Node5 -->
<g id="edge4" class="edge">
<title>Node3&#45;&gt;Node5</title>
<path fill="none" stroke="#63b8ff" d="M268.08,-164.51C245.36,-155.97 210.95,-143.03 185.31,-133.4"/>
<polygon fill="#63b8ff" stroke="#63b8ff" points="186.57,-130.13 175.98,-129.89 184.11,-136.69 186.57,-130.13"/>
</g>
<!-- Node7 -->
<g id="node7" class="node">
<title>Node7</title>
<g id="a_node7"><a xlink:title=" ">
<polygon fill="#e0e0e0" stroke="#999999" points="78,-19 0,-19 0,0 78,0 78,-19"/>
<text text-anchor="middle" x="39" y="-7" font-family="Helvetica,sans-Serif" font-size="10.00">ArduinoJson.h</text>
</a>
</g>
</g>
<!-- Node3&#45;&gt;Node7 -->
<g id="edge13" class="edge">
<title>Node3&#45;&gt;Node7</title>
<path fill="none" stroke="#63b8ff" d="M260.6,-172.16C223.42,-169.16 161.12,-159.56 118,-129 82.14,-103.58 57.99,-56.32 46.58,-29.81"/>
<polygon fill="#63b8ff" stroke="#63b8ff" points="49.85,-28.56 42.81,-20.65 43.37,-31.23 49.85,-28.56"/>
</g>
<!-- Node12 -->
<g id="node12" class="node">
<title>Node12</title>
<g id="a_node12"><a xlink:title=" ">
<polygon fill="#e0e0e0" stroke="#999999" points="251.5,-129 192.5,-129 192.5,-110 251.5,-110 251.5,-129"/>
<text text-anchor="middle" x="222" y="-117" font-family="Helvetica,sans-Serif" font-size="10.00">functional</text>
</a>
</g>
</g>
<!-- Node3&#45;&gt;Node12 -->
<g id="edge14" class="edge">
<title>Node3&#45;&gt;Node12</title>
<path fill="none" stroke="#63b8ff" d="M280.13,-164.51C269.91,-156.77 254.93,-145.43 242.74,-136.2"/>
<polygon fill="#63b8ff" stroke="#63b8ff" points="244.99,-133.52 234.91,-130.27 240.77,-139.1 244.99,-133.52"/>
</g>
<!-- Node13 -->
<g id="node13" class="node">
<title>Node13</title>
<g id="a_node13"><a xlink:title=" ">
<polygon fill="#e0e0e0" stroke="#999999" points="314,-129 270,-129 270,-110 314,-110 314,-129"/>
<text text-anchor="middle" x="292" y="-117" font-family="Helvetica,sans-Serif" font-size="10.00">vector</text>
</a>
</g>
</g>
<!-- Node3&#45;&gt;Node13 -->
<g id="edge15" class="edge">
<title>Node3&#45;&gt;Node13</title>
<path fill="none" stroke="#63b8ff" d="M292,-164.75C292,-158.27 292,-149.16 292,-140.9"/>
<polygon fill="#63b8ff" stroke="#63b8ff" points="295.5,-140.96 292,-130.96 288.5,-140.96 295.5,-140.96"/>
</g>
<!-- Node6 -->
<g id="node6" class="node">
<title>Node6</title>
<g id="a_node6"><a xlink:href="Helper_8h.html" target="_top" xlink:title=" ">
<polygon fill="white" stroke="#666666" points="248.5,-74 195.5,-74 195.5,-55 248.5,-55 248.5,-74"/>
<text text-anchor="middle" x="222" y="-62" font-family="Helvetica,sans-Serif" font-size="10.00">Helper.h</text>
</a>
</g>
</g>
<!-- Node5&#45;&gt;Node6 -->
<g id="edge5" class="edge">
<title>Node5&#45;&gt;Node6</title>
<path fill="none" stroke="#63b8ff" d="M163.04,-109.51C173.41,-101.77 188.6,-90.43 200.97,-81.2"/>
<polygon fill="#63b8ff" stroke="#63b8ff" points="203,-84.05 208.92,-75.26 198.81,-78.44 203,-84.05"/>
</g>
<!-- Node9 -->
<g id="node9" class="node">
<title>Node9</title>
<g id="a_node9"><a xlink:title=" ">
<polygon fill="#e0e0e0" stroke="#999999" points="147.5,-19 96.5,-19 96.5,0 147.5,0 147.5,-19"/>
<text text-anchor="middle" x="122" y="-7" font-family="Helvetica,sans-Serif" font-size="10.00">assert.h</text>
</a>
</g>
</g>
<!-- Node5&#45;&gt;Node9 -->
<g id="edge12" class="edge">
<title>Node5&#45;&gt;Node9</title>
<path fill="none" stroke="#63b8ff" d="M148.63,-109.66C144,-92.42 133.65,-53.9 127.31,-30.27"/>
<polygon fill="#63b8ff" stroke="#63b8ff" points="130.77,-29.67 124.8,-20.92 124.01,-31.49 130.77,-29.67"/>
</g>
<!-- Node6&#45;&gt;Node4 -->
<g id="edge6" class="edge">
<title>Node6&#45;&gt;Node4</title>
<path fill="none" stroke="#63b8ff" d="M248.71,-55.68C278.52,-46.95 327.13,-32.72 361.82,-22.56"/>
<polygon fill="#63b8ff" stroke="#63b8ff" points="362.49,-26.01 371.1,-19.84 360.52,-19.29 362.49,-26.01"/>
</g>
<!-- Node6&#45;&gt;Node7 -->
<g id="edge7" class="edge">
<title>Node6&#45;&gt;Node7</title>
<path fill="none" stroke="#63b8ff" d="M195.39,-55.79C165.34,-47.09 116.04,-32.81 80.82,-22.61"/>
<polygon fill="#63b8ff" stroke="#63b8ff" points="81.96,-19.3 71.38,-19.88 80.01,-26.02 81.96,-19.3"/>
</g>
<!-- Node8 -->
<g id="node8" class="node">
<title>Node8</title>
<g id="a_node8"><a xlink:title=" ">
<polygon fill="#e0e0e0" stroke="#999999" points="212.5,-19 165.5,-19 165.5,0 212.5,0 212.5,-19"/>
<text text-anchor="middle" x="189" y="-7" font-family="Helvetica,sans-Serif" font-size="10.00">iterator</text>
</a>
</g>
</g>
<!-- Node6&#45;&gt;Node8 -->
<g id="edge8" class="edge">
<title>Node6&#45;&gt;Node8</title>
<path fill="none" stroke="#63b8ff" d="M216.55,-54.75C212.23,-47.81 206.04,-37.86 200.62,-29.16"/>
<polygon fill="#63b8ff" stroke="#63b8ff" points="203.62,-27.37 195.37,-20.73 197.68,-31.07 203.62,-27.37"/>
</g>
<!-- Node6&#45;&gt;Node9 -->
<g id="edge9" class="edge">
<title>Node6&#45;&gt;Node9</title>
<path fill="none" stroke="#63b8ff" d="M205.04,-54.51C189.64,-46.35 166.69,-34.19 148.81,-24.71"/>
<polygon fill="#63b8ff" stroke="#63b8ff" points="150.53,-21.66 140.05,-20.07 147.25,-27.84 150.53,-21.66"/>
</g>
<!-- Node10 -->
<g id="node10" class="node">
<title>Node10</title>
<g id="a_node10"><a xlink:title=" ">
<polygon fill="#e0e0e0" stroke="#999999" points="281.5,-19 230.5,-19 230.5,0 281.5,0 281.5,-19"/>
<text text-anchor="middle" x="256" y="-7" font-family="Helvetica,sans-Serif" font-size="10.00">stdarg.h</text>
</a>
</g>
</g>
<!-- Node6&#45;&gt;Node10 -->
<g id="edge10" class="edge">
<title>Node6&#45;&gt;Node10</title>
<path fill="none" stroke="#63b8ff" d="M227.61,-54.75C232.12,-47.73 238.59,-37.64 244.21,-28.87"/>
<polygon fill="#63b8ff" stroke="#63b8ff" points="246.99,-31.02 249.45,-20.72 241.1,-27.24 246.99,-31.02"/>
</g>
<!-- Node11 -->
<g id="node11" class="node">
<title>Node11</title>
<g id="a_node11"><a xlink:title=" ">
<polygon fill="#e0e0e0" stroke="#999999" points="344.5,-19 299.5,-19 299.5,0 344.5,0 344.5,-19"/>
<text text-anchor="middle" x="322" y="-7" font-family="Helvetica,sans-Serif" font-size="10.00">stdio.h</text>
</a>
</g>
</g>
<!-- Node6&#45;&gt;Node11 -->
<g id="edge11" class="edge">
<title>Node6&#45;&gt;Node11</title>
<path fill="none" stroke="#63b8ff" d="M238.96,-54.51C254.36,-46.35 277.31,-34.19 295.19,-24.71"/>
<polygon fill="#63b8ff" stroke="#63b8ff" points="296.75,-27.84 303.95,-20.07 293.47,-21.66 296.75,-27.84"/>
</g>
<!-- Node14&#45;&gt;Node4 -->
<g id="edge17" class="edge">
<title>Node14&#45;&gt;Node4</title>
<path fill="none" stroke="#63b8ff" d="M379.34,-164.74C383.21,-139.53 394.43,-66.36 399.91,-30.62"/>
<polygon fill="#63b8ff" stroke="#63b8ff" points="403.36,-31.22 401.42,-20.8 396.44,-30.16 403.36,-31.22"/>
</g>
<!-- Node15&#45;&gt;Node3 -->
<g id="edge19" class="edge">
<title>Node15&#45;&gt;Node3</title>
<path fill="none" stroke="#63b8ff" d="M414.89,-219.51C390.83,-210.89 354.28,-197.8 327.29,-188.14"/>
<polygon fill="#63b8ff" stroke="#63b8ff" points="328.75,-184.94 318.16,-184.87 326.39,-191.53 328.75,-184.94"/>
</g>
<!-- Node15&#45;&gt;Node14 -->
<g id="edge20" class="edge">
<title>Node15&#45;&gt;Node14</title>
<path fill="none" stroke="#63b8ff" d="M429.48,-219.51C420.61,-211.93 407.69,-200.88 397.01,-191.75"/>
<polygon fill="#63b8ff" stroke="#63b8ff" points="399.39,-189.18 389.51,-185.34 394.84,-194.5 399.39,-189.18"/>
</g>
<!-- Node16 -->
<g id="node16" class="node">
<title>Node16</title>
<g id="a_node16"><a xlink:href="DefaultLogger_8h.html" target="_top" xlink:title=" ">
<polygon fill="white" stroke="#666666" points="493.5,-129 408.5,-129 408.5,-110 493.5,-110 493.5,-129"/>
<text text-anchor="middle" x="451" y="-117" font-family="Helvetica,sans-Serif" font-size="10.00">DefaultLogger.h</text>
</a>
</g>
</g>
<!-- Node15&#45;&gt;Node16 -->
<g id="edge21" class="edge">
<title>Node15&#45;&gt;Node16</title>
<path fill="none" stroke="#63b8ff" d="M440.9,-219.66C442.65,-202.5 446.54,-164.26 448.95,-140.6"/>
<polygon fill="#63b8ff" stroke="#63b8ff" points="452.4,-141.27 449.93,-130.97 445.44,-140.56 452.4,-141.27"/>
</g>
<!-- Node17 -->
<g id="node17" class="node">
<title>Node17</title>
<g id="a_node17"><a xlink:href="API__Process__Type_8h.html" target="_top" xlink:title=" ">
<polygon fill="white" stroke="#666666" points="650,-184 542,-184 542,-165 650,-165 650,-184"/>
<text text-anchor="middle" x="596" y="-172" font-family="Helvetica,sans-Serif" font-size="10.00">API_Process_Type.h</text>
</a>
</g>
</g>
<!-- Node15&#45;&gt;Node17 -->
<g id="edge23" class="edge">
<title>Node15&#45;&gt;Node17</title>
<path fill="none" stroke="#63b8ff" d="M466.46,-219.51C491.86,-210.88 530.47,-197.76 558.92,-188.1"/>
<polygon fill="#63b8ff" stroke="#63b8ff" points="559.89,-191.46 568.23,-184.93 557.64,-184.84 559.89,-191.46"/>
</g>
<!-- Node19 -->
<g id="node19" class="node">
<title>Node19</title>
<g id="a_node19"><a xlink:title=" ">
<polygon fill="#e0e0e0" stroke="#999999" points="524,-184 468,-184 468,-165 524,-165 524,-184"/>
<text text-anchor="middle" x="496" y="-172" font-family="Helvetica,sans-Serif" font-size="10.00">algorithm</text>
</a>
</g>
</g>
<!-- Node15&#45;&gt;Node19 -->
<g id="edge25" class="edge">
<title>Node15&#45;&gt;Node19</title>
<path fill="none" stroke="#63b8ff" d="M449.5,-219.51C457.43,-212 468.95,-201.1 478.54,-192.03"/>
<polygon fill="#63b8ff" stroke="#63b8ff" points="480.68,-194.81 485.54,-185.4 475.87,-189.73 480.68,-194.81"/>
</g>
<!-- Node16&#45;&gt;Node6 -->
<g id="edge22" class="edge">
<title>Node16&#45;&gt;Node6</title>
<path fill="none" stroke="#63b8ff" d="M412.15,-109.51C369.7,-99.68 302.12,-84.04 260,-74.29"/>
<polygon fill="#63b8ff" stroke="#63b8ff" points="260.84,-70.9 250.31,-72.05 259.26,-77.72 260.84,-70.9"/>
</g>
<!-- Node18 -->
<g id="node18" class="node">
<title>Node18</title>
<g id="a_node18"><a xlink:title=" ">
<polygon fill="#e0e0e0" stroke="#999999" points="620,-129 572,-129 572,-110 620,-110 620,-129"/>
<text text-anchor="middle" x="596" y="-117" font-family="Helvetica,sans-Serif" font-size="10.00">stdint.h</text>
</a>
</g>
</g>
<!-- Node17&#45;&gt;Node18 -->
<g id="edge24" class="edge">
<title>Node17&#45;&gt;Node18</title>
<path fill="none" stroke="#63b8ff" d="M596,-164.75C596,-158.27 596,-149.16 596,-140.9"/>
<polygon fill="#63b8ff" stroke="#63b8ff" points="599.5,-140.96 596,-130.96 592.5,-140.96 599.5,-140.96"/>
</g>
</g>
</svg>
        <g id="navigator" transform="translate(0 0)" fill="#404254">
                <rect fill="#f2f5e9" fill-opacity="0.5" stroke="#606060" stroke-width=".5" x="0" y="0" width="60" height="60"/>
                <use id="zoomplus" xlink:href="#zoomPlus" x="17" y="9" onmousedown="handleZoom(evt,'in')"/>
                <use id="zoomminus" xlink:href="#zoomMin" x="42" y="9" onmousedown="handleZoom(evt,'out')"/>
                <use id="reset" xlink:href="#resetDef" x="30" y="36" onmousedown="handleReset()"/>
                <g id="arrowUp" xlink:href="#dirArrow" transform="translate(30 24)" onmousedown="handlePan(0,-1)">
                  <use xlink:href="#rim" fill="#404040">
                        <set attributeName="fill" to="#808080" begin="arrowUp.mouseover" end="arrowUp.mouseout"/>
                  </use>
                  <path fill="none" stroke="white" stroke-width="1.5" d="M0,-3.0v7 M-2.5,-0.5L0,-3.0L2.5,-0.5"/>
                </g>
                <g id="arrowRight" xlink:href="#dirArrow" transform="rotate(90) translate(36 -43)" onmousedown="handlePan(1,0)">
                  <use xlink:href="#rim" fill="#404040">
                        <set attributeName="fill" to="#808080" begin="arrowRight.mouseover" end="arrowRight.mouseout"/>
                  </use>
                  <path fill="none" stroke="white" stroke-width="1.5" d="M0,-3.0v7 M-2.5,-0.5L0,-3.0L2.5,-0.5"/>
                </g>
                <g id="arrowDown" xlink:href="#dirArrow" transform="rotate(180) translate(-30 -48)" onmousedown="handlePan(0,1)">
                  <use xlink:href="#rim" fill="#404040">
                        <set attributeName="fill" to="#808080" begin="arrowDown.mouseover" end="arrowDown.mouseout"/>
                  </use>
                  <path fill="none" stroke="white" stroke-width="1.5" d="M0,-3.0v7 M-2.5,-0.5L0,-3.0L2.5,-0.5"/>
                </g>
                <g id="arrowLeft" xlink:href="#dirArrow" transform="rotate(270) translate(-36 17)" onmousedown="handlePan(-1,0)">
                  <use xlink:href="#rim" fill="#404040">
                        <set attributeName="fill" to="#808080" begin="arrowLeft.mouseover" end="arrowLeft.mouseout"/>
                  </use>
                  <path fill="none" stroke="white" stroke-width="1.5" d="M0,-3.0v7 M-2.5,-0.5L0,-3.0L2.5,-0.5"/>
                </g>
        </g>
        <svg viewBox="0 0 15 15" width="100%" height="30px" preserveAspectRatio="xMaxYMin meet">
         <g id="arrow_out" transform="scale(0.3 0.3)">
          <a xlink:href="Shared__Attribute__Update_8h__incl_org.svg" target="_base">
           <rect id="button" ry="5" rx="5" y="6" x="6" height="38" width="38"
                fill="#f2f5e9" fill-opacity="0.5" stroke="#606060" stroke-width="1.0"/>
           <path id="arrow"
             d="M 11.500037,31.436501 C 11.940474,20.09759 22.043105,11.32322 32.158766,21.979434 L 37.068811,17.246167 C 37.068811,17.246167 37.088388,32 37.088388,32 L 22.160133,31.978069 C 22.160133,31.978069 26.997745,27.140456 26.997745,27.140456 C 18.528582,18.264221 13.291696,25.230495 11.500037,31.436501 z"
             style="fill:#404040;"/>
          </a>
         </g>
        </svg>
</svg>
