<?xml version="1.0" encoding="UTF-8" standalone="no"?>
<!DOCTYPE svg PUBLIC "-//W3C//DTD SVG 1.1//EN"
 "http://www.w3.org/Graphics/SVG/1.1/DTD/svg11.dtd">
<!-- Generated by graphviz version 7.0.5 (20221223.1930)
 -->
<!-- Title: src/ThingsBoard.h Pages: 1 -->
<svg width="593pt" height="302pt"
 viewBox="0.00 0.00 593.00 302.00" xmlns="http://www.w3.org/2000/svg" xmlns:xlink="http://www.w3.org/1999/xlink">
<g id="graph0" class="graph" transform="scale(1 1) rotate(0) translate(4 298)">
<title>src/ThingsBoard.h</title>
<!-- Node1 -->
<g id="node1" class="node">
<title>Node1</title>
<g id="a_node1"><a xlink:title=" ">
<polygon fill="#999999" stroke="#666666" points="299,-294 204,-294 204,-275 299,-275 299,-294"/>
<text text-anchor="middle" x="251.5" y="-282" font-family="Helvetica,sans-Serif" font-size="10.00">src/ThingsBoard.h</text>
</a>
</g>
</g>
<!-- Node2 -->
<g id="node2" class="node">
<title>Node2</title>
<g id="a_node2"><a xlink:href="Constants_8h.html" target="_top" xlink:title=" ">
<polygon fill="white" stroke="#666666" points="116.5,-184 48.5,-184 48.5,-165 116.5,-165 116.5,-184"/>
<text text-anchor="middle" x="82.5" y="-172" font-family="Helvetica,sans-Serif" font-size="10.00">Constants.h</text>
</a>
</g>
</g>
<!-- Node1&#45;&gt;Node2 -->
<g id="edge1" class="edge">
<title>Node1&#45;&gt;Node2</title>
<path fill="none" stroke="#63b8ff" d="M237.67,-274.66C208.83,-256.23 141.97,-213.5 106.15,-190.62"/>
<polygon fill="#63b8ff" stroke="#63b8ff" points="108.11,-187.71 97.8,-185.28 104.34,-193.61 108.11,-187.71"/>
</g>
<!-- Node4 -->
<g id="node4" class="node">
<title>Node4</title>
<g id="a_node4"><a xlink:href="IAPI__Implementation_8h.html" target="_top" xlink:title=" ">
<polygon fill="white" stroke="#666666" points="309.5,-239 193.5,-239 193.5,-220 309.5,-220 309.5,-239"/>
<text text-anchor="middle" x="251.5" y="-227" font-family="Helvetica,sans-Serif" font-size="10.00">IAPI_Implementation.h</text>
</a>
</g>
</g>
<!-- Node1&#45;&gt;Node4 -->
<g id="edge3" class="edge">
<title>Node1&#45;&gt;Node4</title>
<path fill="none" stroke="#63b8ff" d="M251.5,-274.75C251.5,-268.27 251.5,-259.16 251.5,-250.9"/>
<polygon fill="#63b8ff" stroke="#63b8ff" points="255,-250.96 251.5,-240.96 248,-250.96 255,-250.96"/>
</g>
<!-- Node15 -->
<g id="node15" class="node">
<title>Node15</title>
<g id="a_node15"><a xlink:href="DefaultLogger_8h.html" target="_top" xlink:title=" ">
<polygon fill="white" stroke="#666666" points="500,-184 415,-184 415,-165 500,-165 500,-184"/>
<text text-anchor="middle" x="457.5" y="-172" font-family="Helvetica,sans-Serif" font-size="10.00">DefaultLogger.h</text>
</a>
</g>
</g>
<!-- Node1&#45;&gt;Node15 -->
<g id="edge27" class="edge">
<title>Node1&#45;&gt;Node15</title>
<path fill="none" stroke="#63b8ff" d="M299.5,-281.14C336.49,-277.1 387.14,-266.49 422.5,-239 436.79,-227.89 446.06,-209.24 451.45,-195.01"/>
<polygon fill="#63b8ff" stroke="#63b8ff" points="454.68,-196.4 454.6,-185.8 448.06,-194.13 454.68,-196.4"/>
</g>
<!-- Node19 -->
<g id="node19" class="node">
<title>Node19</title>
<g id="a_node19"><a xlink:href="IMQTT__Client_8h.html" target="_top" xlink:title=" ">
<polygon fill="white" stroke="#666666" points="413,-239 328,-239 328,-220 413,-220 413,-239"/>
<text text-anchor="middle" x="370.5" y="-227" font-family="Helvetica,sans-Serif" font-size="10.00">IMQTT_Client.h</text>
</a>
</g>
</g>
<!-- Node1&#45;&gt;Node19 -->
<g id="edge24" class="edge">
<title>Node1&#45;&gt;Node19</title>
<path fill="none" stroke="#63b8ff" d="M271.69,-274.51C290.52,-266.12 318.87,-253.5 340.37,-243.92"/>
<polygon fill="#63b8ff" stroke="#63b8ff" points="341.52,-247.24 349.23,-239.97 338.67,-240.85 341.52,-247.24"/>
</g>
<!-- Node20 -->
<g id="node20" class="node">
<title>Node20</title>
<g id="a_node20"><a xlink:href="Telemetry_8h.html" target="_top" xlink:title=" ">
<polygon fill="white" stroke="#666666" points="67,-74 0,-74 0,-55 67,-55 67,-74"/>
<text text-anchor="middle" x="33.5" y="-62" font-family="Helvetica,sans-Serif" font-size="10.00">Telemetry.h</text>
</a>
</g>
</g>
<!-- Node1&#45;&gt;Node20 -->
<g id="edge28" class="edge">
<title>Node1&#45;&gt;Node20</title>
<path fill="none" stroke="#63b8ff" d="M203.79,-275.81C153.47,-264.92 76.48,-239.73 39.5,-184 19.82,-154.34 23.97,-110.73 28.75,-85.51"/>
<polygon fill="#63b8ff" stroke="#63b8ff" points="32.13,-86.46 30.8,-75.95 25.28,-84.99 32.13,-86.46"/>
</g>
<!-- Node3 -->
<g id="node3" class="node">
<title>Node3</title>
<g id="a_node3"><a xlink:href="Configuration_8h.html" target="_top" xlink:title=" ">
<polygon fill="white" stroke="#666666" points="171.5,-19 91.5,-19 91.5,0 171.5,0 171.5,-19"/>
<text text-anchor="middle" x="131.5" y="-7" font-family="Helvetica,sans-Serif" font-size="10.00">Configuration.h</text>
</a>
</g>
</g>
<!-- Node2&#45;&gt;Node3 -->
<g id="edge2" class="edge">
<title>Node2&#45;&gt;Node3</title>
<path fill="none" stroke="#63b8ff" d="M85.13,-164.74C92.75,-139.42 114.9,-65.72 125.59,-30.16"/>
<polygon fill="#63b8ff" stroke="#63b8ff" points="128.89,-31.34 128.42,-20.76 122.19,-29.33 128.89,-31.34"/>
</g>
<!-- Node4&#45;&gt;Node2 -->
<g id="edge18" class="edge">
<title>Node4&#45;&gt;Node2</title>
<path fill="none" stroke="#63b8ff" d="M222.83,-219.51C195.07,-210.8 152.75,-197.53 121.85,-187.84"/>
<polygon fill="#63b8ff" stroke="#63b8ff" points="123.06,-184.55 112.47,-184.9 120.97,-191.23 123.06,-184.55"/>
</g>
<!-- Node5 -->
<g id="node5" class="node">
<title>Node5</title>
<g id="a_node5"><a xlink:href="Callback_8h.html" target="_top" xlink:title=" ">
<polygon fill="white" stroke="#666666" points="396.5,-184 334.5,-184 334.5,-165 396.5,-165 396.5,-184"/>
<text text-anchor="middle" x="365.5" y="-172" font-family="Helvetica,sans-Serif" font-size="10.00">Callback.h</text>
</a>
</g>
</g>
<!-- Node4&#45;&gt;Node5 -->
<g id="edge4" class="edge">
<title>Node4&#45;&gt;Node5</title>
<path fill="none" stroke="#63b8ff" d="M270.84,-219.51C288.72,-211.2 315.54,-198.73 336.07,-189.18"/>
<polygon fill="#63b8ff" stroke="#63b8ff" points="337.48,-192.39 345.07,-185 334.53,-186.04 337.48,-192.39"/>
</g>
<!-- Node4&#45;&gt;Node15 -->
<g id="edge19" class="edge">
<title>Node4&#45;&gt;Node15</title>
<path fill="none" stroke="#63b8ff" d="M286.45,-219.51C321.03,-210.61 374.13,-196.95 411.99,-187.21"/>
<polygon fill="#63b8ff" stroke="#63b8ff" points="412.45,-190.7 421.26,-184.82 410.71,-183.93 412.45,-190.7"/>
</g>
<!-- Node16 -->
<g id="node16" class="node">
<title>Node16</title>
<g id="a_node16"><a xlink:href="API__Process__Type_8h.html" target="_top" xlink:title=" ">
<polygon fill="white" stroke="#666666" points="242.5,-184 134.5,-184 134.5,-165 242.5,-165 242.5,-184"/>
<text text-anchor="middle" x="188.5" y="-172" font-family="Helvetica,sans-Serif" font-size="10.00">API_Process_Type.h</text>
</a>
</g>
</g>
<!-- Node4&#45;&gt;Node16 -->
<g id="edge21" class="edge">
<title>Node4&#45;&gt;Node16</title>
<path fill="none" stroke="#63b8ff" d="M240.81,-219.51C231.8,-211.93 218.67,-200.88 207.82,-191.75"/>
<polygon fill="#63b8ff" stroke="#63b8ff" points="210.09,-189.09 200.19,-185.33 205.59,-194.45 210.09,-189.09"/>
</g>
<!-- Node18 -->
<g id="node18" class="node">
<title>Node18</title>
<g id="a_node18"><a xlink:title=" ">
<polygon fill="#e0e0e0" stroke="#999999" points="316.5,-184 260.5,-184 260.5,-165 316.5,-165 316.5,-184"/>
<text text-anchor="middle" x="288.5" y="-172" font-family="Helvetica,sans-Serif" font-size="10.00">algorithm</text>
</a>
</g>
</g>
<!-- Node4&#45;&gt;Node18 -->
<g id="edge23" class="edge">
<title>Node4&#45;&gt;Node18</title>
<path fill="none" stroke="#63b8ff" d="M257.61,-219.75C262.51,-212.73 269.55,-202.64 275.67,-193.87"/>
<polygon fill="#63b8ff" stroke="#63b8ff" points="278.54,-195.89 281.39,-185.68 272.8,-191.88 278.54,-195.89"/>
</g>
<!-- Node5&#45;&gt;Node3 -->
<g id="edge5" class="edge">
<title>Node5&#45;&gt;Node3</title>
<path fill="none" stroke="#63b8ff" d="M334.07,-166.5C308.03,-159.72 270.85,-147.68 242.5,-129 200.3,-101.19 162.76,-54.21 144.06,-28.55"/>
<polygon fill="#63b8ff" stroke="#63b8ff" points="146.97,-26.61 138.31,-20.5 141.27,-30.67 146.97,-26.61"/>
</g>
<!-- Node6 -->
<g id="node6" class="node">
<title>Node6</title>
<g id="a_node6"><a xlink:href="Array_8h.html" target="_top" xlink:title=" ">
<polygon fill="white" stroke="#666666" points="453,-129 406,-129 406,-110 453,-110 453,-129"/>
<text text-anchor="middle" x="429.5" y="-117" font-family="Helvetica,sans-Serif" font-size="10.00">Array.h</text>
</a>
</g>
</g>
<!-- Node5&#45;&gt;Node6 -->
<g id="edge6" class="edge">
<title>Node5&#45;&gt;Node6</title>
<path fill="none" stroke="#63b8ff" d="M376.36,-164.51C385.61,-156.85 399.12,-145.66 410.21,-136.47"/>
<polygon fill="#63b8ff" stroke="#63b8ff" points="412.17,-139.4 417.64,-130.32 407.7,-134.01 412.17,-139.4"/>
</g>
<!-- Node8 -->
<g id="node8" class="node">
<title>Node8</title>
<g id="a_node8"><a xlink:title=" ">
<polygon fill="#e0e0e0" stroke="#999999" points="276.5,-19 198.5,-19 198.5,0 276.5,0 276.5,-19"/>
<text text-anchor="middle" x="237.5" y="-7" font-family="Helvetica,sans-Serif" font-size="10.00">ArduinoJson.h</text>
</a>
</g>
</g>
<!-- Node5&#45;&gt;Node8 -->
<g id="edge15" class="edge">
<title>Node5&#45;&gt;Node8</title>
<path fill="none" stroke="#63b8ff" d="M334.49,-164.57C305.96,-155.72 266.57,-141.69 256.5,-129 234,-100.66 233.28,-56.24 235.15,-30.6"/>
<polygon fill="#63b8ff" stroke="#63b8ff" points="238.61,-31.17 236.08,-20.88 231.64,-30.5 238.61,-31.17"/>
</g>
<!-- Node13 -->
<g id="node13" class="node">
<title>Node13</title>
<g id="a_node13"><a xlink:title=" ">
<polygon fill="#e0e0e0" stroke="#999999" points="325,-129 266,-129 266,-110 325,-110 325,-129"/>
<text text-anchor="middle" x="295.5" y="-117" font-family="Helvetica,sans-Serif" font-size="10.00">functional</text>
</a>
</g>
</g>
<!-- Node5&#45;&gt;Node13 -->
<g id="edge16" class="edge">
<title>Node5&#45;&gt;Node13</title>
<path fill="none" stroke="#63b8ff" d="M353.63,-164.51C343.41,-156.77 328.43,-145.43 316.24,-136.2"/>
<polygon fill="#63b8ff" stroke="#63b8ff" points="318.49,-133.52 308.41,-130.27 314.27,-139.1 318.49,-133.52"/>
</g>
<!-- Node14 -->
<g id="node14" class="node">
<title>Node14</title>
<g id="a_node14"><a xlink:title=" ">
<polygon fill="#e0e0e0" stroke="#999999" points="387.5,-129 343.5,-129 343.5,-110 387.5,-110 387.5,-129"/>
<text text-anchor="middle" x="365.5" y="-117" font-family="Helvetica,sans-Serif" font-size="10.00">vector</text>
</a>
</g>
</g>
<!-- Node5&#45;&gt;Node14 -->
<g id="edge17" class="edge">
<title>Node5&#45;&gt;Node14</title>
<path fill="none" stroke="#63b8ff" d="M365.5,-164.75C365.5,-158.27 365.5,-149.16 365.5,-140.9"/>
<polygon fill="#63b8ff" stroke="#63b8ff" points="369,-140.96 365.5,-130.96 362,-140.96 369,-140.96"/>
</g>
<!-- Node7 -->
<g id="node7" class="node">
<title>Node7</title>
<g id="a_node7"><a xlink:href="Helper_8h.html" target="_top" xlink:title=" ">
<polygon fill="white" stroke="#666666" points="456,-74 403,-74 403,-55 456,-55 456,-74"/>
<text text-anchor="middle" x="429.5" y="-62" font-family="Helvetica,sans-Serif" font-size="10.00">Helper.h</text>
</a>
</g>
</g>
<!-- Node6&#45;&gt;Node7 -->
<g id="edge7" class="edge">
<title>Node6&#45;&gt;Node7</title>
<path fill="none" stroke="#63b8ff" d="M429.5,-109.75C429.5,-103.27 429.5,-94.16 429.5,-85.9"/>
<polygon fill="#63b8ff" stroke="#63b8ff" points="433,-85.96 429.5,-75.96 426,-85.96 433,-85.96"/>
</g>
<!-- Node10 -->
<g id="node10" class="node">
<title>Node10</title>
<g id="a_node10"><a xlink:title=" ">
<polygon fill="#e0e0e0" stroke="#999999" points="388,-19 337,-19 337,0 388,0 388,-19"/>
<text text-anchor="middle" x="362.5" y="-7" font-family="Helvetica,sans-Serif" font-size="10.00">assert.h</text>
</a>
</g>
</g>
<!-- Node6&#45;&gt;Node10 -->
<g id="edge14" class="edge">
<title>Node6&#45;&gt;Node10</title>
<path fill="none" stroke="#63b8ff" d="M421.7,-109.69C414.21,-100.98 402.84,-87.1 394.5,-74 385.47,-59.81 376.98,-42.73 371.02,-29.86"/>
<polygon fill="#63b8ff" stroke="#63b8ff" points="374.24,-28.48 366.94,-20.81 367.86,-31.36 374.24,-28.48"/>
</g>
<!-- Node7&#45;&gt;Node3 -->
<g id="edge8" class="edge">
<title>Node7&#45;&gt;Node3</title>
<path fill="none" stroke="#63b8ff" d="M402.53,-58.7C352.93,-49.88 246.48,-30.95 182.75,-19.61"/>
<polygon fill="#63b8ff" stroke="#63b8ff" points="183.7,-16.23 173.24,-17.92 182.47,-23.12 183.7,-16.23"/>
</g>
<!-- Node7&#45;&gt;Node8 -->
<g id="edge9" class="edge">
<title>Node7&#45;&gt;Node8</title>
<path fill="none" stroke="#63b8ff" d="M402.8,-56.13C371.33,-47.44 318.59,-32.88 281.15,-22.55"/>
<polygon fill="#63b8ff" stroke="#63b8ff" points="282.09,-19.18 271.52,-19.89 280.23,-25.93 282.09,-19.18"/>
</g>
<!-- Node9 -->
<g id="node9" class="node">
<title>Node9</title>
<g id="a_node9"><a xlink:title=" ">
<polygon fill="#e0e0e0" stroke="#999999" points="453,-19 406,-19 406,0 453,0 453,-19"/>
<text text-anchor="middle" x="429.5" y="-7" font-family="Helvetica,sans-Serif" font-size="10.00">iterator</text>
</a>
</g>
</g>
<!-- Node7&#45;&gt;Node9 -->
<g id="edge10" class="edge">
<title>Node7&#45;&gt;Node9</title>
<path fill="none" stroke="#63b8ff" d="M429.5,-54.75C429.5,-48.27 429.5,-39.16 429.5,-30.9"/>
<polygon fill="#63b8ff" stroke="#63b8ff" points="433,-30.96 429.5,-20.96 426,-30.96 433,-30.96"/>
</g>
<!-- Node7&#45;&gt;Node10 -->
<g id="edge11" class="edge">
<title>Node7&#45;&gt;Node10</title>
<path fill="none" stroke="#63b8ff" d="M418.13,-54.51C408.45,-46.85 394.3,-35.66 382.69,-26.47"/>
<polygon fill="#63b8ff" stroke="#63b8ff" points="384.9,-23.76 374.88,-20.3 380.56,-29.25 384.9,-23.76"/>
</g>
<!-- Node11 -->
<g id="node11" class="node">
<title>Node11</title>
<g id="a_node11"><a xlink:title=" ">
<polygon fill="#e0e0e0" stroke="#999999" points="522,-19 471,-19 471,0 522,0 522,-19"/>
<text text-anchor="middle" x="496.5" y="-7" font-family="Helvetica,sans-Serif" font-size="10.00">stdarg.h</text>
</a>
</g>
</g>
<!-- Node7&#45;&gt;Node11 -->
<g id="edge12" class="edge">
<title>Node7&#45;&gt;Node11</title>
<path fill="none" stroke="#63b8ff" d="M440.87,-54.51C450.55,-46.85 464.7,-35.66 476.31,-26.47"/>
<polygon fill="#63b8ff" stroke="#63b8ff" points="478.44,-29.25 484.12,-20.3 474.1,-23.76 478.44,-29.25"/>
</g>
<!-- Node12 -->
<g id="node12" class="node">
<title>Node12</title>
<g id="a_node12"><a xlink:title=" ">
<polygon fill="#e0e0e0" stroke="#999999" points="585,-19 540,-19 540,0 585,0 585,-19"/>
<text text-anchor="middle" x="562.5" y="-7" font-family="Helvetica,sans-Serif" font-size="10.00">stdio.h</text>
</a>
</g>
</g>
<!-- Node7&#45;&gt;Node12 -->
<g id="edge13" class="edge">
<title>Node7&#45;&gt;Node12</title>
<path fill="none" stroke="#63b8ff" d="M452.06,-54.51C473.4,-46.01 505.66,-33.15 529.81,-23.53"/>
<polygon fill="#63b8ff" stroke="#63b8ff" points="530.87,-26.87 538.87,-19.92 528.28,-20.37 530.87,-26.87"/>
</g>
<!-- Node15&#45;&gt;Node7 -->
<g id="edge20" class="edge">
<title>Node15&#45;&gt;Node7</title>
<path fill="none" stroke="#63b8ff" d="M460.33,-164.61C463.85,-152.09 468.67,-128.69 462.5,-110 459.2,-100 452.68,-90.42 446.31,-82.72"/>
<polygon fill="#63b8ff" stroke="#63b8ff" points="449.12,-80.61 439.84,-75.49 443.9,-85.28 449.12,-80.61"/>
</g>
<!-- Node17 -->
<g id="node17" class="node">
<title>Node17</title>
<g id="a_node17"><a xlink:title=" ">
<polygon fill="#e0e0e0" stroke="#999999" points="171.5,-129 123.5,-129 123.5,-110 171.5,-110 171.5,-129"/>
<text text-anchor="middle" x="147.5" y="-117" font-family="Helvetica,sans-Serif" font-size="10.00">stdint.h</text>
</a>
</g>
</g>
<!-- Node16&#45;&gt;Node17 -->
<g id="edge22" class="edge">
<title>Node16&#45;&gt;Node17</title>
<path fill="none" stroke="#63b8ff" d="M181.73,-164.75C176.18,-157.58 168.16,-147.2 161.27,-138.3"/>
<polygon fill="#63b8ff" stroke="#63b8ff" points="164.23,-136.41 155.34,-130.64 158.69,-140.69 164.23,-136.41"/>
</g>
<!-- Node19&#45;&gt;Node5 -->
<g id="edge25" class="edge">
<title>Node19&#45;&gt;Node5</title>
<path fill="none" stroke="#63b8ff" d="M369.67,-219.75C369.06,-213.27 368.2,-204.16 367.42,-195.9"/>
<polygon fill="#63b8ff" stroke="#63b8ff" points="370.91,-195.58 366.49,-185.95 363.94,-196.23 370.91,-195.58"/>
</g>
<!-- Node19&#45;&gt;Node15 -->
<g id="edge26" class="edge">
<title>Node19&#45;&gt;Node15</title>
<path fill="none" stroke="#63b8ff" d="M385.26,-219.51C398.46,-211.47 418.06,-199.53 433.51,-190.11"/>
<polygon fill="#63b8ff" stroke="#63b8ff" points="434.95,-193.34 441.67,-185.15 431.31,-187.36 434.95,-193.34"/>
</g>
<!-- Node20&#45;&gt;Node3 -->
<g id="edge29" class="edge">
<title>Node20&#45;&gt;Node3</title>
<path fill="none" stroke="#63b8ff" d="M50.12,-54.51C65.28,-46.31 87.92,-34.07 105.47,-24.58"/>
<polygon fill="#63b8ff" stroke="#63b8ff" points="106.66,-27.91 113.79,-20.08 103.33,-21.76 106.66,-27.91"/>
</g>
<!-- Node20&#45;&gt;Node8 -->
<g id="edge30" class="edge">
<title>Node20&#45;&gt;Node8</title>
<path fill="none" stroke="#63b8ff" d="M67.19,-54.75C101.38,-45.86 154.54,-32.05 192.36,-22.23"/>
<polygon fill="#63b8ff" stroke="#63b8ff" points="192.82,-25.72 201.62,-19.82 191.06,-18.95 192.82,-25.72"/>
</g>
<!-- Node21 -->
<g id="node21" class="node">
<title>Node21</title>
<g id="a_node21"><a xlink:title=" ">
<polygon fill="#e0e0e0" stroke="#999999" points="64.5,-19 2.5,-19 2.5,0 64.5,0 64.5,-19"/>
<text text-anchor="middle" x="33.5" y="-7" font-family="Helvetica,sans-Serif" font-size="10.00">type_traits</text>
</a>
</g>
</g>
<!-- Node20&#45;&gt;Node21 -->
<g id="edge31" class="edge">
<title>Node20&#45;&gt;Node21</title>
<path fill="none" stroke="#63b8ff" d="M33.5,-54.75C33.5,-48.27 33.5,-39.16 33.5,-30.9"/>
<polygon fill="#63b8ff" stroke="#63b8ff" points="37,-30.96 33.5,-20.96 30,-30.96 37,-30.96"/>
</g>
</g>
</svg>
